<?xml version="1.0" standalone="no"?>
<!DOCTYPE svg PUBLIC "-//W3C//DTD SVG 1.1//EN" "http://www.w3.org/Graphics/SVG/1.1/DTD/svg11.dtd" >
<svg xmlns="http://www.w3.org/2000/svg">
<metadata></metadata>
<defs>
<font id="chevin_std_lightitalic" horiz-adv-x="1146" >
<font-face units-per-em="2048" ascent="1536" descent="-512" />
<missing-glyph horiz-adv-x="589" />
<glyph unicode="fi" horiz-adv-x="923" d="M117 47l2 16l162 838h-64q-27 0 -43 19q-14 14 -14 36q0 27 19.5 45.5t49.5 18.5h74l35 178q27 144 109 217.5t210 73.5h54q28 0 47 -19q14 -14 14 -36q0 -28 -21 -48t-53 -20h-39q-158 0 -196 -190l-31 -156h129q29 0 45 -16q15 -18 15 -37q0 -28 -20 -47t-50 -19h-141 l-164 -852q-4 -28 -23 -44.5t-45 -16.5t-43.5 16t-17.5 43zM592 47l2 16l176 908q4 28 23 44.5t45 16.5q24 0 41.5 -16t17.5 -43v-17l-176 -907q-4 -28 -23 -44.5t-45 -16.5t-43.5 16t-17.5 43zM829 1376q0 32 24 56t58 24q33 0 56.5 -23.5t23.5 -56.5q0 -34 -23 -58 t-57 -24t-58 24t-24 58z" />
<glyph unicode="fl" horiz-adv-x="954" d="M117 47l2 16l162 838h-64q-27 0 -43 19q-14 14 -14 36q0 27 19.5 45.5t49.5 18.5h74l35 178q27 144 109 217.5t210 73.5h54q28 0 47 -19q14 -14 14 -36q0 -28 -21 -48t-53 -20h-39q-158 0 -196 -190l-31 -156h129q29 0 45 -16q15 -18 15 -37q0 -28 -20 -47t-50 -19h-141 l-164 -852q-4 -28 -23 -44.5t-45 -16.5t-43.5 16t-17.5 43zM607 117.5q-5 54.5 14 154.5l221 1151q6 29 25 45.5t44 16.5q24 0 42 -16.5t18 -43.5q0 -12 -2 -16l-226 -1178q-11 -67 -4 -92t37 -45q31 -21 25 -53q-10 -53 -72 -53q-45 0 -88 43q-29 32 -34 86.5z" />
<glyph unicode=" "  horiz-adv-x="589" />
<glyph unicode="&#x09;" horiz-adv-x="589" />
<glyph unicode="&#xa0;" horiz-adv-x="589" />
<glyph unicode="!" horiz-adv-x="546" d="M127 88q0 43 33 75t78 32q43 0 74.5 -32t31.5 -75q0 -46 -31.5 -78.5t-74.5 -32.5q-46 0 -78.5 32.5t-32.5 78.5zM248 465l170 967q5 34 29 57.5t61 23.5q39 0 56 -26.5t9 -59.5l-202 -970q-16 -68 -72 -68q-30 0 -43.5 21t-7.5 55z" />
<glyph unicode="&#x22;" horiz-adv-x="653" d="M276 1176l35 258q5 34 26.5 56.5t57.5 22.5q35 0 49.5 -26.5t6.5 -59.5l-66 -260q-12 -63 -63 -63q-27 0 -39 20t-7 52zM592 1176l37 258q3 33 24.5 56t57.5 23q35 0 49 -26.5t6 -59.5l-64 -260q-15 -63 -65 -63q-52 0 -45 72z" />
<glyph unicode="#" horiz-adv-x="1497" d="M94 451q0 29 21 48t53 19h260l150 451h-228q-29 0 -47 18q-14 14 -14 39q0 29 20.5 48.5t52.5 19.5h256l117 352q10 31 33 48t49 17q28 0 43.5 -16.5t11.5 -46.5q0 -4 -4 -16l-112 -338h397l117 352q10 31 33 48t49 17q28 0 43.5 -16.5t11.5 -46.5q0 -4 -4 -16l-113 -338 h230q31 0 47 -19q14 -14 14 -39q0 -28 -21 -47.5t-53 -19.5h-258l-149 -451h225q29 0 47 -18q14 -14 14 -39q0 -29 -20.5 -48.5t-52.5 -19.5h-254l-117 -346q-10 -31 -32.5 -48t-49.5 -17q-26 0 -42 16.5t-13 46.5q1 2 2 7.5t2 8.5l111 332h-396l-116 -346 q-10 -31 -32.5 -48t-49.5 -17q-26 0 -42.5 17t-13.5 46q1 2 2 7.5t2 8.5l111 332h-229q-31 0 -47 19q-15 15 -15 39zM565 518h398l149 451h-397z" />
<glyph unicode="$" horiz-adv-x="1118" d="M76 106q0 26 17.5 46t45.5 20q14 0 29 -6q139 -64 283 -64q217 0 332.5 85t115.5 221q0 37 -9.5 68.5t-23 55.5t-38.5 46t-47 36.5t-58.5 32t-61 27.5t-67 26.5t-66.5 26.5q-65 26 -111 53t-90.5 70t-67.5 105t-23 143q0 179 131 286t331 123l31 156q4 25 22 39t40 14 q23 0 38 -13.5t15 -37.5q0 -3 -1 -8.5t-1 -7.5l-29 -140q129 -6 244 -55q43 -21 43 -57q0 -29 -18.5 -49.5t-47.5 -20.5q-13 0 -28 6q-116 53 -242 53q-177 0 -285 -78.5t-108 -201.5q0 -36 9.5 -68t23 -56t39.5 -47t47.5 -38.5t58.5 -33.5t61.5 -28.5t67.5 -27.5 q50 -20 75.5 -30.5t70 -32.5t68.5 -40.5t55.5 -49.5t47.5 -64t27.5 -79t11.5 -99q0 -193 -141.5 -304.5t-374.5 -127.5l-26 -148q-4 -24 -21.5 -39.5t-38.5 -15.5q-22 0 -37.5 14.5t-15.5 38.5q0 10 2 14l25 136q-157 6 -289 65q-41 20 -41 61z" />
<glyph unicode="%" horiz-adv-x="1138" d="M205.5 19.5q-5.5 20.5 5.5 37.5l809 1430q10 19 30.5 24t39.5 -6q18 -11 23 -29.5t-5 -37.5l-811 -1430q-11 -18 -30 -23t-38 5q-18 9 -23.5 29.5zM285 1111q-4 51 10 101l18 88q51 213 256 213q46 0 80.5 -15.5t54.5 -41.5t30.5 -60t10 -71.5t-9.5 -75.5l-24 -110 q-23 -99 -79.5 -156t-168.5 -57q-59 0 -100 26t-57.5 67t-20.5 92zM387 1192q-18 -81 5.5 -128.5t76.5 -47.5q69 0 101 37t48 106l23 107q17 70 -5 113.5t-75 43.5q-71 0 -105 -38t-48 -105zM576.5 189q0.5 40 9.5 81l20 88q47 211 256 211q46 0 80.5 -15.5t54.5 -41.5 t30.5 -60t10 -70.5t-9.5 -74.5l-24 -110q-23 -99 -79.5 -156t-168.5 -57q-47 0 -83 17t-56.5 45.5t-30.5 65.5t-9.5 77zM680 250q-18 -81 5.5 -128.5t76.5 -47.5q69 0 100 36t49 105l23 109q17 67 -6 111t-74 44q-70 0 -104 -37t-50 -104z" />
<glyph unicode="&#x26;" horiz-adv-x="1263" d="M111 367q0 70 25 135t60.5 112t93.5 95.5t102.5 78.5t109.5 68q-63 107 -88 174.5t-25 130.5q0 156 106 254t261 98q116 0 206.5 -53t90.5 -127q0 -28 -15 -43.5t-43 -15.5q-18 0 -34.5 12t-33.5 29t-39 33.5t-60 28.5t-87 12q-89 0 -156 -60t-67 -151q0 -61 22 -115.5 t107 -196.5l305 -506q107 166 133 328q10 64 64 64q25 0 44 -17t19 -45q0 -26 -12 -72q-28 -114 -68.5 -204.5t-107.5 -175.5l80 -134q22 -35 22 -67q0 -26 -17 -40.5t-46 -14.5q-23 0 -37 11t-33 42l-63 106q-180 -159 -428 -159q-191 0 -291 108t-100 277zM240 373 q0 -121 67 -194t201 -73q209 0 356 144l-301 504q-323 -174 -323 -381z" />
<glyph unicode="'" horiz-adv-x="350" d="M283 1163l36 269q3 32 27 55.5t62 23.5q37 0 51 -23.5t4 -55.5l-66 -269q-16 -61 -69 -61q-55 0 -45 61z" />
<glyph unicode="(" horiz-adv-x="559" d="M141 473q-21 699 394 1180q20 23 48 25.5t50 -17.5q21 -21 21 -46.5t-21 -49.5q-378 -445 -357 -1082q10 -376 146 -747q13 -39 4 -68t-31 -37q-28 -12 -53.5 -0.5t-36.5 39.5q-65 169 -111 379t-53 424z" />
<glyph unicode=")" horiz-adv-x="559" d="M30 -317.5q0 25.5 21 49.5q378 448 357 1083q-11 379 -146 746q-13 40 -4 69t31 37q28 11 54 -0.5t36 -40.5q65 -170 111 -378.5t53 -422.5q21 -700 -393 -1179q-20 -23 -48.5 -25.5t-50.5 17.5q-21 19 -21 44.5z" />
<glyph unicode="*" horiz-adv-x="978" d="M276 1231q10 29 35 39t49 -2l252 -94l-12 268q-2 28 15 48.5t49 20.5t48 -20.5t13 -48.5l-12 -268l254 94q23 12 48.5 2t35.5 -39q9 -31 -5.5 -53.5t-41.5 -28.5l-261 -70l168 -211q19 -19 17.5 -46t-27.5 -46q-29 -19 -52.5 -12.5t-37.5 31.5l-147 225l-150 -225 q-13 -25 -37 -31.5t-53 12.5q-26 19 -27.5 46t17.5 46l168 211l-260 70q-27 7 -41.5 29.5t-4.5 52.5z" />
<glyph unicode="+" horiz-adv-x="1091" d="M182 553q0 30 20.5 49t53.5 19h287l57 301q6 28 25 44.5t43 16.5q26 0 43.5 -16t17.5 -43q0 -11 -2 -17l-55 -286h274q30 0 47 -17q15 -17 15 -39q0 -29 -21 -48t-53 -19h-287l-57 -301q-6 -29 -25 -45.5t-43 -16.5q-26 0 -43.5 16.5t-17.5 43.5q0 12 2 16l55 287h-274 q-32 0 -47 18q-15 15 -15 37z" />
<glyph unicode="," horiz-adv-x="487" d="M66 -178q1 17 16.5 32t34 26.5t37 37t24.5 59.5q-43 8 -69.5 42.5t-20.5 78.5q5 46 40.5 75.5t80.5 23.5q51 -4 76.5 -48t17.5 -108q-6 -54 -24.5 -99.5t-42.5 -74t-51 -49t-50 -28.5t-39 -7q-14 2 -22.5 12t-7.5 27z" />
<glyph unicode="-" horiz-adv-x="987" d="M207 594q0 29 21 48.5t53 19.5h514q28 0 47 -19q14 -14 14 -37q0 -29 -21 -49t-53 -20h-514q-32 0 -47 18q-14 16 -14 39z" />
<glyph unicode="." horiz-adv-x="493" d="M86 88q0 43 32.5 75t76.5 32t75 -32t31 -75q0 -46 -31 -78.5t-75 -32.5t-76.5 32.5t-32.5 78.5z" />
<glyph unicode="/" horiz-adv-x="579" d="M-81 -76.5q-9 24.5 1 49.5l739 1602q12 24 36.5 33t49.5 -2q23 -12 32 -36.5t-1 -49.5l-739 -1602q-12 -24 -36.5 -33t-49.5 2q-23 12 -32 36.5z" />
<glyph unicode="0" d="M152 420q0 90 24 217l49 244q14 72 29.5 131t40.5 126t54.5 119.5t73 102t95.5 82t121.5 52t151.5 19.5q96 0 167.5 -35t113 -97t61.5 -139t20 -169q0 -100 -20 -194l-56 -283q-20 -101 -44 -180.5t-68.5 -164.5t-102 -141t-146.5 -92t-200 -36q-97 0 -168.5 34 t-113.5 95t-62 138t-20 171zM287 412q0 -142 59 -222.5t176 -80.5q81 0 145.5 26.5t108 69.5t77 112t54 139.5t39.5 166.5l55 282q19 97 19 176q0 141 -59.5 222t-176.5 81q-83 0 -148 -28t-108 -72t-77 -117t-54 -143t-41 -170l-47 -238q-22 -116 -22 -204z" />
<glyph unicode="1" d="M106 57q0 31 21 50.5t55 19.5h353l229 1186l-424 -273l-14 -6q-25 -10 -47 0.5t-31 34.5q-17 51 33 86l518 332q44 26 69 26q27 0 42.5 -16.5t15.5 -46.5q0 -12 -2 -18l-252 -1305h205q32 0 47 -18q16 -16 16 -39q0 -29 -22.5 -49.5t-55.5 -20.5h-692q-31 0 -49 18 q-15 17 -15 39z" />
<glyph unicode="2" d="M133 55q0 79 50 186.5t159 207.5q75 73 237.5 190.5t233.5 185.5q90 82 131 150.5t41 144.5q0 128 -69 197t-187 69q-119 0 -215 -55q-20 -10 -45.5 -26t-40 -22.5t-29.5 -6.5q-27 0 -43 17t-16 42q0 35 29 58q162 120 370 120q169 0 274 -105.5t105 -283.5 q0 -87 -34 -164.5t-108 -151.5t-126 -116t-153 -114q-19 -14 -29 -21q-179 -129 -263 -221t-120 -207h610q29 0 49 -20q14 -14 14 -39q0 -30 -21 -50t-54 -20h-684q-32 0 -49 15.5t-17 39.5z" />
<glyph unicode="3" d="M109 160q0 26 17.5 44.5t43.5 18.5q15 0 28 -8.5t34 -26t42 -30.5q48 -30 99.5 -41t124.5 -11q174 0 271 97t97 231q0 63 -20.5 111.5t-53 77.5t-79 47.5t-92.5 25t-99 6.5h-12q-30 0 -47 18.5t-17 43.5q0 27 18.5 45t47.5 18h80q56 0 115.5 20t111.5 56.5t85.5 96.5 t33.5 133q0 49 -15.5 93.5t-46 81.5t-82.5 59t-120 22q-157 0 -264 -91q-25 -14 -41 -14q-26 0 -45 20.5t-19 47.5q0 28 25 45q137 116 350 116q97 0 174 -32.5t122.5 -86t69 -118t23.5 -133.5q0 -142 -77.5 -238t-194.5 -145q204 -85 204 -330q0 -88 -34.5 -168.5t-97 -143 t-160 -99.5t-215.5 -37q-191 0 -297 73q-36 24 -62 53t-26 52z" />
<glyph unicode="4" d="M117 373q0 22 10 37l676 1067q21 34 61 34q28 0 46 -17t18 -46q0 -21 -17 -45l-614 -967h426l63 326q4 30 23 46.5t45 16.5t43.5 -16.5t17.5 -44.5q0 -10 -2 -16l-59 -312h121q29 0 45 -16q16 -19 16 -41q0 -30 -20.5 -50t-52.5 -20h-134l-51 -266q-6 -29 -25 -45 t-44 -16t-43.5 15.5t-18.5 43.5l2 16l49 252h-516q-34 0 -51 21q-14 17 -14 43z" />
<glyph unicode="5" d="M139 123q1 30 20 46.5t46 16.5q24 0 39 -12q94 -68 227 -68q101 0 181.5 36t129.5 95.5t75 132t26 150.5q0 262 -236 262q-63 0 -115 -21t-79.5 -46.5t-56 -46.5t-50.5 -21q-27 0 -43 15t-16 43q0 10 2 16l160 709q6 30 26.5 46.5t48.5 16.5h525q31 0 47 -16t16 -41 q0 -31 -21.5 -51.5t-54.5 -20.5h-471l-119 -524q94 65 220 65q165 0 258.5 -94t93.5 -287q0 -77 -21 -153t-65.5 -146.5t-107.5 -124.5t-155 -86t-200 -32q-182 0 -297 81q-33 23 -33 60z" />
<glyph unicode="6" d="M150 524q6 116 48 233t106.5 217t152 196t178.5 172.5t190 142.5q21 14 49 14q28 -2 46.5 -19.5t17.5 -45.5q-4 -36 -31 -54q-169 -112 -312 -255t-216 -300q142 86 287 78q170 -8 271 -127.5t89 -326.5q-7 -146 -74 -255t-177 -163t-245 -47q-180 9 -286.5 152 t-93.5 388zM285 516q-10 -194 64.5 -297t193.5 -108q145 -8 243 85t107 259q9 152 -63.5 235.5t-188.5 89.5q-167 9 -330 -112q-23 -81 -26 -152z" />
<glyph unicode="7" d="M289 41q0 23 12 41l752 1284h-670q-31 0 -47 16q-17 17 -17 41q0 30 21.5 51t54.5 21h779q25 0 41 -14.5t16 -42.5q0 -27 -19 -54l-794 -1364q-18 -38 -66 -38q-30 0 -46.5 16t-16.5 43z" />
<glyph unicode="8" d="M117 352q0 50 13.5 95t33.5 79.5t52 67.5t61.5 55t69 45.5t67 37t64.5 31t52 25.5q-5 4 -17 11q-35 23 -55.5 37.5t-55.5 48t-55 66.5t-36 84.5t-16 109.5q0 155 128 261.5t314 106.5q165 0 273 -90t108 -266q0 -41 -11 -79.5t-27 -67.5t-42 -57.5t-49.5 -47.5t-56 -40 t-53.5 -32.5t-51.5 -27t-41.5 -21.5q8 -5 37 -22t45 -27t45 -32t47 -41t40.5 -48.5t35.5 -59.5t22 -70.5t9 -84.5q0 -181 -142 -299t-380 -118q-194 0 -312 104.5t-116 265.5zM252 360q0 -107 80 -181.5t215 -74.5q186 0 286.5 85t100.5 214q0 59 -21.5 106.5t-69 87 t-79.5 59t-95 53.5q-15 8 -22 12q-50 -21 -76.5 -32t-75 -35t-76.5 -42.5t-64 -47.5t-55.5 -58t-33.5 -67t-14 -79zM424 1139q0 -140 155 -238q25 -16 91 -51q9 4 38.5 17t49 22t51 26t53.5 32.5t47.5 39t41 47t26 54t10.5 63.5q0 117 -69 178.5t-185 61.5 q-135 0 -222 -75.5t-87 -176.5z" />
<glyph unicode="9" d="M289 1022q5 146 70 256t173.5 166t243.5 51q182 -6 291 -146.5t102 -387.5q-4 -116 -44 -233.5t-103.5 -218.5t-149 -198t-175 -175t-187.5 -146q-24 -17 -51 -17q-29 3 -46.5 20.5t-17.5 45.5q0 33 33 53q166 116 305.5 261.5t210.5 303.5q-135 -88 -287 -84 q-169 6 -271.5 124t-96.5 325zM424 1020q-6 -155 67 -237t191 -87q167 -6 328 119q21 76 24 152q6 195 -69.5 296.5t-196.5 106.5q-143 5 -240.5 -90t-103.5 -260z" />
<glyph unicode=":" horiz-adv-x="493" d="M86 88q0 43 32.5 75t76.5 32t75 -32t31 -75q0 -46 -31 -78.5t-75 -32.5t-76.5 32.5t-32.5 78.5zM252 922q0 43 32 74.5t76 31.5t75.5 -31.5t31.5 -74.5q0 -46 -31.5 -78.5t-75.5 -32.5t-76 32.5t-32 78.5z" />
<glyph unicode=";" horiz-adv-x="493" d="M66 -178q1 17 16.5 32t34 26.5t37 37t24.5 59.5q-43 8 -69.5 42.5t-20.5 78.5q4 46 39.5 75t81.5 24q52 -6 77 -49t17 -107q-6 -54 -24.5 -99.5t-42.5 -74t-51 -49t-50 -28.5t-39 -7q-14 2 -22.5 12t-7.5 27zM252 922q0 43 32 74.5t76 31.5t75.5 -31.5t31.5 -74.5 q0 -46 -31.5 -78.5t-75.5 -32.5t-76 32.5t-32 78.5z" />
<glyph unicode="&#x3c;" horiz-adv-x="1097" d="M174 565q6 35 41 53l789 381q29 13 54 7.5t34 -27.5q9 -24 -2 -47t-39 -35l-711 -342l569 -338q25 -13 34.5 -35t-3.5 -49q-14 -22 -41.5 -24t-46.5 12l-645 381q-39 24 -33 63z" />
<glyph unicode="=" horiz-adv-x="1097" d="M184 373q0 30 21.5 49.5t54.5 19.5h676q32 0 47 -18q14 -14 14 -39q0 -29 -20.5 -48.5t-52.5 -19.5h-676q-30 0 -49 19q-15 15 -15 37zM256 739q0 30 21 50t53 20h678q29 0 47 -18q14 -16 14 -39q0 -29 -21 -48.5t-53 -19.5h-678q-28 0 -47 16q-14 16 -14 39z" />
<glyph unicode="&#x3e;" horiz-adv-x="1097" d="M166 141q-9 24 1.5 46.5t37.5 35.5l713 344l-572 338q-24 13 -33 33.5t4 46.5q14 24 42 26t47 -12l645 -381q38 -23 32 -63q-6 -37 -43 -53l-786 -379q-31 -15 -55.5 -9.5t-32.5 27.5z" />
<glyph unicode="?" horiz-adv-x="997" d="M303 1339q0 39 37 58q85 62 167.5 87t178.5 25q143 0 244.5 -91t101.5 -259q0 -56 -16 -106.5t-38.5 -87t-65 -78.5t-76.5 -69t-93 -70q-110 -80 -150 -139t-61 -148q-12 -55 -63 -55q-27 0 -45 17.5t-14 49.5q20 106 71 183t168 163q70 52 107.5 83t75.5 72.5t53.5 83 t15.5 91.5q0 116 -65.5 176.5t-163.5 60.5q-143 0 -269 -96q-20 -10 -36 -10q-29 0 -46.5 17t-17.5 42zM311 88q0 43 32.5 75t76.5 32t75 -32t31 -75q0 -46 -31 -78.5t-75 -32.5t-76.5 32.5t-32.5 78.5z" />
<glyph unicode="@" horiz-adv-x="1640" d="M180 618q0 114 28.5 225t88 212t144 177.5t204.5 121.5t260 45q151 0 272 -35.5t199.5 -94t131 -139t74.5 -166t22 -178.5q0 -122 -46 -229.5t-131.5 -174.5t-191.5 -67q-154 0 -201 148q-103 -144 -262 -144q-54 0 -95.5 22t-65.5 59.5t-36 82.5t-12 95q0 62 15.5 124.5 t47.5 120.5t75.5 103.5t104.5 72.5t130 27q120 0 221 -37q45 -15 35 -67l-43 -193q-25 -107 -25 -166q0 -147 115 -147q107 0 183.5 108t76.5 260q0 79 -18 150.5t-61 139t-109 116.5t-169.5 78.5t-234.5 29.5q-122 0 -225.5 -40t-175.5 -106.5t-122.5 -154.5t-74.5 -183 t-24 -193q0 -97 18.5 -181t61.5 -159.5t108 -128.5t162.5 -84t220.5 -31q89 0 207 24q16 3 33.5 7.5t27.5 7t17 2.5q23 0 37 -15.5t14 -35.5q0 -41 -47 -52q-135 -38 -289 -38q-141 0 -255.5 36.5t-191.5 99t-129.5 149.5t-76 186t-23.5 210zM674 582q0 -71 29 -110.5 t81 -39.5q94 0 158 72t88 180l47 219q-75 21 -143 21q-75 0 -136.5 -52.5t-92.5 -130t-31 -159.5z" />
<glyph unicode="A" horiz-adv-x="1134" d="M-2 70q289 676 674 1364q44 75 100 75q30 0 48 -16t28 -61q155 -703 205 -1371v-10q-1 -31 -17 -49q-20 -22 -53 -22q-57 0 -63 57q-6 79 -33 328h-617q-24 -54 -147 -332q-23 -53 -74 -53q-33 0 -49 26q-9 14 -9 31q0 15 7 33zM330 492h544q-54 405 -137 796 q-233 -423 -407 -796z" />
<glyph unicode="B" horiz-adv-x="1251" d="M129 63q0 11 2 17l258 1345q6 33 27 51.5t51 18.5h336q112 0 195.5 -26.5t131 -73.5t70.5 -104t23 -124q0 -48 -4 -73l-11 -58q-36 -200 -247 -274q192 -68 192 -277q0 -35 -2 -53l-8 -55q-25 -173 -150.5 -275t-367.5 -102h-432q-26 0 -45 17t-19 46zM276 127h357 q337 0 379 266l6 51q2 14 2 44q0 110 -84 158q-85 48 -231 48h-318zM410 817h292q97 0 172 22t130 75t71 135l6 43q4 18 4 63q0 42 -13.5 77.5t-44 67.5t-89.5 50t-141 18h-281z" />
<glyph unicode="C" horiz-adv-x="1089" d="M186 430q0 88 19 193l53 290q27 147 73 254.5t118.5 187t178.5 119t246 39.5q117 0 220 -49q82 -43 82 -86q0 -25 -19.5 -45t-46.5 -20q-11 0 -20.5 4.5t-24 14t-29.5 16.5q-77 41 -164 41q-95 0 -170.5 -27t-126 -71.5t-88.5 -113t-60.5 -140.5t-39.5 -165l-49 -274 q-16 -101 -16 -172q0 -320 305 -320q114 0 237 68q14 8 30 18.5t25 16.5t19 10t20 4q27 0 44.5 -19.5t17.5 -45.5q0 -40 -72 -84q-157 -92 -327 -92q-118 0 -204 34.5t-135.5 97t-72.5 141t-23 175.5z" />
<glyph unicode="D" horiz-adv-x="1290" d="M129 63q0 11 2 17l258 1345q7 33 28.5 51.5t49.5 18.5h344q108 0 190.5 -30t132.5 -78t81.5 -114.5t43 -131.5t11.5 -137q0 -82 -21 -197l-49 -250q-109 -557 -633 -557h-374q-26 0 -45 17t-19 46zM276 127h293q102 0 182.5 27t132 69t90 105.5t58.5 124t35 137.5l51 258 q17 77 17 151q0 61 -9.5 112.5t-33.5 99t-61 81t-95.5 53t-134.5 19.5h-285z" />
<glyph unicode="E" horiz-adv-x="1089" d="M129 63q0 11 2 17l258 1345q7 33 28.5 51.5t49.5 18.5h674q13 0 33 -12q30 -15 30 -47q0 -30 -21.5 -50t-54.5 -20h-612l-108 -557h546q18 0 31 -10q31 -14 31 -47q0 -29 -21 -48.5t-53 -19.5h-557l-109 -555h631q8 0 33 -10q31 -19 31 -49q0 -29 -22.5 -49.5 t-55.5 -20.5h-700q-26 0 -45 17t-19 46z" />
<glyph unicode="F" horiz-adv-x="1038" d="M129 45q0 10 2 16l262 1364q6 33 27 51.5t49 18.5h657q17 0 33 -12q31 -14 31 -47q0 -30 -21.5 -50t-54.5 -20h-596l-106 -557h487q16 0 33 -10q31 -15 31 -47q0 -29 -21 -48.5t-55 -19.5h-500l-123 -637q-6 -30 -25 -47.5t-46 -17.5t-45.5 16.5t-18.5 46.5z" />
<glyph unicode="G" horiz-adv-x="1218" d="M186 412q0 82 21 211l55 288q28 147 73.5 255.5t116 187.5t172 119t234.5 40q197 0 311 -131q17 -24 17 -45q0 -26 -19 -44.5t-47 -18.5q-14 0 -24.5 7t-29.5 24.5t-40 31.5q-73 49 -170 49q-194 0 -302.5 -119t-158.5 -380l-55 -289q-18 -102 -18 -186q0 -303 274 -303 q157 0 259.5 99t143.5 300l23 113h-270q-16 0 -33 10q-31 17 -31 47q0 29 22 48t54 19h342q15 0 31 -8q30 -18 30 -49l-2 -26l-35 -170q-48 -243 -186 -376.5t-354 -133.5q-200 0 -302 112.5t-102 317.5z" />
<glyph unicode="H" horiz-adv-x="1335" d="M129 45q0 10 2 16l266 1387q6 30 26 47.5t46 17.5q27 0 46.5 -17.5t19.5 -45.5l-3 -18l-122 -637h704l125 653q6 30 26 47.5t46 17.5q27 0 46 -17.5t19 -45.5l-2 -18l-268 -1385q-4 -30 -24.5 -47.5t-47.5 -17.5q-26 0 -44.5 17t-18.5 46q0 10 2 16l117 611h-705 l-121 -625q-4 -30 -24 -47.5t-47 -17.5q-26 0 -45 17t-19 46z" />
<glyph unicode="I" horiz-adv-x="489" d="M129 45q0 10 2 16l266 1387q6 30 26 47.5t46 17.5q27 0 46.5 -17.5t19.5 -45.5l-3 -18l-268 -1385q-4 -30 -24 -47.5t-47 -17.5q-26 0 -45 17t-19 46z" />
<glyph unicode="J" horiz-adv-x="872" d="M-29 57q0 29 17 48.5t47 19.5q5 0 21 -3t46.5 -6t69.5 -3q199 0 303 97t148 327l176 911q6 30 26 47.5t45 17.5q27 0 46.5 -17.5t19.5 -45.5l-2 -18l-178 -920q-53 -274 -192 -403t-392 -129q-94 0 -158 20q-43 14 -43 57z" />
<glyph unicode="K" horiz-adv-x="1138" d="M129 45q0 10 2 16l266 1387q6 30 26 47.5t46 17.5q27 0 46.5 -17.5t19.5 -45.5l-3 -18l-139 -721l774 778q27 25 53 25l37 -13q21 -13 26 -37q1 -6 1 -13q0 -18 -10 -36l-14 -14l-574 -563q210 -404 340 -766q5 -14 5 -26q-1 -22 -15 -38q-22 -26 -55 -26q-47 0 -62 45 q-133 360 -315 712l-230 -227l-90 -465q-4 -30 -24 -47.5t-47 -17.5q-26 0 -45 17t-19 46z" />
<glyph unicode="L" horiz-adv-x="1028" d="M129 63q0 11 2 17l262 1364q6 33 26.5 51t49.5 18q27 0 44 -17t17 -46q0 -12 -2 -18l-252 -1305h631q11 0 31 -10q31 -17 31 -47t-21.5 -50t-54.5 -20h-700q-26 0 -45 17t-19 46z" />
<glyph unicode="M" horiz-adv-x="1572" d="M129 43q0 10 2 16l268 1391q11 63 70 63q55 0 72 -57l266 -1020l663 1030q28 47 80 47q29 0 47.5 -16.5t18.5 -44.5q0 -12 -2 -18l-268 -1389q-4 -30 -24 -46.5t-46 -16.5t-44 16.5t-18 44.5q0 7 3 16l221 1145l-596 -921q-22 -37 -62 -37q-45 0 -57 47l-240 913 l-223 -1161q-6 -30 -25 -46.5t-45 -16.5t-43.5 16.5t-17.5 44.5z" />
<glyph unicode="N" horiz-adv-x="1345" d="M125 43q0 2 1 7.5t1 8.5l268 1387q11 67 76 67q43 0 64 -53l491 -1204l229 1190q16 67 76 67q25 0 41.5 -17t16.5 -44q0 -9 -3 -18l-266 -1389q-12 -63 -73 -63q-48 0 -68 47l-492 1206l-229 -1190q-6 -30 -25 -46.5t-45 -16.5t-44.5 16.5t-18.5 44.5z" />
<glyph unicode="O" horiz-adv-x="1245" d="M186 436q0 90 21 213l41 228q19 103 42.5 184.5t69.5 170t107 147t156.5 96.5t216.5 38q84 0 151.5 -25t112 -67.5t74 -102t42.5 -125.5t13 -142q0 -75 -19 -183l-47 -264q-18 -102 -42 -183t-69.5 -166.5t-106.5 -142.5t-155.5 -93.5t-213.5 -36.5q-85 0 -152.5 23.5 t-112 64t-74 98.5t-42.5 124.5t-13 143.5zM324 438q0 -155 63 -241t195 -86q90 0 161 27.5t117.5 71.5t81.5 112t55 137t35 159l49 279q15 83 15 160q0 145 -65 236t-193 91q-92 0 -164 -28.5t-119 -74.5t-82.5 -117t-55.5 -141.5t-36 -162.5l-41 -239q-16 -106 -16 -183z " />
<glyph unicode="P" horiz-adv-x="1179" d="M129 43q0 12 2 18l262 1366q6 30 26.5 48t45.5 18h387q102 0 178.5 -30t121 -82.5t66 -117t21.5 -141.5q0 -46 -10 -108l-8 -47q-32 -172 -158.5 -265.5t-331.5 -93.5h-358l-109 -563q-4 -30 -24 -46.5t-47 -16.5q-26 0 -45 16.5t-19 44.5zM397 735h334q152 0 241 64.5 t113 185.5l9 41q10 52 10 90q0 110 -65 179t-199 69h-322z" />
<glyph unicode="Q" horiz-adv-x="1249" d="M186 436q0 90 21 213l41 228q13 72 28 132t40 127t56 119.5t76.5 102.5t100 83t129 52.5t162.5 19.5q84 0 151.5 -25t112 -67.5t74 -102t42.5 -125.5t13 -142q0 -75 -19 -183l-47 -264q-28 -144 -68 -255.5t-110 -192.5l107 -117q18 -18 17.5 -45t-21.5 -45 q-19 -17 -44 -17t-40 19l-107 123q-132 -92 -321 -92q-85 0 -152.5 23.5t-112 64t-74 98.5t-42.5 124.5t-13 143.5zM324 438q0 -155 63 -241t195 -86q146 0 235 65l-69 78q-14 19 -11 40.5t21 35.5q14 14 34.5 15.5t32.5 -11.5l70 -76q54 61 84.5 149t52.5 211l49 279 q15 83 15 160q0 145 -65 236t-193 91q-92 0 -164 -28.5t-119 -74.5t-82.5 -117t-55.5 -141.5t-36 -162.5l-41 -239q-16 -106 -16 -183z" />
<glyph unicode="R" horiz-adv-x="1224" d="M129 45q0 10 2 16l262 1366q6 30 26.5 48t45.5 18h379q102 0 179.5 -29.5t122 -81t66 -113.5t21.5 -134q0 -53 -12 -109l-9 -45q-27 -142 -124 -227t-248 -109q127 -313 207 -579q4 -12 4 -22q1 -22 -15 -38q-22 -24 -57 -24q-46 0 -61 51q-93 296 -218 600h-323 l-113 -586q-4 -30 -24 -47.5t-47 -17.5q-26 0 -45 17t-19 46zM401 758h318q309 0 360 243l8 39q9 65 9 84q0 106 -64.5 174t-200.5 68h-313z" />
<glyph unicode="S" horiz-adv-x="1120" d="M92 106q0 26 18 46t46 20q13 0 28 -6q139 -64 283 -64q217 0 332.5 85t115.5 221q0 37 -9.5 68.5t-23 55.5t-38.5 46t-46.5 36.5t-58 32t-61 27.5t-67.5 26.5t-66 26.5q-65 26 -111 53t-91 70t-68 105t-23 143q0 131 75 226.5t193.5 141t263.5 45.5q160 0 289 -57 q43 -21 43 -57q0 -29 -18.5 -49.5t-46.5 -20.5q-14 0 -29 6q-116 53 -242 53q-177 0 -285 -78.5t-108 -201.5q0 -36 9.5 -68t23 -56t39.5 -47t47.5 -38.5t58.5 -33.5t61.5 -28.5t67.5 -27.5q39 -15 58.5 -23t56 -24.5t56 -28.5t49.5 -32.5t46 -39t36.5 -46t30.5 -56.5 t17 -66t7 -79q0 -140 -77.5 -239.5t-208.5 -147.5t-302 -48q-177 0 -330 68q-41 20 -41 61z" />
<glyph unicode="T" horiz-adv-x="1132" d="M242 1421q0 30 21.5 51t55.5 21h934q33 0 50 -20q14 -14 14 -39q0 -31 -21.5 -51.5t-56.5 -20.5h-399l-252 -1315q-6 -30 -26 -47.5t-46 -17.5q-28 0 -46.5 16.5t-18.5 46.5q0 2 1 7.5t1 8.5l249 1301h-395q-33 0 -51 18q-14 16 -14 41z" />
<glyph unicode="U" horiz-adv-x="1277" d="M178 416q0 84 25 221l155 811q6 30 26 47.5t46 17.5q27 0 45.5 -17.5t18.5 -45.5v-18l-158 -822q-21 -110 -21 -188v-9q-1 -149 65 -227q68 -80 214 -80q95 0 168.5 27t121.5 70.5t84 113.5t56.5 138t38.5 163l158 830q6 30 26 47.5t47 17.5q26 0 45 -17.5t19 -45.5 q0 -12 -2 -18l-162 -838q-13 -71 -29 -130.5t-41.5 -124t-57.5 -115t-78.5 -97.5t-103 -77.5t-132 -49t-164.5 -18.5q-210 0 -312 116q-99 113 -98 307v11z" />
<glyph unicode="V" horiz-adv-x="1130" d="M248 1440q-1 5 -1 10q-1 26 17 43q20 20 51 20q25 0 44 -16.5t22 -46.5q61 -640 160 -1239q396 724 653 1264q20 38 59 38q34 0 53 -29q10 -15 10 -32q0 -16 -9 -35q-285 -592 -715 -1370q-36 -65 -90 -65q-63 0 -78 84q-117 722 -176 1374z" />
<glyph unicode="W" horiz-adv-x="1738" d="M258 1445q0 31 18 49q20 18 50 19q27 0 46 -17.5t19 -49.5q20 -676 66 -1237q261 555 542 1216q20 47 41.5 67.5t57.5 20.5q41 0 57 -28.5t16 -79.5q12 -549 60 -1194q271 582 555 1259q14 43 59 43q34 1 55 -27q13 -16 13 -37q0 -13 -6 -28q-240 -581 -604 -1364 q-20 -41 -44 -58t-61 -17q-39 0 -59.5 26.5t-24.5 89.5q-47 566 -63 1135q-268 -623 -531 -1167q-36 -84 -102 -84q-42 0 -60.5 24.5t-21.5 71.5q-78 913 -78 1367z" />
<glyph unicode="X" horiz-adv-x="1075" d="M-26 17q-7 14 -6 28q0 22 16 45q65 86 148.5 190t126.5 156.5t159.5 191.5t134.5 160q-206 454 -277 631q-6 15 -6 28q0 21 14 38q22 28 56 28q46 0 63 -45q120 -297 242 -567q283 341 459 584q20 28 51 28q38 0 57 -35q8 -14 8 -29q0 -21 -16 -44q-154 -214 -502 -631 q25 -55 76 -168t82 -182.5t72.5 -167t73.5 -180.5q5 -15 5 -29q0 -21 -13 -37q-22 -28 -58 -28q-45 0 -61 45q-115 291 -271 635q-294 -353 -524 -654q-20 -26 -53 -26q-39 0 -57 35z" />
<glyph unicode="Y" horiz-adv-x="978" d="M217 1430q-3 10 -3 20q0 23 16 40q22 23 55 23q52 0 63 -53q84 -371 209 -768q258 364 518 789q17 32 53 32q35 0 55 -30q10 -15 10 -31q0 -18 -11 -37q-248 -407 -580 -878l-94 -490q-6 -30 -26.5 -47.5t-47.5 -17.5q-26 0 -44.5 17t-18.5 46q0 10 2 16l92 480 q-148 452 -248 889z" />
<glyph unicode="Z" horiz-adv-x="1001" d="M-14 57q0 8 2 15.5t3.5 12.5t7 14t8 12.5t11 15.5t11.5 16l944 1221h-660q-34 0 -49 18q-16 19 -16 39q0 31 22 51.5t56 20.5h778q32 0 47 -18q16 -19 16 -41q0 -15 -7 -30.5t-14 -25t-24 -30.5l-940 -1219h666q32 0 47 -18q16 -19 16 -41q0 -30 -22 -50t-55 -20h-785 q-31 0 -49 18q-14 16 -14 39z" />
<glyph unicode="[" horiz-adv-x="505" d="M-16 -297l370 1917q6 30 26.5 49t45.5 19h172q28 0 49 -21q17 -20 17 -39q0 -31 -22 -51.5t-56 -20.5h-109l-346 -1804h96q32 0 47 -18q17 -17 17 -41q0 -29 -22.5 -49.5t-55.5 -20.5h-168q-26 0 -43.5 17t-17.5 47v16z" />
<glyph unicode="\" horiz-adv-x="622" d="M236 1559q-3 26 13 46t42 25q27 3 47.5 -13.5t23.5 -43.5l199 -1632q3 -26 -13 -47.5t-42 -24.5t-46.5 13t-25.5 42z" />
<glyph unicode="]" horiz-adv-x="507" d="M-25 -317q0 29 23 49t55 20h109l346 1804h-94q-28 0 -49 21q-15 15 -15 39q0 31 21.5 51.5t54.5 20.5h168q26 0 44.5 -18t18.5 -48q0 -10 -2 -16l-368 -1917q-6 -30 -26.5 -48t-45.5 -18h-174q-30 0 -49 19q-17 20 -17 41z" />
<glyph unicode="^" horiz-adv-x="1003" d="M218 900.5q-2 27.5 15 49.5l412 514q36 45 80 45q42 0 63 -47l211 -512q11 -21 7.5 -49.5t-25.5 -42.5q-15 -10 -37 -10q-37 0 -53 37l-189 454l-368 -465q-20 -26 -58 -26q-21 0 -34 10q-22 15 -24 42.5z" />
<glyph unicode="_" horiz-adv-x="913" d="M-174 -279q0 30 20 49t52 19h901q29 0 47 -18q14 -14 14 -37q0 -28 -21 -48t-53 -20h-901q-29 0 -45 19q-14 14 -14 36z" />
<glyph unicode="`" horiz-adv-x="1089" d="M632.5 1602.5q9.5 25.5 35.5 35.5q28 10 52 -1.5t34 -34.5l127 -310q9 -23 -1 -42.5t-32 -28.5q-24 -8 -45 0.5t-31 31.5l-139 303q-10 21 -0.5 46.5z" />
<glyph unicode="a" horiz-adv-x="1019" d="M125 307q0 56 16 150l25 143q13 73 31 132t50.5 117t76.5 96.5t111 62.5t151 24q146 0 252 -86l8 43q4 20 21.5 31.5t37.5 11.5q26 0 44 -16t18 -43q0 -3 -1 -9t-1 -8l-140 -725q-7 -42 -7 -68q0 -16 3 -25q7 -24 37 -46q30 -20 25 -51q-11 -53 -72 -53q-51 0 -88 43 q-21 25 -25 47q-137 -90 -266 -90q-149 0 -228 85.5t-79 233.5zM254 324q0 -104 50 -161t147 -57q109 0 239 97l119 620q-86 92 -217 92q-75 0 -129.5 -26t-87 -75t-50.5 -101t-30 -123l-33 -178q-8 -44 -8 -88z" />
<glyph unicode="b" horiz-adv-x="1015" d="M33 45q3 22 15.5 34t40.5 28q4 3 7 4q29 18 41 43.5t23 87.5l227 1179q6 29 25.5 45.5t44.5 16.5t42 -16t17 -44q0 -10 -2 -16l-86 -451q118 76 244 76q154 0 226.5 -78t72.5 -219q0 -62 -13 -135l-36 -205q-36 -200 -140 -303.5t-290 -103.5q-135 0 -250 94 q-26 -42 -67 -68t-79 -26q-31 0 -49 14q-15 12 -15 33q0 5 1 10zM281 199q91 -95 198 -95q137 0 212 73t102 220l41 226q10 55 10 94q0 97 -45 146.5t-150 49.5q-117 0 -248 -94z" />
<glyph unicode="c" horiz-adv-x="847" d="M135 348q0 52 6 96l23 140q16 96 52 176t92.5 141.5t138 96t180.5 34.5q145 0 231 -51q37 -23 37 -57q0 -27 -18.5 -43.5t-42.5 -16.5q-17 0 -46 14.5t-63 22.5q-47 12 -102 12q-134 0 -220 -93.5t-112 -252.5l-23 -141q-6 -38 -6 -70q0 -120 61 -185t183 -65 q74 0 125 15q31 8 61.5 22.5t46.5 14.5q20 0 36 -12.5t16 -36.5q0 -44 -62 -74q-104 -47 -237 -47q-177 0 -268 95q-89 93 -89 258v7z" />
<glyph unicode="d" horiz-adv-x="1019" d="M125 309q0 54 16 148l25 143q13 73 31 132t50.5 117t76.5 96.5t111 62.5t151 24q137 0 243 -98l95 487q6 29 25 45.5t44 16.5t42.5 -16t17.5 -44q0 -10 -2 -16l-226 -1176q-7 -42 -7 -68q0 -16 3 -25q7 -24 37 -46q30 -20 25 -51q-11 -53 -72 -53q-51 0 -88 43 q-20 25 -25 45q-139 -88 -268 -88q-148 0 -226.5 87.5t-78.5 233.5zM254 324q0 -104 50 -161t147 -57q111 0 237 93l117 608q-88 108 -213 108q-75 0 -129.5 -26t-87 -75t-50.5 -101t-30 -123l-33 -178q-8 -44 -8 -88z" />
<glyph unicode="e" horiz-adv-x="962" d="M131 348q0 45 10 103l27 159q14 88 47 162t86 133.5t133 93t180 33.5q83 0 145.5 -25.5t99.5 -72t55 -106t18 -132.5q0 -49 -10 -114l-9 -62q-5 -22 -22 -35.5t-43 -13.5l-576 -2l-6 -43q-8 -54 -8 -82q0 -109 58 -175.5t163 -66.5q92 0 197 37q10 3 20.5 7t16 6.5t12 4 t12.5 1.5q25 0 40.5 -16.5t15.5 -43.5q0 -38 -45 -55q-133 -55 -283 -55q-84 0 -149 28.5t-105 78.5t-60 114t-20 139zM293 580h502l4 26q8 44 8 94q0 106 -48 163t-145 57q-261 0 -317 -310z" />
<glyph unicode="f" horiz-adv-x="585" d="M117 47q0 2 1 7.5t1 8.5l162 838h-64q-27 0 -43 19q-14 14 -14 34q0 28 19.5 47t49.5 19h74l35 178q27 144 109 217.5t210 73.5h109q29 0 45 -19q14 -14 14 -36q0 -30 -19.5 -49t-51.5 -19h-90q-163 0 -201 -192l-31 -154h174q27 0 43 -19q15 -15 15 -34q0 -28 -20 -47 t-50 -19h-184l-164 -852q-4 -28 -23 -44.5t-45 -16.5t-43.5 16t-17.5 43z" />
<glyph unicode="g" horiz-adv-x="989" d="M43 -274q0 27 17 45t46 18q17 0 33 -8q86 -39 197 -39q142 0 221.5 87.5t110.5 248.5l4 22q-123 -69 -232 -69q-148 0 -226.5 87.5t-78.5 233.5q0 67 17 150l16 98q13 73 31.5 131t51.5 116.5t76.5 97.5t111 63t151.5 24q142 0 248 -92l10 47q4 21 21 33t38 12 q26 0 44 -16t18 -43q0 -13 -2 -17l-172 -890q-83 -443 -463 -443q-145 0 -248 47q-41 20 -41 56zM264 367q0 -103 50 -160t147 -57q114 0 239 90l111 577q-88 98 -215 98q-76 0 -131 -26t-87.5 -75t-50.5 -101t-30 -123l-25 -135q-8 -62 -8 -88z" />
<glyph unicode="h" horiz-adv-x="1036" d="M100 47q0 10 2 16l260 1358q6 29 25.5 45.5t44.5 16.5t42.5 -16t17.5 -44q0 -7 -3 -16l-92 -479q148 104 291 104q142 0 210.5 -76t68.5 -208q0 -50 -17 -146l-106 -553q-6 -29 -25.5 -45t-44.5 -16q-24 0 -41.5 16t-17.5 43q0 10 2 16l106 553q13 76 13 113 q0 180 -172 180q-153 0 -295 -135l-140 -725q-6 -29 -25 -45t-44 -16q-24 0 -42 16t-18 43z" />
<glyph unicode="i" horiz-adv-x="430" d="M100 47q0 10 2 16l174 908q6 28 25 44.5t43 16.5q26 0 44 -16t18 -43q0 -3 -1.5 -9t-1.5 -8l-174 -907q-6 -29 -25 -45t-44 -16q-24 0 -42 16t-18 43zM326 1407q0 41 29.5 70.5t70.5 29.5t70.5 -29.5t29.5 -70.5q0 -40 -29.5 -69t-70.5 -29t-70.5 29t-29.5 69z" />
<glyph unicode="j" horiz-adv-x="430" d="M-225 -315q8 49 71 53q102 3 158.5 59.5t83.5 198.5l188 975q6 28 25 44.5t43 16.5q26 0 44 -16t18 -43q0 -3 -1.5 -9t-1.5 -8l-188 -981q-36 -188 -127.5 -273t-247.5 -85q-27 0 -48 18q-18 15 -18 38q0 6 1 12zM326 1407q0 41 29.5 70.5t70.5 29.5t70.5 -29.5 t29.5 -70.5q0 -40 -29.5 -69t-70.5 -29t-70.5 29t-29.5 69z" />
<glyph unicode="k" horiz-adv-x="911" d="M100 47v16l262 1358q6 29 25.5 45.5t44.5 16.5t42.5 -16t17.5 -44q0 -7 -3 -16l-170 -889l539 494q20 18 43.5 19t40.5 -13q18 -13 21 -35v-7q0 -18 -13 -36q-3 -7 -10 -10l-352 -320q146 -301 225 -538q11 -35 -8.5 -59.5t-52.5 -24.5q-46 0 -60 45q-84 243 -205 489 l-202 -182l-58 -291q-4 -29 -23 -45t-44 -16q-24 0 -42 16t-18 43z" />
<glyph unicode="l" horiz-adv-x="436" d="M126 117q-1 11 -1 23q0 50 16 132l221 1149q6 29 25.5 45.5t44.5 16.5t42.5 -16t17.5 -44q0 -7 -3 -16l-227 -1176q-6 -38 -6 -63q0 -18 4 -29q8 -25 37 -45q26 -18 26 -44q0 -5 -1 -11q-10 -51 -72 -51q-51 0 -88 43q-31 33 -36 86z" />
<glyph unicode="m" horiz-adv-x="1636" d="M129 47q0 10 2 16l137 713q8 42 8 68q0 15 -3 24q-7 25 -37 45q-31 21 -25 54q8 53 72 53q48 0 88 -43q22 -29 24 -66q156 121 310 121q193 0 247 -153q167 153 346 153q137 0 204 -75.5t67 -206.5q0 -48 -17 -148l-108 -553q-4 -28 -23 -44.5t-45 -16.5q-25 0 -42 16 t-17 43v16l108 553q13 76 13 115q0 178 -166 178q-153 0 -297 -151v-12q0 -52 -14 -144l-109 -553q-6 -29 -24.5 -45t-43.5 -16q-26 0 -43.5 16t-17.5 43l2 16l106 553q15 66 15 115q0 178 -166 178q-145 0 -283 -135q-5 -30 -8 -39l-131 -686q-6 -28 -25 -44.5t-43 -16.5 q-26 0 -43.5 16t-17.5 43z" />
<glyph unicode="n" horiz-adv-x="1064" d="M129 47l2 16l137 713q8 42 8 68q0 15 -3 24q-7 25 -37 45q-31 21 -25 54q11 53 72 53q51 0 88 -43q21 -23 26 -66q159 121 322 121q142 0 210 -75.5t68 -206.5q0 -54 -16 -148l-109 -553q-4 -29 -23 -45t-44 -16q-24 0 -42 16t-18 43v16l109 553q12 70 12 115 q0 178 -172 178q-152 0 -297 -135l-6 -39l-133 -686q-4 -28 -23 -44.5t-45 -16.5t-43.5 16t-17.5 43z" />
<glyph unicode="o" horiz-adv-x="995" d="M127 319q0 61 12 125l39 211q16 79 46.5 143t82.5 118t133 84t185 30q84 0 148 -28t101 -76q36 -46 54 -104q17 -54 16 -117v-7q0 -64 -10 -108l-43 -225q-72 -377 -442 -377q-86 0 -150 26.5t-100.5 73.5t-54 104.5t-17.5 126.5zM256 328q0 -102 48 -160.5t153 -58.5 q141 0 212 73t97 203l41 217q8 39 8 88q0 98 -48.5 158.5t-152.5 60.5q-257 0 -309 -274l-39 -205q-10 -58 -10 -102z" />
<glyph unicode="p" horiz-adv-x="1013" d="M53 -299l211 1087q6 38 6 63q0 19 -4 29q-7 26 -37 46t-24 53q11 53 71 53q51 0 91 -43q21 -28 26 -63q147 106 277 106q151 0 225 -80.5t74 -220.5q0 -65 -21 -180l-30 -158q-15 -73 -35.5 -130t-55 -110t-80.5 -88t-113 -56t-151 -21q-133 0 -231 69l-72 -370 q-4 -29 -23 -45.5t-44 -16.5q-24 0 -42 16.5t-18 43.5v16zM276 178q88 -74 201 -74q64 0 114 17.5t83 45.5t57.5 71t38 86t23.5 98l36 194q11 75 11 105q0 192 -191 192q-107 0 -256 -116q-4 -34 -8 -49z" />
<glyph unicode="q" horiz-adv-x="1015" d="M127 307q0 56 16 150l25 143q13 73 31 132t50.5 117t76.5 96.5t111 62.5t151 24q152 0 266 -96q26 42 67 69t78 27q31 0 50 -15q16 -13 16 -36v-8q-3 -16 -13.5 -28t-18 -17t-32.5 -19q-29 -18 -40.5 -43.5t-24.5 -89.5l-209 -1089q-6 -29 -25 -45.5t-43 -16.5 q-26 0 -43.5 16.5t-17.5 43.5q0 10 2 16l68 358q-121 -71 -236 -71q-149 0 -227 85.5t-78 233.5zM256 324q0 -103 50 -160.5t147 -57.5q115 0 243 95l119 618q-44 47 -102.5 71.5t-116.5 24.5q-76 0 -131 -26t-87.5 -75t-50.5 -101t-30 -123l-33 -178q-8 -66 -8 -88z" />
<glyph unicode="r" horiz-adv-x="753" d="M129 47q0 10 2 16l137 713q6 42 6 67q0 16 -2 26q-6 24 -36 44q-31 21 -25 54q8 53 72 53q48 0 88 -43q27 -31 30 -82q124 137 304 137q83 0 121 -24q30 -19 30 -55q0 -9 -2 -19q-12 -45 -66 -45q-8 0 -40.5 8t-81.5 8q-195 0 -281 -200l-127 -656q-6 -28 -25 -44.5 t-43 -16.5q-26 0 -43.5 16t-17.5 43z" />
<glyph unicode="s" horiz-adv-x="847" d="M45 88q0 27 16.5 43t40.5 15q13 0 41.5 -10.5t61.5 -18.5q66 -15 129 -15q144 0 222.5 51t78.5 132q0 24 -6 43.5t-22 36.5t-28.5 28t-41.5 25.5t-43.5 21t-52.5 21t-52 20.5q-51 21 -85.5 40.5t-70.5 50.5t-54.5 75t-18.5 101q0 92 58 158.5t144.5 96t190.5 29.5 q76 0 145 -16q63 -14 85 -32.5t22 -45.5t-16 -43t-41 -16q-10 0 -38 10t-53 16q-67 13 -104 13q-119 0 -192.5 -48t-73.5 -120q0 -20 6.5 -38.5t13.5 -31.5t26.5 -28t29.5 -22.5t39.5 -21t39.5 -18t45 -18.5q18 -7 27 -11q56 -21 92.5 -40t76 -50t59.5 -76t20 -104 q0 -100 -59 -170t-153 -101.5t-214 -31.5q-92 0 -164 16q-67 15 -97 34.5t-30 49.5z" />
<glyph unicode="t" horiz-adv-x="641" d="M172 242q0 63 25 188l96 471h-57q-30 0 -46 19q-14 14 -14 34q0 28 20 47t50 19h71l48 250q6 29 25 45t44 16t42.5 -15.5t17.5 -43.5q0 -11 -2 -17l-48 -235h187q26 0 45 -19q12 -14 12 -34q0 -28 -20 -47t-50 -19h-196l-98 -483q-21 -103 -21 -162q0 -69 34 -101 t120 -32h41q31 0 47 -19q14 -14 14 -36q0 -30 -20.5 -49t-53.5 -19h-47q-142 0 -204 62t-62 180z" />
<glyph unicode="u" horiz-adv-x="1077" d="M154 272q0 66 16 148l104 551q6 29 25.5 45t44.5 16q24 0 41.5 -16t17.5 -43q0 -13 -2 -17l-102 -536q-14 -79 -14 -129q0 -92 41 -136t137 -44q144 0 293 143l137 717q6 28 25 44.5t43 16.5q26 0 43.5 -16t17.5 -43q0 -11 -2 -17l-139 -725q-7 -43 -7 -69q0 -15 2 -24 q6 -24 37 -46q31 -17 25 -51q-8 -53 -72 -53q-51 0 -88 43q-26 31 -26 80q-151 -123 -312 -123q-146 0 -216 74.5t-70 209.5z" />
<glyph unicode="v" horiz-adv-x="884" d="M170 950q-1 8 -1 15q-1 29 13 45q16 22 49 22q57 0 62 -63q47 -389 119 -801q179 314 440 821q22 43 61 43q36 0 51 -27q7 -12 7 -26q0 -16 -10 -35q-249 -483 -488 -891q-40 -65 -96 -65q-36 0 -52 23t-24 71q-96 533 -131 868z" />
<glyph unicode="w" horiz-adv-x="1378" d="M174 956q-1 35 16.5 55.5t45.5 20.5q34 0 46.5 -17.5t14.5 -49.5q26 -379 72 -781q195 387 376 791q26 57 82 57q59 0 62 -78q25 -364 74 -770q111 225 380 801q11 26 24.5 36.5t37.5 10.5q35 0 47 -28q5 -11 5 -24q0 -20 -11 -44q-208 -455 -426 -883q-18 -35 -38 -50 t-52 -15q-33 0 -48 22t-20 68q-41 324 -74 731q-173 -372 -368 -756q-18 -36 -39.5 -50.5t-52.5 -14.5q-36 0 -52 26.5t-22 85.5q-55 467 -80 856z" />
<glyph unicode="x" horiz-adv-x="870" d="M11 16q-6 11 -6 22q0 19 15 42q53 74 125 159t120 137.5t138 147.5q-49 91 -74 139t-59.5 127t-54.5 148q-4 14 -4 27q1 21 13 39q20 28 55 28q42 0 53 -37q46 -152 160 -364q207 222 305 366q23 35 61 35q33 0 49 -26q7 -11 7 -25q0 -18 -13 -39q-115 -165 -352 -414 q53 -92 82.5 -147t67.5 -138.5t61 -158.5q5 -17 5 -31q0 -21 -11 -37q-19 -28 -56 -28q-40 0 -51 37q-50 158 -186 397q-237 -253 -340 -399q-22 -35 -62 -35q-33 0 -48 28z" />
<glyph unicode="y" horiz-adv-x="890" d="M-104 -311q5 28 24 46t49 19q97 2 179 54t171 184q-112 549 -159 958q-4 36 14.5 59t48.5 23q56 0 62 -59q39 -319 129 -817l434 829q23 47 65 47q43 0 55 -36q3 -11 3 -22q0 -26 -17 -54l-411 -781q-144 -271 -275 -390.5t-303 -123.5h-4q-31 0 -49 17q-16 16 -16 39v8z " />
<glyph unicode="z" horiz-adv-x="815" d="M-2 55q0 29 25 54l690 790h-445q-31 0 -47 16q-14 14 -14 37q0 29 20.5 48.5t51.5 19.5h565q29 0 45 -19q14 -14 14 -34q0 -31 -24 -58l-693 -788h484q28 0 45 -17q14 -16 14 -38q0 -28 -20 -47t-52 -19h-596q-31 0 -49 18q-14 14 -14 37z" />
<glyph unicode="{" horiz-adv-x="573" d="M90 -137q3 75 30 162t57 152.5t56 146t29 143.5q1 67 -21.5 100t-56.5 33h-6q-25 0 -38 15.5t-9 41.5q9 56 68 56h12q16 0 34.5 7t40.5 25t40 44.5t31.5 72t15.5 101.5l2 331q7 187 91.5 290.5t225.5 103.5h10q31 0 48 -17t16 -47q-1 -29 -19.5 -45t-46.5 -16h-12 q-31 0 -60 -13t-58 -42t-47.5 -86t-20.5 -136l-4 -319q-8 -231 -174 -314v-6q67 -43 63 -174q-3 -75 -28.5 -161t-55.5 -151t-55.5 -143.5t-28.5 -140.5q-1 -70 19.5 -100.5t70.5 -30.5h6q28 0 45.5 -15.5t14.5 -45.5t-23.5 -46t-52.5 -16h-8q-95 0 -150 57.5t-51 182.5z " />
<glyph unicode="|" horiz-adv-x="438" d="M29 -315q0 10 2 16l370 1919q6 32 26.5 50t47.5 18q26 0 45 -18t19 -48q0 -2 -1 -7.5t-1 -8.5l-371 -1921q-6 -30 -26.5 -48t-45.5 -18q-27 0 -46 18t-19 48z" />
<glyph unicode="}" horiz-adv-x="571" d="M-72 -313q3 59 66 59h10q31 0 61 13t58.5 42.5t47.5 87t22 136.5q2 67 0.5 159.5t1.5 159.5q11 232 176 311v9q-71 46 -64 174q3 94 43.5 204t80.5 212t42 178q3 71 -17.5 101t-70.5 30h-6q-28 0 -45.5 16t-14.5 47q3 30 23.5 46t52.5 16h8q95 0 150 -57.5t49 -182.5 q-3 -75 -29 -161.5t-56 -152.5t-56 -147t-29 -145q-3 -67 20 -99t58 -32h6q24 0 36.5 -16t8.5 -42q-6 -57 -65 -57h-13q-20 0 -44 -12t-50.5 -37.5t-45 -77.5t-21.5 -121l-5 -332q-6 -187 -90.5 -290t-224.5 -103h-10q-67 0 -64 64z" />
<glyph unicode="~" horiz-adv-x="1028" d="M178 551q0 53 67 91t154 38q60 0 116 -22.5t106.5 -45t95.5 -22.5q44 0 73.5 15t49.5 29.5t41 14.5q29 0 48 -20t19 -49q0 -53 -67 -90t-154 -37q-60 0 -115.5 22t-105.5 44t-96 22q-44 0 -73.5 -15t-49.5 -30t-41 -15q-29 0 -48.5 21t-19.5 49z" />
<glyph unicode="&#xa1;" horiz-adv-x="516" d="M37 -416l205 971q16 66 71 66q29 0 43 -20.5t9 -55.5l-172 -967q-3 -33 -28 -57.5t-63 -24.5q-39 0 -56 26.5t-9 61.5zM268 924q0 44 31.5 76t75.5 32t76 -32t32 -76t-32 -75.5t-76 -31.5t-75.5 31.5t-31.5 75.5z" />
<glyph unicode="&#xa2;" d="M266 348q0 50 6 94l23 142q33 194 144 316.5t296 129.5l23 119q4 26 20.5 40.5t38.5 14.5t37.5 -14t15.5 -39v-12l-22 -113q89 -13 143 -45q35 -22 35 -57q0 -27 -18 -44.5t-43 -17.5q-15 0 -40.5 14.5t-56.5 22.5q-15 4 -49 8l-153 -801q44 0 98 13q29 8 60 22.5 t48 14.5q18 0 35 -12.5t17 -34.5q0 -26 -15.5 -43t-48.5 -33q-91 -42 -213 -45l-22 -121q-4 -24 -21 -38.5t-39 -14.5t-37.5 14t-15.5 37q0 10 2 14l21 115q-133 23 -201 114.5t-68 239.5zM393 356q0 -99 43 -159.5t129 -75.5l152 780q-120 -12 -197 -103t-98 -233l-23 -139 q-6 -38 -6 -70z" />
<glyph unicode="&#xa3;" d="M90 59q0 35 25.5 51.5t62.5 18.5q95 62 149.5 147t57.5 187q3 98 -6 168h-78q-27 0 -43 16q-14 14 -14 37q0 28 18.5 46t48.5 18l58 2q-25 138 -25 231q0 107 39.5 202t110.5 166.5t177.5 113.5t233.5 42q145 0 230 -28q43 -14 43 -60q0 -28 -19 -47.5t-47 -19.5 q-9 0 -33.5 6t-46.5 10q-65 10 -129 10q-195 0 -309.5 -114t-114.5 -281q0 -93 25 -231h360q26 0 45 -19q13 -16 13 -37q0 -27 -20 -45t-50 -18h-338q8 -95 6 -166q-5 -193 -166 -336h600q35 0 50 -18q16 -19 16 -39q0 -31 -22 -51.5t-56 -20.5h-786q-35 0 -50 18 q-16 16 -16 41z" />
<glyph unicode="&#xa4;" horiz-adv-x="1411" d="M203 255.5q0 24.5 18 43.5l170 170q-115 148 -115 326q0 186 117 325l-172 174q-18 18 -18 43t20 45q19 17 43 17t43 -17l170 -174q146 117 328 117q180 0 326 -117l170 174q18 16 43.5 15.5t44.5 -19.5q19 -17 19 -42t-19 -42l-172 -174q118 -134 118 -325 q0 -187 -116 -328l170 -168q19 -19 19 -43t-19 -43q-20 -20 -44.5 -20.5t-43.5 18.5l-170 170q-139 -117 -326 -117q-182 0 -328 117l-170 -170q-19 -19 -43 -19t-43 19q-20 20 -20 44.5zM387 795q0 -175 123.5 -298.5t296.5 -123.5q175 0 297.5 123.5t122.5 298.5 q0 173 -122.5 296t-297.5 123q-173 0 -296.5 -123t-123.5 -296z" />
<glyph unicode="&#xa5;" d="M154 428q0 28 19.5 47t51.5 19h305l11 47q-31 87 -49 151h-218q-29 0 -45 19q-14 14 -14 37q0 28 20 45.5t52 17.5h168q-99 336 -164 619q-9 36 13.5 59.5t55.5 23.5q22 0 39 -13.5t23 -39.5q97 -416 211 -768q270 387 516 789q19 32 53 32q36 0 55.5 -30t-0.5 -68 q-156 -256 -391 -604h158q31 0 45 -16q14 -14 14 -37q0 -28 -19.5 -47t-51.5 -19h-226q-48 -65 -110 -155l-8 -43h295q29 0 45 -19q14 -14 14 -37q0 -28 -20 -45.5t-52 -17.5h-305l-63 -328q-6 -30 -25.5 -47.5t-46.5 -17.5t-45.5 16.5t-18.5 46.5v16l62 314h-295 q-31 0 -45 16q-14 14 -14 37z" />
<glyph unicode="&#xa6;" horiz-adv-x="438" d="M66 -135q0 10 2 16l129 674q6 30 25 46.5t44 16.5q26 0 45 -16.5t19 -44.5q0 -10 -2 -16l-131 -674q-4 -30 -24 -47t-46 -17t-43.5 17t-17.5 45zM272 936q0 10 2 16l129 674q6 30 25.5 47t44.5 17q26 0 45 -17t19 -45q0 -2 -1 -7.5t-1 -8.5l-132 -674q-6 -30 -25 -47 t-44 -17q-26 0 -44 17t-18 45z" />
<glyph unicode="&#xa7;" horiz-adv-x="1112" d="M113 -258q0 28 16 45.5t41 17.5q10 0 19 -2.5t25.5 -9.5t33.5 -12q82 -27 184 -27q140 0 229 76.5t89 187.5q0 46 -17 81t-56.5 64t-74.5 47t-100 46q-49 22 -70.5 31.5t-64 31.5t-63 37.5t-49.5 42t-42.5 52t-24 60.5t-10.5 75q0 108 53.5 185.5t151.5 150.5 q-51 71 -51 170q0 168 129.5 277.5t320.5 109.5q173 0 279 -49q41 -20 41 -56q0 -26 -17 -43.5t-43 -17.5q-9 0 -17 2t-26 8.5t-32 11.5q-85 27 -187 27q-140 0 -228.5 -76t-88.5 -186q0 -37 13.5 -68t32.5 -53t55 -45t67 -37.5t82 -36.5q48 -21 70.5 -31.5t64.5 -32 t62.5 -37t49 -42t42 -52t24 -60.5t10.5 -75q0 -56 -15.5 -105t-45.5 -90t-63 -72.5t-81 -67.5q52 -72 52 -168q0 -170 -130.5 -281t-320.5 -111q-169 0 -278 52q-41 18 -41 55zM307 598q0 -53 28.5 -93t78.5 -68t103 -50.5t118 -53.5t108 -63q83 60 122.5 116.5t39.5 133.5 q0 53 -28.5 92.5t-78.5 67.5t-103 50t-118 53t-108 63q-83 -60 -122.5 -116.5t-39.5 -131.5z" />
<glyph unicode="&#xa8;" horiz-adv-x="1083" d="M348 1372q0 32 22 55t54 23t55 -23t23 -55t-23 -54t-55 -22t-54 22t-22 54zM653 1372q0 32 22 55t54 23t54 -23t22 -55t-22 -54t-54 -22t-54 22t-22 54z" />
<glyph unicode="&#xa9;" horiz-adv-x="1806" d="M223 745q0 155 60.5 296.5t163 244t244.5 163t298 60.5q155 0 296 -60.5t243 -163t162.5 -244t60.5 -296.5t-60.5 -296.5t-162.5 -243.5t-243 -162.5t-296 -60.5q-156 0 -298 60.5t-244.5 162.5t-163 243.5t-60.5 296.5zM334 745q0 -133 52 -255t139.5 -210t209 -140 t254.5 -52q132 0 252.5 52t207.5 140t139 210t52 255q0 177 -87.5 328t-237.5 239.5t-326 88.5q-178 0 -329 -88.5t-238.5 -239.5t-87.5 -328zM657 688v113q0 102 36.5 185t112.5 135.5t181 52.5q112 0 203 -39q33 -17 33 -48q0 -24 -15.5 -40.5t-38.5 -16.5q-12 0 -24 6 q-63 31 -156 31q-102 0 -161.5 -72.5t-59.5 -193.5v-113q0 -122 53.5 -193t167.5 -71q92 0 158 31q12 6 24 6q22 0 37 -17.5t15 -40.5q0 -34 -33 -47q-93 -41 -203 -41q-162 0 -246 104.5t-84 268.5z" />
<glyph unicode="&#xaa;" horiz-adv-x="851" d="M201 870q0 45 12 123l20 119q11 60 26 108t42 95.5t63.5 79.5t92 51.5t125.5 19.5q119 0 206 -69l7 35q4 16 18.5 25t30.5 9q21 0 35 -13t14 -36v-12l-117 -598q-8 -57 -2 -76.5t31 -38.5q26 -18 20 -41q-8 -45 -59 -45q-39 0 -74 35q-16 20 -18 41q-118 -76 -221 -76 q-122 0 -187 70.5t-65 193.5zM307 883q0 -86 41 -133.5t121 -47.5q88 0 197 82l98 510q-70 76 -178 76q-50 0 -89 -15t-64.5 -38.5t-44.5 -60t-29.5 -71.5t-18.5 -81l-27 -150q-6 -37 -6 -71z" />
<glyph unicode="&#xab;" horiz-adv-x="1187" d="M112.5 552.5q0.5 4.5 0.5 14.5q4 23 34 49l447 396q22 18 49 14t41 -25q13 -20 8.5 -45.5t-24.5 -44.5l-408 -362l281 -373q15 -18 14 -45t-20 -43q-21 -17 -46.5 -13t-39.5 23l-316 410q-1 2 -5.5 9t-6 10.5t-5.5 12t-3.5 13zM617.5 549.5q-3.5 11.5 0.5 17.5 q4 24 33 49l449 396q21 18 47.5 14t42.5 -25q13 -21 7.5 -46t-26.5 -44l-407 -362l283 -373q14 -18 13 -45t-20 -43q-22 -17 -48 -13t-40 23l-313 410q-1 2 -7.5 11.5t-8.5 14t-5.5 16z" />
<glyph unicode="&#xac;" horiz-adv-x="1038" d="M217 778q3 27 24 45.5t50 18.5h727q29 0 44 -20t9 -48l-51 -262q-4 -27 -24.5 -44t-45.5 -17q-27 0 -42.5 19.5t-10.5 47.5l39 199h-662q-27 0 -42.5 17t-14.5 44z" />
<glyph unicode="&#xad;" horiz-adv-x="987" d="M207 594q0 29 21 48.5t53 19.5h514q28 0 47 -19q14 -14 14 -37q0 -29 -21 -49t-53 -20h-514q-32 0 -47 18q-14 16 -14 39z" />
<glyph unicode="&#xae;" horiz-adv-x="1806" d="M223 745q0 155 60.5 296.5t163 244t244.5 163t298 60.5q155 0 296 -60.5t243 -163t162.5 -244t60.5 -296.5t-60.5 -296.5t-162.5 -243.5t-243 -162.5t-296 -60.5q-156 0 -298 60.5t-244.5 162.5t-163 243.5t-60.5 296.5zM334 745q0 -133 52 -255t139.5 -210t209 -140 t254.5 -52q132 0 252.5 52t207.5 140t139 210t52 255q0 177 -87.5 328t-237.5 239.5t-326 88.5q-178 0 -329 -88.5t-238.5 -239.5t-87.5 -328zM719 379v731q0 25 15 40t38 15h229q70 0 123.5 -18.5t83.5 -49.5t45 -68t15 -79v-53q0 -71 -43.5 -127.5t-128.5 -77.5l155 -289 q9 -12 9 -24q0 -25 -17 -41t-41 -16q-34 0 -47 32l-176 326h-152v-301q0 -24 -15.5 -39.5t-39.5 -15.5q-23 0 -38 16t-15 39zM827 776h168q46 0 80 12t50.5 32t24 39.5t7.5 39.5v47q0 48 -35.5 86.5t-124.5 38.5h-170v-295z" />
<glyph unicode="&#xaf;" horiz-adv-x="1083" d="M489 1391q0 25 17.5 42t42.5 17h399q25 0 42.5 -17t17.5 -42t-17.5 -42.5t-42.5 -17.5h-399q-25 0 -42.5 17.5t-17.5 42.5z" />
<glyph unicode="&#xb0;" horiz-adv-x="806" d="M242 1182q0 136 96 231.5t233 95.5t233.5 -95.5t96.5 -231.5t-96.5 -231t-233.5 -95t-233 95t-96 231zM352 1182q0 -91 64 -155t155 -64t155.5 64t64.5 155t-64.5 155t-155.5 64t-155 -64t-64 -155z" />
<glyph unicode="&#xb1;" horiz-adv-x="1007" d="M78 57q0 29 21 48.5t55 19.5h690q30 0 49 -19q14 -14 14 -38q0 -28 -21.5 -48t-54.5 -20h-690q-31 0 -49 18q-14 14 -14 39zM221 780q0 30 21 50t53 20h287l57 299q6 29 25.5 45t44.5 16q24 0 41.5 -16t17.5 -43q0 -10 -2 -16l-53 -285h272q30 0 49 -19q15 -17 15 -38 q0 -29 -21 -48.5t-55 -19.5h-285l-57 -299q-6 -30 -25.5 -47t-44.5 -17q-24 0 -41.5 17t-17.5 45v16l55 285h-274q-29 0 -47 18q-15 15 -15 37z" />
<glyph unicode="&#xb2;" horiz-adv-x="919" d="M297 635q0 47 30.5 111t94.5 126q39 36 158 127q49 34 81 59.5t67 60t52 69.5t17 72q0 71 -39 109t-105 38q-63 0 -123 -31q-10 -5 -25 -14.5t-24.5 -14t-19.5 -4.5q-20 0 -31.5 11.5t-11.5 29.5q0 25 20 39q99 74 221 74q103 0 166.5 -63.5t63.5 -171.5 q0 -83 -59 -161.5t-209 -180.5q-96 -66 -147 -121t-73 -115h349q20 0 32 -12q11 -11 11 -29q0 -22 -14.5 -35.5t-37.5 -13.5h-399q-22 0 -33.5 11.5t-11.5 29.5z" />
<glyph unicode="&#xb3;" horiz-adv-x="919" d="M301 694q0 20 12 33.5t31 13.5q11 0 19.5 -5.5t21.5 -17t25 -18.5q41 -28 127 -28q100 0 155.5 54.5t55.5 129.5q0 43 -16.5 74t-46 46.5t-61.5 22.5t-71 7h-8q-22 0 -33.5 13t-11.5 32q0 18 13 30.5t34 12.5h45q71 0 133.5 47t62.5 125q0 60 -37.5 101.5t-111.5 41.5 q-91 0 -150 -51q-13 -10 -28 -10q-19 0 -32 14t-13 33q0 17 18 32q84 70 209 70q115 0 175.5 -67t60.5 -158q0 -151 -148 -223q109 -57 109 -195q0 -112 -82.5 -191t-222.5 -79q-115 0 -179 45q-55 33 -55 65z" />
<glyph unicode="&#xb4;" horiz-adv-x="1089" d="M614 1274q0 14 9 26l170 310q16 32 53 32q20 0 33 -8q14 -7 23 -22t9 -29q0 -15 -8 -31l-184 -303q-15 -30 -49 -30q-14 0 -25 8q-31 14 -31 47z" />
<glyph unicode="&#xb6;" horiz-adv-x="1269" d="M281 1110q31 163 163.5 276t292.5 113h611q30 0 45 -18q14 -14 14 -37q0 -27 -20 -45.5t-52 -18.5h-106l-318 -1646q-6 -31 -25.5 -48.5t-45.5 -17.5q-28 0 -47 17t-19 47q0 2 1 7.5t1 8.5l314 1632h-250l-318 -1646q-6 -31 -25.5 -48.5t-45.5 -17.5q-27 0 -45.5 17 t-18.5 47v16l188 973q-153 6 -239 118.5t-55 270.5z" />
<glyph unicode="&#xb7;" horiz-adv-x="458" d="M178 602q0 41 29 70.5t69 29.5t69.5 -29.5t29.5 -70.5q0 -40 -29.5 -69t-69.5 -29t-69 29t-29 69z" />
<glyph unicode="&#xb8;" horiz-adv-x="1083" d="M272 -369q0 37 103 37q75 0 117.5 27t44.5 69q0 45 -31 63t-96 23q-34 5 -47 12t-13 25q0 21 6 45l11 74h82l-11 -84q211 0 211 -158q0 -77 -72 -127.5t-184 -50.5q-65 0 -93 9t-28 36z" />
<glyph unicode="&#xb9;" horiz-adv-x="919" d="M295 639q0 20 14.5 33.5t36.5 13.5h201l131 674l-234 -152q-2 -1 -5.5 -2t-4.5 -2q-18 -7 -33.5 1t-21.5 24q-7 15 -1 32t23 27l304 195q22 16 43 16q43 0 43 -45q0 -2 -1.5 -5.5t-1.5 -4.5l-145 -758h111q20 0 32 -12q13 -13 13 -29q0 -20 -15.5 -33.5t-38.5 -13.5h-405 q-23 0 -35 12q-10 12 -10 29z" />
<glyph unicode="&#xba;" horiz-adv-x="882" d="M246 879q0 46 10 104l33 174q12 65 37.5 118t67.5 97.5t108.5 69t152.5 24.5q70 0 122.5 -23t83 -62.5t45 -87t14.5 -101.5q2 -32 -9 -90l-34 -184q-61 -312 -367 -312q-71 0 -123.5 22t-82 61t-44 86.5t-14.5 103.5zM352 887q0 -180 166 -180q116 0 174.5 60.5 t79.5 166.5l35 180q6 34 6 72q0 81 -40 130.5t-124 49.5q-215 0 -256 -225l-33 -170q-8 -58 -8 -84z" />
<glyph unicode="&#xbb;" horiz-adv-x="1183" d="M77 143.5q5 25.5 27 42.5l408 363l-283 375q-14 18 -13 44t20 44q22 17 48 12.5t38 -23.5l315 -411q24 -35 20 -58q-4 -25 -32 -49l-449 -395q-21 -18 -48.5 -14.5t-41.5 24.5q-14 20 -9 45.5zM582 143.5q5 25.5 26 42.5l408 363l-281 375q-15 20 -15 44t19 44 q22 17 48 12.5t40 -23.5l314 -411q26 -31 22 -58q-6 -24 -35 -49l-446 -395q-22 -18 -49.5 -14.5t-42.5 24.5q-13 20 -8 45.5z" />
<glyph unicode="&#xbc;" horiz-adv-x="919" d="M70 -227q0 14 8 22l366 580q13 22 39 22q19 0 30 -12t11 -31q0 -11 -10 -28l-326 -512h211l35 172q3 18 15 28.5t28 10.5t28.5 -10.5t12.5 -28.5q0 -2 -1 -6t-1 -5l-31 -161h58q14 0 28 -11q13 -13 13 -28q0 -19 -14 -32t-35 -13h-66l-27 -138q-3 -18 -15.5 -29.5 t-27.5 -11.5q-18 0 -29.5 11.5t-11.5 29.5v11l27 127h-272q-19 0 -33 14q-10 13 -10 29zM127 518q0 19 14 32t35 13h660q18 0 30 -12q11 -14 11 -27q0 -19 -14 -32t-36 -13h-659q-21 0 -31 13q-10 10 -10 26zM315 702q0 19 13.5 31t33.5 12h187l119 623l-215 -139 q-8 -4 -11 -4q-16 -7 -30 0t-19 22q-7 13 -1.5 29.5t22.5 26.5l280 178q22 16 41 16q17 0 27 -11t10 -30v-10l-135 -701h102q19 0 31 -12q10 -10 10 -24q0 -20 -13.5 -32.5t-35.5 -12.5h-375q-20 0 -30 12q-11 9 -11 26z" />
<glyph unicode="&#xbd;" horiz-adv-x="919" d="M125 -395q0 45 28 104t89 117q22 20 145 117q50 36 75.5 56.5t60 53t50 64t15.5 65.5q0 66 -36 101.5t-97 35.5q-62 0 -113 -28q-10 -5 -24 -13.5t-23.5 -13t-18.5 -4.5q-18 0 -28 11.5t-10 27.5q0 22 18 37q90 65 205 65q95 0 154 -58.5t59 -158.5q0 -76 -55 -148 t-193 -167q-90 -61 -137 -111.5t-66 -105.5h320q20 0 32 -12q11 -14 11 -27q0 -19 -14 -32t-35 -13h-369q-21 0 -32 10.5t-11 26.5zM127 522q0 19 13 32t36 13h660q20 0 30 -12q11 -11 11 -27q0 -19 -14 -32t-36 -13h-659q-17 0 -33 13q-8 10 -8 26zM313 707q0 20 13.5 32.5 t35.5 12.5h185l121 620l-217 -137l-9 -6q-17 -6 -31 1t-20 23q-6 14 0 29.5t21 24.5l280 180q22 16 41 16q39 0 39 -41q0 -8 -2 -12l-133 -698h100q21 0 31 -13q10 -8 10 -26q0 -19 -13.5 -32t-33.5 -13h-377q-15 0 -30 12q-11 14 -11 27z" />
<glyph unicode="&#xbe;" horiz-adv-x="919" d="M70 -227q0 14 8 22l366 580q13 22 39 22q19 0 30 -12t11 -31q0 -11 -10 -28l-326 -512h211l35 172q3 18 15 28.5t28 10.5t28.5 -10.5t12.5 -28.5q0 -2 -1 -6t-1 -5l-31 -161h58q14 0 28 -11q13 -13 13 -28q0 -19 -14 -32t-35 -13h-66l-27 -138q-3 -18 -15.5 -29.5 t-27.5 -11.5q-18 0 -29.5 11.5t-11.5 29.5v11l27 127h-272q-19 0 -33 14q-10 13 -10 29zM127 518q0 19 14 32t35 13h660q18 0 30 -12q11 -14 11 -27q0 -19 -14 -32t-36 -13h-659q-21 0 -31 13q-10 10 -10 26zM342 756q0 17 12 30t29 13q10 0 17.5 -5t18.5 -15.5t23 -18.5 q44 -25 119 -25q92 0 143.5 50.5t51.5 119.5q0 139 -181 139h-8q-19 0 -30 12.5t-11 28.5t12.5 28.5t30.5 12.5h43q66 0 123.5 43t57.5 115q0 55 -34.5 93t-103.5 38q-84 0 -139 -45q-10 -10 -24 -10q-18 0 -30.5 12.5t-12.5 30.5t16 31q78 63 194 63q106 0 162 -62t56 -147 q0 -74 -38.5 -125.5t-97.5 -79.5q101 -55 101 -180q0 -103 -76.5 -176.5t-206.5 -73.5q-109 0 -166 41q-51 35 -51 62z" />
<glyph unicode="&#xbf;" horiz-adv-x="921" d="M55 -150q0 56 16 106.5t38.5 87.5t65.5 79t77.5 69.5t93.5 71.5q110 81 150 140.5t59 148.5q12 53 63 53q27 0 45.5 -17.5t14.5 -49.5q-20 -106 -71.5 -183t-168.5 -163q-135 -98 -192.5 -167.5t-57.5 -164.5q0 -116 65 -176t163 -60q75 0 138 21.5t132 72.5q22 13 35 13 q30 0 46.5 -17.5t16.5 -44.5q0 -35 -36 -57q-157 -111 -347 -111q-68 0 -128.5 21.5t-110 63t-78.5 109.5t-29 154zM561 922q0 44 31.5 76t75.5 32t76 -32t32 -76t-32 -75.5t-76 -31.5t-75.5 31.5t-31.5 75.5z" />
<glyph unicode="&#xc0;" horiz-adv-x="1134" d="M-2 70q289 676 674 1364q44 75 100 75q30 0 48 -16t28 -61q155 -703 205 -1371q3 -38 -16.5 -59.5t-53.5 -21.5q-57 0 -63 57q-6 79 -33 328h-617q-24 -54 -147 -332q-23 -53 -74 -53q-33 0 -49 25.5t-2 64.5zM330 492h544q-54 405 -137 796q-233 -423 -407 -796z M673.5 2008.5q9.5 25.5 35.5 35.5q28 10 52 -2t34 -35l127 -309q9 -23 -1 -43t-32 -29q-24 -8 -45 1t-31 32l-139 303q-10 21 -0.5 46.5z" />
<glyph unicode="&#xc1;" horiz-adv-x="1134" d="M-2 70q289 676 674 1364q44 75 100 75q30 0 48 -16t28 -61q155 -703 205 -1371q3 -38 -16.5 -59.5t-53.5 -21.5q-57 0 -63 57q-6 79 -33 328h-617q-24 -54 -147 -332q-23 -53 -74 -53q-33 0 -49 25.5t-2 64.5zM330 492h544q-54 405 -137 796q-233 -423 -407 -796z M633 1681q0 16 8 27l170 309q17 33 53 33q20 0 33 -8q15 -7 24 -22t9 -29q0 -15 -8 -31l-185 -303q-15 -31 -49 -31q-13 0 -24 8q-31 14 -31 47z" />
<glyph unicode="&#xc2;" horiz-adv-x="1134" d="M-2 70q289 676 674 1364q44 75 100 75q30 0 48 -16t28 -61q155 -703 205 -1371q3 -38 -16.5 -59.5t-53.5 -21.5q-57 0 -63 57q-6 79 -33 328h-617q-24 -54 -147 -332q-23 -53 -74 -53q-33 0 -49 25.5t-2 64.5zM330 492h544q-54 405 -137 796q-233 -423 -407 -796z M457 1714q0 22 24 43l287 268q17 17 45 17q24 0 43 -19l240 -264q18 -21 18 -41q0 -24 -15.5 -40.5t-41.5 -16.5q-23 0 -37 14l-215 226l-256 -226q-16 -16 -37 -16q-22 0 -38.5 16t-16.5 39z" />
<glyph unicode="&#xc3;" horiz-adv-x="1134" d="M-2 70q289 676 674 1364q44 75 100 75q30 0 48 -16t28 -61q155 -703 205 -1371q3 -38 -16.5 -59.5t-53.5 -21.5q-57 0 -63 57q-6 79 -33 328h-617q-24 -54 -147 -332q-23 -53 -74 -53q-33 0 -49 25.5t-2 64.5zM330 492h544q-54 405 -137 796q-233 -423 -407 -796z M469 1800q-1 49 54.5 85t127.5 38q50 1 98 -19.5t91 -41t82 -19.5q30 0 52 9t32 20t24 20t29 9q23 1 39 -17t16 -43q1 -50 -55 -86.5t-129 -36.5q-50 -1 -97.5 19t-89.5 40t-81 19q-30 0 -52.5 -9t-33 -19.5t-25 -19.5t-29.5 -9q-23 0 -38 18t-15 43z" />
<glyph unicode="&#xc4;" horiz-adv-x="1134" d="M-2 70q289 676 674 1364q44 75 100 75q30 0 48 -16t28 -61q155 -703 205 -1371q3 -38 -16.5 -59.5t-53.5 -21.5q-57 0 -63 57q-6 79 -33 328h-617q-24 -54 -147 -332q-23 -53 -74 -53q-33 0 -49 25.5t-2 64.5zM330 492h544q-54 405 -137 796q-233 -423 -407 -796z M561 1794q0 32 22 55t54 23t55 -23t23 -55t-23 -54t-55 -22t-54 22t-22 54zM866 1794q0 32 22 55t54 23t54 -23t22 -55t-22 -54t-54 -22t-54 22t-22 54z" />
<glyph unicode="&#xc5;" horiz-adv-x="1134" d="M-2 70q289 676 674 1364q44 75 100 75q30 0 48 -16t28 -61q155 -703 205 -1371q3 -38 -16.5 -59.5t-53.5 -21.5q-57 0 -63 57q-6 79 -33 328h-617q-24 -54 -147 -332q-23 -53 -74 -53q-33 0 -49 25.5t-2 64.5zM330 492h544q-54 405 -137 796q-233 -423 -407 -796z M563 1819q0 98 70 167.5t168 69.5q100 0 169.5 -69.5t69.5 -167.5q0 -101 -69.5 -170.5t-169.5 -69.5q-99 0 -168.5 69.5t-69.5 170.5zM645 1819q0 -65 46.5 -111.5t109.5 -46.5q64 0 110.5 46.5t46.5 111.5q0 64 -46.5 108.5t-110.5 44.5t-110 -44.5t-46 -108.5z" />
<glyph unicode="&#xc6;" horiz-adv-x="1789" d="M-16 61q4 21 14 33q407 599 981 1340q45 61 102 61h703q31 0 51 -20q12 -18 12 -39q0 -30 -21 -50t-54 -20h-560l-108 -557h493q34 0 52 -21q12 -15 12 -36q0 -29 -21 -48.5t-55 -19.5h-506l-106 -555h577q32 0 49 -20q15 -15 15 -39q0 -30 -21.5 -50t-54.5 -20h-649 q-27 0 -45.5 16.5t-18.5 46.5v17l58 287h-539q-129 -179 -231 -332q-29 -39 -68 -39q-31 0 -48.5 18.5t-12.5 46.5zM432 494h473l164 849q-348 -448 -637 -849z" />
<glyph unicode="&#xc7;" horiz-adv-x="1089" d="M186 430q0 88 19 193l53 290q27 147 73 254.5t118.5 187t178.5 119t246 39.5q117 0 220 -49q82 -43 82 -86q0 -25 -19.5 -45t-46.5 -20q-11 0 -20.5 4.5t-24 14t-29.5 16.5q-77 41 -164 41q-95 0 -170.5 -27t-126 -71.5t-88.5 -113t-60.5 -140.5t-39.5 -165l-49 -274 q-16 -101 -16 -172q0 -320 305 -320q114 0 237 68q14 8 30 18.5t25 16.5t19 10t20 4q27 0 44.5 -19.5t17.5 -45.5q0 -40 -72 -84q-148 -89 -321 -92l-9 -66q211 0 211 -158q0 -77 -72 -127.5t-184 -50.5q-65 0 -92.5 9t-27.5 36q0 37 102 37q75 0 117.5 27t44.5 69 q0 45 -31 63t-96 23q-34 5 -47 12t-13 25q0 17 7 45l8 60q-188 21 -273.5 140t-85.5 304z" />
<glyph unicode="&#xc8;" horiz-adv-x="1091" d="M129 63q0 11 2 17l258 1345q7 33 28.5 51.5t49.5 18.5h674q13 0 33 -12q30 -15 30 -47q0 -30 -21.5 -50t-54.5 -20h-612l-108 -557h546q18 0 31 -10q31 -14 31 -47q0 -29 -21 -48.5t-53 -19.5h-557l-109 -555h631q8 0 33 -10q31 -19 31 -49q0 -29 -22.5 -49.5 t-55.5 -20.5h-700q-26 0 -45 17t-19 46zM667 2008.5q9 25.5 35 35.5q28 10 52 -2t34 -35l127 -309q9 -23 -0.5 -43t-31.5 -29q-24 -8 -45 1t-31 32l-139 303q-10 21 -1 46.5z" />
<glyph unicode="&#xc9;" horiz-adv-x="1091" d="M129 63q0 11 2 17l258 1345q7 33 28.5 51.5t49.5 18.5h674q13 0 33 -12q30 -15 30 -47q0 -30 -21.5 -50t-54.5 -20h-612l-108 -557h546q18 0 31 -10q31 -14 31 -47q0 -29 -21 -48.5t-53 -19.5h-557l-109 -555h631q8 0 33 -10q31 -19 31 -49q0 -29 -22.5 -49.5 t-55.5 -20.5h-700q-26 0 -45 17t-19 46zM735 1681q0 16 8 27l170 309q17 33 54 33q19 0 32 -8q15 -7 24 -22t9 -29q0 -15 -8 -31l-184 -303q-16 -31 -49 -31q-14 0 -25 8q-31 14 -31 47z" />
<glyph unicode="&#xca;" horiz-adv-x="1091" d="M129 63q0 11 2 17l258 1345q7 33 28.5 51.5t49.5 18.5h674q13 0 33 -12q30 -15 30 -47q0 -30 -21.5 -50t-54.5 -20h-612l-108 -557h546q18 0 31 -10q31 -14 31 -47q0 -29 -21 -48.5t-53 -19.5h-557l-109 -555h631q8 0 33 -10q31 -19 31 -49q0 -29 -22.5 -49.5 t-55.5 -20.5h-700q-26 0 -45 17t-19 46zM494 1714q0 22 24 43l287 268q17 17 45 17q24 0 43 -19l240 -264q18 -21 18 -41q0 -24 -15.5 -40.5t-41.5 -16.5q-23 0 -37 14l-215 226l-256 -226q-16 -16 -37 -16q-22 0 -38.5 16t-16.5 39z" />
<glyph unicode="&#xcb;" horiz-adv-x="1091" d="M129 63q0 11 2 17l258 1345q7 33 28.5 51.5t49.5 18.5h674q13 0 33 -12q30 -15 30 -47q0 -30 -21.5 -50t-54.5 -20h-612l-108 -557h546q18 0 31 -10q31 -14 31 -47q0 -29 -21 -48.5t-53 -19.5h-557l-109 -555h631q8 0 33 -10q31 -19 31 -49q0 -29 -22.5 -49.5 t-55.5 -20.5h-700q-26 0 -45 17t-19 46zM594 1794q0 32 22 55t54 23t55 -23t23 -55t-23 -54t-55 -22t-54 22t-22 54zM899 1794q0 32 22 55t54 23t54 -23t22 -55t-22 -54t-54 -22t-54 22t-22 54z" />
<glyph unicode="&#xcc;" horiz-adv-x="489" d="M129 45q0 10 2 16l266 1387q6 30 26 47.5t46 17.5q27 0 46.5 -17.5t19.5 -45.5l-3 -18l-268 -1385q-4 -30 -24 -47.5t-47 -17.5q-26 0 -45 17t-19 46zM423.5 2008.5q9.5 25.5 35.5 35.5q28 10 52 -2t34 -35l127 -309q9 -23 -1 -43t-32 -29q-24 -8 -45 1t-31 32l-139 303 q-10 21 -0.5 46.5z" />
<glyph unicode="&#xcd;" horiz-adv-x="489" d="M129 45q0 10 2 16l266 1387q6 30 26 47.5t46 17.5q27 0 46.5 -17.5t19.5 -45.5l-3 -18l-268 -1385q-4 -30 -24 -47.5t-47 -17.5q-26 0 -45 17t-19 46zM371 1681q0 16 8 27l170 309q17 33 53 33q20 0 33 -8q15 -7 24 -22t9 -29q0 -13 -9 -31l-184 -303q-15 -31 -49 -31 q-14 0 -25 8q-30 13 -30 47z" />
<glyph unicode="&#xce;" horiz-adv-x="489" d="M129 45q0 10 2 16l266 1387q6 30 26 47.5t46 17.5q27 0 46.5 -17.5t19.5 -45.5l-3 -18l-268 -1385q-4 -30 -24 -47.5t-47 -17.5q-26 0 -45 17t-19 46zM190 1714q0 22 25 43l287 268q17 17 45 17q24 0 43 -19l239 -264q19 -22 19 -41q0 -24 -15.5 -40.5t-41.5 -16.5 q-23 0 -37 14l-215 226l-256 -226q-16 -16 -37 -16q-22 0 -39 16t-17 39z" />
<glyph unicode="&#xcf;" horiz-adv-x="489" d="M129 45q0 10 2 16l266 1387q6 30 26 47.5t46 17.5q27 0 46.5 -17.5t19.5 -45.5l-3 -18l-268 -1385q-4 -30 -24 -47.5t-47 -17.5q-26 0 -45 17t-19 46zM266 1794q0 32 22 55t54 23t55 -23t23 -55t-23 -54t-55 -22t-54 22t-22 54zM571 1794q0 32 22 55t54 23t54 -23t22 -55 t-22 -54t-54 -22t-54 22t-22 54z" />
<glyph unicode="&#xd0;" horiz-adv-x="1343" d="M61 727q0 31 21 50.5t55 19.5h164l121 628q6 33 27 51.5t49 18.5h346q108 0 190.5 -30t132.5 -78t81.5 -114.5t43 -131.5t11.5 -137q0 -82 -21 -197l-49 -250q-109 -557 -633 -557h-375q-27 0 -45 16.5t-18 46.5q0 11 2 17l112 590h-151q-28 0 -49 18q-15 18 -15 39z M309 127h293q101 0 181.5 27t132 69t90 105t59 124t35.5 138l51 258q16 90 16 151t-9.5 112.5t-33.5 99t-61.5 81t-96.5 53t-135 19.5h-284l-109 -567h189q31 0 47 -19q14 -14 14 -39q0 -29 -21 -49t-53 -20h-200z" />
<glyph unicode="&#xd1;" horiz-adv-x="1345" d="M125 43q0 2 1 7.5t1 8.5l268 1387q11 67 76 67q43 0 64 -53l491 -1204l229 1190q16 67 76 67q25 0 41.5 -17t16.5 -44q0 -9 -3 -18l-266 -1389q-12 -63 -73 -63q-48 0 -68 47l-492 1206l-229 -1190q-6 -30 -25 -46.5t-45 -16.5t-44.5 16.5t-18.5 44.5zM635 1800 q-1 49 54.5 85t127.5 38q50 1 98 -19.5t90.5 -41t81.5 -19.5q30 0 52 9t32.5 20t24.5 20t29 9q23 1 39 -17t16 -43q1 -50 -55 -86.5t-129 -36.5q-50 -1 -97.5 19t-90 40t-81.5 19q-30 0 -52 -9t-33 -19.5t-25 -19.5t-29 -9q-23 0 -38 18t-15 43z" />
<glyph unicode="&#xd2;" horiz-adv-x="1245" d="M186 436q0 90 21 213l41 228q19 103 42.5 184.5t69.5 170t107 147t156.5 96.5t216.5 38q84 0 151.5 -25t112 -67.5t74 -102t42.5 -125.5t13 -142q0 -75 -19 -183l-47 -264q-18 -102 -42 -183t-69.5 -166.5t-106.5 -142.5t-155.5 -93.5t-213.5 -36.5q-85 0 -152.5 23.5 t-112 64t-74 98.5t-42.5 124.5t-13 143.5zM324 438q0 -155 63 -241t195 -86q90 0 161 27.5t117.5 71.5t81.5 112t55 137t35 159l49 279q15 83 15 160q0 145 -65 236t-193 91q-92 0 -164 -28.5t-119 -74.5t-82.5 -117t-55.5 -141.5t-36 -162.5l-41 -239q-16 -106 -16 -183z M808.5 2008.5q9.5 25.5 35.5 35.5q28 10 52 -2t34 -35l127 -309q9 -23 -1 -43t-32 -29q-24 -8 -45 1t-31 32l-139 303q-10 21 -0.5 46.5z" />
<glyph unicode="&#xd3;" horiz-adv-x="1245" d="M186 436q0 90 21 213l41 228q19 103 42.5 184.5t69.5 170t107 147t156.5 96.5t216.5 38q84 0 151.5 -25t112 -67.5t74 -102t42.5 -125.5t13 -142q0 -75 -19 -183l-47 -264q-18 -102 -42 -183t-69.5 -166.5t-106.5 -142.5t-155.5 -93.5t-213.5 -36.5q-85 0 -152.5 23.5 t-112 64t-74 98.5t-42.5 124.5t-13 143.5zM324 438q0 -155 63 -241t195 -86q90 0 161 27.5t117.5 71.5t81.5 112t55 137t35 159l49 279q15 83 15 160q0 145 -65 236t-193 91q-92 0 -164 -28.5t-119 -74.5t-82.5 -117t-55.5 -141.5t-36 -162.5l-41 -239q-16 -106 -16 -183z M741 1681q0 15 9 27l170 309q16 33 53 33q20 0 33 -8q14 -7 23 -22t9 -29q0 -15 -8 -31l-184 -303q-16 -31 -49 -31q-14 0 -25 8q-31 14 -31 47z" />
<glyph unicode="&#xd4;" horiz-adv-x="1245" d="M186 436q0 90 21 213l41 228q19 103 42.5 184.5t69.5 170t107 147t156.5 96.5t216.5 38q84 0 151.5 -25t112 -67.5t74 -102t42.5 -125.5t13 -142q0 -75 -19 -183l-47 -264q-18 -102 -42 -183t-69.5 -166.5t-106.5 -142.5t-155.5 -93.5t-213.5 -36.5q-85 0 -152.5 23.5 t-112 64t-74 98.5t-42.5 124.5t-13 143.5zM324 438q0 -155 63 -241t195 -86q90 0 161 27.5t117.5 71.5t81.5 112t55 137t35 159l49 279q15 83 15 160q0 145 -65 236t-193 91q-92 0 -164 -28.5t-119 -74.5t-82.5 -117t-55.5 -141.5t-36 -162.5l-41 -239q-16 -106 -16 -183z M559 1714q0 22 25 43l286 268q17 17 45 17q24 0 43 -19l240 -264q19 -22 19 -41q0 -24 -16 -40.5t-42 -16.5q-23 0 -37 14l-215 226l-256 -226q-16 -16 -37 -16q-22 0 -38.5 16t-16.5 39z" />
<glyph unicode="&#xd5;" horiz-adv-x="1245" d="M186 436q0 90 21 213l41 228q19 103 42.5 184.5t69.5 170t107 147t156.5 96.5t216.5 38q84 0 151.5 -25t112 -67.5t74 -102t42.5 -125.5t13 -142q0 -75 -19 -183l-47 -264q-18 -102 -42 -183t-69.5 -166.5t-106.5 -142.5t-155.5 -93.5t-213.5 -36.5q-85 0 -152.5 23.5 t-112 64t-74 98.5t-42.5 124.5t-13 143.5zM324 438q0 -155 63 -241t195 -86q90 0 161 27.5t117.5 71.5t81.5 112t55 137t35 159l49 279q15 83 15 160q0 145 -65 236t-193 91q-92 0 -164 -28.5t-119 -74.5t-82.5 -117t-55.5 -141.5t-36 -162.5l-41 -239q-16 -106 -16 -183z M573 1800q-1 48 55 84.5t128 38.5q50 1 98 -19.5t90.5 -41t81.5 -19.5q30 0 52 9t32 20t24 20t29 9q23 1 39.5 -17t16.5 -43q1 -50 -55.5 -86.5t-129.5 -36.5q-50 -1 -97.5 19t-89.5 40t-81 19q-30 0 -52 -9t-33 -19.5t-25 -19.5t-29 -9q-23 0 -38.5 18t-15.5 43z" />
<glyph unicode="&#xd6;" horiz-adv-x="1245" d="M186 436q0 90 21 213l41 228q19 103 42.5 184.5t69.5 170t107 147t156.5 96.5t216.5 38q84 0 151.5 -25t112 -67.5t74 -102t42.5 -125.5t13 -142q0 -75 -19 -183l-47 -264q-18 -102 -42 -183t-69.5 -166.5t-106.5 -142.5t-155.5 -93.5t-213.5 -36.5q-85 0 -152.5 23.5 t-112 64t-74 98.5t-42.5 124.5t-13 143.5zM324 438q0 -155 63 -241t195 -86q90 0 161 27.5t117.5 71.5t81.5 112t55 137t35 159l49 279q15 83 15 160q0 145 -65 236t-193 91q-92 0 -164 -28.5t-119 -74.5t-82.5 -117t-55.5 -141.5t-36 -162.5l-41 -239q-16 -106 -16 -183z M653 1794q0 32 22 55t54 23t55 -23t23 -55t-23 -54t-55 -22t-54 22t-22 54zM958 1794q0 32 22 55t54 23t54 -23t22 -55t-22 -54t-54 -22t-54 22t-22 54z" />
<glyph unicode="&#xd7;" horiz-adv-x="860" d="M117 305q0 25 22 47l246 211l-154 213q-16 21 -12 49q8 20 25 33q27 20 51.5 15.5t42.5 -29.5l143 -197l236 207q23 22 50 20.5t46 -26.5q12 -15 12 -37q0 -29 -22 -45l-248 -217l152 -207q16 -25 10 -49q-4 -14 -25 -35q-55 -39 -94 16l-139 191l-234 -203 q-23 -21 -50.5 -19.5t-45.5 25.5q-12 20 -12 37z" />
<glyph unicode="&#xd8;" horiz-adv-x="1245" d="M179.5 -40.5q-4.5 19.5 4.5 34.5l82 131q-80 115 -80 311q0 90 21 213l41 228q19 103 42.5 184.5t69.5 170t107 147t156.5 96.5t216.5 38q150 0 243 -77l68 110q11 15 29.5 20t33.5 -5q23 -13 23 -37q0 -15 -6 -27l-82 -131q84 -120 84 -315q0 -75 -19 -183l-47 -264 q-18 -102 -42 -183t-69.5 -166.5t-106.5 -142.5t-155.5 -93.5t-213.5 -36.5q-156 0 -248 73l-70 -110q-9 -15 -27.5 -19.5t-35.5 4.5q-15 10 -19.5 29.5zM324 438q0 -104 26 -178l660 1057q-64 67 -172 67q-92 0 -164 -28.5t-119 -74.5t-82.5 -117t-55.5 -141.5t-36 -162.5 l-41 -239q-16 -106 -16 -183zM406 174q63 -63 176 -63q90 0 161 27.5t117.5 71.5t81.5 112t55 137t35 159l49 279q15 83 15 160q0 98 -31 174z" />
<glyph unicode="&#xd9;" horiz-adv-x="1277" d="M178 416q0 84 25 221l155 811q6 30 26 47.5t46 17.5q27 0 45.5 -17.5t18.5 -45.5v-18l-158 -822q-21 -110 -21 -188q-2 -157 65.5 -236.5t213.5 -79.5q95 0 168.5 27t121.5 70.5t84 113.5t56.5 138t38.5 163l158 830q6 30 26 47.5t47 17.5q26 0 45 -17.5t19 -45.5 q0 -12 -2 -18l-162 -838q-13 -71 -29 -130.5t-41.5 -124t-57.5 -115t-78.5 -97.5t-103 -77.5t-132 -49t-164.5 -18.5q-210 0 -311.5 116.5t-98.5 317.5zM753 2008.5q9 25.5 35 35.5q28 10 52 -2t34 -35l127 -309q9 -23 -0.5 -43t-31.5 -29q-24 -8 -45 1t-31 32l-139 303 q-10 21 -1 46.5z" />
<glyph unicode="&#xda;" horiz-adv-x="1277" d="M178 416q0 84 25 221l155 811q6 30 26 47.5t46 17.5q27 0 45.5 -17.5t18.5 -45.5v-18l-158 -822q-21 -110 -21 -188q-2 -157 65.5 -236.5t213.5 -79.5q95 0 168.5 27t121.5 70.5t84 113.5t56.5 138t38.5 163l158 830q6 30 26 47.5t47 17.5q26 0 45 -17.5t19 -45.5 q0 -12 -2 -18l-162 -838q-13 -71 -29 -130.5t-41.5 -124t-57.5 -115t-78.5 -97.5t-103 -77.5t-132 -49t-164.5 -18.5q-210 0 -311.5 116.5t-98.5 317.5zM784 1681q0 15 9 27l170 309q17 33 53 33q20 0 33 -8q14 -7 23 -22t9 -29q0 -15 -8 -31l-184 -303q-15 -31 -49 -31 q-14 0 -25 8q-31 14 -31 47z" />
<glyph unicode="&#xdb;" horiz-adv-x="1277" d="M178 416q0 84 25 221l155 811q6 30 26 47.5t46 17.5q27 0 45.5 -17.5t18.5 -45.5v-18l-158 -822q-21 -110 -21 -188q-2 -157 65.5 -236.5t213.5 -79.5q95 0 168.5 27t121.5 70.5t84 113.5t56.5 138t38.5 163l158 830q6 30 26 47.5t47 17.5q26 0 45 -17.5t19 -45.5 q0 -12 -2 -18l-162 -838q-13 -71 -29 -130.5t-41.5 -124t-57.5 -115t-78.5 -97.5t-103 -77.5t-132 -49t-164.5 -18.5q-210 0 -311.5 116.5t-98.5 317.5zM559 1714q0 22 25 43l286 268q17 17 45 17q24 0 43 -19l240 -264q19 -22 19 -41q0 -24 -16 -40.5t-42 -16.5 q-23 0 -37 14l-215 226l-256 -226q-16 -16 -37 -16q-22 0 -38.5 16t-16.5 39z" />
<glyph unicode="&#xdc;" horiz-adv-x="1277" d="M178 416q0 84 25 221l155 811q6 30 26 47.5t46 17.5q27 0 45.5 -17.5t18.5 -45.5v-18l-158 -822q-21 -110 -21 -188q-2 -157 65.5 -236.5t213.5 -79.5q95 0 168.5 27t121.5 70.5t84 113.5t56.5 138t38.5 163l158 830q6 30 26 47.5t47 17.5q26 0 45 -17.5t19 -45.5 q0 -12 -2 -18l-162 -838q-13 -71 -29 -130.5t-41.5 -124t-57.5 -115t-78.5 -97.5t-103 -77.5t-132 -49t-164.5 -18.5q-210 0 -311.5 116.5t-98.5 317.5zM666 1794q0 33 21.5 55.5t53.5 22.5t55 -23t23 -55t-23 -54t-55 -22t-53.5 22t-21.5 54zM971 1794q0 32 22 55t54 23 t53.5 -22.5t21.5 -55.5q0 -32 -21.5 -54t-53.5 -22t-54 22t-22 54z" />
<glyph unicode="&#xdd;" horiz-adv-x="976" d="M217 1430q-9 36 13 59.5t55 23.5q52 0 63 -53q84 -371 209 -768q258 364 518 789q17 32 53 32q35 0 55 -30t-1 -68q-248 -407 -580 -878l-94 -490q-6 -30 -26.5 -47.5t-47.5 -17.5q-26 0 -44.5 17t-18.5 46q0 10 2 16l92 480q-148 452 -248 889zM606 1681q0 16 8 27 l170 309q16 33 54 33q19 0 32 -8q15 -7 24 -22t9 -29q0 -15 -8 -31l-184 -303q-15 -31 -49 -31q-14 0 -25 8q-31 14 -31 47z" />
<glyph unicode="&#xde;" horiz-adv-x="1167" d="M61 -299q0 12 2 18l369 1932q6 30 26 47.5t46 17.5q27 0 45 -17t18 -46v-17l-94 -485h311q101 0 177.5 -30t121 -82t66.5 -116.5t22 -140.5q0 -48 -10 -110l-8 -47q-32 -171 -158.5 -264t-330.5 -93h-359l-108 -565q-6 -30 -25.5 -46.5t-46.5 -16.5t-45.5 16.5 t-18.5 44.5zM330 393h332q153 0 242 64.5t114 185.5l8 41q10 55 10 90q0 112 -65 181t-199 69h-323z" />
<glyph unicode="&#xdf;" horiz-adv-x="1142" d="M76 -66l205 1051q98 506 493 506q144 0 231 -80t58 -225q-15 -77 -55.5 -132t-90.5 -81.5t-107 -47.5t-104.5 -33t-82 -35t-41.5 -56q-9 -51 32.5 -78.5t130.5 -52.5q34 -9 61.5 -18.5t58 -23t53 -29t45.5 -36t35.5 -44.5t23.5 -54t9.5 -65t-7.5 -78q-22 -113 -89 -189.5 t-160 -110.5t-210 -34q-147 0 -243 41q-24 9 -28.5 34t9.5 46q32 41 70 30q97 -33 217 -33q130 0 208.5 57t100.5 169q11 58 0 99t-53.5 68t-71 38.5t-97.5 31.5q-57 17 -85 27q-74 27 -113.5 77t-25.5 118q11 59 48.5 98.5t86 57t105.5 37t105.5 37.5t87 59t50.5 102 q18 94 -31 142t-141 48q-279 0 -354 -387l-203 -1051q-6 -28 -29.5 -46.5t-50.5 -18.5q-26 0 -41.5 18.5t-9.5 46.5z" />
<glyph unicode="&#xe0;" horiz-adv-x="1019" d="M125 307q0 56 16 150l25 143q13 73 31 132t50.5 117t76.5 96.5t111 62.5t151 24q146 0 252 -86l8 43q4 20 21.5 31.5t37.5 11.5q26 0 44 -16t18 -43q0 -3 -1 -9t-1 -8l-140 -725q-11 -69 -4 -93t37 -46q30 -20 25 -51q-11 -53 -72 -53q-51 0 -88 43q-21 25 -25 47 q-137 -90 -266 -90q-149 0 -228 85.5t-79 233.5zM254 324q0 -104 50 -161t147 -57q109 0 239 97l119 620q-86 92 -217 92q-75 0 -129.5 -26t-87 -75t-50.5 -101t-30 -123l-33 -178q-8 -44 -8 -88zM538 1602.5q9 25.5 35 35.5q28 10 52 -1.5t34 -34.5l127 -310 q9 -23 -0.5 -42.5t-31.5 -28.5q-24 -8 -45 0.5t-31 31.5l-139 303q-10 21 -1 46.5z" />
<glyph unicode="&#xe1;" horiz-adv-x="1019" d="M125 307q0 56 16 150l25 143q13 73 31 132t50.5 117t76.5 96.5t111 62.5t151 24q146 0 252 -86l8 43q4 20 21.5 31.5t37.5 11.5q26 0 44 -16t18 -43q0 -3 -1 -9t-1 -8l-140 -725q-11 -69 -4 -93t37 -46q30 -20 25 -51q-11 -53 -72 -53q-51 0 -88 43q-21 25 -25 47 q-137 -90 -266 -90q-149 0 -228 85.5t-79 233.5zM254 324q0 -104 50 -161t147 -57q109 0 239 97l119 620q-86 92 -217 92q-75 0 -129.5 -26t-87 -75t-50.5 -101t-30 -123l-33 -178q-8 -44 -8 -88zM528 1274q0 14 9 26l170 310q16 32 53 32q20 0 33 -8q14 -7 23 -22t9 -29 q0 -15 -8 -31l-184 -303q-15 -30 -49 -30q-14 0 -25 8q-31 14 -31 47z" />
<glyph unicode="&#xe2;" horiz-adv-x="1019" d="M125 307q0 56 16 150l25 143q13 73 31 132t50.5 117t76.5 96.5t111 62.5t151 24q146 0 252 -86l8 43q4 20 21.5 31.5t37.5 11.5q26 0 44 -16t18 -43q0 -3 -1 -9t-1 -8l-140 -725q-11 -69 -4 -93t37 -46q30 -20 25 -51q-11 -53 -72 -53q-51 0 -88 43q-21 25 -25 47 q-137 -90 -266 -90q-149 0 -228 85.5t-79 233.5zM254 324q0 -104 50 -161t147 -57q109 0 239 97l119 620q-86 92 -217 92q-75 0 -129.5 -26t-87 -75t-50.5 -101t-30 -123l-33 -178q-8 -44 -8 -88zM326 1307q0 22 24 43l287 268q16 16 45 16q25 0 43 -18l240 -264 q18 -21 18 -41q0 -24 -16 -41t-41 -17q-22 0 -37 15l-215 225l-256 -225q-17 -17 -37 -17q-22 0 -38.5 16.5t-16.5 39.5z" />
<glyph unicode="&#xe3;" horiz-adv-x="1019" d="M125 307q0 56 16 150l25 143q13 73 31 132t50.5 117t76.5 96.5t111 62.5t151 24q146 0 252 -86l8 43q4 20 21.5 31.5t37.5 11.5q26 0 44 -16t18 -43q0 -3 -1 -9t-1 -8l-140 -725q-11 -69 -4 -93t37 -46q30 -20 25 -51q-11 -53 -72 -53q-51 0 -88 43q-21 25 -25 47 q-137 -90 -266 -90q-149 0 -228 85.5t-79 233.5zM254 324q0 -104 50 -161t147 -57q109 0 239 97l119 620q-86 92 -217 92q-75 0 -129.5 -26t-87 -75t-50.5 -101t-30 -123l-33 -178q-8 -44 -8 -88zM332 1391q-1 48 54.5 84t127.5 38q50 1 98 -19.5t90.5 -40.5t81.5 -19 q30 0 52 9t32.5 19.5t24.5 19.5t29 9q23 1 39 -16.5t16 -42.5q1 -50 -55 -86.5t-129 -36.5q-50 -1 -97.5 19t-90 39.5t-81.5 18.5q-30 0 -52 -9t-33 -19.5t-25 -19.5t-29 -9q-23 0 -38 18.5t-15 43.5z" />
<glyph unicode="&#xe4;" horiz-adv-x="1019" d="M125 307q0 56 16 150l25 143q13 73 31 132t50.5 117t76.5 96.5t111 62.5t151 24q146 0 252 -86l8 43q4 20 21.5 31.5t37.5 11.5q26 0 44 -16t18 -43q0 -3 -1 -9t-1 -8l-140 -725q-11 -69 -4 -93t37 -46q30 -20 25 -51q-11 -53 -72 -53q-51 0 -88 43q-21 25 -25 47 q-137 -90 -266 -90q-149 0 -228 85.5t-79 233.5zM254 324q0 -104 50 -161t147 -57q109 0 239 97l119 620q-86 92 -217 92q-75 0 -129.5 -26t-87 -75t-50.5 -101t-30 -123l-33 -178q-8 -44 -8 -88zM397 1372q0 32 22 55t54 23t55 -23t23 -55t-23 -54t-55 -22t-54 22t-22 54z M702 1372q0 32 22 55t54 23t54 -23t22 -55t-22 -54t-54 -22t-54 22t-22 54z" />
<glyph unicode="&#xe5;" horiz-adv-x="1019" d="M125 307q0 56 16 150l25 143q13 73 31 132t50.5 117t76.5 96.5t111 62.5t151 24q146 0 252 -86l8 43q4 20 21.5 31.5t37.5 11.5q26 0 44 -16t18 -43q0 -3 -1 -9t-1 -8l-140 -725q-11 -69 -4 -93t37 -46q30 -20 25 -51q-11 -53 -72 -53q-51 0 -88 43q-21 25 -25 47 q-137 -90 -266 -90q-149 0 -228 85.5t-79 233.5zM254 324q0 -104 50 -161t147 -57q109 0 239 97l119 620q-86 92 -217 92q-75 0 -129.5 -26t-87 -75t-50.5 -101t-30 -123l-33 -178q-8 -44 -8 -88zM416 1409q0 98 69.5 168t167.5 70q100 0 170 -70t70 -168q0 -101 -70 -170.5 t-170 -69.5q-99 0 -168 69.5t-69 170.5zM498 1409q0 -66 46 -112t109 -46q64 0 111 46.5t47 111.5q0 64 -47 109t-111 45q-63 0 -109 -45t-46 -109z" />
<glyph unicode="&#xe6;" horiz-adv-x="1564" d="M125 305q0 56 16 150l25 143q13 73 31 132t50.5 117t76.5 96.5t111 62.5t151 24q146 0 252 -86l8 43q4 21 20.5 32t38.5 11t36 -13t11 -32l-8 -51q111 96 273 96q161 0 238 -92t77 -244q0 -62 -8 -114l-11 -62q-3 -22 -20 -35.5t-43 -13.5h-576l-8 -45q-6 -41 -6 -82 q0 -108 58 -175t161 -67q95 0 197 37q14 4 33 12.5t28 8.5q25 0 40.5 -17t15.5 -45q0 -37 -43 -55q-137 -55 -283 -55q-188 0 -268 149l-23 -112q-9 -37 -55 -37q-24 0 -39 13.5t-12 33.5l4 28q-126 -75 -242 -75q-149 0 -228 85.5t-79 233.5zM254 322q0 -104 50 -161 t147 -57q109 0 239 97l119 620q-42 45 -100.5 68.5t-116.5 23.5q-75 0 -129.5 -26t-87 -75t-50.5 -101t-30 -123l-33 -178q-8 -44 -8 -88zM893 578h504l4 26q8 66 8 94q0 105 -48.5 162.5t-146.5 57.5q-135 0 -213 -82.5t-102 -227.5z" />
<glyph unicode="&#xe7;" horiz-adv-x="847" d="M135 348q0 52 6 96l23 140q16 96 52 176t92.5 141.5t138 96t180.5 34.5q145 0 231 -51q37 -23 37 -57q0 -27 -18.5 -43.5t-42.5 -16.5q-17 0 -46 14.5t-63 22.5q-47 12 -102 12q-134 0 -220 -93.5t-112 -252.5l-23 -141q-6 -38 -6 -70q0 -120 61 -185t183 -65 q74 0 125 15q31 8 61.5 22.5t46.5 14.5q20 0 36 -12.5t16 -36.5q0 -44 -62 -74q-98 -44 -215 -47l-8 -72q211 0 211 -158q0 -77 -72 -127.5t-184 -50.5q-65 0 -93 9t-28 36q0 37 102 37q75 0 117.5 27t44.5 69q0 45 -31 63t-96 23q-34 5 -46.5 12t-12.5 25q0 21 6 45l8 66 q-148 13 -223.5 106t-73.5 250z" />
<glyph unicode="&#xe8;" horiz-adv-x="962" d="M131 348q0 45 10 103l27 159q14 88 47 162t86 133.5t133 93t180 33.5q83 0 145.5 -25.5t99.5 -72t55 -106t18 -132.5q0 -49 -10 -114l-9 -62q-5 -22 -22 -35.5t-43 -13.5l-576 -2l-6 -43q-8 -54 -8 -82q0 -109 58 -175.5t163 -66.5q92 0 197 37q10 3 20.5 7t16 6.5t12 4 t12.5 1.5q25 0 40.5 -16.5t15.5 -43.5q0 -38 -45 -55q-133 -55 -283 -55q-84 0 -149 28.5t-105 78.5t-60 114t-20 139zM293 580h502l4 26q8 44 8 94q0 106 -48 163t-145 57q-261 0 -317 -310zM523.5 1602.5q9.5 25.5 35.5 35.5q28 10 52 -1.5t34 -34.5l127 -310 q9 -23 -1 -42.5t-32 -28.5q-24 -8 -44.5 0.5t-30.5 31.5l-140 303q-10 21 -0.5 46.5z" />
<glyph unicode="&#xe9;" horiz-adv-x="962" d="M131 348q0 45 10 103l27 159q14 88 47 162t86 133.5t133 93t180 33.5q83 0 145.5 -25.5t99.5 -72t55 -106t18 -132.5q0 -49 -10 -114l-9 -62q-5 -22 -22 -35.5t-43 -13.5l-576 -2l-6 -43q-8 -54 -8 -82q0 -109 58 -175.5t163 -66.5q92 0 197 37q10 3 20.5 7t16 6.5t12 4 t12.5 1.5q25 0 40.5 -16.5t15.5 -43.5q0 -38 -45 -55q-133 -55 -283 -55q-84 0 -149 28.5t-105 78.5t-60 114t-20 139zM293 580h502l4 26q8 44 8 94q0 106 -48 163t-145 57q-261 0 -317 -310zM518 1274q0 15 8 26l170 310q16 32 54 32q19 0 32 -8q15 -7 24 -22t9 -29 q0 -15 -8 -31l-184 -303q-15 -30 -50 -30q-13 0 -24 8q-31 14 -31 47z" />
<glyph unicode="&#xea;" horiz-adv-x="962" d="M131 348q0 45 10 103l27 159q14 88 47 162t86 133.5t133 93t180 33.5q83 0 145.5 -25.5t99.5 -72t55 -106t18 -132.5q0 -49 -10 -114l-9 -62q-5 -22 -22 -35.5t-43 -13.5l-576 -2l-6 -43q-8 -54 -8 -82q0 -109 58 -175.5t163 -66.5q92 0 197 37q10 3 20.5 7t16 6.5t12 4 t12.5 1.5q25 0 40.5 -16.5t15.5 -43.5q0 -38 -45 -55q-133 -55 -283 -55q-84 0 -149 28.5t-105 78.5t-60 114t-20 139zM293 580h502l4 26q8 44 8 94q0 106 -48 163t-145 57q-261 0 -317 -310zM338 1307q0 22 24 43l287 268q16 16 45 16q25 0 43 -18l240 -264q18 -21 18 -41 q0 -24 -16 -41t-41 -17q-22 0 -37 15l-215 225l-256 -225q-17 -17 -37 -17q-22 0 -38.5 16.5t-16.5 39.5z" />
<glyph unicode="&#xeb;" horiz-adv-x="962" d="M131 348q0 45 10 103l27 159q14 88 47 162t86 133.5t133 93t180 33.5q83 0 145.5 -25.5t99.5 -72t55 -106t18 -132.5q0 -49 -10 -114l-9 -62q-5 -22 -22 -35.5t-43 -13.5l-576 -2l-6 -43q-8 -54 -8 -82q0 -109 58 -175.5t163 -66.5q92 0 197 37q10 3 20.5 7t16 6.5t12 4 t12.5 1.5q25 0 40.5 -16.5t15.5 -43.5q0 -38 -45 -55q-133 -55 -283 -55q-84 0 -149 28.5t-105 78.5t-60 114t-20 139zM293 580h502l4 26q8 44 8 94q0 106 -48 163t-145 57q-261 0 -317 -310zM416 1372q0 32 22 55t54 23t54.5 -23t22.5 -55t-22.5 -54t-54.5 -22t-54 22 t-22 54zM721 1372q0 32 22 55t54 23t53.5 -22.5t21.5 -55.5q0 -32 -21.5 -54t-53.5 -22t-54 22t-22 54z" />
<glyph unicode="&#xec;" horiz-adv-x="428" d="M100 47q0 10 2 16l174 908q6 28 25 44.5t43 16.5q26 0 44 -16t18 -43q0 -3 -1.5 -9t-1.5 -8l-174 -907q-6 -29 -25 -45t-44 -16q-24 0 -42 16t-18 43zM312.5 1602.5q9.5 25.5 35.5 35.5q28 10 52 -1.5t34 -34.5l127 -310q9 -23 -1 -42.5t-32 -28.5q-24 -8 -44.5 0.5 t-30.5 31.5l-140 303q-10 21 -0.5 46.5z" />
<glyph unicode="&#xed;" horiz-adv-x="428" d="M100 47q0 10 2 16l174 908q6 28 25 44.5t43 16.5q26 0 44 -16t18 -43q0 -3 -1.5 -9t-1.5 -8l-174 -907q-6 -29 -25 -45t-44 -16q-24 0 -42 16t-18 43zM326 1274q0 15 8 26l170 310q16 32 53 32q20 0 33 -8q15 -7 24 -22t9 -29q0 -13 -9 -31l-184 -303q-15 -30 -49 -30 q-14 0 -25 8q-30 13 -30 47z" />
<glyph unicode="&#xee;" horiz-adv-x="428" d="M45 1307q0 22 25 43l286 268q16 16 45 16q25 0 43 -18l240 -264q18 -21 18 -41q0 -24 -16 -41t-41 -17q-22 0 -37 15l-215 225l-256 -225q-17 -17 -37 -17q-22 0 -38.5 16.5t-16.5 39.5zM100 47q0 10 2 16l174 908q6 28 25 44.5t43 16.5q26 0 44 -16t18 -43q0 -3 -1.5 -9 t-1.5 -8l-174 -907q-6 -29 -25 -45t-44 -16q-24 0 -42 16t-18 43z" />
<glyph unicode="&#xef;" horiz-adv-x="428" d="M100 47q0 10 2 16l174 908q6 28 25 44.5t43 16.5q26 0 44 -16t18 -43q0 -3 -1.5 -9t-1.5 -8l-174 -907q-6 -29 -25 -45t-44 -16q-24 0 -42 16t-18 43zM152 1372q0 33 21.5 55.5t53.5 22.5t55 -23t23 -55t-23 -54t-55 -22t-53.5 22t-21.5 54zM457 1372q0 33 21.5 55.5 t53.5 22.5t54 -23t22 -55t-22 -54t-54 -22t-53.5 22t-21.5 54z" />
<glyph unicode="&#xf0;" horiz-adv-x="1087" d="M117 420q0 110 45 202t117.5 150.5t160 90.5t176.5 32q141 0 254 -70q-54 211 -200 396l-236 -160q-20 -15 -42.5 -12t-33.5 22q-12 19 -5.5 42.5t26.5 37.5l217 149q-52 59 -90 93q-19 16 -23 36.5t5.5 37t24.5 28t36 11t39 -16.5q42 -35 117 -115l172 119 q20 14 42.5 10.5t34.5 -22.5q11 -18 5 -41.5t-27 -38.5l-158 -107q262 -336 262 -741q0 -136 -38.5 -246t-105 -180t-154.5 -107.5t-189 -37.5q-194 0 -313 118.5t-119 319.5zM246 420q0 -145 82.5 -229.5t220.5 -84.5q74 0 138 27.5t114 80.5t79 140t29 199q0 59 -6 117 q-118 106 -287 106q-93 0 -176.5 -42.5t-138.5 -125.5t-55 -188z" />
<glyph unicode="&#xf1;" horiz-adv-x="1064" d="M129 47l2 16l137 713q12 67 5 92t-37 45q-31 21 -25 54q11 53 72 53q51 0 88 -43q21 -23 26 -66q159 121 322 121q142 0 210 -75.5t68 -206.5q0 -54 -16 -148l-109 -553q-4 -29 -23 -45t-44 -16q-24 0 -42 16t-18 43v16l109 553q12 70 12 115q0 178 -172 178 q-152 0 -297 -135l-6 -39l-133 -686q-4 -28 -23 -44.5t-45 -16.5t-43.5 16t-17.5 43zM377 1391q-1 48 54.5 84t127.5 38q50 1 98 -19.5t90.5 -40.5t81.5 -19q30 0 52 9t32.5 19.5t24.5 19.5t29 9q23 1 39 -16.5t16 -42.5q1 -50 -55 -86.5t-129 -36.5q-50 -1 -97.5 19 t-90 39.5t-81.5 18.5q-30 0 -52 -9t-33 -19.5t-25 -19.5t-29 -9q-23 0 -38 18.5t-15 43.5z" />
<glyph unicode="&#xf2;" horiz-adv-x="995" d="M127 319q0 61 12 125l39 211q16 79 46.5 143t82.5 118t133 84t185 30q84 0 148 -28t100.5 -75.5t54 -105t16.5 -123.5q0 -64 -10 -108l-43 -225q-72 -377 -442 -377q-86 0 -150 26.5t-100.5 73.5t-54 104.5t-17.5 126.5zM256 328q0 -102 48 -160.5t153 -58.5 q141 0 212 73t97 203l41 217q8 39 8 88q0 98 -48.5 158.5t-152.5 60.5q-257 0 -309 -274l-39 -205q-10 -58 -10 -102zM566.5 1602.5q9.5 25.5 35.5 35.5q28 10 52 -1.5t34 -34.5l127 -310q9 -23 -1 -42.5t-32 -28.5q-24 -8 -44.5 0.5t-30.5 31.5l-140 303q-10 21 -0.5 46.5z " />
<glyph unicode="&#xf3;" horiz-adv-x="995" d="M127 319q0 61 12 125l39 211q16 79 46.5 143t82.5 118t133 84t185 30q84 0 148 -28t100.5 -75.5t54 -105t16.5 -123.5q0 -64 -10 -108l-43 -225q-72 -377 -442 -377q-86 0 -150 26.5t-100.5 73.5t-54 104.5t-17.5 126.5zM256 328q0 -102 48 -160.5t153 -58.5 q141 0 212 73t97 203l41 217q8 39 8 88q0 98 -48.5 158.5t-152.5 60.5q-257 0 -309 -274l-39 -205q-10 -58 -10 -102zM559 1274q0 15 8 26l170 310q16 32 54 32q19 0 32 -8q15 -7 24 -22t9 -29q0 -15 -8 -31l-184 -303q-15 -30 -50 -30q-13 0 -24 8q-31 14 -31 47z" />
<glyph unicode="&#xf4;" horiz-adv-x="995" d="M127 319q0 61 12 125l39 211q16 79 46.5 143t82.5 118t133 84t185 30q84 0 148 -28t100.5 -75.5t54 -105t16.5 -123.5q0 -64 -10 -108l-43 -225q-72 -377 -442 -377q-86 0 -150 26.5t-100.5 73.5t-54 104.5t-17.5 126.5zM256 328q0 -102 48 -160.5t153 -58.5 q141 0 212 73t97 203l41 217q8 39 8 88q0 98 -48.5 158.5t-152.5 60.5q-257 0 -309 -274l-39 -205q-10 -58 -10 -102zM344 1307q0 22 25 43l286 268q16 16 45 16q25 0 43 -18l240 -264q18 -21 18 -41q0 -24 -16 -41t-41 -17q-22 0 -37 15l-215 225l-256 -225 q-17 -17 -37 -17q-22 0 -38.5 16.5t-16.5 39.5z" />
<glyph unicode="&#xf5;" horiz-adv-x="995" d="M127 319q0 61 12 125l39 211q16 79 46.5 143t82.5 118t133 84t185 30q84 0 148 -28t100.5 -75.5t54 -105t16.5 -123.5q0 -64 -10 -108l-43 -225q-72 -377 -442 -377q-86 0 -150 26.5t-100.5 73.5t-54 104.5t-17.5 126.5zM256 328q0 -102 48 -160.5t153 -58.5 q141 0 212 73t97 203l41 217q8 39 8 88q0 98 -48.5 158.5t-152.5 60.5q-257 0 -309 -274l-39 -205q-10 -58 -10 -102zM334 1391q-1 48 54.5 84t127.5 38q50 1 98 -19.5t90.5 -40.5t81.5 -19q30 0 52 9t32.5 19.5t24.5 19.5t29 9q23 1 39 -16.5t16 -42.5q1 -50 -55 -86.5 t-129 -36.5q-50 -1 -97.5 19t-90 39.5t-81.5 18.5q-30 0 -52 -9t-33 -19.5t-25 -19.5t-29 -9q-23 0 -38 18.5t-15 43.5z" />
<glyph unicode="&#xf6;" horiz-adv-x="995" d="M127 319q0 61 12 125l39 211q16 79 46.5 143t82.5 118t133 84t185 30q84 0 148 -28t100.5 -75.5t54 -105t16.5 -123.5q0 -64 -10 -108l-43 -225q-72 -377 -442 -377q-86 0 -150 26.5t-100.5 73.5t-54 104.5t-17.5 126.5zM256 328q0 -102 48 -160.5t153 -58.5 q141 0 212 73t97 203l41 217q8 39 8 88q0 98 -48.5 158.5t-152.5 60.5q-257 0 -309 -274l-39 -205q-10 -58 -10 -102zM418 1372q0 32 22 55t54 23t54.5 -23t22.5 -55t-22.5 -54t-54.5 -22t-54 22t-22 54zM723 1372q0 32 22 55t54 23t53.5 -22.5t21.5 -55.5q0 -32 -21.5 -54 t-53.5 -22t-54 22t-22 54z" />
<glyph unicode="&#xf7;" horiz-adv-x="1136" d="M233 551q0 29 21 48t53 19h623q32 0 47 -18q14 -14 14 -37q0 -30 -20.5 -49.5t-52.5 -19.5h-623q-29 0 -47 18q-15 18 -15 39zM446 209q0 41 29 69.5t70 28.5q40 0 69 -28.5t29 -69.5t-29 -69.5t-69 -28.5q-41 0 -70 28.5t-29 69.5zM584 905q0 40 28.5 69.5t69.5 29.5 q40 0 69 -29.5t29 -69.5q0 -41 -29 -69.5t-69 -28.5q-41 0 -69.5 28.5t-28.5 69.5z" />
<glyph unicode="&#xf8;" horiz-adv-x="995" d="M127 319q0 61 12 125l39 211q16 79 46.5 143t82.5 118t133 84t185 30q95 0 163 -35l58 92q9 15 25.5 19.5t31.5 -4.5q15 -11 19.5 -28t-4.5 -32l-62 -96q91 -91 88 -248q0 -64 -10 -108l-43 -225q-72 -377 -442 -377q-101 0 -166 35l-58 -91q-9 -14 -25.5 -17.5 t-31.5 5.5t-19 26.5t5 30.5l59 95q-86 86 -86 247zM256 328q0 -81 31 -138l434 697q-46 22 -107 22q-257 0 -309 -274l-39 -205q-10 -58 -10 -102zM350 131q42 -22 107 -22q141 0 212 73t97 203l41 217q8 39 8 88q0 81 -33 137z" />
<glyph unicode="&#xf9;" horiz-adv-x="1075" d="M154 272q0 66 16 148l104 551q6 29 25.5 45t44.5 16q24 0 41.5 -16t17.5 -43q0 -13 -2 -17l-102 -536q-14 -79 -14 -129q0 -92 41 -136t137 -44q144 0 293 143l137 717q6 28 25 44.5t43 16.5q26 0 43.5 -16t17.5 -43q0 -11 -2 -17l-139 -725q-11 -69 -4.5 -93t36.5 -46 q31 -17 25 -51q-8 -53 -72 -53q-51 0 -88 43q-26 31 -26 80q-151 -123 -312 -123q-146 0 -216 74.5t-70 209.5zM574.5 1602.5q9.5 25.5 35.5 35.5q28 10 52 -1.5t34 -34.5l127 -310q9 -23 -0.5 -42.5t-31.5 -28.5q-24 -8 -45 0.5t-31 31.5l-140 303q-10 21 -0.5 46.5z" />
<glyph unicode="&#xfa;" horiz-adv-x="1075" d="M154 272q0 66 16 148l104 551q6 29 25.5 45t44.5 16q24 0 41.5 -16t17.5 -43q0 -13 -2 -17l-102 -536q-14 -79 -14 -129q0 -92 41 -136t137 -44q144 0 293 143l137 717q6 28 25 44.5t43 16.5q26 0 43.5 -16t17.5 -43q0 -11 -2 -17l-139 -725q-11 -69 -4.5 -93t36.5 -46 q31 -17 25 -51q-8 -53 -72 -53q-51 0 -88 43q-26 31 -26 80q-151 -123 -312 -123q-146 0 -216 74.5t-70 209.5zM582 1274q0 15 8 26l170 310q16 32 53 32q20 0 33 -8q15 -7 24 -22t9 -29q0 -13 -9 -31l-184 -303q-15 -30 -49 -30q-14 0 -25 8q-30 13 -30 47z" />
<glyph unicode="&#xfb;" horiz-adv-x="1075" d="M154 272q0 66 16 148l104 551q6 29 25.5 45t44.5 16q24 0 41.5 -16t17.5 -43q0 -13 -2 -17l-102 -536q-14 -79 -14 -129q0 -92 41 -136t137 -44q144 0 293 143l137 717q6 28 25 44.5t43 16.5q26 0 43.5 -16t17.5 -43q0 -11 -2 -17l-139 -725q-11 -69 -4.5 -93t36.5 -46 q31 -17 25 -51q-8 -53 -72 -53q-51 0 -88 43q-26 31 -26 80q-151 -123 -312 -123q-146 0 -216 74.5t-70 209.5zM369 1307q0 22 24 43l287 268q16 16 45 16q25 0 43 -18l240 -264q18 -21 18 -41q0 -24 -16 -41t-41 -17q-22 0 -37 15l-215 225l-256 -225q-17 -17 -37 -17 q-22 0 -38.5 16.5t-16.5 39.5z" />
<glyph unicode="&#xfc;" horiz-adv-x="1075" d="M154 272q0 66 16 148l104 551q6 29 25.5 45t44.5 16q24 0 41.5 -16t17.5 -43q0 -13 -2 -17l-102 -536q-14 -79 -14 -129q0 -92 41 -136t137 -44q144 0 293 143l137 717q6 28 25 44.5t43 16.5q26 0 43.5 -16t17.5 -43q0 -11 -2 -17l-139 -725q-11 -69 -4.5 -93t36.5 -46 q31 -17 25 -51q-8 -53 -72 -53q-51 0 -88 43q-26 31 -26 80q-151 -123 -312 -123q-146 0 -216 74.5t-70 209.5zM457 1372q0 33 21.5 55.5t53.5 22.5t55 -23t23 -55t-23 -54t-55 -22t-53.5 22t-21.5 54zM762 1372q0 32 22 55t54 23t53.5 -22.5t21.5 -55.5q0 -32 -21.5 -54 t-53.5 -22t-54 22t-22 54z" />
<glyph unicode="&#xfd;" horiz-adv-x="890" d="M-104 -311q5 28 24 46t49 19q97 2 179 54t171 184q-112 549 -159 958q-4 36 14.5 59t48.5 23q56 0 62 -59q39 -319 129 -817l434 829q23 47 65 47q43 0 54.5 -35.5t-13.5 -76.5l-411 -781q-144 -271 -275 -390.5t-303 -123.5q-34 -1 -53 17t-16 47zM489 1274q0 14 9 26 l170 310q16 32 53 32q20 0 33 -8q14 -7 23 -22t9 -29q0 -15 -8 -31l-184 -303q-15 -30 -49 -30q-14 0 -25 8q-31 14 -31 47z" />
<glyph unicode="&#xfe;" horiz-adv-x="968" d="M12 -322q0 13 2 17l340 1759q4 29 23.5 45.5t44.5 16.5t42 -16.5t17 -43.5v-16l-96 -500q129 88 244 88q152 0 226.5 -80.5t74.5 -220.5q0 -69 -21 -180l-32 -158q-18 -91 -47.5 -160t-78.5 -126.5t-127 -88t-182 -30.5q-134 0 -229 69l-72 -372q-6 -29 -24.5 -45.5 t-42.5 -16.5q-26 0 -44 16t-18 43zM236 174q91 -74 202 -74q78 0 135.5 24.5t93 71.5t55 98.5t32.5 121.5l34 196q11 56 11 105q0 190 -189 190q-111 0 -254 -114z" />
<glyph unicode="&#xff;" horiz-adv-x="890" d="M-104 -311q5 28 24 46t49 19q97 2 179 54t171 184q-112 549 -159 958q-4 36 14.5 59t48.5 23q56 0 62 -59q39 -319 129 -817l434 829q23 47 65 47q43 0 54.5 -35.5t-13.5 -76.5l-411 -781q-144 -271 -275 -390.5t-303 -123.5q-34 -1 -53 17t-16 47zM360 1372q0 32 22 55 t54 23t55 -23t23 -55t-23 -54t-55 -22t-54 22t-22 54zM666 1372q0 33 21.5 55.5t53.5 22.5t54 -23t22 -55t-22 -54t-54 -22t-53.5 22t-21.5 54z" />
<glyph unicode="&#x100;" horiz-adv-x="1134" d="M-2 70q289 676 674 1364q44 75 100 75q30 0 48 -16t28 -61q155 -703 205 -1371q3 -38 -16.5 -59.5t-53.5 -21.5q-57 0 -63 57q-6 79 -33 328h-617q-24 -54 -147 -332q-23 -53 -74 -53q-33 0 -49 25.5t-2 64.5zM330 492h544q-54 405 -137 796q-233 -423 -407 -796z M549 1872q0 25 17 42t42 17h400q25 0 42 -17t17 -42t-17 -42.5t-42 -17.5h-400q-25 0 -42 17.5t-17 42.5z" />
<glyph unicode="&#x101;" horiz-adv-x="1019" d="M125 307q0 56 16 150l25 143q13 73 31 132t50.5 117t76.5 96.5t111 62.5t151 24q146 0 252 -86l8 43q4 20 21.5 31.5t37.5 11.5q26 0 44 -16t18 -43q0 -3 -1 -9t-1 -8l-140 -725q-11 -69 -4 -93t37 -46q30 -20 25 -51q-11 -53 -72 -53q-51 0 -88 43q-21 25 -25 47 q-137 -90 -266 -90q-149 0 -228 85.5t-79 233.5zM254 324q0 -104 50 -161t147 -57q109 0 239 97l119 620q-86 92 -217 92q-75 0 -129.5 -26t-87 -75t-50.5 -101t-30 -123l-33 -178q-8 -44 -8 -88zM403 1391q0 25 17.5 42t42.5 17h399q25 0 42.5 -17t17.5 -42t-17.5 -42.5 t-42.5 -17.5h-399q-25 0 -42.5 17.5t-17.5 42.5z" />
<glyph unicode="&#x102;" horiz-adv-x="1134" d="M-2 70q289 676 674 1364q44 75 100 75q30 0 48 -16t28 -61q155 -703 205 -1371q3 -38 -16.5 -59.5t-53.5 -21.5q-57 0 -63 57q-6 79 -33 328h-617q-24 -54 -147 -332q-23 -53 -74 -53q-33 0 -49 25.5t-2 64.5zM330 492h544q-54 405 -137 796q-233 -423 -407 -796z M509.5 1971q5.5 20 22.5 30q18 14 42 10t38 -29q76 -137 191 -137q116 0 192 137q14 25 38 29t42 -10q18 -11 23.5 -30.5t-6.5 -43.5q-111 -194 -289 -194q-176 0 -287 194q-12 24 -6.5 44z" />
<glyph unicode="&#x103;" horiz-adv-x="1019" d="M125 307q0 56 16 150l25 143q13 73 31 132t50.5 117t76.5 96.5t111 62.5t151 24q146 0 252 -86l8 43q4 20 21.5 31.5t37.5 11.5q26 0 44 -16t18 -43q0 -3 -1 -9t-1 -8l-140 -725q-11 -69 -4 -93t37 -46q30 -20 25 -51q-11 -53 -72 -53q-51 0 -88 43q-21 25 -25 47 q-137 -90 -266 -90q-149 0 -228 85.5t-79 233.5zM254 324q0 -104 50 -161t147 -57q109 0 239 97l119 620q-86 92 -217 92q-75 0 -129.5 -26t-87 -75t-50.5 -101t-30 -123l-33 -178q-8 -44 -8 -88zM368.5 1492q5.5 20 22.5 30q18 14 42 10t38 -29q76 -137 191 -137 q116 0 192 137q14 25 38 29t42 -10q18 -11 23 -30.5t-7 -43.5q-111 -195 -288 -195q-176 0 -287 195q-12 24 -6.5 44z" />
<glyph unicode="&#x104;" horiz-adv-x="1134" d="M-2 70q289 676 674 1364q44 75 100 75q30 0 48 -16t28 -61q155 -703 205 -1371q3 -55 -33 -71q-82 -91 -82 -168q0 -105 121 -105q18 0 37 3.5t24 3.5q21 0 34 -14t13 -34q0 -42 -43 -55q-48 -10 -84 -10q-101 0 -159 47t-58 131q0 104 105 215q-8 16 -8 33 q-6 79 -33 328h-617q-24 -54 -147 -332q-23 -53 -74 -53q-33 0 -49 25.5t-2 64.5zM330 492h544q-54 405 -137 796q-233 -423 -407 -796z" />
<glyph unicode="&#x105;" horiz-adv-x="1019" d="M125 307q0 56 16 150l25 143q13 73 31 132t50.5 117t76.5 96.5t111 62.5t151 24q146 0 252 -86l8 43q4 20 21.5 31.5t37.5 11.5q26 0 44 -16t18 -43q0 -3 -1 -9t-1 -8l-140 -725q-11 -69 -4 -93t37 -46q30 -20 25 -51q-8 -37 -39 -47q-86 -93 -86 -172q0 -105 121 -105 q18 0 37 3.5t24 3.5q21 0 34 -14t13 -34q0 -42 -43 -55q-48 -10 -84 -10q-101 0 -159 47t-58 131q0 104 107 217q-13 8 -27 25q-21 25 -25 47q-137 -90 -266 -90q-149 0 -228 85.5t-79 233.5zM254 324q0 -104 50 -161t147 -57q109 0 239 97l119 620q-86 92 -217 92 q-75 0 -129.5 -26t-87 -75t-50.5 -101t-30 -123l-33 -178q-8 -44 -8 -88z" />
<glyph unicode="&#x106;" horiz-adv-x="1089" d="M186 430q0 88 19 193l53 290q27 147 73 254.5t118.5 187t178.5 119t246 39.5q117 0 220 -49q82 -43 82 -86q0 -25 -19.5 -45t-46.5 -20q-11 0 -20.5 4.5t-24 14t-29.5 16.5q-77 41 -164 41q-95 0 -170.5 -27t-126 -71.5t-88.5 -113t-60.5 -140.5t-39.5 -165l-49 -274 q-16 -101 -16 -172q0 -320 305 -320q114 0 237 68q14 8 30 18.5t25 16.5t19 10t20 4q27 0 44.5 -19.5t17.5 -45.5q0 -40 -72 -84q-157 -92 -327 -92q-118 0 -204 34.5t-135.5 97t-72.5 141t-23 175.5zM782 1683q0 15 9 27l170 309q17 33 53 33q20 0 33 -8q14 -7 23 -22 t9 -29q0 -15 -8 -31l-184 -303q-15 -31 -49 -31q-14 0 -25 8q-31 14 -31 47z" />
<glyph unicode="&#x107;" horiz-adv-x="847" d="M135 348q0 52 6 96l23 140q16 96 52 176t92.5 141.5t138 96t180.5 34.5q145 0 231 -51q37 -23 37 -57q0 -27 -18.5 -43.5t-42.5 -16.5q-17 0 -46 14.5t-63 22.5q-47 12 -102 12q-134 0 -220 -93.5t-112 -252.5l-23 -141q-6 -38 -6 -70q0 -120 61 -185t183 -65 q74 0 125 15q31 8 61.5 22.5t46.5 14.5q20 0 36 -12.5t16 -36.5q0 -44 -62 -74q-104 -47 -237 -47q-177 0 -268 95t-89 265zM553 1274q0 15 8 26l170 310q16 32 53 32q20 0 33 -8q15 -7 24 -22t9 -29q0 -15 -8 -31l-185 -303q-15 -30 -49 -30q-13 0 -24 8q-31 14 -31 47z " />
<glyph unicode="&#x10c;" horiz-adv-x="1089" d="M186 430q0 88 19 193l53 290q27 147 73 254.5t118.5 187t178.5 119t246 39.5q117 0 220 -49q82 -43 82 -86q0 -25 -19.5 -45t-46.5 -20q-11 0 -20.5 4.5t-24 14t-29.5 16.5q-77 41 -164 41q-95 0 -170.5 -27t-126 -71.5t-88.5 -113t-60.5 -140.5t-39.5 -165l-49 -274 q-16 -101 -16 -172q0 -320 305 -320q114 0 237 68q14 8 30 18.5t25 16.5t19 10t20 4q27 0 44.5 -19.5t17.5 -45.5q0 -40 -72 -84q-157 -92 -327 -92q-118 0 -204 34.5t-135.5 97t-72.5 141t-23 175.5zM553 1987q0 24 15.5 40.5t41.5 16.5q23 0 37 -14l215 -226l256 228 q17 14 37 14q22 0 38.5 -16t16.5 -39q0 -22 -24 -43l-287 -267q-18 -18 -45 -18t-41 18l-242 267q-18 18 -18 39z" />
<glyph unicode="&#x10d;" horiz-adv-x="847" d="M135 348q0 52 6 96l23 140q16 96 52 176t92.5 141.5t138 96t180.5 34.5q145 0 231 -51q37 -23 37 -57q0 -27 -18.5 -43.5t-42.5 -16.5q-17 0 -46 14.5t-63 22.5q-47 12 -102 12q-134 0 -220 -93.5t-112 -252.5l-23 -141q-6 -38 -6 -70q0 -120 61 -185t183 -65 q74 0 125 15q31 8 61.5 22.5t46.5 14.5q20 0 36 -12.5t16 -36.5q0 -44 -62 -74q-104 -47 -237 -47q-177 0 -268 95t-89 265zM332 1575q0 24 15.5 40.5t41.5 16.5q23 0 37 -14l215 -225l256 227q17 14 37 14q22 0 38.5 -16t16.5 -39q0 -22 -24 -43l-287 -266q-19 -19 -45 -19 t-41 19l-242 266q-18 18 -18 39z" />
<glyph unicode="&#x10e;" horiz-adv-x="1290" d="M129 63q0 11 2 17l258 1345q7 33 28.5 51.5t49.5 18.5h344q108 0 190.5 -30t132.5 -78t81.5 -114.5t43 -131.5t11.5 -137q0 -82 -21 -197l-49 -250q-109 -557 -633 -557h-374q-26 0 -45 17t-19 46zM276 127h293q102 0 182.5 27t132 69t90 105.5t58.5 124t35 137.5l51 258 q17 77 17 151q0 61 -9.5 112.5t-33.5 99t-61 81t-95.5 53t-134.5 19.5h-285zM545 1987q0 24 15.5 40.5t41.5 16.5q23 0 37 -14l215 -226l256 228q17 14 37 14q22 0 38.5 -16t16.5 -39q0 -22 -24 -43l-287 -267q-18 -18 -45 -18t-41 18l-242 267q-18 18 -18 39z" />
<glyph unicode="&#x10f;" horiz-adv-x="1286" d="M125 309q0 54 16 148l25 143q13 73 31 132t50.5 117t76.5 96.5t111 62.5t151 24q137 0 243 -98l95 487q6 29 25 45.5t44 16.5t42.5 -16t17.5 -44q0 -10 -2 -16l-226 -1176q-11 -69 -4 -93t37 -46q30 -20 25 -51q-11 -53 -72 -53q-51 0 -88 43q-20 25 -25 45 q-139 -88 -268 -88q-148 0 -226.5 87.5t-78.5 233.5zM254 324q0 -104 50 -161t147 -57q111 0 237 93l117 608q-88 108 -213 108q-75 0 -129.5 -26t-87 -75t-50.5 -101t-30 -123l-33 -178q-8 -44 -8 -88zM1229 1219q1 11 10.5 20.5t21 16t24 23.5t18.5 42q-29 9 -46 33.5 t-14 52.5q3 35 30.5 57t61.5 19q38 -3 59.5 -33.5t18.5 -75.5q-8 -80 -65 -135t-91 -53q-12 1 -21 11.5t-7 21.5z" />
<glyph unicode="&#x110;" horiz-adv-x="1290" d="M129 63q0 11 2 17l258 1345q7 33 28.5 51.5t49.5 18.5h344q108 0 190.5 -30t132.5 -78t81.5 -114.5t43 -131.5t11.5 -137q0 -82 -21 -197l-49 -250q-109 -557 -633 -557h-374q-26 0 -45 17t-19 46zM276 127h293q102 0 182.5 27t132 69t90 105.5t58.5 124t35 137.5l51 258 q17 77 17 151q0 61 -9.5 112.5t-33.5 99t-61 81t-95.5 53t-134.5 19.5h-285zM580 1872q0 25 17 42t42 17h399q25 0 42.5 -17t17.5 -42t-17.5 -42.5t-42.5 -17.5h-399q-25 0 -42 17.5t-17 42.5z" />
<glyph unicode="&#x111;" horiz-adv-x="1019" d="M125 309q0 54 16 148l25 143q13 73 31 132t50.5 117t76.5 96.5t111 62.5t151 24q137 0 243 -98l48 248h-193q-25 0 -41 16q-12 14 -12 33q0 26 18 42.5t47 16.5h201l27 131q6 29 25 45.5t44 16.5t42.5 -16t17.5 -44q0 -10 -2 -16l-23 -117h117q25 0 41 -16q12 -12 12 -31 q0 -26 -17.5 -43.5t-45.5 -17.5h-127l-183 -951q-11 -69 -4 -93t37 -46q30 -20 25 -51q-11 -53 -72 -53q-51 0 -88 43q-20 25 -25 45q-139 -88 -268 -88q-148 0 -226.5 87.5t-78.5 233.5zM254 324q0 -104 50 -161t147 -57q111 0 237 93l117 608q-88 108 -213 108 q-75 0 -129.5 -26t-87 -75t-50.5 -101t-30 -123l-33 -178q-8 -44 -8 -88z" />
<glyph unicode="&#x112;" horiz-adv-x="1091" d="M129 63q0 11 2 17l258 1345q7 33 28.5 51.5t49.5 18.5h674q13 0 33 -12q30 -15 30 -47q0 -30 -21.5 -50t-54.5 -20h-612l-108 -557h546q18 0 31 -10q31 -14 31 -47q0 -29 -21 -48.5t-53 -19.5h-557l-109 -555h631q8 0 33 -10q31 -19 31 -49q0 -29 -22.5 -49.5 t-55.5 -20.5h-700q-26 0 -45 17t-19 46zM586 1872q0 25 17 42t42 17h399q25 0 42.5 -17t17.5 -42t-17.5 -42.5t-42.5 -17.5h-399q-25 0 -42 17.5t-17 42.5z" />
<glyph unicode="&#x113;" horiz-adv-x="962" d="M131 348q0 45 10 103l27 159q14 88 47 162t86 133.5t133 93t180 33.5q83 0 145.5 -25.5t99.5 -72t55 -106t18 -132.5q0 -49 -10 -114l-9 -62q-5 -22 -22 -35.5t-43 -13.5l-576 -2l-6 -43q-8 -54 -8 -82q0 -109 58 -175.5t163 -66.5q92 0 197 37q10 3 20.5 7t16 6.5t12 4 t12.5 1.5q25 0 40.5 -16.5t15.5 -43.5q0 -38 -45 -55q-133 -55 -283 -55q-84 0 -149 28.5t-105 78.5t-60 114t-20 139zM293 580h502l4 26q8 44 8 94q0 106 -48 163t-145 57q-261 0 -317 -310zM414 1391q0 25 17 42t42 17h399q25 0 42.5 -17t17.5 -42t-17.5 -42.5 t-42.5 -17.5h-399q-25 0 -42 17.5t-17 42.5z" />
<glyph unicode="&#x116;" horiz-adv-x="1091" d="M129 63q0 11 2 17l258 1345q7 33 28.5 51.5t49.5 18.5h674q13 0 33 -12q30 -15 30 -47q0 -30 -21.5 -50t-54.5 -20h-612l-108 -557h546q18 0 31 -10q31 -14 31 -47q0 -29 -21 -48.5t-53 -19.5h-557l-109 -555h631q8 0 33 -10q31 -19 31 -49q0 -29 -22.5 -49.5 t-55.5 -20.5h-700q-26 0 -45 17t-19 46zM758 1858q0 35 25 60.5t59 25.5q35 0 59.5 -25.5t24.5 -60.5q0 -34 -24.5 -59t-59.5 -25q-34 0 -59 25t-25 59z" />
<glyph unicode="&#x117;" horiz-adv-x="962" d="M131 348q0 45 10 103l27 159q14 88 47 162t86 133.5t133 93t180 33.5q83 0 145.5 -25.5t99.5 -72t55 -106t18 -132.5q0 -49 -10 -114l-9 -62q-5 -22 -22 -35.5t-43 -13.5l-576 -2l-6 -43q-8 -54 -8 -82q0 -109 58 -175.5t163 -66.5q92 0 197 37q10 3 20.5 7t16 6.5t12 4 t12.5 1.5q25 0 40.5 -16.5t15.5 -43.5q0 -38 -45 -55q-133 -55 -283 -55q-84 0 -149 28.5t-105 78.5t-60 114t-20 139zM293 580h502l4 26q8 44 8 94q0 106 -48 163t-145 57q-261 0 -317 -310zM584 1376q0 35 25 60.5t59 25.5q35 0 59.5 -25.5t24.5 -60.5q0 -34 -24.5 -59 t-59.5 -25q-34 0 -59 25t-25 59z" />
<glyph unicode="&#x118;" horiz-adv-x="1091" d="M129 63q0 11 2 17l258 1345q7 33 28.5 51.5t49.5 18.5h674q13 0 33 -12q30 -15 30 -47q0 -30 -21.5 -50t-54.5 -20h-612l-108 -557h546q18 0 31 -10q31 -14 31 -47q0 -29 -21 -48.5t-53 -19.5h-557l-109 -555h631q8 0 33 -10q31 -19 31 -49q0 -29 -22.5 -49.5 t-55.5 -20.5h-68q-84 -90 -84 -168q0 -104 121 -104q18 0 37.5 3t24.5 3q21 0 34 -14t13 -33q0 -43 -43 -56q-48 -10 -84 -10q-101 0 -159 47t-58 131q0 96 92 201h-526q-26 0 -45 17t-19 46z" />
<glyph unicode="&#x119;" horiz-adv-x="962" d="M131 348q0 45 10 103l27 159q14 88 47 162t86 133.5t133 93t180 33.5q83 0 145.5 -25.5t99.5 -72t55 -106t18 -132.5q0 -49 -10 -114l-9 -62q-5 -22 -22 -35.5t-43 -13.5l-576 -2l-6 -43q-8 -54 -8 -82q0 -109 58 -175.5t163 -66.5q92 0 197 37q10 3 20.5 7t16 6.5t12 4 t12.5 1.5q25 0 40.5 -16.5t15.5 -43.5q0 -38 -45 -55q-37 -16 -74 -27q-92 -95 -92 -176q0 -104 120 -104q18 0 37.5 3t24.5 3q21 0 34 -14t13 -33q0 -42 -43 -55q-53 -11 -84 -11q-101 0 -159 47t-58 131q0 88 78 185q-54 -4 -80 -4q-84 0 -149 28.5t-105 78.5t-60 114 t-20 139zM293 580h502l4 26q8 44 8 94q0 106 -48 163t-145 57q-261 0 -317 -310z" />
<glyph unicode="&#x11a;" horiz-adv-x="1091" d="M129 63q0 11 2 17l258 1345q7 33 28.5 51.5t49.5 18.5h674q13 0 33 -12q30 -15 30 -47q0 -30 -21.5 -50t-54.5 -20h-612l-108 -557h546q18 0 31 -10q31 -14 31 -47q0 -29 -21 -48.5t-53 -19.5h-557l-109 -555h631q8 0 33 -10q31 -19 31 -49q0 -29 -22.5 -49.5 t-55.5 -20.5h-700q-26 0 -45 17t-19 46zM530 1985q0 24 16 40.5t42 16.5q23 0 37 -14l215 -226l256 228q17 14 37 14q22 0 38.5 -16t16.5 -39q0 -22 -25 -43l-286 -267q-18 -18 -46 -18q-26 0 -40 18l-242 267q-19 19 -19 39z" />
<glyph unicode="&#x11b;" horiz-adv-x="962" d="M131 348q0 45 10 103l27 159q14 88 47 162t86 133.5t133 93t180 33.5q83 0 145.5 -25.5t99.5 -72t55 -106t18 -132.5q0 -49 -10 -114l-9 -62q-5 -22 -22 -35.5t-43 -13.5l-576 -2l-6 -43q-8 -54 -8 -82q0 -109 58 -175.5t163 -66.5q92 0 197 37q10 3 20.5 7t16 6.5t12 4 t12.5 1.5q25 0 40.5 -16.5t15.5 -43.5q0 -38 -45 -55q-133 -55 -283 -55q-84 0 -149 28.5t-105 78.5t-60 114t-20 139zM293 580h502l4 26q8 44 8 94q0 106 -48 163t-145 57q-261 0 -317 -310zM338 1575q0 24 15.5 40.5t41.5 16.5q23 0 37 -14l215 -225l256 227q17 14 37 14 q22 0 38.5 -16t16.5 -39q0 -22 -24 -43l-287 -266q-19 -19 -45 -19t-41 19l-242 266q-18 18 -18 39z" />
<glyph unicode="&#x11e;" horiz-adv-x="1218" d="M186 412q0 82 21 211l55 288q28 147 73.5 255.5t116 187.5t172 119t234.5 40q197 0 311 -131q17 -24 17 -45q0 -26 -19 -44.5t-47 -18.5q-14 0 -24.5 7t-29.5 24.5t-40 31.5q-73 49 -170 49q-194 0 -302.5 -119t-158.5 -380l-55 -289q-18 -102 -18 -186q0 -303 274 -303 q157 0 259.5 99t143.5 300l23 113h-270q-16 0 -33 10q-31 17 -31 47q0 29 22 48t54 19h342q15 0 31 -8q30 -18 30 -49l-2 -26l-35 -170q-48 -243 -186 -376.5t-354 -133.5q-200 0 -302 112.5t-102 317.5zM587.5 1971q5.5 20 22.5 30q18 14 42 10t38 -29q76 -137 191 -137 q116 0 192 137q14 25 38 29t42 -10q18 -11 23 -30.5t-7 -43.5q-111 -194 -288 -194q-176 0 -287 194q-12 24 -6.5 44z" />
<glyph unicode="&#x11f;" horiz-adv-x="989" d="M43 -274q0 27 17 45t46 18q17 0 33 -8q86 -39 197 -39q142 0 221.5 87.5t110.5 248.5l4 22q-123 -69 -232 -69q-148 0 -226.5 87.5t-78.5 233.5q0 67 17 150l16 98q13 73 31.5 131t51.5 116.5t76.5 97.5t111 63t151.5 24q142 0 248 -92l10 47q4 21 21 33t38 12 q26 0 44 -16t18 -43q0 -13 -2 -17l-172 -890q-83 -443 -463 -443q-145 0 -248 47q-41 20 -41 56zM264 367q0 -103 50 -160t147 -57q114 0 239 90l111 577q-88 98 -215 98q-76 0 -131 -26t-87.5 -75t-50.5 -101t-30 -123l-25 -135q-8 -62 -8 -88zM364.5 1492q5.5 20 22.5 30 q18 14 42 10t38 -29q76 -137 190 -137q117 0 193 137q14 25 38 29t42 -10q18 -11 23 -30.5t-7 -43.5q-111 -195 -289 -195q-175 0 -286 195q-12 24 -6.5 44z" />
<glyph unicode="&#x122;" horiz-adv-x="1218" d="M186 412q0 82 21 211l55 288q28 147 73.5 255.5t116 187.5t172 119t234.5 40q197 0 311 -131q17 -24 17 -45q0 -26 -19 -44.5t-47 -18.5q-14 0 -24.5 7t-29.5 24.5t-40 31.5q-73 49 -170 49q-194 0 -302.5 -119t-158.5 -380l-55 -289q-18 -102 -18 -186q0 -303 274 -303 q157 0 259.5 99t143.5 300l23 113h-270q-16 0 -33 10q-31 17 -31 47q0 29 22 48t54 19h342q15 0 31 -8q30 -18 30 -49l-2 -26l-35 -170q-48 -243 -186 -376.5t-354 -133.5q-200 0 -302 112.5t-102 317.5zM430 -395q1 11 10.5 20.5t21 16t24 23.5t18.5 42q-29 9 -46 33.5 t-14 52.5q3 35 31 57t62 19q38 -3 59 -33.5t18 -75.5q-8 -80 -64.5 -135t-90.5 -53q-12 2 -21 12.5t-8 20.5z" />
<glyph unicode="&#x123;" horiz-adv-x="989" d="M43 -274q0 27 17 45t46 18q17 0 33 -8q86 -39 197 -39q142 0 221.5 87.5t110.5 248.5l4 22q-123 -69 -232 -69q-148 0 -226.5 87.5t-78.5 233.5q0 67 17 150l16 98q13 73 31.5 131t51.5 116.5t76.5 97.5t111 63t151.5 24q142 0 248 -92l10 47q4 21 21 33t38 12 q26 0 44 -16t18 -43q0 -13 -2 -17l-172 -890q-83 -443 -463 -443q-145 0 -248 47q-41 20 -41 56zM264 367q0 -103 50 -160t147 -57q114 0 239 90l111 577q-88 98 -215 98q-76 0 -131 -26t-87.5 -75t-50.5 -101t-30 -123l-25 -135q-8 -62 -8 -88zM594 1395q7 81 65 135.5 t93 50.5q11 -2 18.5 -11t7.5 -22q-1 -11 -10.5 -20t-21 -15.5t-23 -23.5t-16.5 -43q27 -9 42.5 -32.5t14.5 -53.5q-3 -35 -30 -56.5t-62 -17.5q-39 3 -60.5 33.5t-17.5 75.5z" />
<glyph unicode="&#x12a;" horiz-adv-x="489" d="M129 45q0 10 2 16l266 1387q6 30 26 47.5t46 17.5q27 0 46.5 -17.5t19.5 -45.5l-3 -18l-268 -1385q-4 -30 -24 -47.5t-47 -17.5q-26 0 -45 17t-19 46zM250 1872q0 25 17 42t42 17h400q25 0 42 -17t17 -42t-17 -42.5t-42 -17.5h-400q-25 0 -42 17.5t-17 42.5z" />
<glyph unicode="&#x12b;" horiz-adv-x="428" d="M100 47q0 10 2 16l174 908q6 28 25 44.5t43 16.5q26 0 44 -16t18 -43q0 -3 -1.5 -9t-1.5 -8l-174 -907q-6 -29 -25 -45t-44 -16q-24 0 -42 16t-18 43zM125 1391q0 25 17 42t42 17h400q25 0 42 -17t17 -42t-17 -42.5t-42 -17.5h-400q-25 0 -42 17.5t-17 42.5z" />
<glyph unicode="&#x12e;" horiz-adv-x="489" d="M31 -211q0 108 108 219q-10 17 -10 37q0 10 2 16l266 1387q6 30 26 47.5t46 17.5q27 0 46.5 -17.5t19.5 -45.5l-3 -18l-268 -1385q-6 -37 -31 -53q-88 -95 -88 -172q0 -105 121 -105q18 0 37.5 3.5t24.5 3.5q21 0 34 -14t13 -34q0 -42 -43 -55q-48 -10 -84 -10 q-101 0 -159 47t-58 131z" />
<glyph unicode="&#x12f;" horiz-adv-x="430" d="M-12 -211q0 111 118 229q-6 12 -6 29q0 10 2 16l174 908q6 28 25 44.5t43 16.5q26 0 44 -16t18 -43q0 -3 -1.5 -9t-1.5 -8l-174 -907q-9 -39 -36 -51q-91 -98 -91 -176q0 -105 121 -105q18 0 37.5 3.5t24.5 3.5q21 0 34 -14t13 -34q0 -42 -43 -55q-48 -10 -84 -10 q-101 0 -159 47t-58 131zM326 1407q0 41 29.5 70.5t70.5 29.5t70.5 -29.5t29.5 -70.5q0 -40 -29.5 -69t-70.5 -29t-70.5 29t-29.5 69z" />
<glyph unicode="&#x130;" horiz-adv-x="489" d="M129 45q0 10 2 16l266 1387q6 30 26 47.5t46 17.5q27 0 46.5 -17.5t19.5 -45.5l-3 -18l-268 -1385q-4 -30 -24 -47.5t-47 -17.5q-26 0 -45 17t-19 46zM459 1858q0 35 25 60.5t59 25.5q35 0 59.5 -25.5t24.5 -60.5q0 -34 -24.5 -59t-59.5 -25q-34 0 -59 25t-25 59z" />
<glyph unicode="&#x131;" horiz-adv-x="430" d="M100 47q0 10 2 16l174 908q6 28 25 44.5t43 16.5q26 0 44 -16t18 -43q0 -3 -1.5 -9t-1.5 -8l-174 -907q-6 -29 -25 -45t-44 -16q-24 0 -42 16t-18 43z" />
<glyph unicode="&#x136;" horiz-adv-x="1138" d="M129 45q0 10 2 16l266 1387q6 30 26 47.5t46 17.5q27 0 46.5 -17.5t19.5 -45.5l-3 -18l-139 -721l774 778q45 42 90 12q21 -14 26 -37.5t-9 -48.5l-14 -14l-574 -563q210 -404 340 -766q13 -37 -9.5 -63.5t-55.5 -26.5q-47 0 -62 45q-133 360 -315 712l-230 -227 l-90 -465q-4 -30 -24 -47.5t-47 -17.5q-26 0 -45 17t-19 46zM444 -395q1 11 10.5 20.5t21 16t24 23.5t18.5 42q-29 9 -45.5 33.5t-13.5 52.5q3 35 30.5 57t61.5 19q38 -3 59.5 -33.5t18.5 -75.5q-8 -80 -65 -135t-91 -53q-12 2 -21 12.5t-8 20.5z" />
<glyph unicode="&#x137;" horiz-adv-x="911" d="M100 47v16l262 1358q6 29 25.5 45.5t44.5 16.5t42.5 -16t17.5 -44q0 -7 -3 -16l-170 -889l539 494q20 18 43.5 19t40.5 -13q18 -13 21 -35t-13 -43q-3 -7 -10 -10l-352 -320q146 -301 225 -538q11 -35 -8.5 -59.5t-52.5 -24.5q-46 0 -60 45q-84 243 -205 489l-202 -182 l-58 -291q-4 -29 -23 -45t-44 -16q-24 0 -42 16t-18 43zM334 -395q1 11 10.5 20.5t21 16t24 23.5t18.5 42q-29 9 -46 33.5t-14 52.5q3 35 30.5 57t61.5 19q38 -3 59.5 -33.5t18.5 -75.5q-8 -80 -65 -135t-91 -53q-12 1 -21 11.5t-7 21.5z" />
<glyph unicode="&#x139;" horiz-adv-x="1026" d="M129 63q0 11 2 17l262 1364q6 33 26.5 51t49.5 18q27 0 44 -17t17 -46q0 -12 -2 -18l-252 -1305h631q11 0 31 -10q31 -17 31 -47t-21.5 -50t-54.5 -20h-700q-26 0 -45 17t-19 46zM446 1683q0 15 9 27l170 309q17 33 53 33q20 0 33 -8q14 -7 23 -22t9 -29q0 -15 -8 -31 l-184 -303q-15 -31 -49 -31q-14 0 -25 8q-31 14 -31 47z" />
<glyph unicode="&#x13a;" horiz-adv-x="436" d="M126 117q-5 53 15 155l221 1149q6 29 25.5 45.5t44.5 16.5t42.5 -16t17.5 -44q0 -7 -3 -16l-227 -1176q-10 -67 -2.5 -92t37.5 -45q31 -21 25 -55q-10 -51 -72 -51q-51 0 -88 43q-31 33 -36 86zM416 1683q0 16 8 27l170 309q16 33 53 33q20 0 33 -8q15 -7 24 -22t9 -29 q0 -15 -8 -31l-185 -303q-16 -31 -49 -31q-14 0 -25 8q-30 13 -30 47z" />
<glyph unicode="&#x13b;" horiz-adv-x="1026" d="M129 63q0 11 2 17l262 1364q6 33 26.5 51t49.5 18q27 0 44 -17t17 -46q0 -12 -2 -18l-252 -1305h631q11 0 31 -10q31 -17 31 -47t-21.5 -50t-54.5 -20h-700q-26 0 -45 17t-19 46zM430 -395q1 11 10.5 20.5t21 16t24 23.5t18.5 42q-29 9 -46 33.5t-14 52.5q3 35 31 57 t62 19q38 -3 59 -33.5t18 -75.5q-8 -80 -64.5 -135t-90.5 -53q-12 2 -21 12.5t-8 20.5z" />
<glyph unicode="&#x13c;" horiz-adv-x="436" d="M53 -395q1 11 10.5 20.5t21 16t24 23.5t18.5 42q-29 9 -45.5 33.5t-13.5 52.5q3 35 30.5 57t61.5 19q38 -3 59.5 -33.5t18.5 -75.5q-8 -80 -65 -135t-91 -53q-12 2 -21 12.5t-8 20.5zM126 117q-5 53 15 155l221 1149q6 29 25.5 45.5t44.5 16.5t42.5 -16t17.5 -44 q0 -7 -3 -16l-227 -1176q-10 -67 -2.5 -92t37.5 -45q31 -21 25 -55q-10 -51 -72 -51q-51 0 -88 43q-31 33 -36 86z" />
<glyph unicode="&#x13d;" horiz-adv-x="1026" d="M129 63q0 11 2 17l262 1364q6 33 26.5 51t49.5 18q27 0 44 -17t17 -46q0 -12 -2 -18l-252 -1305h631q11 0 31 -10q31 -17 31 -47t-21.5 -50t-54.5 -20h-700q-26 0 -45 17t-19 46zM723 1247q2 14 16.5 24.5t32 28.5t25.5 50q-29 9 -46 33.5t-14 52.5q3 35 30.5 56.5 t61.5 18.5q38 -3 59.5 -33t18.5 -75q-8 -80 -64.5 -135.5t-90.5 -53.5q-12 2 -21 12.5t-8 20.5z" />
<glyph unicode="&#x13e;" horiz-adv-x="727" d="M126 117q-5 53 15 155l221 1149q6 29 25.5 45.5t44.5 16.5t42.5 -16t17.5 -44q0 -7 -3 -16l-227 -1176q-10 -67 -2.5 -92t37.5 -45q31 -21 25 -55q-10 -51 -72 -51q-51 0 -88 43q-31 33 -36 86zM670 1219q2 14 16 24t31.5 28t25.5 50q-29 9 -45.5 33.5t-13.5 52.5 q3 35 30.5 57t61.5 19q38 -3 59.5 -33.5t18.5 -75.5q-8 -80 -65 -135t-91 -53q-12 1 -21 11.5t-7 21.5z" />
<glyph unicode="&#x141;" horiz-adv-x="1130" d="M84 561q-8 24 0.5 46.5t32.5 35.5l227 129l129 672q6 33 26.5 51t49.5 18q27 0 44 -17t17 -46q0 -12 -2 -18l-110 -570l225 129q9 6 14 6q25 9 45.5 -1t28.5 -33q14 -52 -35 -82l-307 -176l-113 -578h631q11 0 31 -10q31 -17 31 -47t-21.5 -50t-54.5 -20h-701 q-26 0 -44.5 17t-18.5 46q0 11 2 17l102 534l-143 -82l-14 -6q-25 -9 -45.5 1.5t-26.5 33.5z" />
<glyph unicode="&#x142;" horiz-adv-x="671" d="M72 561q-8 24 1 46.5t33 35.5l226 131l127 658q6 29 25 45t44 16t42.5 -16.5t17.5 -44.5q0 -11 -2 -15l-107 -561l230 133q8 4 14 6q24 9 44 -1.5t28 -32.5q8 -24 -1.5 -46.5t-33.5 -35.5l-311 -181l-89 -458q-11 -67 -4 -92.5t37 -45.5q31 -21 25 -55q-10 -51 -72 -51 q-48 0 -88 43q-29 32 -34 87t14 155l65 333l-143 -82q-9 -3 -15 -6q-25 -9 -45 1.5t-28 33.5z" />
<glyph unicode="&#x143;" horiz-adv-x="1345" d="M125 43q0 2 1 7.5t1 8.5l268 1387q11 67 76 67q43 0 64 -53l491 -1204l229 1190q16 67 76 67q25 0 41.5 -17t16.5 -44q0 -9 -3 -18l-266 -1389q-12 -63 -73 -63q-48 0 -68 47l-492 1206l-229 -1190q-6 -30 -25 -46.5t-45 -16.5t-44.5 16.5t-18.5 44.5zM844 1683 q0 16 8 27l170 309q16 33 53 33q20 0 33 -8q15 -7 24 -22t9 -29q0 -15 -8 -31l-185 -303q-16 -31 -49 -31q-14 0 -25 8q-30 13 -30 47z" />
<glyph unicode="&#x144;" horiz-adv-x="1064" d="M129 47l2 16l137 713q12 67 5 92t-37 45q-31 21 -25 54q11 53 72 53q51 0 88 -43q21 -23 26 -66q159 121 322 121q142 0 210 -75.5t68 -206.5q0 -54 -16 -148l-109 -553q-4 -29 -23 -45t-44 -16q-24 0 -42 16t-18 43v16l109 553q12 70 12 115q0 178 -172 178 q-152 0 -297 -135l-6 -39l-133 -686q-4 -28 -23 -44.5t-45 -16.5t-43.5 16t-17.5 43zM623 1274q0 15 8 26l170 310q16 32 53 32q20 0 33 -8q15 -7 24 -22t9 -29q0 -13 -9 -31l-184 -303q-15 -30 -49 -30q-14 0 -25 8q-30 13 -30 47z" />
<glyph unicode="&#x145;" horiz-adv-x="1345" d="M125 43q0 2 1 7.5t1 8.5l268 1387q11 67 76 67q43 0 64 -53l491 -1204l229 1190q16 67 76 67q25 0 41.5 -17t16.5 -44q0 -9 -3 -18l-266 -1389q-12 -63 -73 -63q-48 0 -68 47l-492 1206l-229 -1190q-6 -30 -25 -46.5t-45 -16.5t-44.5 16.5t-18.5 44.5zM498 -395 q2 14 16 24t31.5 28t25.5 50q-29 9 -45.5 33.5t-13.5 52.5q3 35 30.5 57t61.5 19q38 -3 59.5 -33.5t18.5 -75.5q-8 -80 -65 -135t-91 -53q-12 1 -21 11.5t-7 21.5z" />
<glyph unicode="&#x146;" horiz-adv-x="1064" d="M129 47l2 16l137 713q12 67 5 92t-37 45q-31 21 -25 54q11 53 72 53q51 0 88 -43q21 -23 26 -66q159 121 322 121q142 0 210 -75.5t68 -206.5q0 -54 -16 -148l-109 -553q-4 -29 -23 -45t-44 -16q-24 0 -42 16t-18 43v16l109 553q12 70 12 115q0 178 -172 178 q-152 0 -297 -135l-6 -39l-133 -686q-4 -28 -23 -44.5t-45 -16.5t-43.5 16t-17.5 43zM375 -395q1 11 10.5 20.5t21 16t24 23.5t18.5 42q-29 9 -46 33.5t-14 52.5q3 35 30.5 57t61.5 19q38 -3 59.5 -33.5t18.5 -75.5q-8 -80 -65 -135t-91 -53q-12 1 -21 11.5t-7 21.5z" />
<glyph unicode="&#x147;" horiz-adv-x="1345" d="M125 43q0 2 1 7.5t1 8.5l268 1387q11 67 76 67q43 0 64 -53l491 -1204l229 1190q16 67 76 67q25 0 41.5 -17t16.5 -44q0 -9 -3 -18l-266 -1389q-12 -63 -73 -63q-48 0 -68 47l-492 1206l-229 -1190q-6 -30 -25 -46.5t-45 -16.5t-44.5 16.5t-18.5 44.5zM614 1985 q0 24 16 40.5t42 16.5q23 0 37 -14l215 -226l256 228q17 14 37 14q22 0 38.5 -16t16.5 -39q0 -22 -25 -43l-286 -267q-18 -18 -46 -18q-27 0 -41 18l-241 267q-19 19 -19 39z" />
<glyph unicode="&#x148;" horiz-adv-x="1064" d="M129 47l2 16l137 713q12 67 5 92t-37 45q-31 21 -25 54q11 53 72 53q51 0 88 -43q21 -23 26 -66q159 121 322 121q142 0 210 -75.5t68 -206.5q0 -54 -16 -148l-109 -553q-4 -29 -23 -45t-44 -16q-24 0 -42 16t-18 43v16l109 553q12 70 12 115q0 178 -172 178 q-152 0 -297 -135l-6 -39l-133 -686q-4 -28 -23 -44.5t-45 -16.5t-43.5 16t-17.5 43zM432 1575q0 24 15.5 40.5t41.5 16.5q23 0 37 -14l215 -225l256 227q17 14 37 14q22 0 39 -16t17 -39q0 -22 -25 -43l-287 -266q-19 -19 -45 -19t-41 19l-241 266q-19 19 -19 39z" />
<glyph unicode="&#x14c;" horiz-adv-x="1245" d="M186 436q0 90 21 213l41 228q19 103 42.5 184.5t69.5 170t107 147t156.5 96.5t216.5 38q84 0 151.5 -25t112 -67.5t74 -102t42.5 -125.5t13 -142q0 -75 -19 -183l-47 -264q-18 -102 -42 -183t-69.5 -166.5t-106.5 -142.5t-155.5 -93.5t-213.5 -36.5q-85 0 -152.5 23.5 t-112 64t-74 98.5t-42.5 124.5t-13 143.5zM324 438q0 -155 63 -241t195 -86q90 0 161 27.5t117.5 71.5t81.5 112t55 137t35 159l49 279q15 83 15 160q0 145 -65 236t-193 91q-92 0 -164 -28.5t-119 -74.5t-82.5 -117t-55.5 -141.5t-36 -162.5l-41 -239q-16 -106 -16 -183z M639 1872q0 25 17 42t42 17h400q25 0 42 -17t17 -42t-17 -42.5t-42 -17.5h-400q-25 0 -42 17.5t-17 42.5z" />
<glyph unicode="&#x14d;" horiz-adv-x="995" d="M127 319q0 61 12 125l39 211q16 79 46.5 143t82.5 118t133 84t185 30q84 0 148 -28t100.5 -75.5t54 -105t16.5 -123.5q0 -64 -10 -108l-43 -225q-72 -377 -442 -377q-86 0 -150 26.5t-100.5 73.5t-54 104.5t-17.5 126.5zM256 328q0 -102 48 -160.5t153 -58.5 q141 0 212 73t97 203l41 217q8 39 8 88q0 98 -48.5 158.5t-152.5 60.5q-257 0 -309 -274l-39 -205q-10 -58 -10 -102zM420 1391q0 25 17 42t42 17h400q25 0 42 -17t17 -42t-17 -42.5t-42 -17.5h-400q-25 0 -42 17.5t-17 42.5z" />
<glyph unicode="&#x150;" horiz-adv-x="1245" d="M186 436q0 90 21 213l41 228q19 103 42.5 184.5t69.5 170t107 147t156.5 96.5t216.5 38q84 0 151.5 -25t112 -67.5t74 -102t42.5 -125.5t13 -142q0 -75 -19 -183l-47 -264q-18 -102 -42 -183t-69.5 -166.5t-106.5 -142.5t-155.5 -93.5t-213.5 -36.5q-85 0 -152.5 23.5 t-112 64t-74 98.5t-42.5 124.5t-13 143.5zM324 438q0 -155 63 -241t195 -86q90 0 161 27.5t117.5 71.5t81.5 112t55 137t35 159l49 279q15 83 15 160q0 145 -65 236t-193 91q-92 0 -164 -28.5t-119 -74.5t-82.5 -117t-55.5 -141.5t-36 -162.5l-41 -239q-16 -106 -16 -183z M662 1753q0 11 8 27l172 309q16 33 53 33q17 0 33 -8q30 -15 30 -52q0 -19 -8 -30l-182 -303q-19 -31 -49 -31q-16 0 -27 8q-30 13 -30 47zM1051 1753q0 16 8 27l170 309q17 33 53 33q20 0 33 -8q14 -7 23.5 -22.5t9.5 -29.5q0 -12 -9 -30l-184 -303q-15 -31 -49 -31 q-14 0 -25 8q-30 13 -30 47z" />
<glyph unicode="&#x151;" horiz-adv-x="995" d="M127 319q0 61 12 125l39 211q16 79 46.5 143t82.5 118t133 84t185 30q84 0 148 -28t100.5 -75.5t54 -105t16.5 -123.5q0 -64 -10 -108l-43 -225q-72 -377 -442 -377q-86 0 -150 26.5t-100.5 73.5t-54 104.5t-17.5 126.5zM256 328q0 -102 48 -160.5t153 -58.5 q141 0 212 73t97 203l41 217q8 39 8 88q0 98 -48.5 158.5t-152.5 60.5q-257 0 -309 -274l-39 -205q-10 -58 -10 -102zM397 1274q0 8 9 26l172 310q16 32 53 32q17 0 33 -8q30 -15 30 -51q0 -20 -8 -31l-182 -303q-18 -30 -49 -30q-16 0 -27 8q-31 14 -31 47zM786 1274 q0 14 9 26l170 310q16 32 53 32q20 0 33 -8q14 -7 23 -22t9 -29q0 -15 -8 -31l-184 -303q-15 -30 -49 -30q-14 0 -25 8q-31 14 -31 47z" />
<glyph unicode="&#x152;" horiz-adv-x="1904" d="M186 436q0 90 21 213l41 228q13 72 28 132t40 127t56 119.5t76.5 102.5t100 83t129 52.5t162.5 19.5q129 0 212 -60t122 -163l32 164q3 19 20.5 30t39.5 11h673q35 0 52 -20q12 -18 12 -39q0 -30 -21.5 -50t-54.5 -20h-612l-107 -557h545q33 0 51 -21q13 -16 13 -36 q0 -29 -21 -48.5t-55 -19.5h-557l-107 -555h629q32 0 49 -20q14 -14 14 -39q0 -30 -21 -50t-54 -20h-703q-24 0 -38 14t-11 33l14 86q-138 -151 -376 -151q-85 0 -152.5 23.5t-112 64t-74 98.5t-42.5 124.5t-13 143.5zM324 438q0 -155 63 -241t195 -86q90 0 161 27.5 t117.5 71.5t81.5 112t55 137t35 159l49 279q15 83 15 160q0 145 -65 236t-193 91q-92 0 -164 -28.5t-119 -74.5t-82.5 -117t-55.5 -141.5t-36 -162.5l-41 -239q-16 -106 -16 -183z" />
<glyph unicode="&#x153;" horiz-adv-x="1605" d="M127 319q0 61 12 123l39 213q16 79 46.5 143t82.5 118t133 84t185 30q212 0 284 -178q118 178 346 178q83 0 145.5 -25.5t99.5 -72t55 -106t18 -132.5q0 -46 -10 -114l-9 -60q-5 -24 -22 -37.5t-43 -13.5h-576q-14 -96 -14 -127q0 -108 58 -174t163 -66q97 0 197 35 q12 4 25 10t20 8.5t14 2.5q26 0 42 -17t16 -45q0 -38 -45 -53q-134 -57 -283 -57q-112 0 -185.5 50t-109.5 138q-107 -188 -362 -188q-86 0 -150 27t-100.5 74t-54 105t-17.5 127zM256 328q0 -222 201 -222q256 0 307 279l43 217q10 48 10 86q0 98 -49.5 159.5t-153.5 61.5 q-141 0 -213 -74t-96 -202l-39 -203q-10 -58 -10 -102zM934 578h502l4 26q8 47 8 96q0 104 -48 162t-145 58q-136 0 -213.5 -82.5t-103.5 -227.5z" />
<glyph unicode="&#x154;" horiz-adv-x="1224" d="M129 45q0 10 2 16l262 1366q6 30 26.5 48t45.5 18h379q102 0 179.5 -29.5t122 -81t66 -113.5t21.5 -134q0 -53 -12 -109l-9 -45q-27 -142 -124 -227t-248 -109q127 -313 207 -579q11 -36 -11.5 -60t-56.5 -24q-46 0 -61 51q-93 296 -218 600h-323l-113 -586 q-4 -30 -24 -47.5t-47 -17.5q-26 0 -45 17t-19 46zM401 758h318q309 0 360 243l8 39q9 65 9 84q0 106 -64.5 174t-200.5 68h-313zM713 1683q0 16 8 27l170 309q17 33 53 33q20 0 33 -8q15 -7 24 -22t9 -29q0 -13 -9 -31l-184 -303q-15 -31 -49 -31q-14 0 -25 8 q-30 13 -30 47z" />
<glyph unicode="&#x155;" horiz-adv-x="753" d="M129 47q0 10 2 16l137 713q10 69 3.5 93t-35.5 44q-31 21 -25 54q8 53 72 53q48 0 88 -43q27 -31 30 -82q124 137 304 137q83 0 121 -24.5t28 -73.5q-12 -45 -66 -45q-8 0 -40.5 8t-81.5 8q-195 0 -281 -200l-127 -656q-6 -28 -25 -44.5t-43 -16.5q-26 0 -43.5 16 t-17.5 43zM393 1274q0 15 8 26l170 310q16 32 54 32q19 0 32 -8q15 -7 24 -22t9 -29q0 -15 -8 -31l-184 -303q-15 -30 -49 -30q-14 0 -25 8q-31 14 -31 47z" />
<glyph unicode="&#x156;" horiz-adv-x="1224" d="M129 45q0 10 2 16l262 1366q6 30 26.5 48t45.5 18h379q102 0 179.5 -29.5t122 -81t66 -113.5t21.5 -134q0 -53 -12 -109l-9 -45q-27 -142 -124 -227t-248 -109q127 -313 207 -579q11 -36 -11.5 -60t-56.5 -24q-46 0 -61 51q-93 296 -218 600h-323l-113 -586 q-4 -30 -24 -47.5t-47 -17.5q-26 0 -45 17t-19 46zM401 758h318q309 0 360 243l8 39q9 65 9 84q0 106 -64.5 174t-200.5 68h-313zM465 -395q1 11 10.5 20.5t21 16t24 23.5t18.5 42q-29 9 -46 33.5t-14 52.5q3 35 30.5 57t61.5 19q38 -3 59.5 -33.5t18.5 -75.5 q-8 -80 -64.5 -135t-90.5 -53q-12 2 -21 12.5t-8 20.5z" />
<glyph unicode="&#x157;" horiz-adv-x="753" d="M29 -395q2 14 16 24t31.5 28t25.5 50q-29 9 -45.5 33.5t-13.5 52.5q3 35 30.5 57t61.5 19q38 -3 59.5 -33.5t18.5 -75.5q-8 -80 -65 -135t-91 -53q-12 1 -21 11.5t-7 21.5zM129 47q0 10 2 16l137 713q10 69 3.5 93t-35.5 44q-31 21 -25 54q8 53 72 53q48 0 88 -43 q27 -31 30 -82q124 137 304 137q83 0 121 -24.5t28 -73.5q-12 -45 -66 -45q-8 0 -40.5 8t-81.5 8q-195 0 -281 -200l-127 -656q-6 -28 -25 -44.5t-43 -16.5q-26 0 -43.5 16t-17.5 43z" />
<glyph unicode="&#x158;" horiz-adv-x="1224" d="M129 45q0 10 2 16l262 1366q6 30 26.5 48t45.5 18h379q102 0 179.5 -29.5t122 -81t66 -113.5t21.5 -134q0 -53 -12 -109l-9 -45q-27 -142 -124 -227t-248 -109q127 -313 207 -579q11 -36 -11.5 -60t-56.5 -24q-46 0 -61 51q-93 296 -218 600h-323l-113 -586 q-4 -30 -24 -47.5t-47 -17.5q-26 0 -45 17t-19 46zM401 758h318q309 0 360 243l8 39q9 65 9 84q0 106 -64.5 174t-200.5 68h-313zM492 1985q0 24 15.5 40.5t41.5 16.5q23 0 37 -14l215 -226l256 228q17 14 37 14q22 0 38.5 -16t16.5 -39q0 -22 -25 -43l-286 -267 q-18 -18 -45 -18t-41 18l-242 267q-18 18 -18 39z" />
<glyph unicode="&#x159;" horiz-adv-x="753" d="M129 47q0 10 2 16l137 713q10 69 3.5 93t-35.5 44q-31 21 -25 54q8 53 72 53q48 0 88 -43q27 -31 30 -82q124 137 304 137q83 0 121 -24.5t28 -73.5q-12 -45 -66 -45q-8 0 -40.5 8t-81.5 8q-195 0 -281 -200l-127 -656q-6 -28 -25 -44.5t-43 -16.5q-26 0 -43.5 16 t-17.5 43zM164 1575q0 24 15.5 40.5t41.5 16.5q23 0 37 -14l215 -225l256 227q17 14 37 14q22 0 38.5 -16t16.5 -39q0 -22 -24 -43l-287 -266q-19 -19 -45 -19t-41 19l-242 266q-18 18 -18 39z" />
<glyph unicode="&#x15a;" horiz-adv-x="1120" d="M92 106q0 26 18 46t46 20q13 0 28 -6q139 -64 283 -64q217 0 332.5 85t115.5 221q0 37 -9.5 68.5t-23 55.5t-38.5 46t-46.5 36.5t-58 32t-61 27.5t-67.5 26.5t-66 26.5q-65 26 -111 53t-91 70t-68 105t-23 143q0 131 75 226.5t193.5 141t263.5 45.5q160 0 289 -57 q43 -21 43 -57q0 -29 -18.5 -49.5t-46.5 -20.5q-14 0 -29 6q-116 53 -242 53q-177 0 -285 -78.5t-108 -201.5q0 -36 9.5 -68t23 -56t39.5 -47t47.5 -38.5t58.5 -33.5t61.5 -28.5t67.5 -27.5q39 -15 58.5 -23t56 -24.5t56 -28.5t49.5 -32.5t46 -39t36.5 -46t30.5 -56.5 t17 -66t7 -79q0 -140 -77.5 -239.5t-208.5 -147.5t-302 -48q-177 0 -330 68q-41 20 -41 61zM651 1683q0 16 8 27l170 309q17 33 54 33q19 0 32 -8q15 -7 24 -22t9 -29q0 -15 -8 -31l-184 -303q-16 -31 -49 -31q-14 0 -25 8q-31 14 -31 47z" />
<glyph unicode="&#x15b;" horiz-adv-x="847" d="M45 88q0 27 16.5 43t40.5 16q13 0 41.5 -11t61.5 -19q66 -15 129 -15q144 0 222.5 51t78.5 132q0 24 -6 43.5t-22 36.5t-28.5 28t-41.5 25.5t-43.5 21t-52.5 21t-52 20.5q-51 21 -85.5 40.5t-70.5 50.5t-54.5 75t-18.5 101q0 92 58 158.5t144.5 96t190.5 29.5 q76 0 145 -16q63 -14 85 -32.5t22 -45.5t-16 -43t-41 -16q-10 0 -38 10t-53 16q-67 13 -104 13q-119 0 -192.5 -48t-73.5 -120q0 -20 6.5 -38.5t13.5 -31.5t26.5 -28t29.5 -22.5t39.5 -21t39.5 -18t45 -18.5q18 -7 27 -11q56 -21 92.5 -40t76 -50t59.5 -76t20 -104 q0 -100 -59 -170t-153 -101.5t-214 -31.5q-92 0 -164 16q-67 15 -97 34.5t-30 49.5zM430 1274q0 15 8 26l170 310q16 32 54 32q19 0 32 -8q15 -7 24 -22t9 -29q0 -15 -8 -31l-184 -303q-15 -30 -50 -30q-13 0 -24 8q-31 14 -31 47z" />
<glyph unicode="&#x15e;" horiz-adv-x="1120" d="M92 106q0 26 18 46t46 20q13 0 28 -6q139 -64 283 -64q217 0 332.5 85t115.5 221q0 37 -9.5 68.5t-23 55.5t-38.5 46t-46.5 36.5t-58 32t-61 27.5t-67.5 26.5t-66 26.5q-65 26 -111 53t-91 70t-68 105t-23 143q0 131 75 226.5t193.5 141t263.5 45.5q160 0 289 -57 q43 -21 43 -57q0 -29 -18.5 -49.5t-46.5 -20.5q-14 0 -29 6q-116 53 -242 53q-177 0 -285 -78.5t-108 -201.5q0 -36 9.5 -68t23 -56t39.5 -47t47.5 -38.5t58.5 -33.5t61.5 -28.5t67.5 -27.5q39 -15 58.5 -23t56 -24.5t56 -28.5t49.5 -32.5t46 -39t36.5 -46t30.5 -56.5 t17 -66t7 -79q0 -130 -68 -226t-184 -146.5t-269 -59.5l-8 -64q211 0 211 -158q0 -77 -72 -127.5t-184 -50.5q-65 0 -93 9t-28 36q0 37 103 37q75 0 117.5 27t44.5 69q0 45 -31 63t-96 23q-34 5 -47 12t-13 25q0 21 6 45l6 51q-166 3 -313 68q-41 20 -41 61z" />
<glyph unicode="&#x15f;" horiz-adv-x="847" d="M45 88q0 27 16.5 43t40.5 16q13 0 41.5 -11t61.5 -19q66 -15 129 -15q144 0 222.5 51t78.5 132q0 24 -6 43.5t-22 36.5t-28.5 28t-41.5 25.5t-43.5 21t-52.5 21t-52 20.5q-51 21 -85.5 40.5t-70.5 50.5t-54.5 75t-18.5 101q0 92 58 158.5t144.5 96t190.5 29.5 q76 0 145 -16q63 -14 85 -32.5t22 -45.5t-16 -43t-41 -16q-10 0 -38 10t-53 16q-67 13 -104 13q-119 0 -192.5 -48t-73.5 -120q0 -20 6.5 -38.5t13.5 -31.5t26.5 -28t29.5 -22.5t39.5 -21t39.5 -18t45 -18.5q18 -7 27 -11q56 -21 92.5 -40t76 -50t59.5 -76t20 -104 q0 -132 -96.5 -208.5t-253.5 -90.5l-9 -76q211 0 211 -158q0 -77 -72 -127.5t-184 -50.5q-65 0 -92.5 9t-27.5 36q0 37 102 37q75 0 117.5 27t44.5 69q0 45 -31 63t-96 23q-34 5 -47 12t-13 25q0 17 7 45l8 62q-89 0 -158 16q-67 15 -97 34.5t-30 49.5z" />
<glyph unicode="&#x160;" horiz-adv-x="1120" d="M92 106q0 26 18 46t46 20q13 0 28 -6q139 -64 283 -64q217 0 332.5 85t115.5 221q0 37 -9.5 68.5t-23 55.5t-38.5 46t-46.5 36.5t-58 32t-61 27.5t-67.5 26.5t-66 26.5q-65 26 -111 53t-91 70t-68 105t-23 143q0 131 75 226.5t193.5 141t263.5 45.5q160 0 289 -57 q43 -21 43 -57q0 -29 -18.5 -49.5t-46.5 -20.5q-14 0 -29 6q-116 53 -242 53q-177 0 -285 -78.5t-108 -201.5q0 -36 9.5 -68t23 -56t39.5 -47t47.5 -38.5t58.5 -33.5t61.5 -28.5t67.5 -27.5q39 -15 58.5 -23t56 -24.5t56 -28.5t49.5 -32.5t46 -39t36.5 -46t30.5 -56.5 t17 -66t7 -79q0 -140 -77.5 -239.5t-208.5 -147.5t-302 -48q-177 0 -330 68q-41 20 -41 61zM436 1985q0 24 16 40.5t42 16.5q22 0 36 -14l215 -226l256 228q17 14 37 14q22 0 39 -16t17 -39q0 -22 -25 -43l-287 -267q-18 -18 -45 -18t-41 18l-241 267q-19 19 -19 39z" />
<glyph unicode="&#x161;" horiz-adv-x="847" d="M45 88q0 27 16.5 43t40.5 16q13 0 41.5 -11t61.5 -19q66 -15 129 -15q144 0 222.5 51t78.5 132q0 24 -6 43.5t-22 36.5t-28.5 28t-41.5 25.5t-43.5 21t-52.5 21t-52 20.5q-51 21 -85.5 40.5t-70.5 50.5t-54.5 75t-18.5 101q0 92 58 158.5t144.5 96t190.5 29.5 q76 0 145 -16q63 -14 85 -32.5t22 -45.5t-16 -43t-41 -16q-10 0 -38 10t-53 16q-67 13 -104 13q-119 0 -192.5 -48t-73.5 -120q0 -20 6.5 -38.5t13.5 -31.5t26.5 -28t29.5 -22.5t39.5 -21t39.5 -18t45 -18.5q18 -7 27 -11q56 -21 92.5 -40t76 -50t59.5 -76t20 -104 q0 -100 -59 -170t-153 -101.5t-214 -31.5q-92 0 -164 16q-67 15 -97 34.5t-30 49.5zM203 1575q0 24 15.5 40.5t41.5 16.5q23 0 37 -14l215 -225l256 227q17 14 37 14q22 0 38.5 -16t16.5 -39q0 -22 -24 -43l-287 -266q-19 -19 -45 -19t-41 19l-242 266q-18 18 -18 39z" />
<glyph unicode="&#x162;" horiz-adv-x="1132" d="M242 1421q0 30 21.5 51t55.5 21h934q33 0 50 -20q14 -14 14 -39q0 -31 -21.5 -51.5t-56.5 -20.5h-399l-252 -1315q-6 -30 -26 -47.5t-46 -17.5q-28 0 -46.5 16.5t-18.5 46.5q0 2 1 7.5t1 8.5l249 1301h-395q-33 0 -51 18q-14 16 -14 41zM375 -395q1 11 10.5 20.5t21 16 t24 23.5t18.5 42q-29 9 -46 33.5t-14 52.5q3 35 30.5 57t61.5 19q38 -3 59.5 -33.5t18.5 -75.5q-8 -80 -65 -135t-91 -53q-12 1 -21 11.5t-7 21.5z" />
<glyph unicode="&#x163;" horiz-adv-x="641" d="M172 242q0 63 25 188l96 471h-57q-30 0 -46 19q-14 14 -14 34q0 28 20 47t50 19h71l48 250q6 29 25 45t44 16t42.5 -15.5t17.5 -43.5q0 -11 -2 -17l-48 -235h187q26 0 45 -19q12 -14 12 -34q0 -28 -20 -47t-50 -19h-196l-98 -483q-21 -103 -21 -162q0 -69 34 -101 t120 -32h41q31 0 47 -19q14 -14 14 -36q0 -30 -20.5 -49t-53.5 -19h-47q-142 0 -204 62t-62 180zM211 -395q1 11 10.5 20.5t21 16t24 23.5t18.5 42q-29 9 -46 33.5t-14 52.5q3 35 30.5 57t61.5 19q38 -3 59.5 -33.5t18.5 -75.5q-8 -80 -64.5 -135t-90.5 -53q-12 2 -21 12.5 t-8 20.5z" />
<glyph unicode="&#x164;" horiz-adv-x="1132" d="M242 1421q0 30 21.5 51t55.5 21h934q33 0 50 -20q14 -14 14 -39q0 -31 -21.5 -51.5t-56.5 -20.5h-399l-252 -1315q-6 -30 -26 -47.5t-46 -17.5q-28 0 -46.5 16.5t-18.5 46.5q0 2 1 7.5t1 8.5l249 1301h-395q-33 0 -51 18q-14 16 -14 41zM502 1985q0 24 15.5 40.5 t41.5 16.5q23 0 37 -14l215 -226l256 228q17 14 37 14q22 0 38.5 -16t16.5 -39q0 -22 -24 -43l-287 -267q-18 -18 -45 -18t-41 18l-242 267q-18 18 -18 39z" />
<glyph unicode="&#x165;" horiz-adv-x="843" d="M172 242q0 63 25 188l96 471h-57q-30 0 -46 19q-14 14 -14 34q0 28 20 47t50 19h71l48 250q6 29 25 45t44 16t42.5 -15.5t17.5 -43.5q0 -11 -2 -17l-48 -235h187q26 0 45 -19q12 -14 12 -34q0 -28 -20 -47t-50 -19h-196l-98 -483q-21 -103 -21 -162q0 -69 34 -101 t120 -32h41q31 0 47 -19q14 -14 14 -36q0 -30 -20.5 -49t-53.5 -19h-47q-142 0 -204 62t-62 180zM784 1219q1 11 10.5 20.5t21 16t24 23.5t18.5 42q-29 9 -45.5 33.5t-13.5 52.5q3 35 30.5 57t61.5 19q38 -3 59.5 -33.5t18.5 -75.5q-8 -80 -65 -135t-91 -53q-12 2 -21 12.5 t-8 20.5z" />
<glyph unicode="&#x16a;" horiz-adv-x="1277" d="M178 416q0 84 25 221l155 811q6 30 26 47.5t46 17.5q27 0 45.5 -17.5t18.5 -45.5v-18l-158 -822q-21 -110 -21 -188q-2 -157 65.5 -236.5t213.5 -79.5q95 0 168.5 27t121.5 70.5t84 113.5t56.5 138t38.5 163l158 830q6 30 26 47.5t47 17.5q26 0 45 -17.5t19 -45.5 q0 -12 -2 -18l-162 -838q-13 -71 -29 -130.5t-41.5 -124t-57.5 -115t-78.5 -97.5t-103 -77.5t-132 -49t-164.5 -18.5q-210 0 -311.5 116.5t-98.5 317.5zM662 1872q0 25 17 42t42 17h399q25 0 42.5 -17t17.5 -42t-17.5 -42.5t-42.5 -17.5h-399q-25 0 -42 17.5t-17 42.5z" />
<glyph unicode="&#x16b;" horiz-adv-x="1075" d="M154 272q0 66 16 148l104 551q6 29 25.5 45t44.5 16q24 0 41.5 -16t17.5 -43q0 -13 -2 -17l-102 -536q-14 -79 -14 -129q0 -92 41 -136t137 -44q144 0 293 143l137 717q6 28 25 44.5t43 16.5q26 0 43.5 -16t17.5 -43q0 -11 -2 -17l-139 -725q-11 -69 -4.5 -93t36.5 -46 q31 -17 25 -51q-8 -53 -72 -53q-51 0 -88 43q-26 31 -26 80q-151 -123 -312 -123q-146 0 -216 74.5t-70 209.5zM444 1391q0 25 17.5 42t42.5 17h399q25 0 42.5 -17t17.5 -42t-17.5 -42.5t-42.5 -17.5h-399q-25 0 -42.5 17.5t-17.5 42.5z" />
<glyph unicode="&#x16e;" horiz-adv-x="1277" d="M178 416q0 84 25 221l155 811q6 30 26 47.5t46 17.5q27 0 45.5 -17.5t18.5 -45.5v-18l-158 -822q-21 -110 -21 -188q-2 -157 65.5 -236.5t213.5 -79.5q95 0 168.5 27t121.5 70.5t84 113.5t56.5 138t38.5 163l158 830q6 30 26 47.5t47 17.5q26 0 45 -17.5t19 -45.5 q0 -12 -2 -18l-162 -838q-13 -71 -29 -130.5t-41.5 -124t-57.5 -115t-78.5 -97.5t-103 -77.5t-132 -49t-164.5 -18.5q-210 0 -311.5 116.5t-98.5 317.5zM657 1819q0 98 70 167.5t168 69.5q100 0 170 -69.5t70 -167.5q0 -101 -70 -170.5t-170 -69.5q-99 0 -168.5 69.5 t-69.5 170.5zM739 1819q0 -65 46.5 -111.5t109.5 -46.5q64 0 111 46.5t47 111.5q0 64 -47 108.5t-111 44.5t-110 -44.5t-46 -108.5z" />
<glyph unicode="&#x16f;" horiz-adv-x="1075" d="M154 272q0 66 16 148l104 551q6 29 25.5 45t44.5 16q24 0 41.5 -16t17.5 -43q0 -13 -2 -17l-102 -536q-14 -79 -14 -129q0 -92 41 -136t137 -44q144 0 293 143l137 717q6 28 25 44.5t43 16.5q26 0 43.5 -16t17.5 -43q0 -11 -2 -17l-139 -725q-11 -69 -4.5 -93t36.5 -46 q31 -17 25 -51q-8 -53 -72 -53q-51 0 -88 43q-26 31 -26 80q-151 -123 -312 -123q-146 0 -216 74.5t-70 209.5zM440 1409q0 98 70 168t168 70q100 0 170 -70t70 -168q0 -101 -70 -170.5t-170 -69.5q-99 0 -168.5 69.5t-69.5 170.5zM522 1409q0 -65 46 -111.5t110 -46.5 t111 46.5t47 111.5q0 64 -47 109t-111 45t-110 -45t-46 -109z" />
<glyph unicode="&#x170;" horiz-adv-x="1277" d="M178 416q0 84 25 221l155 811q6 30 26 47.5t46 17.5q27 0 45.5 -17.5t18.5 -45.5v-18l-158 -822q-21 -110 -21 -188q-2 -157 65.5 -236.5t213.5 -79.5q95 0 168.5 27t121.5 70.5t84 113.5t56.5 138t38.5 163l158 830q6 30 26 47.5t47 17.5q26 0 45 -17.5t19 -45.5 q0 -12 -2 -18l-162 -838q-13 -71 -29 -130.5t-41.5 -124t-57.5 -115t-78.5 -97.5t-103 -77.5t-132 -49t-164.5 -18.5q-210 0 -311.5 116.5t-98.5 317.5zM645 1753q0 11 8 27l172 309q17 33 54 33q16 0 32 -8q31 -16 31 -52q0 -19 -8 -30l-182 -303q-19 -31 -50 -31 q-15 0 -26 8q-31 14 -31 47zM1034 1753q0 16 8 27l170 309q16 33 54 33q19 0 32 -8q14 -7 23.5 -22.5t9.5 -29.5t-8 -30l-184 -303q-15 -31 -49 -31q-14 0 -25 8q-31 14 -31 47z" />
<glyph unicode="&#x171;" horiz-adv-x="1075" d="M154 272q0 66 16 148l104 551q6 29 25.5 45t44.5 16q24 0 41.5 -16t17.5 -43q0 -13 -2 -17l-102 -536q-14 -79 -14 -129q0 -92 41 -136t137 -44q144 0 293 143l137 717q6 28 25 44.5t43 16.5q26 0 43.5 -16t17.5 -43q0 -11 -2 -17l-139 -725q-11 -69 -4.5 -93t36.5 -46 q31 -17 25 -51q-8 -53 -72 -53q-51 0 -88 43q-26 31 -26 80q-151 -123 -312 -123q-146 0 -216 74.5t-70 209.5zM436 1274q0 10 8 26l172 310q16 32 54 32q16 0 32 -8q31 -16 31 -51q0 -20 -8 -31l-182 -303q-18 -30 -49 -30q-16 0 -27 8q-31 14 -31 47zM825 1274q0 14 9 26 l170 310q16 32 53 32q20 0 33 -8q14 -7 23 -22t9 -29q0 -15 -8 -31l-184 -303q-15 -30 -49 -30q-14 0 -25 8q-31 14 -31 47z" />
<glyph unicode="&#x172;" horiz-adv-x="1277" d="M178 416q0 84 25 221l155 811q6 30 26 47.5t46 17.5q27 0 45.5 -17.5t18.5 -45.5v-18l-158 -822q-21 -110 -21 -188q-2 -157 65.5 -236.5t213.5 -79.5q95 0 168.5 27t121.5 70.5t84 113.5t56.5 138t38.5 163l158 830q6 30 26 47.5t47 17.5q26 0 45 -17.5t19 -45.5 q0 -12 -2 -18l-162 -838q-18 -97 -41.5 -173.5t-66 -157.5t-98.5 -136.5t-143 -95t-196 -47.5q-88 -95 -88 -172q0 -105 121 -105q18 0 37 3t24 3q21 0 34.5 -14t13.5 -33q0 -42 -43 -55q-48 -10 -84 -10q-101 0 -159.5 47t-58.5 131q0 98 95 205q-185 12 -275.5 127.5 t-87.5 304.5z" />
<glyph unicode="&#x173;" horiz-adv-x="1075" d="M154 272q0 66 16 148l104 551q6 29 25.5 45t44.5 16q24 0 41.5 -16t17.5 -43q0 -13 -2 -17l-102 -536q-14 -79 -14 -129q0 -92 41 -136t137 -44q144 0 293 143l137 717q6 28 25 44.5t43 16.5q26 0 43.5 -16t17.5 -43q0 -11 -2 -17l-139 -725q-11 -69 -4.5 -93t36.5 -46 q31 -17 25 -51q-6 -32 -31 -45q-86 -89 -86 -170q0 -105 121 -105q18 0 37.5 3.5t24.5 3.5q21 0 34 -14t13 -33q0 -43 -43 -56q-48 -10 -84 -10q-101 0 -159 47t-58 131q0 103 102 211q-16 8 -31 27q-26 31 -26 80q-151 -123 -312 -123q-146 0 -216 74.5t-70 209.5z" />
<glyph unicode="&#x174;" horiz-adv-x="1738" d="M258 1442q-1 34 18.5 52.5t49.5 18.5q27 0 46 -17.5t19 -49.5q20 -676 66 -1237q261 555 542 1216q20 47 41.5 67.5t57.5 20.5q41 0 57 -28.5t16 -79.5q12 -549 60 -1194q271 582 555 1259q14 43 59 43q34 0 55 -27.5t7 -64.5q-240 -581 -604 -1364q-20 -41 -44 -58 t-61 -17q-39 0 -59.5 26.5t-24.5 89.5q-47 566 -63 1135q-268 -623 -531 -1167q-36 -84 -102 -84q-42 0 -60.5 24.5t-21.5 71.5q-61 714 -78 1364zM776 1714q0 22 25 43l286 268q17 17 46 17q24 0 43 -19l239 -264q19 -22 19 -41q0 -24 -16 -40.5t-42 -16.5q-23 0 -37 14 l-215 226l-256 -226q-16 -16 -37 -16q-22 0 -38.5 16t-16.5 39z" />
<glyph unicode="&#x175;" horiz-adv-x="1378" d="M174 956q-1 35 16.5 55.5t45.5 20.5q34 0 46.5 -17.5t14.5 -49.5q26 -379 72 -781q195 387 376 791q26 57 82 57q59 0 62 -78q25 -364 74 -770q111 225 380 801q11 26 24.5 36.5t37.5 10.5q35 0 47.5 -28t-6.5 -68q-208 -455 -426 -883q-18 -35 -38 -50t-52 -15 q-33 0 -48 22t-20 68q-41 324 -74 731q-173 -372 -368 -756q-18 -36 -39.5 -50.5t-52.5 -14.5q-36 0 -52 26.5t-22 85.5q-55 467 -80 856zM532 1307q0 22 25 43l287 268q16 16 45 16q25 0 43 -18l239 -264q19 -22 19 -41q0 -24 -16 -41t-41 -17q-22 0 -37 15l-215 225 l-256 -225q-17 -17 -37 -17q-22 0 -39 16.5t-17 39.5z" />
<glyph unicode="&#x176;" horiz-adv-x="976" d="M217 1430q-9 36 13 59.5t55 23.5q52 0 63 -53q84 -371 209 -768q258 364 518 789q17 32 53 32q35 0 55 -30t-1 -68q-248 -407 -580 -878l-94 -490q-6 -30 -26.5 -47.5t-47.5 -17.5q-26 0 -44.5 17t-18.5 46q0 10 2 16l92 480q-148 452 -248 889zM393 1714q0 22 25 43 l287 268q17 17 45 17q24 0 43 -19l239 -264q19 -22 19 -41q0 -24 -16 -40.5t-42 -16.5q-23 0 -37 14l-215 226l-256 -226q-16 -16 -36 -16q-22 0 -39 16t-17 39z" />
<glyph unicode="&#x177;" horiz-adv-x="890" d="M-104 -311q5 28 24 46t49 19q97 2 179 54t171 184q-112 549 -159 958q-4 36 14.5 59t48.5 23q56 0 62 -59q39 -319 129 -817l434 829q23 47 65 47q43 0 54.5 -35.5t-13.5 -76.5l-411 -781q-144 -271 -275 -390.5t-303 -123.5q-34 -1 -53 17t-16 47zM254 1307q0 22 25 43 l286 268q16 16 45 16q25 0 43 -18l240 -264q18 -21 18 -41q0 -24 -16 -41t-41 -17q-22 0 -37 15l-215 225l-256 -225q-17 -17 -37 -17q-22 0 -38.5 16.5t-16.5 39.5z" />
<glyph unicode="&#x178;" horiz-adv-x="976" d="M217 1430q-9 36 13 59.5t55 23.5q52 0 63 -53q84 -371 209 -768q258 364 518 789q17 32 53 32q35 0 55 -30t-1 -68q-248 -407 -580 -878l-94 -490q-6 -30 -26.5 -47.5t-47.5 -17.5q-26 0 -44.5 17t-18.5 46q0 10 2 16l92 480q-148 452 -248 889zM473 1794q0 32 22 55 t54 23t55 -23t23 -55t-23 -54t-55 -22t-54 22t-22 54zM778 1794q0 32 22 55t54 23t54 -23t22 -55t-22 -54t-54 -22t-54 22t-22 54z" />
<glyph unicode="&#x179;" horiz-adv-x="999" d="M-14 57q0 8 2 15.5t3.5 12.5t7 14t8 12.5t11 15.5t11.5 16l944 1221h-660q-34 0 -49 18q-16 19 -16 39q0 31 22 51.5t56 20.5h778q32 0 47 -18q16 -19 16 -41q0 -15 -7 -30.5t-14 -25t-24 -30.5l-940 -1219h666q32 0 47 -18q16 -19 16 -41q0 -30 -22 -50t-55 -20h-785 q-31 0 -49 18q-14 16 -14 39zM639 1683q0 16 8 27l170 309q17 33 53 33q20 0 33 -8q15 -7 24 -22t9 -29q0 -15 -8 -31l-185 -303q-15 -31 -49 -31q-13 0 -24 8q-31 14 -31 47z" />
<glyph unicode="&#x17a;" horiz-adv-x="815" d="M-2 55q0 29 25 54l690 790h-445q-31 0 -47 16q-14 14 -14 37q0 29 20.5 48.5t51.5 19.5h565q29 0 45 -19q14 -14 14 -34q0 -31 -24 -58l-693 -788h484q28 0 45 -17q14 -16 14 -38q0 -28 -20 -47t-52 -19h-596q-31 0 -49 18q-14 14 -14 37zM532 1274q0 14 9 26l170 310 q16 32 53 32q20 0 33 -8q14 -7 23 -22t9 -29q0 -15 -8 -31l-184 -303q-15 -30 -49 -30q-14 0 -25 8q-31 14 -31 47z" />
<glyph unicode="&#x17b;" horiz-adv-x="999" d="M-14 57q0 8 2 15.5t3.5 12.5t7 14t8 12.5t11 15.5t11.5 16l944 1221h-660q-34 0 -49 18q-16 19 -16 39q0 31 22 51.5t56 20.5h778q32 0 47 -18q16 -19 16 -41q0 -15 -7 -30.5t-14 -25t-24 -30.5l-940 -1219h666q32 0 47 -18q16 -19 16 -41q0 -30 -22 -50t-55 -20h-785 q-31 0 -49 18q-14 16 -14 39zM653 1855q0 35 25 61t59 26q35 0 59.5 -25.5t24.5 -61.5q0 -34 -24.5 -58.5t-59.5 -24.5q-34 0 -59 24.5t-25 58.5z" />
<glyph unicode="&#x17c;" horiz-adv-x="815" d="M-2 55q0 29 25 54l690 790h-445q-31 0 -47 16q-14 14 -14 37q0 29 20.5 48.5t51.5 19.5h565q29 0 45 -19q14 -14 14 -34q0 -31 -24 -58l-693 -788h484q28 0 45 -17q14 -16 14 -38q0 -28 -20 -47t-52 -19h-596q-31 0 -49 18q-14 14 -14 37zM496 1376q0 35 25 60.5t59 25.5 q35 0 59.5 -25.5t24.5 -60.5q0 -34 -24.5 -59t-59.5 -25q-34 0 -59 25t-25 59z" />
<glyph unicode="&#x17d;" horiz-adv-x="999" d="M-14 57q0 8 2 15.5t3.5 12.5t7 14t8 12.5t11 15.5t11.5 16l944 1221h-660q-34 0 -49 18q-16 19 -16 39q0 31 22 51.5t56 20.5h778q32 0 47 -18q16 -19 16 -41q0 -15 -7 -30.5t-14 -25t-24 -30.5l-940 -1219h666q32 0 47 -18q16 -19 16 -41q0 -30 -22 -50t-55 -20h-785 q-31 0 -49 18q-14 16 -14 39zM416 1985q0 24 15.5 40.5t41.5 16.5q23 0 37 -14l215 -226l256 228q17 14 37 14q22 0 38.5 -16t16.5 -39q0 -22 -24 -43l-287 -267q-18 -18 -45 -18t-41 18l-242 267q-18 18 -18 39z" />
<glyph unicode="&#x17e;" horiz-adv-x="815" d="M-2 55q0 29 25 54l690 790h-445q-31 0 -47 16q-14 14 -14 37q0 29 20.5 48.5t51.5 19.5h565q29 0 45 -19q14 -14 14 -34q0 -31 -24 -58l-693 -788h484q28 0 45 -17q14 -16 14 -38q0 -28 -20 -47t-52 -19h-596q-31 0 -49 18q-14 14 -14 37zM266 1575q0 24 16 40.5t42 16.5 q22 0 36 -14l215 -225l256 227q17 14 37 14q22 0 39 -16t17 -39q0 -22 -25 -43l-287 -266q-19 -19 -45 -19t-41 19l-241 266q-19 19 -19 39z" />
<glyph unicode="&#x192;" horiz-adv-x="530" d="M-199 -362q0 24 18.5 41.5t43.5 17.5h26q90 0 139.5 47.5t71.5 175.5l170 973h-80q-25 0 -42 17t-17 42t17 41.5t42 16.5h101l33 190q21 122 100.5 197.5t202.5 75.5h45q25 0 42 -17.5t17 -44.5q0 -26 -17 -42.5t-42 -16.5h-41q-72 0 -118.5 -43.5t-59.5 -124.5l-31 -174 h139q25 0 42.5 -16.5t17.5 -41.5t-17.5 -42t-42.5 -17h-160l-172 -989q-29 -169 -111 -248.5t-224 -79.5h-31q-25 0 -43.5 18t-18.5 44z" />
<glyph unicode="&#x218;" horiz-adv-x="1120" d="M92 106q0 26 18 46t46 20q13 0 28 -6q139 -64 283 -64q217 0 332.5 85t115.5 221q0 37 -9.5 68.5t-23 55.5t-38.5 46t-46.5 36.5t-58 32t-61 27.5t-67.5 26.5t-66 26.5q-65 26 -111 53t-91 70t-68 105t-23 143q0 131 75 226.5t193.5 141t263.5 45.5q160 0 289 -57 q43 -21 43 -57q0 -29 -18.5 -49.5t-46.5 -20.5q-14 0 -29 6q-116 53 -242 53q-177 0 -285 -78.5t-108 -201.5q0 -36 9.5 -68t23 -56t39.5 -47t47.5 -38.5t58.5 -33.5t61.5 -28.5t67.5 -27.5q39 -15 58.5 -23t56 -24.5t56 -28.5t49.5 -32.5t46 -39t36.5 -46t30.5 -56.5 t17 -66t7 -79q0 -140 -77.5 -239.5t-208.5 -147.5t-302 -48q-177 0 -330 68q-41 20 -41 61zM387 -395q1 11 10.5 20.5t21 16t24 23.5t18.5 42q-29 9 -46 33.5t-14 52.5q3 35 31 57t62 19q38 -3 59 -33.5t18 -75.5q-8 -80 -64.5 -135t-90.5 -53q-12 2 -21 12.5t-8 20.5z" />
<glyph unicode="&#x219;" horiz-adv-x="847" d="M45 88q0 27 16.5 43t40.5 16q13 0 41.5 -11t61.5 -19q66 -15 129 -15q144 0 222.5 51t78.5 132q0 24 -6 43.5t-22 36.5t-28.5 28t-41.5 25.5t-43.5 21t-52.5 21t-52 20.5q-51 21 -85.5 40.5t-70.5 50.5t-54.5 75t-18.5 101q0 92 58 158.5t144.5 96t190.5 29.5 q76 0 145 -16q63 -14 85 -32.5t22 -45.5t-16 -43t-41 -16q-10 0 -38 10t-53 16q-67 13 -104 13q-119 0 -192.5 -48t-73.5 -120q0 -20 6.5 -38.5t13.5 -31.5t26.5 -28t29.5 -22.5t39.5 -21t39.5 -18t45 -18.5q18 -7 27 -11q56 -21 92.5 -40t76 -50t59.5 -76t20 -104 q0 -100 -59 -170t-153 -101.5t-214 -31.5q-92 0 -164 16q-67 15 -97 34.5t-30 49.5zM262 -395q1 11 10.5 20.5t21 16t24 23.5t18.5 42q-29 9 -46 33.5t-14 52.5q3 35 31 57t62 19q38 -3 59 -33.5t18 -75.5q-8 -80 -64.5 -135t-90.5 -53q-12 2 -21 12.5t-8 20.5z" />
<glyph unicode="&#x21a;" horiz-adv-x="1132" d="M242 1421q0 30 21.5 51t55.5 21h934q33 0 50 -20q14 -14 14 -39q0 -31 -21.5 -51.5t-56.5 -20.5h-399l-252 -1315q-6 -30 -26 -47.5t-46 -17.5q-28 0 -46.5 16.5t-18.5 46.5q0 2 1 7.5t1 8.5l249 1301h-395q-33 0 -51 18q-14 16 -14 41zM375 -395q1 11 10.5 20.5t21 16 t24 23.5t18.5 42q-29 9 -46 33.5t-14 52.5q3 35 30.5 57t61.5 19q38 -3 59.5 -33.5t18.5 -75.5q-8 -80 -65 -135t-91 -53q-12 1 -21 11.5t-7 21.5z" />
<glyph unicode="&#x21b;" horiz-adv-x="641" d="M172 242q0 63 25 188l96 471h-57q-30 0 -46 19q-14 14 -14 34q0 28 20 47t50 19h71l48 250q6 29 25 45t44 16t42.5 -15.5t17.5 -43.5q0 -11 -2 -17l-48 -235h187q26 0 45 -19q12 -14 12 -34q0 -28 -20 -47t-50 -19h-196l-98 -483q-21 -103 -21 -162q0 -69 34 -101 t120 -32h41q31 0 47 -19q14 -14 14 -36q0 -30 -20.5 -49t-53.5 -19h-47q-142 0 -204 62t-62 180zM211 -395q1 11 10.5 20.5t21 16t24 23.5t18.5 42q-29 9 -46 33.5t-14 52.5q3 35 30.5 57t61.5 19q38 -3 59.5 -33.5t18.5 -75.5q-8 -80 -64.5 -135t-90.5 -53q-12 2 -21 12.5 t-8 20.5z" />
<glyph unicode="&#x2c6;" horiz-adv-x="1083" d="M418 1307q0 22 24 43l287 268q16 16 45 16q25 0 43 -18l240 -264q18 -21 18 -41q0 -24 -16 -41t-41 -17q-22 0 -37 15l-215 225l-256 -225q-17 -17 -37 -17q-22 0 -38.5 16.5t-16.5 39.5z" />
<glyph unicode="&#x2c7;" horiz-adv-x="1083" d="M457 1575q0 24 15.5 40.5t41.5 16.5q23 0 37 -14l215 -225l256 227q17 14 37 14q22 0 38.5 -16t16.5 -39q0 -22 -24 -43l-287 -266q-19 -19 -45 -19t-41 19l-242 266q-18 18 -18 39z" />
<glyph unicode="&#x2d8;" horiz-adv-x="1083" d="M471 1492q6 20 23 30q18 14 41.5 10t37.5 -29q76 -137 191 -137q116 0 192 137q14 25 38 29t42 -10q18 -11 23.5 -30.5t-6.5 -43.5q-111 -195 -289 -195q-176 0 -287 195q-12 24 -6 44z" />
<glyph unicode="&#x2d9;" horiz-adv-x="1083" d="M670 1376q0 35 25 60.5t59 25.5q35 0 59.5 -25.5t24.5 -60.5q0 -34 -24.5 -59t-59.5 -25q-34 0 -59 25t-25 59z" />
<glyph unicode="&#x2da;" horiz-adv-x="1083" d="M518 1409q0 98 70 168t168 70q100 0 169.5 -69.5t69.5 -168.5q0 -101 -69.5 -170.5t-169.5 -69.5q-99 0 -168.5 69.5t-69.5 170.5zM600 1409q0 -65 46 -111.5t110 -46.5t110.5 46.5t46.5 111.5q0 64 -46.5 109t-110.5 45t-110 -45t-46 -109z" />
<glyph unicode="&#x2db;" horiz-adv-x="1083" d="M352 -201q0 111 125 236l86 -23q-96 -99 -96 -180q0 -104 121 -104q18 0 37 3t24 3q21 0 34 -14t13 -33q0 -43 -43 -56q-48 -10 -84 -10q-101 0 -159 47t-58 131z" />
<glyph unicode="&#x2dc;" horiz-adv-x="1083" d="M432 1391q-1 48 54.5 84t127.5 38q50 1 98 -19.5t91 -40.5t82 -19q30 0 52 9t32 19.5t24 19.5t29 9q23 1 39 -16.5t16 -42.5q1 -50 -55 -86.5t-129 -36.5q-50 -1 -97.5 19t-89.5 39.5t-81 18.5q-30 0 -52.5 -9t-33 -19.5t-25 -19.5t-29.5 -9q-23 0 -38 18.5t-15 43.5z " />
<glyph unicode="&#x2dd;" horiz-adv-x="1083" d="M399 1274q0 8 9 26l172 310q16 32 53 32q17 0 33 -8q30 -15 30 -51q0 -20 -8 -31l-182 -303q-18 -30 -49 -30q-16 0 -27 8q-31 14 -31 47zM788 1274q0 14 9 26l170 310q16 32 53 32q20 0 33 -8q14 -7 23 -22t9 -29q0 -15 -8 -31l-184 -303q-15 -30 -49 -30q-14 0 -25 8 q-31 14 -31 47z" />
<glyph unicode="&#x394;" horiz-adv-x="1089" d="M-10 82q298 659 719 1354q46 75 96 75q27 0 44.5 -15t27.5 -60q151 -708 192 -1354q3 -35 -23.5 -58.5t-58.5 -23.5h-950q-30 0 -46.5 23.5t-0.5 58.5zM145 123h789q-46 572 -168 1167q-354 -591 -621 -1167z" />
<glyph unicode="&#x3a9;" horiz-adv-x="1155" d="M6 59q2 28 22.5 47t49.5 19h237q-94 71 -129.5 195.5t-7.5 285.5l45 268q12 70 28 131t41.5 127.5t57.5 120t78.5 103t102.5 82.5t131 53t163 20q106 0 185 -36t125 -100t68 -143t22 -173q0 -55 -17 -172l-49 -281q-59 -341 -309 -481h227q27 0 43 -16.5t15 -42.5 q-3 -28 -24 -47t-50 -19h-373q-27 0 -43.5 15t-13.5 42q2 36 35 56q5 3 36.5 20t61.5 35t72 54.5t75 79t62.5 108.5t42.5 143l61 354q13 86 13 150q0 145 -68.5 235t-202.5 90q-92 0 -165 -28t-121.5 -73t-85 -115t-57 -141.5t-36.5 -164.5l-53 -307q-52 -309 191 -440 q23 -12 20 -50q-1 -29 -21.5 -46t-50.5 -17h-379q-27 0 -42.5 16.5t-12.5 42.5z" />
<glyph unicode="&#x3bc;" horiz-adv-x="1077" d="M20 -360q0 7 3 16l251 1315q6 29 25.5 45t44.5 16q24 0 41.5 -16t17.5 -43q0 -13 -2 -17l-102 -536q-14 -79 -14 -129q0 -92 41 -136t137 -44q144 0 293 143l137 717q6 28 25 44.5t43 16.5q26 0 43.5 -16t17.5 -43q0 -11 -2 -17l-139 -725q-11 -69 -4.5 -93t36.5 -46 q31 -17 25 -51q-8 -53 -72 -53q-51 0 -88 43q-26 31 -26 80q-151 -123 -312 -123q-148 0 -207 88l-83 -434q-6 -29 -25.5 -45.5t-44.5 -16.5q-24 0 -42 16.5t-18 43.5z" />
<glyph unicode="&#x3c0;" horiz-adv-x="1034" d="M16 53q13 33 50 47q38 11 61 38t41 89l188 670h-61q-29 0 -47 21q-15 19 -15 36q0 28 21 46t53 18h780q31 0 48 -17q12 -12 12 -36q0 -30 -20 -49t-52 -19h-41l-131 -666q-10 -68 -1.5 -93.5t42.5 -39.5q31 -16 25 -51q-6 -28 -28 -43.5t-48 -15.5q-23 0 -49 12t-43 31 q-56 61 -35 166l137 700h-416l-202 -717q-32 -106 -111 -157q-58 -39 -111 -35q-61 7 -47 65z" />
<glyph unicode="&#x2000;" horiz-adv-x="1061" />
<glyph unicode="&#x2001;" horiz-adv-x="2122" />
<glyph unicode="&#x2002;" horiz-adv-x="1061" />
<glyph unicode="&#x2003;" horiz-adv-x="2122" />
<glyph unicode="&#x2004;" horiz-adv-x="707" />
<glyph unicode="&#x2005;" horiz-adv-x="530" />
<glyph unicode="&#x2006;" horiz-adv-x="353" />
<glyph unicode="&#x2007;" horiz-adv-x="353" />
<glyph unicode="&#x2008;" horiz-adv-x="265" />
<glyph unicode="&#x2009;" horiz-adv-x="424" />
<glyph unicode="&#x200a;" horiz-adv-x="117" />
<glyph unicode="&#x2010;" horiz-adv-x="987" d="M207 594q0 29 21 48.5t53 19.5h514q28 0 47 -19q14 -14 14 -37q0 -29 -21 -49t-53 -20h-514q-32 0 -47 18q-14 16 -14 39z" />
<glyph unicode="&#x2011;" horiz-adv-x="987" d="M207 594q0 29 21 48.5t53 19.5h514q28 0 47 -19q14 -14 14 -37q0 -29 -21 -49t-53 -20h-514q-32 0 -47 18q-14 16 -14 39z" />
<glyph unicode="&#x2012;" horiz-adv-x="987" d="M207 594q0 29 21 48.5t53 19.5h514q28 0 47 -19q14 -14 14 -37q0 -29 -21 -49t-53 -20h-514q-32 0 -47 18q-14 16 -14 39z" />
<glyph unicode="&#x2013;" horiz-adv-x="1026" d="M82 549q0 29 21 49t53 20h886q33 0 48 -18q16 -19 16 -39q0 -29 -21 -48t-55 -19h-887q-32 0 -47 18q-14 14 -14 37z" />
<glyph unicode="&#x2014;" horiz-adv-x="2050" d="M82 549q0 29 21 49t53 20h1910q33 0 48 -18q16 -19 16 -39q0 -29 -21 -48t-55 -19h-1911q-32 0 -47 18q-14 14 -14 37z" />
<glyph unicode="&#x2018;" horiz-adv-x="374" d="M272 1294q8 95 77 160.5t110 61.5q14 -2 23.5 -13t9.5 -26q-1 -13 -12.5 -24t-25 -19t-28 -28t-20.5 -50q32 -11 51 -39.5t16 -63.5q-3 -41 -35 -67t-73 -21q-46 3 -72 39t-21 90z" />
<glyph unicode="&#x2019;" horiz-adv-x="374" d="M283 1202q1 13 12.5 24t24.5 19.5t27.5 28.5t21.5 49q-34 10 -53.5 39t-16.5 63q4 41 37 67.5t74 23.5q44 -4 69.5 -40.5t20.5 -89.5q-4 -50 -28 -95t-54.5 -71.5t-58.5 -42t-44 -14.5q-14 2 -23.5 14t-8.5 25z" />
<glyph unicode="&#x201a;" horiz-adv-x="372" d="M20 -137q1 13 12.5 24t24.5 19t27.5 28t21.5 50q-32 9 -51 38.5t-16 63.5q3 41 35 67t73 21q46 -3 71.5 -39t19.5 -90q-8 -95 -76 -160t-109 -61q-14 2 -23.5 13t-9.5 26z" />
<glyph unicode="&#x201c;" horiz-adv-x="673" d="M272 1294q8 95 77 160.5t110 61.5q14 -2 23.5 -13t9.5 -26q-1 -13 -12.5 -24t-25 -19t-28 -28t-20.5 -50q32 -11 51 -39.5t16 -63.5q-3 -41 -35 -67t-73 -21q-46 3 -72 39t-21 90zM573 1294q8 95 76.5 160.5t108.5 61.5q14 -2 24 -13t9 -26q-1 -13 -12.5 -24t-24.5 -19 t-27.5 -28t-21.5 -50q34 -10 53 -39t16 -64q-4 -41 -36.5 -67t-73.5 -21q-44 3 -69.5 39t-21.5 90z" />
<glyph unicode="&#x201d;" horiz-adv-x="673" d="M283 1202q1 13 12.5 24t24.5 19.5t27.5 28.5t21.5 49q-34 10 -53.5 39t-16.5 63q4 41 37 67.5t74 23.5q44 -4 69.5 -40.5t20.5 -89.5q-4 -50 -28 -95t-54.5 -71.5t-58.5 -42t-44 -14.5q-14 2 -23.5 14t-8.5 25zM582 1202q1 13 12.5 24t25 19.5t28 28.5t20.5 49 q-32 11 -51.5 39.5t-16.5 62.5q3 41 35 67.5t74 23.5q46 -4 71.5 -40.5t20.5 -89.5q-8 -95 -76.5 -160t-110.5 -63q-13 1 -22.5 13t-9.5 26z" />
<glyph unicode="&#x201e;" horiz-adv-x="675" d="M23 -137q1 13 12.5 24t24.5 19t27.5 28t21.5 50q-34 9 -53.5 38.5t-14.5 63.5q3 41 35 67t74 21q46 -3 71 -39t19 -90q-8 -95 -76 -160t-109 -61q-14 2 -23.5 13t-8.5 26zM324 -137q1 13 12 24t24.5 19t28 28t21.5 50q-34 9 -53.5 38.5t-14.5 63.5q1 41 33 67t74 21 q46 -3 71.5 -39t20.5 -90q-8 -95 -76.5 -160t-108.5 -61q-15 2 -25 13t-7 26z" />
<glyph unicode="&#x2020;" horiz-adv-x="1054" d="M233 987q0 28 20.5 47t51.5 19h301l76 395q4 28 24 44.5t44 16.5q26 0 43.5 -16t17.5 -43q0 -10 -2 -16l-72 -381h287q29 0 45 -19q14 -17 14 -37q0 -26 -20.5 -44.5t-50.5 -18.5h-299l-170 -893q-6 -29 -25.5 -45t-44.5 -16q-26 0 -43.5 16t-17.5 43l2 16l168 879h-289 q-29 0 -45 16q-15 18 -15 37z" />
<glyph unicode="&#x2021;" horiz-adv-x="870" d="M-35 70q0 28 20.5 46.5t51.5 18.5h297l155 801h-288q-29 0 -47 18q-13 16 -13 37q0 28 20 47t50 19h301l76 395q6 29 25 45t44 16q24 0 42 -16t18 -43v-16l-74 -381h287q29 0 45 -19q14 -14 14 -37q0 -28 -19.5 -46.5t-51.5 -18.5h-297l-156 -801h291q27 0 45 -18 q12 -14 12 -37q0 -28 -19.5 -46t-50.5 -18h-301l-75 -397q-6 -29 -25.5 -45t-44.5 -16q-24 0 -41.5 16t-17.5 43v16l73 383h-286q-30 0 -45 17q-15 15 -15 37z" />
<glyph unicode="&#x2022;" horiz-adv-x="1021" d="M184 684q0 146 103.5 249t249.5 103t248 -103t102 -249t-102 -248t-248 -102q-147 0 -250 102t-103 248z" />
<glyph unicode="&#x2026;" horiz-adv-x="1433" d="M78 98q0 46 35 80.5t82 34.5t80.5 -34.5t33.5 -80.5q0 -47 -33.5 -81.5t-80.5 -34.5t-82 34.5t-35 81.5zM549 98q0 46 34 80.5t83 34.5q46 0 80 -34.5t34 -80.5q0 -47 -34 -81.5t-80 -34.5q-49 0 -83 34t-34 82zM1020 98q0 46 34 80.5t83 34.5q45 0 78.5 -34.5 t33.5 -80.5q0 -47 -33 -81.5t-79 -34.5q-49 0 -83 34t-34 82z" />
<glyph unicode="&#x202f;" horiz-adv-x="424" />
<glyph unicode="&#x2030;" horiz-adv-x="1632" d="M205.5 19.5q-5.5 20.5 5.5 37.5l809 1430q10 19 30.5 24t39.5 -6q18 -11 23 -29.5t-5 -37.5l-811 -1430q-11 -18 -30 -23t-38 5q-18 9 -23.5 29.5zM285 1111q-4 51 10 101l18 88q51 213 256 213q46 0 80.5 -15.5t54.5 -41.5t30.5 -60t10 -71.5t-9.5 -75.5l-24 -110 q-23 -99 -79.5 -156t-168.5 -57q-59 0 -100 26t-57.5 67t-20.5 92zM387 1192q-18 -81 5.5 -128.5t76.5 -47.5q69 0 101 37t48 106l23 107q17 70 -5 113.5t-75 43.5q-71 0 -105 -38t-48 -105zM576.5 189q0.5 40 9.5 81l20 88q47 211 256 211q46 0 80.5 -15.5t54.5 -41.5 t30.5 -60t10 -70.5t-9.5 -74.5l-24 -110q-23 -99 -79.5 -156t-168.5 -57q-47 0 -83 17t-56.5 45.5t-30.5 65.5t-9.5 77zM680 250q-18 -81 5.5 -128.5t76.5 -47.5q69 0 100 36t49 105l23 109q17 67 -6 111t-74 44q-70 0 -104 -37t-50 -104zM1090 169q-4 51 10 101l20 88 q47 211 254 211q57 0 97 -23.5t57 -61t22 -84.5t-8 -93l-24 -110q-23 -98 -80.5 -155.5t-169.5 -57.5q-59 0 -100 26t-57.5 67t-20.5 92zM1194 250q-20 -81 3.5 -128.5t76.5 -47.5q69 0 101 36.5t48 104.5l25 109q17 67 -6 111t-76 44q-70 0 -104 -37t-50 -104z" />
<glyph unicode="&#x2039;" horiz-adv-x="684" d="M112.5 552.5q0.5 4.5 0.5 14.5q4 23 34 49l447 396q22 18 49 14t41 -25q13 -20 8.5 -45.5t-24.5 -44.5l-408 -362l281 -373q15 -18 14 -45t-20 -43q-21 -17 -46.5 -13t-39.5 23l-316 410q-1 2 -5.5 9t-6 10.5t-5.5 12t-3.5 13z" />
<glyph unicode="&#x203a;" horiz-adv-x="679" d="M77 143.5q5 25.5 27 42.5l408 363l-283 375q-14 18 -13 44t20 44q22 17 48 12.5t38 -23.5l315 -411q24 -35 20 -58q-4 -25 -32 -49l-449 -395q-21 -18 -48.5 -14.5t-41.5 24.5q-14 20 -9 45.5z" />
<glyph unicode="&#x2044;" horiz-adv-x="768" d="M-13 25.5q-4 25.5 11 48.5l838 1405q13 23 39.5 32.5t44.5 -0.5q23 -10 27.5 -33t-9.5 -48l-840 -1405q-13 -24 -38.5 -34t-47.5 -1q-21 10 -25 35.5z" />
<glyph unicode="&#x205f;" horiz-adv-x="530" />
<glyph unicode="&#x20ac;" d="M131 578q0 25 18.5 42t47.5 17h61l39 211h-53q-23 0 -39 16q-12 12 -12 33q0 25 18 42t45 17h61q29 135 76 235t119 173t175 110t237 37q126 0 219 -49q47 -23 64.5 -42.5t17.5 -41.5q0 -27 -18.5 -46t-45.5 -19q-11 0 -20 4t-25 14t-31 17q-74 38 -161 38t-157.5 -22.5 t-119 -60t-86 -94.5t-61 -117t-41.5 -136h411q27 0 43 -16q13 -13 13 -33q0 -26 -18.5 -42.5t-47.5 -16.5h-426l-39 -211h414q28 0 41 -16q14 -14 14 -33q0 -26 -18 -43t-47 -17h-420q-8 -74 -8 -102q0 -161 78 -241.5t229 -80.5q111 0 237 68q13 8 30 19.5t25 16.5t18 9 t20 4q28 0 45.5 -19t17.5 -46q0 -38 -74 -82q-155 -94 -325 -94q-95 0 -169.5 23t-124 63t-82 97.5t-46.5 122.5t-14 142q0 15 1 31.5t2.5 36.5t2.5 32h-56q-28 0 -43 15q-12 14 -12 35z" />
<glyph unicode="&#x2122;" horiz-adv-x="1368" d="M276 1411q0 22 15.5 36.5t38.5 14.5h424q20 0 34 -14q13 -13 13 -31q0 -23 -15.5 -37t-37.5 -14h-168l-111 -582q-10 -43 -49 -43q-21 0 -34 12t-13 33v15l108 565h-157q-23 0 -37 14q-11 15 -11 31zM737 784v15l123 628q3 21 17 32t30 11q41 0 49 -38l113 -424l279 434 q20 28 53 28q20 0 33.5 -12t13.5 -33q0 -6 -2 -10l-121 -631q-3 -20 -16.5 -31.5t-32.5 -11.5t-33 12t-14 33q0 1 1 5t1 6l82 432l-219 -342q-17 -27 -45 -27q-15 0 -26.5 10t-14.5 25l-90 340l-87 -453q-10 -41 -49 -41q-19 0 -32 11t-13 32z" />
<glyph unicode="&#x2202;" horiz-adv-x="1085" d="M117 420q0 109 45 201t117.5 150.5t160 91t176.5 32.5q136 0 254 -70q-83 317 -366 568q-18 16 -21.5 36.5t6 37t24.5 28t36 11t39 -16.5q215 -189 331.5 -427t116.5 -511q0 -136 -38.5 -245t-105 -179t-154.5 -107.5t-189 -37.5q-194 0 -313 118.5t-119 319.5zM246 420 q0 -146 82.5 -230t220.5 -84q74 0 138 27t114 80t79 139.5t29 198.5q0 61 -6 117q-114 108 -287 108q-92 0 -176 -42.5t-139 -126t-55 -187.5z" />
<glyph unicode="&#x220f;" horiz-adv-x="1312" d="M57 -307l338 1734q5 26 27.5 46t48.5 20h862q26 0 40.5 -20t8.5 -46l-338 -1734q-4 -29 -26.5 -48.5t-50.5 -19.5t-43.5 19.5t-10.5 48.5l326 1669h-725l-326 -1669q-4 -29 -26.5 -48.5t-50.5 -19.5t-43.5 19.5t-10.5 48.5z" />
<glyph unicode="&#x2211;" horiz-adv-x="1001" d="M10 59q0 32 23 52l706 634l-450 644q-10 17 -10 36q0 30 21 50t54 20h766q29 0 49 -20q15 -15 15 -39q0 -29 -22 -49.5t-54 -20.5h-645l387 -555q29 -42 29 -68q0 -37 -39 -71l-604 -541h641q33 0 49 -22q14 -14 14 -37q0 -31 -21.5 -51.5t-54.5 -20.5h-790q-31 0 -49 18 q-15 18 -15 41z" />
<glyph unicode="&#x2212;" horiz-adv-x="1073" d="M164 553q0 28 21 48t53 20h704q31 0 47 -19q17 -17 17 -39q0 -29 -21 -48t-55 -19h-703q-31 0 -49 18q-14 14 -14 39z" />
<glyph unicode="&#x221a;" horiz-adv-x="1626" d="M129 424q3 27 24 46t50 19h213q41 0 57 -34l186 -381l1049 1450q17 23 42.5 29.5t45.5 -5.5q22 -12 26 -36t-14 -48l-1112 -1538q-28 -35 -59 -35q-36 0 -49 29l-219 445h-183q-26 0 -42 16.5t-15 42.5z" />
<glyph unicode="&#x221e;" horiz-adv-x="1488" d="M166 590v112q0 65 20 122t59.5 103t106 72.5t152.5 26.5q63 0 115.5 -20.5t94 -60t70 -79.5t60.5 -98q26 46 48 78.5t54.5 69t65.5 59t78 37t96 14.5q85 0 151.5 -26.5t106.5 -72.5t60 -103t20 -122v-112q0 -136 -86 -230t-252 -94q-63 0 -115.5 20.5t-94 60.5t-70.5 80 t-62 99q-25 -46 -47 -79.5t-54 -69.5t-65 -59t-78 -37.5t-96 -14.5q-86 0 -152.5 27t-106 73t-59.5 103t-20 121zM281 602q0 -97 53 -162t170 -65q49 0 87.5 17t72 56.5t58.5 81.5t60 115q-35 73 -60 115.5t-58 81.5t-72 56t-88 17q-117 0 -170 -64t-53 -161v-88zM907 645 q35 -72 60 -114.5t58.5 -82t72.5 -56.5t88 -17q61 0 105 19t68.5 52t36 71.5t11.5 84.5v88q0 46 -11.5 84.5t-36 71t-68.5 51t-105 18.5q-49 0 -88 -17t-72.5 -56t-58.5 -82t-60 -115z" />
<glyph unicode="&#x222b;" horiz-adv-x="516" d="M-301 -379q3 27 23 45.5t49 18.5h41q142 0 201 63t91 225l215 1104q19 100 48 171.5t78.5 128t126 84.5t182.5 28h43q27 0 42.5 -16.5t12.5 -42.5q-2 -26 -22.5 -44t-49.5 -18h-41q-143 0 -202 -63.5t-91 -227.5l-213 -1104q-16 -80 -36.5 -139.5t-54.5 -112t-80.5 -86 t-113.5 -52.5t-153 -19h-41q-25 0 -40.5 16t-14.5 41z" />
<glyph unicode="&#x2248;" horiz-adv-x="1097" d="M240 434q10 54 82 91.5t157 37.5q56 0 105.5 -22.5t93 -45t86.5 -22.5t74.5 14.5t53.5 29.5t42 15q27 0 42.5 -19.5t10.5 -47.5q-10 -54 -82.5 -91.5t-156.5 -37.5q-46 0 -87.5 14t-67.5 31t-61.5 31t-70.5 14q-42 0 -73 -15t-53 -29.5t-42 -14.5q-29 0 -44 19.5t-9 47.5 zM305 770q10 53 82.5 91t155.5 38q57 0 106.5 -22.5t93.5 -45t86 -22.5q43 0 74.5 14.5t53.5 29.5t42 15q28 0 43 -19.5t9 -47.5q-9 -54 -81.5 -91.5t-156.5 -37.5q-46 0 -87.5 14t-67.5 31t-61.5 31t-70.5 14q-42 0 -73 -15.5t-53 -31t-42 -15.5q-29 0 -44 21t-9 49z" />
<glyph unicode="&#x2260;" horiz-adv-x="1097" d="M193 371q0 30 20.5 49.5t52.5 19.5h230l149 242h-319q-31 0 -47 16q-17 20 -17 39q0 29 22 49.5t54 20.5h385l149 237q11 19 32 24t40 -7q19 -11 24 -32t-7 -40l-113 -182h170q23 0 45 -19q14 -16 14 -38q0 -29 -21 -48.5t-55 -19.5h-231l-149 -242h323q29 0 47 -18 q15 -17 15 -39q0 -29 -21 -48.5t-53 -19.5h-389l-152 -241q-10 -18 -31.5 -23t-40.5 6q-19 12 -23.5 32.5t7.5 39.5l115 186h-168q-27 0 -43 19q-14 14 -14 37z" />
<glyph unicode="&#x2264;" horiz-adv-x="1097" d="M78 55q0 28 21 48t53 20h708q29 0 45 -19q17 -17 17 -36q0 -29 -21 -48.5t-53 -19.5h-709q-29 0 -47 18q-14 14 -14 37zM199 713q9 38 43 53l786 381q31 13 55 7t35 -28q9 -24 -1.5 -47t-37.5 -35l-712 -344l571 -335q23 -14 31.5 -35t-6.5 -49q-13 -23 -39 -25t-47 12 l-644 381q-37 21 -34 64z" />
<glyph unicode="&#x2265;" horiz-adv-x="1097" d="M133 55q0 28 21 48t51 20h708q32 0 48 -19q16 -16 16 -36q0 -29 -21.5 -48.5t-52.5 -19.5h-708q-33 0 -48 18q-14 14 -14 37zM177.5 333q10.5 24 37.5 36l713 342l-570 340q-24 13 -32.5 34t4.5 48q14 23 40.5 24t47.5 -14l643 -381q42 -24 33 -62q-3 -35 -41 -55 l-787 -379q-31 -13 -55 -7t-33 28q-11 22 -0.5 46z" />
<glyph unicode="&#x25ca;" horiz-adv-x="1087" d="M168 745q3 20 18 35l568 703q22 28 55 28t45 -28l297 -703q7 -17 4 -35q-7 -20 -18 -34l-570 -703q-22 -28 -55 -28q-36 0 -45 28l-295 703q-7 17 -4 34zM295 741l248 -591l485 604l-246 594z" />
<glyph unicode="&#xe000;" horiz-adv-x="1034" d="M0 0v1034h1034v-1034h-1034z" />
<glyph horiz-adv-x="1107" d="M213 489q0 149 89.5 238.5t240.5 89.5q97 0 162 -33q5 71 52 103.5t132 23.5l88 -10v-92h-105q-83 0 -90 -76q92 -88 92 -244q0 -153 -90.5 -240t-240.5 -87q-60 0 -99 10v-86q23 -16 68.5 -32.5t113.5 -38t111 -38.5q44 -17 76.5 -34.5t64 -43t48 -61.5t16.5 -80 q0 -78 -47 -141q-51 -65 -141.5 -98t-182.5 -33q-94 0 -183 31.5t-132 99.5q-31 53 -31 113l92 45q-2 -8 -2 -21q0 -41 25.5 -77.5t71.5 -59.5q71 -33 159 -33t156 33q98 48 98 141q0 44 -51 78t-123.5 57.5t-145.5 48.5t-124 65t-51 93q0 51 47 95q-84 39 -124 117.5 t-40 176.5zM326 489q0 -105 55 -167t162 -62q103 0 159 63.5t56 165.5q0 104 -55.5 166t-159.5 62q-102 0 -159.5 -63t-57.5 -165zM403 -225h62v-8h-27v-70h-8v70h-27v8zM483 -229l6 4l29 -37l29 37l6 -4l-31 -39v-35h-8v35zM580 -225h30q10 0 17.5 -7.5t7.5 -17.5 q0 -8 -8 -16q-6 -6 -17 -6h-22v-31h-8v78zM588 -233v-31h22q9 0 11 4q4 2 4 10q0 17 -15 17h-22zM664 -225h53v-8h-45v-25h41v-8h-41v-29h45v-8h-53v78z" />
</font>
</defs>
</svg>
