<?xml version="1.0" standalone="no"?>
<!DOCTYPE svg PUBLIC "-//W3C//DTD SVG 1.1//EN" "http://www.w3.org/Graphics/SVG/1.1/DTD/svg11.dtd" >
<svg xmlns="http://www.w3.org/2000/svg">
<metadata></metadata>
<defs>
<font id="chevin_std_mediumitalic" horiz-adv-x="1146" >
<font-face units-per-em="2048" ascent="1536" descent="-512" />
<missing-glyph horiz-adv-x="604" />
<glyph unicode="fi" horiz-adv-x="1011" d="M121 70l2 20l153 791h-51q-38 0 -57 22q-18 21 -18 47q0 37 26 60.5t66 23.5h63l31 156q29 150 115 227.5t223 77.5h53q39 0 64 -25q18 -21 18 -49q0 -38 -28.5 -64t-69.5 -26h-33q-138 0 -172 -174l-25 -123h109q40 0 59 -22q17 -17 17 -47q0 -35 -26.5 -59.5 t-66.5 -24.5h-120l-158 -809q-7 -39 -32.5 -61.5t-59.5 -22.5t-58 22.5t-24 59.5zM639 70l2 20l168 875q7 38 33.5 60t60.5 22t58 -21.5t24 -58.5l-2 -23l-170 -872q-7 -39 -33 -61.5t-59 -22.5q-34 0 -58 22.5t-24 59.5zM870 1374q0 43 31.5 74t75.5 31q43 0 73.5 -31 t30.5 -74q0 -44 -30.5 -75t-73.5 -31q-44 0 -75.5 31t-31.5 75z" />
<glyph unicode="fl" horiz-adv-x="1038" d="M121 70l2 20l153 791h-51q-38 0 -57 22q-18 21 -18 47q0 37 26 60.5t66 23.5h63l31 156q29 150 115 227.5t223 77.5h53q39 0 64 -25q18 -21 18 -49q0 -38 -28.5 -64t-69.5 -26h-33q-138 0 -172 -174l-25 -123h109q40 0 59 -22q17 -17 17 -47q0 -35 -26.5 -59.5 t-66.5 -24.5h-120l-158 -809q-7 -39 -32.5 -61.5t-59.5 -22.5t-58 22.5t-24 59.5zM656 140.5q-4 68.5 18 170.5l209 1090q7 39 33 61.5t59 22.5q35 0 58.5 -22.5t23.5 -59.5q0 -15 -2 -23l-217 -1126q-8 -62 -1.5 -84.5t33.5 -44.5q34 -26 25 -66q-13 -71 -98 -71 q-59 0 -101 45q-36 39 -40 107.5z" />
<glyph unicode=" "  horiz-adv-x="604" />
<glyph unicode="&#x09;" horiz-adv-x="604" />
<glyph unicode="&#xa0;" horiz-adv-x="604" />
<glyph unicode="!" horiz-adv-x="591" d="M131 113q0 54 39 92.5t94 38.5q54 0 92.5 -38.5t38.5 -92.5q0 -55 -38.5 -94t-92.5 -39q-56 0 -94.5 39t-38.5 94zM260 518l148 889q6 45 38.5 75.5t81.5 30.5q54 0 77 -33.5t13 -78.5l-194 -895q-11 -45 -33 -66.5t-63 -21.5q-81 0 -68 100z" />
<glyph unicode="&#x22;" horiz-adv-x="712" d="M270 1167l31 244q5 42 31.5 72t70.5 30q45 0 63 -34t7 -76l-63 -246q-11 -41 -30 -61.5t-52 -20.5q-68 0 -58 92zM618 1167l29 244q7 43 33 72.5t72 29.5q44 0 61.5 -34t5.5 -76l-63 -246q-19 -82 -82 -82q-66 0 -56 92z" />
<glyph unicode="#" horiz-adv-x="1474" d="M86 449q0 40 28.5 66t71.5 26h222l135 407h-178q-45 0 -64 25q-20 20 -20 51q0 40 29 66t73 26h215l102 307q13 40 44.5 64t66.5 24q37 0 59.5 -24t16.5 -62q0 -12 -6 -24l-95 -285h359l102 307q13 40 44.5 64t66.5 24q37 0 59.5 -24t16.5 -62q-5 -20 -7 -24l-94 -285 h183q42 0 63 -24q18 -21 18 -52q0 -40 -28.5 -66t-71.5 -26h-221l-133 -407h176q43 0 65 -25q19 -22 19 -51q0 -40 -29.5 -66t-73.5 -26h-215l-100 -303q-13 -41 -44.5 -65.5t-66.5 -24.5q-37 0 -59 24t-16 64q0 10 6 22l94 283h-360l-101 -303q-13 -42 -43.5 -66t-66.5 -24 q-37 0 -59.5 24t-16.5 64q2 6 6 22l94 283h-182q-45 0 -66 24q-18 21 -18 52zM596 541h358l136 407h-359z" />
<glyph unicode="$" horiz-adv-x="1140" d="M78 125q0 35 24.5 61.5t61.5 26.5q19 0 37 -6q131 -60 268 -60q200 0 302.5 76.5t102.5 192.5q0 37 -10 68t-32 56t-44 43t-60 37t-64.5 30.5t-74 30.5t-73.5 30q-50 21 -87 41.5t-76.5 53t-64.5 69.5t-41 90.5t-16 117.5q0 185 130.5 294.5t336.5 129.5l29 140 q6 30 27 48.5t47 18.5q28 0 47.5 -18.5t19.5 -48.5q0 -11 -2 -17l-24 -121q110 -8 223 -53q59 -23 59 -78q0 -37 -25 -64.5t-63 -27.5q-18 0 -37 8q-115 47 -225 47q-165 0 -260.5 -67.5t-95.5 -173.5q0 -44 18 -81.5t38.5 -61t68.5 -51.5t74 -39.5t89 -38.5l21 -9 q44 -19 70.5 -31t66 -34.5t63.5 -42t52.5 -50.5t44 -64t26.5 -77.5t11 -95.5q0 -132 -67.5 -229.5t-180.5 -149t-264 -63.5l-25 -136q-6 -31 -27 -49t-48 -18q-28 0 -48 18t-20 47q0 13 2 19l23 117q-139 8 -269 63q-59 23 -59 82z" />
<glyph unicode="%" horiz-adv-x="1169" d="M219 26q-6 24 6 44l793 1413q12 21 35.5 27t44.5 -5q22 -12 28 -36t-6 -46l-794 -1411q-11 -20 -34.5 -27t-45.5 5q-21 12 -27 36zM281.5 1112q-4.5 51 9.5 100l18 88q47 213 258 213q47 0 83 -16t56 -42t32 -60.5t11 -71.5t-8 -74l-24 -110q-23 -99 -81 -156t-173 -57 q-60 0 -101.5 26.5t-58.5 67.5t-21.5 92zM403 1190q-15 -70 4.5 -113t65.5 -43q59 0 88 33t41 92l23 105q14 61 -5 100t-65 39q-61 0 -90 -32.5t-41 -90.5zM599 190q0 40 9 80l21 88q47 211 258 211q58 0 99.5 -24t58.5 -61.5t23 -84.5t-7 -92l-27 -110 q-21 -98 -78.5 -155.5t-171.5 -57.5q-49 0 -85.5 17t-57.5 45.5t-31.5 66t-10.5 77.5zM723 246q-15 -69 5 -111.5t67 -42.5q59 0 86 32t41 93l22 105q14 60 -5 98.5t-65 38.5q-60 0 -89.5 -32.5t-41.5 -90.5z" />
<glyph unicode="&#x26;" horiz-adv-x="1275" d="M111 369q0 72 24.5 137.5t59 113t90.5 95.5t100.5 77.5t106.5 65.5q-57 99 -80 165t-23 128q0 158 105.5 257.5t265.5 104.5q129 4 221 -56t92 -140q0 -33 -22.5 -56.5t-55.5 -23.5q-23 0 -41.5 11.5t-34 28.5t-34.5 33.5t-52.5 28t-78.5 11.5q-73 0 -133 -53t-60 -134 q0 -43 25.5 -103.5t89.5 -168.5l276 -467q74 112 99 225q5 24 7 32.5t7.5 28t11.5 26.5t15.5 18t22.5 14.5t30 3.5q33 0 56.5 -23.5t23.5 -60.5q0 -28 -19 -104q-56 -192 -157 -326l63 -111q3 -5 9.5 -17.5t9.5 -18.5t7 -16t5.5 -19t1.5 -19q0 -34 -22.5 -54.5t-63.5 -20.5 q-48 0 -82 55l-55 92q-174 -147 -412 -147q-191 0 -295 109.5t-104 277.5zM285 383q0 -108 59 -172t176 -64q184 0 318 125l-269 453q-284 -159 -284 -342z" />
<glyph unicode="'" horiz-adv-x="387" d="M283 1153l32 254q3 42 33 73t78 31q47 0 64 -30.5t6 -73.5l-68 -254q-23 -80 -88 -80q-64 0 -57 80z" />
<glyph unicode="(" horiz-adv-x="606" d="M141 489q-12 340 87.5 635.5t301.5 522.5q30 35 70.5 36t63.5 -24q30 -34 26 -68t-31 -65q-178 -207 -263 -466.5t-74 -555.5q7 -193 47.5 -382t101.5 -343q19 -55 8 -94t-41 -52q-39 -16 -72 -0.5t-49 52.5q-71 168 -120 379t-56 425z" />
<glyph unicode=")" horiz-adv-x="606" d="M45.5 -286.5q3.5 33.5 30.5 65.5q179 208 264 467t74 555q-14 369 -150 725q-19 55 -8 93.5t41 51.5q37 16 71.5 0.5t49.5 -51.5q71 -167 120 -379.5t56 -425.5q12 -339 -87.5 -634t-301.5 -523q-30 -35 -70 -36t-63 24q-30 34 -26.5 67.5z" />
<glyph unicode="*" horiz-adv-x="983" d="M272 1229q13 36 44 47t61 -4l227 -88l-16 243q-3 35 17 59.5t59 24.5t57.5 -24.5t15.5 -59.5l-14 -243l229 88q27 15 58.5 4t44.5 -47q11 -38 -7 -64.5t-51 -34.5l-237 -59l155 -190q23 -22 21.5 -55.5t-33.5 -55.5q-34 -23 -61.5 -15t-46.5 38l-131 206l-134 -206 q-16 -30 -44.5 -38t-63.5 15q-32 22 -33 55.5t23 55.5l155 190l-237 59q-33 8 -51 34.5t-7 64.5z" />
<glyph unicode="+" horiz-adv-x="1120" d="M182 559q0 40 29 66t72 26h258l51 273q7 37 32.5 59.5t57.5 22.5q34 0 58 -22t24 -58l-2 -23l-49 -252h241q43 0 64 -24q20 -20 20 -52q0 -40 -28.5 -66t-71.5 -26h-258l-51 -272q-7 -37 -33 -59.5t-59 -22.5q-32 0 -56 22.5t-24 57.5q0 14 2 22l49 252h-244 q-38 0 -63 25q-19 22 -19 51z" />
<glyph unicode="," horiz-adv-x="538" d="M72 -197q2 21 20 38t39.5 29.5t43.5 40t30 66.5q-51 9 -83 51.5t-26 96.5q6 56 50.5 91t99.5 28q62 -6 93 -58t23 -127q-9 -78 -41.5 -141.5t-72.5 -97t-76 -50t-59 -14.5q-20 2 -32 14t-9 33z" />
<glyph unicode="-" horiz-adv-x="966" d="M197 592q0 40 28 66t72 26h473q42 0 64 -25q20 -20 20 -51q0 -40 -28.5 -66t-71.5 -26h-475q-39 0 -64 25q-18 21 -18 51z" />
<glyph unicode="." horiz-adv-x="542" d="M94 113q0 54 39 92.5t94 38.5q54 0 92.5 -38.5t38.5 -92.5q0 -55 -38.5 -94t-92.5 -39q-55 0 -94 39t-39 94z" />
<glyph unicode="/" horiz-adv-x="612" d="M-75 -64q-12 34 3 66l721 1561q13 32 47 44t66 -3q31 -15 43 -48t-2 -65l-721 -1563q-15 -32 -48 -43t-65 4q-32 13 -44 47z" />
<glyph unicode="0" d="M145 420q0 93 23 215l53 268q16 82 36.5 150t51.5 140.5t75 127.5t101 100t135 68.5t171 23.5q98 0 171.5 -36t115 -99.5t61.5 -140.5t20 -168q0 -97 -18 -192l-58 -297q-16 -81 -36.5 -149.5t-52 -139t-75 -124t-100 -96.5t-133 -66t-168.5 -23q-100 0 -173.5 34 t-116 95t-63 138t-20.5 171zM328 414q0 -124 49.5 -193t150.5 -69q71 0 126.5 22.5t94 60.5t68 99.5t48.5 126.5t36 155l60 295q18 106 18 168q0 121 -50.5 191.5t-150.5 70.5q-73 0 -129.5 -24t-94.5 -63t-68 -103.5t-48.5 -129t-36.5 -155.5l-51 -258q-22 -110 -22 -194z " />
<glyph unicode="1" d="M98 78q0 41 29.5 68.5t75.5 27.5h321l207 1071l-364 -231q-7 -4 -21 -8q-34 -13 -62.5 1t-39.5 46q-12 31 0 61.5t45 52.5l491 312q52 30 76 33q8 1 16 1q36 0 57 -23t21 -65q0 -14 -2 -22l-237 -1229h176q41 0 65 -27q21 -21 21 -51q0 -41 -30.5 -68.5t-76.5 -27.5h-684 q-41 0 -65 27q-19 22 -19 51z" />
<glyph unicode="2" d="M127 76q0 80 45 179t143 194q77 76 228 189.5t213 170.5q109 94 151.5 160.5t42.5 144.5q0 107 -60 167t-163 60q-119 0 -213 -55q-15 -8 -43 -24.5t-43.5 -22.5t-32.5 -6q-34 0 -56 22t-22 54q0 45 37 75q167 129 391 129q174 0 281 -109t107 -282q0 -40 -8.5 -79.5 t-21 -72.5t-36.5 -69.5t-44.5 -63.5t-56 -61.5t-60 -56.5t-67.5 -55.5t-68 -52t-71 -52.5q-152 -110 -237 -198t-123 -187h553q41 0 65 -27q19 -19 19 -51q0 -41 -29.5 -68.5t-73.5 -27.5h-661q-41 0 -63.5 21t-22.5 55z" />
<glyph unicode="3" d="M111 170q0 34 23.5 58t55.5 24q17 0 30 -6t37.5 -24.5t39.5 -28.5q44 -27 91 -36.5t116 -9.5q154 0 238.5 85t84.5 204q0 68 -25.5 117.5t-70 76t-95.5 38.5t-112 12h-12q-38 0 -60 24t-22 58t25.5 58t60.5 24h66q57 0 114 18.5t104.5 52.5t77 89t29.5 120 q0 93 -58 158.5t-173 65.5q-143 0 -240 -80q-29 -19 -53 -19q-34 0 -59 26t-25 60q0 38 33 64q81 65 166.5 89.5t189.5 24.5q97 0 174 -32.5t123 -86.5t70 -118.5t24 -134.5q0 -143 -75.5 -239t-190.5 -146q197 -89 197 -326q0 -88 -34 -168t-97.5 -142.5t-162 -100 t-218.5 -37.5q-190 0 -297 71q-39 26 -64.5 58t-25.5 59z" />
<glyph unicode="4" d="M98 369q0 28 15 49l651 1042q31 51 88 51q36 0 60 -23t24 -61q0 -26 -25 -67l-569 -901h367l53 276q7 39 33 61.5t59 22.5q34 0 58 -22.5t24 -59.5l-2 -20l-51 -258h94q38 0 63 -25q21 -21 21 -53q0 -40 -29.5 -67t-73.5 -27h-108l-43 -224q-7 -39 -33 -61t-59 -22 q-34 0 -58 22t-24 59l2 21l41 205h-490q-45 0 -67 28q-21 21 -21 54z" />
<glyph unicode="5" d="M129 141q3 41 27.5 62.5t60.5 21.5q25 0 53 -16q87 -62 211 -62q89 0 160 31t115.5 84t68 120t23.5 142q0 230 -207 230q-58 0 -106.5 -19.5t-74.5 -43t-55 -43t-53 -19.5q-36 0 -57 18.5t-21 52.5q0 5 5 25l153 682q9 40 37 63t66 23h497q43 0 68 -25q20 -23 20 -55 q0 -41 -30 -68.5t-76 -27.5h-428l-105 -455q93 56 197 56q167 0 258.5 -97.5t91.5 -288.5q0 -78 -21 -155.5t-66 -149.5t-108.5 -126.5t-155.5 -87.5t-200 -33q-182 0 -301 77q-50 35 -47 84z" />
<glyph unicode="6" d="M141 524q5 114 44.5 229t102 214.5t146.5 194.5t173.5 172t189.5 145q30 20 71 20q39 -3 64 -26.5t24 -61.5q-4 -46 -43 -72q-354 -246 -473 -491q117 67 238 59q171 -8 272.5 -129t89.5 -329q-7 -145 -75.5 -254t-182 -163.5t-252.5 -47.5q-185 9 -293.5 151.5 t-95.5 388.5zM324 510q-9 -170 56 -260.5t169 -95.5q127 -6 213.5 74.5t93.5 228.5q9 133 -55 207.5t-170 80.5q-147 6 -281 -88q-23 -78 -26 -147z" />
<glyph unicode="7" d="M276 61q0 25 17 56l706 1202h-610q-43 0 -65 22q-21 21 -21 56q0 41 29.5 68.5t75.5 27.5h757q33 0 54.5 -19t21.5 -55q0 -33 -24 -69l-764 -1313q-29 -57 -93 -57q-40 0 -62 23t-22 58z" />
<glyph unicode="8" d="M109 362q0 46 12.5 89t30 75.5t47.5 64.5t55.5 53t64 45.5t63 37.5t63 33t53.5 28q-24 16 -34.5 23.5t-37.5 29t-42 38.5t-36.5 47t-33 59t-20.5 69.5t-9 84.5q0 157 130.5 265.5t319.5 108.5q173 0 281 -91.5t108 -270.5q0 -40 -10 -77.5t-25 -66t-40 -56.5t-45.5 -46.5 t-52 -39.5t-49.5 -31.5t-48.5 -26.5t-38.5 -21q5 -3 29.5 -19.5t34 -23t34 -24.5t36 -29.5t32 -32.5t31.5 -38.5t25.5 -43.5t21.5 -51t12.5 -56t5.5 -65q0 -179 -144.5 -301t-383.5 -122q-206 0 -324 107.5t-116 274.5zM295 377q0 -100 70 -166t190 -66q161 0 248.5 74.5 t87.5 192.5q0 33 -9 63t-20.5 52t-36 46.5t-39.5 38t-49.5 34t-48 28t-49.5 26.5q-40 -17 -65.5 -28.5t-65.5 -31.5t-66 -38t-56.5 -44t-48.5 -52t-30 -59.5t-12 -69.5zM459 1128q0 -41 15.5 -78.5t34 -61.5t54 -50.5t54.5 -37.5t57 -32q3 2 32 15t42.5 19.5t43.5 23.5 t46.5 30t40 34.5t36 42t22 48t9.5 56.5q0 103 -59.5 157t-159.5 54q-116 0 -192 -65t-76 -155z" />
<glyph unicode="9" d="M272 1022q5 146 71 256.5t177 167.5t250 53q188 -6 299.5 -146.5t104.5 -387.5q-5 -142 -60.5 -284t-148 -265t-200.5 -226.5t-233 -191.5q-31 -24 -73 -21q-38 2 -62 24.5t-24 59.5q4 48 43 74q346 248 463 500q-112 -68 -236 -64q-171 6 -274.5 125.5t-96.5 325.5z M457 1020q-6 -135 59.5 -208.5t171.5 -78.5q144 -3 279 92q21 72 24 150q4 170 -62.5 259.5t-170.5 92.5q-126 5 -211.5 -77.5t-89.5 -229.5z" />
<glyph unicode=":" horiz-adv-x="542" d="M94 113q0 54 39 92.5t94 38.5q54 0 92.5 -38.5t38.5 -92.5q0 -55 -38.5 -94t-92.5 -39q-55 0 -94 39t-39 94zM254 913q0 54 38.5 92.5t92.5 38.5q55 0 93 -38.5t38 -92.5q0 -56 -38 -94.5t-93 -38.5q-54 0 -92.5 39t-38.5 94z" />
<glyph unicode=";" horiz-adv-x="542" d="M72 -197q2 21 20 38t39.5 29.5t43.5 40t30 66.5q-51 9 -83 51.5t-26 96.5q6 55 50 90t100 29q62 -6 93 -58t23 -127q-9 -78 -41.5 -141.5t-72.5 -97t-76 -50t-59 -14.5q-20 2 -32 14t-9 33zM254 913q0 54 38.5 92.5t92.5 38.5q55 0 93 -38.5t38 -92.5q0 -56 -38 -94.5 t-93 -38.5q-54 0 -92.5 39t-38.5 94z" />
<glyph unicode="&#x3c;" horiz-adv-x="1110" d="M180 567q10 52 56 70l749 364q43 20 77 12.5t46 -38.5q11 -32 -2.5 -60.5t-50.5 -46.5l-654 -313l514 -305q34 -19 46 -47.5t-7 -63.5q-19 -30 -55.5 -32.5t-62.5 14.5l-611 360q-52 30 -45 86z" />
<glyph unicode="=" horiz-adv-x="1110" d="M180 362q0 40 29.5 67.5t73.5 27.5h655q41 0 66 -25q18 -21 18 -51q0 -40 -28.5 -67t-71.5 -27h-658q-40 0 -63 26q-21 21 -21 49zM260 770q0 40 28.5 66t71.5 26h658q42 0 63 -24q21 -21 21 -52q0 -40 -29.5 -66t-73.5 -26h-655q-43 0 -65 25q-19 22 -19 51z" />
<glyph unicode="&#x3e;" horiz-adv-x="1110" d="M180 147q-12 32 1 61t50 46l654 317l-514 303q-33 20 -45 48t6 63q19 31 56 34t63 -15l610 -363q55 -32 45 -84q-6 -50 -55 -72l-750 -362q-43 -20 -76.5 -13t-44.5 37z" />
<glyph unicode="?" horiz-adv-x="1003" d="M289 1327q0 52 55 82q149 100 338 100q69 0 131 -22t111.5 -64t78.5 -110t29 -152q0 -54 -15 -102t-37.5 -85.5t-61.5 -77t-74.5 -68.5t-89.5 -68q-108 -77 -146.5 -130.5t-54.5 -131.5q-15 -74 -86 -74q-33 0 -56 21t-20 61q14 101 64 177t163 157q64 46 98.5 74 t71 66.5t51.5 77t15 83.5q0 102 -57.5 153.5t-143.5 51.5q-118 0 -237 -82q-26 -15 -45 -15q-38 0 -60 22t-22 56zM291 113q0 54 38.5 92.5t92.5 38.5q55 0 93 -38.5t38 -92.5q0 -56 -38 -94.5t-93 -38.5q-54 0 -92.5 39t-38.5 94z" />
<glyph unicode="@" horiz-adv-x="1632" d="M178 621q0 114 28 224.5t87.5 210.5t143.5 176.5t204 121.5t260 45q151 0 272 -35.5t199 -94t130.5 -139t74.5 -166t22 -178.5q0 -123 -45 -229.5t-132 -174t-199 -67.5q-152 0 -205 140q-46 -65 -111.5 -100.5t-138.5 -35.5q-105 0 -157 74.5t-52 184.5q0 81 26.5 160.5 t73 144.5t118.5 105t155 40q108 0 215 -35q26 -8 35 -30.5t4 -47.5l-43 -196q-21 -108 -21 -148q0 -139 111 -139q102 0 172 104t70 246q0 79 -18 149.5t-60 136t-106.5 112t-163.5 74.5t-224 28q-119 0 -220 -39.5t-170 -105.5t-118 -151.5t-71.5 -177t-22.5 -183.5 q0 -121 30.5 -221.5t94.5 -180t172.5 -124t253.5 -44.5q79 0 203 21q22 5 49.5 13.5t38.5 8.5q26 0 41.5 -18t15.5 -41q0 -48 -59 -64q-148 -36 -289 -36q-138 0 -250.5 35t-190.5 96.5t-131 147.5t-77.5 187t-24.5 216zM698 584q0 -58 25.5 -91.5t69.5 -33.5q78 0 131.5 61 t74.5 160l45 207q-63 18 -116 18q-65 0 -119.5 -50t-82.5 -123t-28 -148z" />
<glyph unicode="A" horiz-adv-x="1148" d="M4 102q269 647 641 1309q55 100 133 100q43 0 68.5 -23t38.5 -81q148 -675 190 -1315q1 -7 1 -14q0 -44 -24 -69q-26 -29 -73 -29q-81 0 -84 75q-5 58 -29 291h-563q-52 -111 -129 -295q-29 -71 -102 -71q-42 0 -65 34q-12 18 -12 41q0 21 9 47zM377 514h475 q-47 366 -119 700q-192 -348 -356 -700z" />
<glyph unicode="B" horiz-adv-x="1265" d="M129 86q0 17 2 25l248 1288q9 46 38 71t68 25h336q112 0 196 -26.5t131.5 -73.5t70 -104t22.5 -124q0 -44 -4 -67l-8 -56q-34 -207 -244 -280q89 -33 137.5 -102.5t48.5 -172.5q0 -19 -4 -55l-8 -55q-12 -83 -46.5 -149.5t-95 -119t-155.5 -81.5t-219 -29h-426 q-37 0 -62.5 23.5t-25.5 62.5zM330 172h329q154 0 230.5 62t91.5 167l8 50q2 12 2 36q0 183 -268 183h-297zM459 836h262q285 0 323 204l9 45q2 16 2 54q0 80 -57 132t-189 52h-258z" />
<glyph unicode="C" horiz-adv-x="1091" d="M182 434q0 88 19 193l49 272q56 307 203.5 460.5t425.5 153.5q124 0 221 -51q86 -46 86 -102q0 -33 -24 -58.5t-60 -25.5q-9 0 -18 2.5t-15.5 5.5t-21 10.5t-23.5 12.5q-65 36 -150 36q-104 0 -181 -33.5t-128 -100t-82.5 -152t-52.5 -203.5l-47 -262q-16 -81 -16 -160 q0 -282 266 -282q112 0 219 63q8 4 24 13.5t21.5 12.5t16 7.5t17.5 6t15 1.5q35 0 57.5 -25t22.5 -59q0 -55 -78 -98q-151 -90 -325 -90q-118 0 -205 34t-137.5 96.5t-74.5 142.5t-24 179z" />
<glyph unicode="D" horiz-adv-x="1306" d="M129 86q0 17 2 25l248 1288q9 46 38 71t68 25h344q108 0 190.5 -30t132.5 -77.5t81.5 -114t43 -131.5t11.5 -138q0 -83 -18 -193l-51 -254q-108 -557 -631 -557h-371q-37 0 -62.5 23.5t-25.5 62.5zM330 172h262q92 0 164 24t118 62t80 96t52 113.5t32 128.5l52 262 q14 75 14 141q0 144 -70.5 232t-224.5 88h-258z" />
<glyph unicode="E" horiz-adv-x="1107" d="M129 86q0 17 2 25l248 1288q9 46 38 71t68 25h650q25 0 53 -20q33 -26 33 -60q0 -41 -30.5 -68.5t-76.5 -27.5h-563l-92 -488h495q29 0 54 -18q30 -23 30 -57q0 -41 -29 -67.5t-73 -26.5h-512l-92 -486h575q28 0 56 -20q30 -23 30 -60q0 -41 -30 -68.5t-74 -27.5h-672 q-37 0 -62.5 23.5t-25.5 62.5z" />
<glyph unicode="F" horiz-adv-x="1052" d="M127 68q0 8 4 24l252 1307q7 46 36 71t70 25h631q28 0 56 -20q30 -23 30 -60q0 -41 -30 -68.5t-74 -27.5h-547l-94 -488h442q28 0 53 -18q31 -24 31 -57q0 -41 -29 -67.5t-73 -26.5h-457l-115 -592q-7 -40 -34.5 -64t-63.5 -24q-35 0 -61.5 24t-26.5 62z" />
<glyph unicode="G" horiz-adv-x="1228" d="M180 416q0 73 23 211l51 272q29 151 75.5 261.5t119 191.5t176.5 121t241 40q199 0 305 -122q25 -31 25 -60q0 -37 -24.5 -61.5t-61.5 -24.5q-14 0 -24.5 5.5t-30.5 21t-37 26.5q-62 43 -156 43q-176 0 -277.5 -111t-148.5 -364l-51 -274q-18 -88 -18 -172 q0 -136 61.5 -203t177.5 -67q288 0 363 358l16 90h-211q-28 0 -53 18q-31 25 -31 60q0 40 29.5 67t73.5 27h305q25 0 53 -20q31 -22 31 -58q0 -17 -4 -41l-33 -159q-47 -239 -186 -374.5t-365 -135.5q-204 0 -309 114t-105 320z" />
<glyph unicode="H" horiz-adv-x="1353" d="M129 68q0 16 2 24l256 1331q9 42 36 66t62 24q37 0 62.5 -24t25.5 -64q0 -14 -2 -22l-112 -586h633l116 606q7 42 35 66t64 24q37 0 62.5 -24t25.5 -64l-2 -22l-258 -1333q-7 -40 -35 -64t-64 -24q-35 0 -60.5 24t-25.5 62q0 16 2 24l107 559h-633l-111 -581 q-9 -40 -36 -64t-62 -24q-37 0 -62.5 23.5t-25.5 62.5z" />
<glyph unicode="I" horiz-adv-x="530" d="M129 68q0 16 2 24l256 1331q9 42 36 66t62 24q37 0 62.5 -24t25.5 -64q0 -14 -2 -22l-256 -1333q-9 -40 -36 -64t-62 -24q-37 0 -62.5 23.5t-25.5 62.5z" />
<glyph unicode="J" horiz-adv-x="903" d="M-29 80q0 38 24 63t64 25q1 0 40 -5t91 -5q186 0 282 91.5t140 317.5l166 856q7 42 35 66t64 24q35 0 60.5 -24t25.5 -64q0 -14 -2 -22l-168 -871q-55 -285 -198 -418.5t-405 -133.5q-103 0 -165 26q-54 19 -54 74z" />
<glyph unicode="K" horiz-adv-x="1167" d="M129 68q0 16 2 24l256 1331q9 42 36 66t62 24q37 0 62.5 -24t25.5 -64q0 -14 -2 -22l-120 -631l704 709q29 27 62.5 31t60.5 -15q28 -19 34 -51q1 -7 1 -14q0 -26 -17 -52q-10 -14 -18 -20l-535 -520q200 -382 326 -736q7 -19 7 -35q0 -29 -20 -51q-32 -36 -79 -36 q-64 0 -84 63q-124 341 -289 662l-205 -201l-84 -436q-9 -40 -36 -64t-62 -24q-37 0 -62.5 23.5t-25.5 62.5z" />
<glyph unicode="L" horiz-adv-x="1044" d="M129 86q0 17 2 25l252 1306q9 46 37 71t69 25q36 0 58 -23.5t22 -64.5q0 -14 -2 -22l-237 -1231h577q26 0 54 -20q30 -23 30 -58q0 -40 -29 -67t-73 -27h-674q-35 0 -60.5 24t-25.5 62z" />
<glyph unicode="M" horiz-adv-x="1599" d="M129 63q0 15 2 23l258 1341q9 43 35 64.5t61 21.5q75 0 93 -75l251 -942l615 950q42 67 112 67q37 0 61.5 -22.5t24.5 -60.5q0 -15 -2 -23l-258 -1339q-7 -40 -33.5 -63t-60.5 -23q-35 0 -59.5 22t-24.5 59q0 17 2 23l195 1014l-524 -811q-33 -49 -82 -49q-62 0 -78 63 l-211 797l-201 -1034q-7 -39 -33 -61.5t-61 -22.5q-34 0 -58 22t-24 59z" />
<glyph unicode="N" horiz-adv-x="1355" d="M127 63q0 15 2 23l256 1335q9 46 36.5 69t65.5 23q59 0 84 -65l445 -1088l205 1061q9 45 36 68.5t66 23.5q35 0 56.5 -22t21.5 -61q0 -7 -4 -23l-258 -1339q-7 -41 -33.5 -63.5t-63.5 -22.5q-63 0 -88 61l-444 1087l-205 -1062q-7 -40 -33.5 -63t-60.5 -23 q-35 0 -59.5 22t-24.5 59z" />
<glyph unicode="O" horiz-adv-x="1255" d="M180 438q0 77 23 211l47 248q13 70 29 129.5t41.5 124t57.5 116t78 98.5t101.5 79t130 50.5t160.5 18.5q107 0 187 -38t125 -104q46 -65 68 -147q21 -78 21 -169v-8q0 -91 -16 -179l-53 -282q-13 -70 -29.5 -129.5t-42.5 -122.5t-58 -113.5t-78 -96t-101 -76 t-128.5 -48.5t-158.5 -18q-107 0 -186.5 35.5t-126 99.5t-68.5 144t-23 177zM369 444q0 -292 227 -292q78 0 140 24.5t103 64t72.5 99.5t49.5 121t32 139l56 297q14 71 14 154q0 129 -56.5 209.5t-170.5 80.5q-80 0 -143 -25.5t-104.5 -66t-73 -102.5t-49.5 -123.5 t-32 -140.5l-49 -267q-16 -94 -16 -172z" />
<glyph unicode="P" horiz-adv-x="1191" d="M129 68q0 14 2 22l252 1313q9 42 36 66t62 24h379q104 0 182.5 -31t123.5 -85t67 -119.5t22 -141.5q0 -44 -10 -102l-10 -53q-31 -177 -156.5 -274t-339.5 -97h-323l-101 -520q-9 -40 -36 -64t-62 -24q-37 0 -62.5 23t-25.5 63zM446 760h291q268 0 316 223l8 41 q8 36 8 78q0 98 -57.5 157.5t-173.5 59.5h-283z" />
<glyph unicode="Q" horiz-adv-x="1261" d="M180 438q0 77 23 211l47 248q13 70 29 129.5t41.5 124t57.5 116t78 98.5t101.5 79t130 50.5t160.5 18.5q107 0 187 -38t125.5 -104t67.5 -147q21 -78 21 -169v-8q0 -91 -16 -179l-53 -282q-55 -281 -164 -412l102 -113q22 -23 20 -57t-28 -57q-23 -21 -53 -21h-4 q-32 2 -54 27l-98 115q-130 -86 -317 -86q-107 0 -186.5 35.5t-126 99.5t-68.5 144t-23 177zM369 444q0 -292 227 -292q113 0 195 53l-54 61q-19 25 -14 51t27 45q19 18 43 21t38 -12l56 -58q70 86 106 287l56 297q14 71 14 154q0 129 -56.5 209.5t-170.5 80.5 q-80 0 -143 -25.5t-104.5 -66t-73 -102.5t-49.5 -123.5t-32 -140.5l-49 -267q-16 -94 -16 -172z" />
<glyph unicode="R" horiz-adv-x="1239" d="M129 68q0 16 2 24l252 1311q9 42 36.5 66t63.5 24h373q83 0 151 -20.5t112.5 -55t75 -81.5t43.5 -99t13 -109q0 -45 -10 -100l-10 -51q-23 -133 -112 -221.5t-234 -120.5q113 -291 186 -541q4 -16 4 -29q0 -29 -20 -51q-30 -32 -74 -32q-65 0 -88 71q-82 277 -193 561 h-280l-105 -544q-9 -40 -36 -64t-62 -24q-37 0 -62.5 23.5t-25.5 62.5zM453 784h274q278 0 322 215l6 39q8 33 8 72q0 93 -57 152t-175 59h-276z" />
<glyph unicode="S" horiz-adv-x="1132" d="M90 125q0 35 24.5 61.5t61.5 26.5q19 0 37 -6q131 -60 268 -60q200 0 303 76.5t103 192.5q0 37 -10 68t-32 56t-44 43t-60.5 37t-65.5 30.5t-74 30.5t-73 30q-50 21 -87 41.5t-76 53t-64 69.5t-41 90.5t-16 117.5q0 104 44 186.5t119.5 134.5t174 79.5t211.5 27.5 q152 0 284 -55q60 -23 60 -78q0 -37 -25 -64.5t-63 -27.5q-18 0 -37 8q-115 47 -226 47q-165 0 -260.5 -67.5t-95.5 -173.5q0 -44 18 -81.5t38.5 -61t68.5 -51.5t74 -39.5t89 -38.5l21 -9q44 -19 70.5 -31t66 -34.5t63.5 -42t52.5 -50.5t44 -64t26.5 -77.5t11 -95.5 q0 -145 -80 -247.5t-213.5 -151t-306.5 -48.5q-167 0 -323 66q-29 12 -44.5 34t-15.5 48z" />
<glyph unicode="T" horiz-adv-x="1155" d="M238 1395q0 41 30.5 69.5t75.5 28.5h903q43 0 70 -27q18 -21 18 -53q0 -43 -30 -70.5t-76 -27.5h-361l-239 -1245q-7 -40 -35 -64t-64 -24q-35 0 -60.5 24t-25.5 62q0 16 2 24l234 1223h-354q-47 0 -70 26q-18 21 -18 54z" />
<glyph unicode="U" horiz-adv-x="1292" d="M174 420q3 102 29 233l147 770q7 42 35 66t64 24t62 -24t26 -64q0 -2 -5 -22l-149 -785q-23 -121 -23 -192q0 -279 248 -279q85 0 150.5 24.5t108 63t74.5 102t50 126.5t35 151l156 809q7 41 35 65.5t63 24.5q37 0 62.5 -24t25.5 -64q0 -14 -2 -22l-158 -823 q-19 -100 -45.5 -180t-74.5 -161t-112 -135t-161 -88t-219 -34q-212 0 -318 118q-104 115 -104 312v8z" />
<glyph unicode="V" horiz-adv-x="1138" d="M240 1413v11q0 38 24 62q28 28 68 27q36 0 62 -22.5t30 -63.5q46 -519 137 -1130q360 665 598 1163q26 53 80 53q45 -1 71 -39q13 -20 13 -42t-12 -46q-261 -549 -682 -1318q-24 -44 -52.5 -65t-68.5 -21q-87 0 -105 106q-108 709 -163 1325z" />
<glyph unicode="W" horiz-adv-x="1767" d="M250 1417q0 45 27 70.5t65 25.5t64.5 -24.5t27.5 -69.5q14 -645 51 -1134q228 479 500 1126q22 52 50 77t77 25q57 0 77.5 -37t20.5 -100q10 -562 47 -1091q248 537 508 1171q22 57 82 57q47 0 75 -36q16 -21 16 -46q0 -19 -9 -40q-269 -655 -575 -1311 q-24 -53 -56.5 -75.5t-80.5 -22.5q-53 0 -83 32.5t-34 110.5q-35 427 -53 1016q-249 -574 -480 -1051q-25 -54 -56.5 -81t-80.5 -27q-55 0 -80 32.5t-31 98.5q-50 614 -69 1304z" />
<glyph unicode="X" horiz-adv-x="1091" d="M-26 60v7q0 29 22 62q41 55 89.5 116.5t83.5 105.5t96 117t85.5 102t97 114.5t87.5 103.5q-21 47 -66 145.5t-71.5 156.5t-62.5 141t-63 153q-8 21 -8 39q0 27 18 51q32 38 80 39q61 0 87 -61q107 -271 213 -510q221 268 415 533q25 38 70 38q54 1 80 -47q11 -20 11 -41 q0 -29 -21 -59q-148 -204 -478 -596q12 -27 70.5 -155t81.5 -180.5t64.5 -149.5t72.5 -176q8 -20 8 -39q0 -28 -19 -50q-31 -38 -79 -38q-61 0 -84 61q-114 290 -242 573q-270 -320 -479 -598q-24 -36 -72 -36q-34 0 -59 23t-28 55z" />
<glyph unicode="Y" horiz-adv-x="997" d="M209 1399q-3 14 -3 26q0 33 22 56q29 32 73 32q30 0 54.5 -18t31.5 -53q88 -373 191 -699q253 364 473 727q22 43 71 43q46 0 72 -39q14 -20 14 -42q0 -23 -14 -48q-248 -411 -555 -847l-90 -467q-7 -40 -35 -64t-63 -24q-37 0 -63 24t-26 62l3 24l88 449 q-158 478 -244 858z" />
<glyph unicode="Z" horiz-adv-x="1038" d="M-4 80q0 18 9.5 38.5t16.5 30t31 41.5l877 1127h-592q-45 0 -68 26q-18 21 -18 54q0 41 29 68.5t75 27.5h752q42 0 66 -27q20 -20 20 -53q0 -28 -14 -53.5t-45 -63.5l-871 -1120h598q43 0 66 -26q20 -20 20 -54q0 -41 -30 -68.5t-76 -27.5h-758q-44 0 -68 27 q-20 20 -20 53z" />
<glyph unicode="[" horiz-adv-x="565" d="M-14 -291l2 23l360 1865q7 40 35 65.5t63 25.5h185q43 0 67 -27q21 -24 21 -53q0 -41 -31 -69t-76 -28h-94l-330 -1714h82q45 0 66 -24q20 -23 20 -54q0 -41 -30 -68.5t-76 -27.5h-176q-36 0 -62 23.5t-26 62.5z" />
<glyph unicode="\" horiz-adv-x="651" d="M231 1524q-4 35 17.5 62t56.5 32q34 5 62 -17t32 -57l193 -1583q5 -35 -17 -63t-57 -31q-34 -4 -61.5 17t-32.5 55z" />
<glyph unicode="]" horiz-adv-x="569" d="M-18 -297q0 40 30.5 68t75.5 28h94l330 1712h-82q-41 0 -65 27q-21 21 -21 53q0 41 30.5 69t76.5 28h176q35 0 61.5 -24.5t26.5 -64.5q0 -6 -4 -22l-359 -1864q-7 -41 -35 -65.5t-63 -24.5h-184q-44 0 -68 27q-20 20 -20 53z" />
<glyph unicode="^" horiz-adv-x="1030" d="M214.5 900q-1.5 36 23.5 65l389 483q52 59 110 59q62 0 86 -65l201 -473q15 -27 10.5 -67t-35.5 -60q-21 -15 -49 -15q-49 0 -71 54l-170 405l-338 -422q-27 -37 -76 -37q-29 0 -51 15q-28 22 -29.5 58z" />
<glyph unicode="_" horiz-adv-x="923" d="M-195 -285q0 38 28 63t69 25h907q42 0 61 -22t19 -49q0 -38 -27.5 -63t-68.5 -25h-910q-40 0 -59 24q-19 19 -19 47z" />
<glyph unicode="`" horiz-adv-x="1095" d="M622 1594.5q12 30.5 46 43.5q38 13 68.5 -2t41.5 -45l113 -282q12 -30 -1.5 -55.5t-43.5 -34.5q-28 -9 -54.5 2.5t-39.5 40.5l-129 276q-13 26 -1 56.5z" />
<glyph unicode="a" horiz-adv-x="1046" d="M123 303q0 60 16 154l25 143q14 79 33.5 141.5t53.5 121.5t79 98t112.5 62.5t151.5 23.5q137 0 240 -80l8 34q6 22 27.5 34t48.5 12q34 0 57.5 -21.5t23.5 -58.5l-2 -23l-135 -690q-4 -35 -4 -57q0 -20 3 -30q7 -22 34 -44q26 -20 26 -50q0 -6 -1 -12q-14 -73 -99 -73 q-58 0 -100 45q-16 20 -23 39q-133 -84 -260 -84q-152 0 -233.5 83.5t-81.5 231.5zM299 330v-8q1 -84 43 -130q44 -49 129 -49q96 0 211 84l113 584q-37 39 -88.5 60.5t-102.5 21.5q-65 0 -112.5 -22.5t-76.5 -65t-45.5 -88.5t-27.5 -109l-37 -196q-6 -44 -6 -82z" />
<glyph unicode="b" horiz-adv-x="1044" d="M29 63q3 19 14.5 35t20.5 22.5t34 22.5q29 19 40 43.5t22 85.5l217 1129q7 39 33 60.5t61 21.5q34 0 57 -21.5t23 -58.5q0 -15 -2 -23l-76 -399q115 66 229 66q154 0 228 -78t74 -221q0 -52 -15 -148l-35 -192q-39 -212 -141.5 -316t-288.5 -104q-141 0 -252 90 q-29 -41 -72 -65.5t-85 -24.5q-41 0 -65 18q-21 15 -22 46q0 6 1 11zM326 221q82 -78 176 -78q121 0 185.5 63.5t88.5 192.5l43 232q8 41 8 86q0 86 -39.5 130t-132.5 44q-105 0 -215 -80z" />
<glyph unicode="c" horiz-adv-x="872" d="M133 356q0 43 8 97l23 143q34 206 153 328.5t322 122.5q142 0 229 -50q45 -27 45 -71q0 -34 -22 -57t-57 -23q-18 0 -47.5 14t-57.5 21q-36 10 -98 10q-119 0 -195.5 -84.5t-101.5 -235.5l-23 -141q-4 -23 -4 -65q0 -107 53 -165.5t164 -58.5q62 0 117 15q22 6 55.5 20 t53.5 14q26 0 45.5 -16t19.5 -47q0 -32 -17.5 -52t-56.5 -38q-106 -49 -245 -49q-181 0 -273 96q-90 94 -90 265v7z" />
<glyph unicode="d" horiz-adv-x="1046" d="M123 305q0 58 16 152l25 143q14 79 33.5 141.5t53.5 121.5t79 98t112.5 62.5t151.5 23.5q130 0 229 -86l84 440q7 39 33 60.5t59 21.5q34 0 58 -21.5t24 -58.5q0 -15 -2 -23l-217 -1126q-5 -37 -5 -60q0 -18 3 -27q7 -21 35 -44q26 -20 26 -50q0 -6 -1 -12 q-14 -73 -99 -73q-58 0 -100 45q-16 20 -23 39q-131 -84 -264 -84q-150 0 -230.5 85.5t-80.5 231.5zM297 330q0 -89 44 -138t130 -49q99 0 211 82l111 574q-84 94 -189 94q-65 0 -112.5 -22.5t-77 -65t-46 -88.5t-28.5 -109l-35 -196q-8 -58 -8 -82z" />
<glyph unicode="e" horiz-adv-x="980" d="M131 356q0 37 8 107l27 155q15 89 49 164t89 135.5t137 95t184 34.5q166 0 247.5 -94.5t81.5 -250.5q0 -59 -8 -108l-10 -66q-5 -29 -27.5 -47t-56.5 -18h-537l-6 -37q-6 -30 -6 -76q0 -95 52 -153t143 -58q88 0 182 33q52 18 59 18q33 0 52.5 -20t19.5 -55 q0 -51 -63 -76q-138 -51 -277 -51q-86 0 -152.5 29t-106.5 80.5t-60.5 117t-20.5 141.5zM340 604h438l4 25q6 43 6 84q0 91 -42 139.5t-125 48.5q-226 0 -277 -268z" />
<glyph unicode="f" horiz-adv-x="638" d="M121 68l2 22l153 791h-51q-38 0 -57 22q-18 18 -18 47q0 35 26.5 59.5t65.5 24.5h63l31 156q29 150 115 226.5t223 76.5h112q39 0 62 -23q18 -21 18 -49q0 -38 -28 -64t-70 -26h-84q-144 0 -178 -174l-25 -123h152q38 0 57 -22q19 -19 19 -47q0 -35 -26.5 -59.5 t-66.5 -24.5h-163l-158 -809q-7 -39 -32.5 -61.5t-59.5 -22.5t-58 21.5t-24 58.5z" />
<glyph unicode="g" horiz-adv-x="1019" d="M43 -258q0 35 23.5 58.5t60.5 23.5q23 0 47 -12q82 -35 180 -35q242 0 301 305l4 18q-109 -59 -213 -59q-149 0 -230 85.5t-81 231.5q0 62 15 154l16 88q14 79 33.5 141.5t53 121.5t78.5 98t112.5 62.5t152.5 23.5q133 0 238 -84l8 34q6 25 28.5 37.5t49.5 12.5 q34 0 56.5 -21.5t22.5 -58.5q0 -15 -2 -23l-166 -868q-87 -453 -485 -453q-143 0 -244 43q-59 24 -59 76zM311 385q0 -90 43.5 -138t128.5 -48q101 0 211 75l103 533q-83 86 -191 86q-65 0 -112.5 -22.5t-76.5 -65t-45.5 -88.5t-27.5 -109l-27 -143q-6 -43 -6 -80z" />
<glyph unicode="h" horiz-adv-x="1060" d="M100 68q0 14 2 22l252 1311q7 39 33 60.5t59 21.5q34 0 58 -21.5t24 -58.5q0 -15 -2 -23l-82 -422q140 89 267 89q145 0 214.5 -77.5t69.5 -213.5q0 -56 -16 -146l-105 -538q-7 -39 -33 -61.5t-59 -22.5q-35 0 -58.5 21.5t-23.5 58.5q0 14 2 22l103 531q10 55 10 98 q0 160 -147 160q-126 0 -260 -111l-134 -696q-7 -39 -33 -61.5t-59 -22.5q-34 0 -58 21.5t-24 58.5z" />
<glyph unicode="i" horiz-adv-x="473" d="M100 68q0 14 2 22l168 873q7 39 33 61.5t59 22.5q34 0 58 -21.5t24 -58.5q0 -15 -2 -23l-168 -872q-7 -39 -33 -61.5t-59 -22.5q-34 0 -58 21.5t-24 58.5zM319 1413q0 51 37 88t88 37q52 0 88.5 -37t36.5 -88q0 -53 -36.5 -89t-88.5 -36q-51 0 -88 36.5t-37 88.5z" />
<glyph unicode="j" horiz-adv-x="473" d="M-236 -295q11 66 95 70q99 8 153 67t80 191l178 930q7 39 33 61.5t59 22.5q34 0 58 -21.5t24 -58.5q0 -15 -2 -23l-180 -936q-38 -199 -140 -294t-276 -95q-37 0 -62 23q-21 20 -21 49q0 7 1 14zM319 1413q0 51 37 88t88 37q52 0 88.5 -37t36.5 -88q0 -53 -36.5 -89 t-88.5 -36q-51 0 -88 36.5t-37 88.5z" />
<glyph unicode="k" horiz-adv-x="950" d="M100 68q0 14 2 22l252 1311q7 39 33 60.5t59 21.5q34 0 58 -21.5t24 -58.5l-2 -23l-157 -813l495 453q27 25 59 26.5t56 -16.5q23 -20 27 -50q0 -4 1 -8q0 -26 -18 -50q-1 -1 -5.5 -7t-8.5 -8l-322 -289q131 -287 205 -520q5 -16 5 -30q-1 -28 -19 -48q-28 -32 -70 -32 q-65 0 -82 61q-81 242 -176 449l-192 -172l-50 -254q-7 -39 -33 -61.5t-59 -22.5q-35 0 -58.5 21.5t-23.5 58.5z" />
<glyph unicode="l" horiz-adv-x="475" d="M124 140q-1 12 -1 24q0 62 18 147l211 1090q7 39 33 60.5t59 21.5q34 0 58 -21.5t24 -58.5q0 -15 -2 -23l-217 -1126q-5 -36 -5 -59q0 -18 3 -27q7 -22 35 -43q26 -20 26 -54q0 -7 -1 -14q-16 -69 -101 -69q-56 0 -98 45q-38 38 -42 107z" />
<glyph unicode="m" horiz-adv-x="1654" d="M129 68q0 14 2 22l131 680q5 36 5 58q0 17 -3 27q-7 21 -35 44q-25 19 -25 51q0 6 1 13q14 71 98 71q58 0 100 -45q18 -22 23 -51q159 109 307 109q183 0 242 -138q173 138 342 138q140 0 207 -77.5t67 -211.5q0 -67 -14 -146l-107 -540q-7 -39 -33 -61.5t-59 -22.5 q-34 0 -58 22.5t-24 59.5l2 20l103 533q12 62 12 98q0 158 -143 158q-130 0 -262 -125v-10q0 -47 -15 -132l-104 -540q-7 -39 -33 -61.5t-59 -22.5q-34 0 -58 22.5t-24 59.5q0 14 2 20l102 533q10 52 10 98q0 158 -143 158q-127 0 -250 -113q-2 -20 -10 -55l-123 -639 q-7 -39 -33 -61.5t-59 -22.5q-34 0 -58 21.5t-24 58.5z" />
<glyph unicode="n" horiz-adv-x="1089" d="M129 68q0 14 2 22l131 680q5 36 5 58q0 17 -3 27q-7 21 -35 44q-24 21 -24 49q0 7 2 15q14 71 98 71q56 0 98 -45q21 -25 23 -53q166 111 317 111q144 0 212.5 -77t68.5 -212q0 -67 -14 -146l-107 -540q-7 -39 -32.5 -61.5t-59.5 -22.5t-58 22.5t-24 59.5l2 20l105 533 q10 77 10 98q0 158 -150 158q-130 0 -260 -113q-2 -20 -10 -55l-123 -639q-7 -39 -33 -61.5t-59 -22.5q-34 0 -58 21.5t-24 58.5z" />
<glyph unicode="o" horiz-adv-x="1017" d="M125 326q0 64 12 125l41 215q15 80 46.5 145t85 120t137.5 85.5t192 30.5q87 0 153 -28.5t104 -77.5t56.5 -108t18.5 -126q0 -51 -10 -109l-46 -227q-72 -383 -458 -383q-89 0 -155 27t-103.5 75t-55.5 106.5t-18 129.5zM301 344q0 -194 176 -194q121 0 183 65.5 t85 177.5l41 215q9 40 9 80q0 87 -42 141t-132 54q-227 0 -273 -244l-37 -203q-10 -52 -10 -92z" />
<glyph unicode="p" horiz-adv-x="1042" d="M51 -295l2 23l203 1054q7 28 7 50q0 7 -1 14q-3 26 -10.5 38t-26.5 27q-26 20 -26 49q0 7 2 15q14 72 98 72q58 0 98 -46q23 -20 29 -55q145 101 272 101q153 0 228 -81t75 -223q0 -78 -20 -180l-31 -155q-19 -100 -49.5 -173t-81 -130.5t-128 -87t-181.5 -29.5 q-122 0 -219 61l-66 -340q-7 -39 -32.5 -61.5t-59.5 -22.5t-58 21.5t-24 58.5zM322 207q81 -64 178 -64q71 0 122 22.5t82 66.5t48 90.5t30 113.5l33 185q10 54 10 100q0 168 -166 168q-56 0 -109.5 -27t-117.5 -76q-1 -13 -10 -63z" />
<glyph unicode="q" horiz-adv-x="1044" d="M125 303q0 60 16 154l25 143q14 79 33.5 141.5t53.5 121.5t79 98t112.5 62.5t151.5 23.5q144 0 256 -91q30 40 74 65.5t86 25.5q39 0 64 -19q23 -16 23 -47q0 -5 -1 -10q-1 -8 -3.5 -14.5t-4.5 -11.5t-7.5 -11t-7.5 -9t-10.5 -9t-10.5 -7.5t-12.5 -8.5l-13.5 -9 q-28 -18 -39 -43t-22 -86l-203 -1053q-7 -39 -33 -61.5t-59 -22.5q-35 0 -58.5 21.5t-23.5 58.5q0 15 2 23l61 319q-112 -59 -217 -59q-150 0 -230.5 83.5t-80.5 231.5zM301 330q0 -89 43.5 -138t128.5 -49q101 0 213 82l113 584q-37 40 -89 62t-104 22q-65 0 -112.5 -22.5 t-76.5 -65t-45.5 -88.5t-27.5 -109l-37 -196q-6 -44 -6 -82z" />
<glyph unicode="r" horiz-adv-x="780" d="M129 68q0 14 2 22l131 680q5 36 5 59q0 18 -3 27q-7 22 -35 43q-25 22 -25 52q0 6 1 12q13 71 98 71q57 0 100 -43q27 -30 35 -78q126 134 299 134q81 0 121 -32q30 -23 29 -62q0 -14 -4 -31q-7 -30 -32.5 -46t-57.5 -16q-8 0 -41 7t-78 7q-72 0 -139.5 -40t-110.5 -138 l-121 -624q-7 -39 -33 -61.5t-59 -22.5q-34 0 -58 21.5t-24 58.5z" />
<glyph unicode="s" horiz-adv-x="872" d="M47 104q0 37 22 57.5t54 20.5q15 0 43.5 -10.5t58.5 -17.5q66 -15 125 -15q128 0 199.5 43t71.5 115q0 24 -10.5 44.5t-23.5 34.5t-41.5 29.5t-48 24t-59.5 24.5t-61 25q-48 20 -82 40.5t-68 51.5t-51.5 75.5t-17.5 101.5q0 74 33.5 132t91.5 94t130 54.5t154 18.5 q77 0 150 -17q63 -14 88.5 -36.5t25.5 -55.5q0 -38 -22 -58t-55 -20q-12 0 -39 9t-49 14q-62 12 -103 12q-102 0 -167.5 -39.5t-65.5 -101.5q0 -25 11.5 -46.5t25.5 -35.5t44 -30.5t49.5 -24.5t60.5 -24q19 -7 28 -11q42 -17 72 -31.5t64.5 -38.5t56.5 -51.5t36.5 -67.5 t14.5 -88q0 -106 -61.5 -179t-159.5 -105.5t-224 -32.5q-94 0 -166 16q-135 30 -135 100z" />
<glyph unicode="t" horiz-adv-x="684" d="M164 950q0 36 27 60t67 24h59l41 219q7 38 33 60t60 22t57.5 -21.5t23.5 -58.5q0 -14 -2 -22l-38 -199h167q39 0 58 -22q18 -18 18 -47q0 -35 -27 -59.5t-67 -24.5h-180l-90 -443q-19 -105 -19 -147q0 -67 31.5 -97t110.5 -30h34q40 0 62 -25q18 -21 18 -49 q0 -39 -27 -64.5t-69 -25.5h-51q-287 0 -287 264q0 72 23 180l88 437h-43q-41 0 -60 22q-18 21 -18 47z" />
<glyph unicode="u" horiz-adv-x="1097" d="M152 279q0 72 16 147l102 537q7 39 33 61.5t59 22.5q34 0 58 -21.5t24 -58.5q0 -15 -2 -23l-96 -502q-14 -72 -14 -125q0 -83 36.5 -121t118.5 -38q127 0 252 116l133 689q7 39 33.5 61.5t59.5 22.5q34 0 58 -21.5t24 -58.5q0 -11 -3 -23l-133 -690q-7 -27 -7 -48 q0 -10 2 -18q4 -27 12 -38.5t26 -26.5q26 -23 26 -52q0 -6 -1 -12q-14 -71 -99 -71q-58 0 -100 45q-22 24 -25 65q-147 -110 -296 -110q-147 0 -222 77.5t-75 213.5z" />
<glyph unicode="v" horiz-adv-x="917" d="M166 938q-1 11 -1 21q0 38 18 60q23 28 65 28q73 0 84 -84q57 -465 104 -744q184 329 410 770q28 58 82 58q46 -1 67 -35q10 -16 10 -35q0 -21 -12 -45q-224 -443 -471 -854q-50 -90 -129 -90q-50 0 -71 30t-33 97q-90 502 -123 823z" />
<glyph unicode="w" horiz-adv-x="1404" d="M170 948q-1 46 22 72.5t60 26.5q46 0 63 -24t19 -65q25 -419 57 -722q185 380 340 731q17 39 42 59.5t69 20.5q81 0 84 -109q16 -325 59 -702q162 335 344 747q14 34 32.5 49t51.5 15q47 -1 63 -37q6 -15 6 -32q0 -26 -14 -58q-202 -460 -399 -846q-45 -86 -123 -86 q-48 0 -69 28.5t-27 89.5q-31 266 -59 650q-165 -361 -324 -674q-26 -52 -55 -73t-74 -21q-53 0 -73 35t-29 112q-49 449 -66 813z" />
<glyph unicode="x" horiz-adv-x="890" d="M12 24q-7 14 -7 29q0 26 20 58q111 154 364 419q-136 239 -180 390q-5 18 -5 35q0 31 18 55q28 38 75 37q61 0 78 -52q42 -142 135 -319q178 193 266 323q35 48 86 48q46 -1 67 -35q9 -14 9 -31q0 -24 -18 -53q-106 -154 -332 -391q149 -253 198 -418q7 -24 7 -44 q0 -29 -15 -51q-26 -36 -76 -36q-56 0 -73 51q-45 144 -162 354q-5 -6 -31 -34.5t-33.5 -36.5t-31 -34.5t-32.5 -37t-30 -34.5t-32 -37t-28.5 -34.5t-29.5 -37.5t-26.5 -35t-26.5 -37q-36 -47 -88 -47q-46 0 -66 36z" />
<glyph unicode="y" horiz-adv-x="913" d="M-109 -287q6 38 32.5 61.5t66.5 24.5q87 3 162.5 48.5t156.5 160.5q-112 568 -151 930q-1 9 -1 18q0 36 20 60q25 31 65 31q74 0 86 -82q43 -355 108 -732l389 752q33 62 88 62q42 0 62 -23q18 -21 18 -51q0 -4 -1 -7q-2 -35 -21 -71l-398 -752q-142 -268 -275 -389.5 t-310 -128.5h-10q-42 0 -66 22q-22 21 -22 53q0 6 1 13z" />
<glyph unicode="z" horiz-adv-x="839" d="M0 72q0 33 31 73l641 729h-391q-39 0 -62 23q-16 18 -16 49q0 38 27.5 63t68.5 25h547q42 0 61 -22t19 -49q0 -37 -37 -80l-635 -721h424q36 0 61 -25q19 -22 19 -49q0 -38 -27.5 -63t-68.5 -25h-580q-42 0 -64 25q-18 18 -18 47z" />
<glyph unicode="{" horiz-adv-x="636" d="M100 -119q3 72 28 157t54 149.5t54 141t28 134.5q3 62 -18.5 92.5t-55.5 30.5h-4q-30 0 -45.5 19.5t-11.5 51.5q11 70 86 70h10q51 0 98.5 57.5t51.5 180.5q2 52 1.5 145t2.5 172q6 200 93.5 303t244.5 103h12q40 0 62.5 -21.5t21.5 -62.5q-1 -40 -26 -61t-64 -21h-10 q-29 0 -54.5 -11t-51 -37t-41 -78t-17.5 -126l-2 -297q-11 -239 -182 -316l-3 -10q76 -40 72 -176q-4 -90 -43 -196t-77 -202.5t-40 -164.5q-3 -64 17 -91.5t63 -27.5h6q35 0 58 -21t20 -61q-4 -43 -33.5 -63.5t-72.5 -20.5h-15q-99 0 -161 62.5t-56 195.5z" />
<glyph unicode="|" horiz-adv-x="485" d="M33 -293q0 15 2 23l360 1867q7 40 36 65.5t65 25.5q35 0 60.5 -24.5t25.5 -64.5l-2 -22l-361 -1868q-9 -42 -36 -66t-62 -24q-37 0 -62.5 24t-25.5 64z" />
<glyph unicode="}" horiz-adv-x="634" d="M-57 -293q1 40 26 61t64 21h12q29 0 54 11t50.5 37t41 78t16.5 126q2 58 1.5 148.5t2.5 148.5q8 238 180 315l2 11q-40 22 -56 70.5t-13 105.5q3 72 27.5 154.5t52 144.5t52 135.5t27.5 128.5q1 65 -18.5 92t-63.5 27h-6q-36 0 -58.5 20.5t-19.5 61.5q4 43 34 63.5 t75 20.5h12q100 0 162.5 -62.5t56.5 -195.5q-3 -72 -28 -157t-54.5 -149.5t-54.5 -142t-28 -135.5q-1 -61 19.5 -91t53.5 -30h6q28 0 44 -20t12 -52q-11 -69 -86 -69h-11q-22 0 -45 -12t-46 -37.5t-39 -74.5t-19 -114q-2 -57 -1 -144.5t-1 -172.5q-7 -201 -94 -303.5 t-244 -102.5h-14q-39 0 -62 22t-22 62z" />
<glyph unicode="~" horiz-adv-x="1112" d="M174 559q0 70 79 115t179 45q64 0 124 -24t112.5 -48t99.5 -24q44 0 75.5 16.5t54.5 32.5t48 16q39 0 66.5 -27.5t27.5 -66.5q0 -70 -79 -114t-179 -44q-64 0 -123.5 23.5t-112 47t-100.5 23.5q-35 0 -62 -10t-41 -22.5t-33.5 -22.5t-41.5 -10q-39 0 -66.5 27.5 t-27.5 66.5z" />
<glyph unicode="&#xa1;" horiz-adv-x="550" d="M33 -375l196 895q11 44 32.5 66t62.5 22q80 0 67 -100l-147 -889q-6 -45 -38.5 -76.5t-82.5 -31.5q-54 0 -77 34t-13 80zM256 913q0 55 38.5 94.5t92.5 39.5q55 0 94 -39t39 -95q0 -54 -39 -92.5t-94 -38.5q-54 0 -92.5 38.5t-38.5 92.5z" />
<glyph unicode="&#xa2;" d="M254 356q0 57 6 97l25 143q32 197 141.5 317.5t294.5 130.5l20 109q6 32 27 50t49 18t48 -17.5t20 -48.5v-18l-21 -99q75 -12 125 -41q47 -29 47 -71q0 -34 -23 -57t-59 -23q-14 0 -37 11t-47 17q-22 6 -41 9l-143 -738q41 0 78 11q21 6 42.5 15.5t35.5 14t30 4.5 q25 0 44.5 -16.5t19.5 -46.5q0 -32 -17.5 -53t-56.5 -39q-89 -42 -198 -45l-21 -111q-6 -31 -27.5 -49t-48.5 -18q-29 0 -49 17.5t-20 47.5l2 19l20 100q-133 24 -200.5 117t-65.5 243zM428 365q0 -166 131 -195l133 698q-95 -17 -156.5 -96.5t-80.5 -200.5l-23 -141 q-4 -46 -4 -65z" />
<glyph unicode="&#xa3;" d="M70 78q0 45 32 69.5t78 26.5q173 112 187 289q4 59 0 147h-68q-34 0 -59 25q-17 20 -17 47q0 36 25 60t63 24h45q-18 137 -18 211q0 106 38 200.5t108.5 168t181 116.5t245.5 43q147 0 228 -32q55 -19 55 -76q0 -39 -25 -65.5t-61 -26.5q-13 0 -39 6t-41 8 q-74 12 -123 12q-95 0 -170 -29.5t-120.5 -79.5t-69 -112.5t-23.5 -132.5q0 -66 19 -211h323q37 0 60 -23q16 -19 16 -47q0 -37 -26 -61.5t-66 -24.5h-297q4 -84 0 -143q-11 -166 -152 -293h553q44 0 68 -24q18 -23 18 -54q0 -41 -29 -68.5t-75 -27.5h-776q-44 0 -68 27 q-20 20 -20 51z" />
<glyph unicode="&#xa4;" horiz-adv-x="1421" d="M202 272.5q-1 33.5 23 57.5l158 157q-102 139 -102 308q0 173 104 309l-160 162q-22 23 -22 55.5t26 58.5q23 24 56 24t57 -22l160 -161q136 104 309 104t309 -104l158 159q23 24 56 23t59 -27q25 -23 25 -56t-23 -56l-160 -158q106 -134 106 -311q0 -173 -104 -312 l158 -153q23 -23 23 -56.5t-25 -56.5q-25 -26 -57.5 -27.5t-57.5 23.5l-158 156q-134 -105 -309 -105q-174 0 -311 105l-158 -156q-24 -24 -56.5 -24t-56.5 24q-26 26 -27 59.5zM418 795q0 -163 115 -278.5t278 -115.5t278 115.5t115 278.5t-115 277t-278 114t-278 -114 t-115 -277z" />
<glyph unicode="&#xa5;" d="M137 418q0 35 26.5 59.5t65.5 24.5h285l8 39q-9 31 -27 86.5t-22 68.5h-192q-38 0 -58 23q-18 18 -18 45q0 37 26 61.5t66 24.5h127q-73 243 -145 549q-11 50 18.5 82t73.5 32q31 0 55 -18t33 -53q78 -347 190 -699q258 375 471 727q25 43 72 43q46 0 72.5 -39.5 t-0.5 -89.5q-153 -255 -344 -534h120q38 0 58 -23q18 -21 18 -47q0 -37 -26 -60.5t-66 -23.5h-205l-110 -159l-7 -35h271q36 0 59 -23q17 -23 17 -47q0 -35 -26.5 -59.5t-66.5 -24.5h-284l-54 -278q-7 -40 -34.5 -64t-63.5 -24q-35 0 -61.5 24t-26.5 62q0 8 4 24l49 256 h-272q-37 0 -57 23q-19 19 -19 47z" />
<glyph unicode="&#xa6;" horiz-adv-x="483" d="M68 -115q0 11 4 23l118 620q7 40 34.5 63t62.5 23t59.5 -23t24.5 -61q0 -14 -2 -22l-119 -619q-7 -40 -34 -64t-62 -24t-60.5 23t-25.5 61zM274 961l2 22l121 619q7 40 34.5 64t62.5 24t59.5 -23t24.5 -61q0 -11 -3 -23l-118 -620q-7 -39 -34.5 -62.5t-62.5 -23.5 t-60.5 23t-25.5 61z" />
<glyph unicode="&#xa7;" horiz-adv-x="1112" d="M94 -238q0 35 22.5 57.5t55.5 22.5q12 0 23 -3t29.5 -10.5t37.5 -12.5q77 -25 172 -25q124 0 201.5 67.5t77.5 164.5q0 34 -12 61.5t-27.5 46t-53 41.5t-63 35t-84.5 39q-60 28 -95.5 46.5t-80.5 49t-69 61t-41 74.5t-17 96q0 105 51 182t148 150q-54 74 -54 176 q0 172 133.5 286t331.5 114q173 0 275 -47q63 -26 63 -78q0 -35 -23 -57.5t-57 -22.5q-11 0 -22 3.5t-29.5 11t-36.5 12.5q-77 24 -174 24q-124 0 -201 -67t-77 -162q0 -34 12 -62t28.5 -47t52.5 -41.5t64 -36.5t84 -39q60 -28 95.5 -46.5t80.5 -49t69 -61t41 -74.5t17 -96 q0 -105 -51 -181.5t-147 -150.5q51 -70 51 -176q0 -173 -133.5 -286t-331.5 -113q-166 0 -274 47q-62 23 -62 77zM348 598q0 -46 23 -81t65 -60.5t87 -45t103.5 -48t98.5 -56.5q69 49 104 99.5t35 115.5q0 45 -23 80t-65.5 60t-87 44.5t-103.5 48t-100 56.5 q-68 -49 -102.5 -99t-34.5 -114z" />
<glyph unicode="&#xa8;" horiz-adv-x="1083" d="M358 1376q0 41 28 70t69 29q40 0 68 -29t28 -70q0 -40 -28 -68t-68 -28q-41 0 -69 28t-28 68zM692 1376q0 42 27.5 70.5t68.5 28.5q40 0 68.5 -29t28.5 -70q0 -40 -28.5 -68t-68.5 -28q-41 0 -68.5 28t-27.5 68z" />
<glyph unicode="&#xa9;" horiz-adv-x="1800" d="M221 745q0 155 60.5 296.5t163 244t244 163t296.5 60.5t296.5 -60.5t244 -163t163 -244t60.5 -296.5t-60.5 -297t-163 -244.5t-244 -163t-296.5 -60.5t-296.5 60.5t-244 163t-163 244.5t-60.5 297zM354 745q0 -172 84.5 -317.5t230 -230t316.5 -84.5q170 0 315 84.5 t229.5 230t84.5 317.5q0 171 -84.5 316.5t-229.5 230t-315 84.5q-128 0 -245 -50t-201.5 -134.5t-134.5 -201.5t-50 -245zM655 690v109q0 101 36.5 183.5t112.5 134.5t181 52q111 0 197 -39q39 -20 39 -57q0 -27 -18 -47t-46 -20q-13 0 -29 8q-56 26 -139 26 q-91 0 -146 -65.5t-55 -175.5v-109q0 -114 49 -176.5t150 -62.5q82 0 148 28q12 6 26 6q27 0 44.5 -20.5t17.5 -46.5q0 -42 -41 -58q-87 -41 -199 -41q-162 0 -245 103t-83 268z" />
<glyph unicode="&#xaa;" horiz-adv-x="876" d="M197 856q0 45 12 127l20 117q14 82 37.5 144t63.5 115t104.5 81t151.5 28q111 0 196 -65l6 27q6 19 23.5 28.5t38.5 9.5q29 0 48.5 -18t19.5 -49v-19l-111 -569q-8 -53 -2 -71t29 -35q24 -20 18 -52q-11 -61 -80 -61q-48 0 -82 37q-12 16 -18 35q-112 -72 -215 -72 q-126 0 -193 69.5t-67 192.5zM340 877q0 -73 36 -113.5t107 -40.5q76 0 174 70l93 481q-64 67 -156 67q-44 0 -78 -13t-56.5 -33.5t-39.5 -52.5t-26 -63.5t-17 -72.5l-29 -162q-8 -33 -8 -67z" />
<glyph unicode="&#xab;" horiz-adv-x="1257" d="M113 580q7 32 45 63l430 381q28 23 63 18t56 -32q17 -25 10 -58.5t-35 -58.5l-379 -338l264 -350q20 -24 18.5 -59t-26.5 -56q-27 -22 -60.5 -18t-52.5 30l-307 400q-32 47 -26 78zM660 566.5q0 6.5 2 13.5q4 28 43 63l432 381q27 23 62 18t54 -32q18 -25 11 -58.5 t-35 -58.5l-379 -338l266 -350q19 -24 18 -59t-26 -56q-28 -22 -62 -18t-53 30l-305 400q-1 1 -5.5 8t-6.5 9.5t-6 10t-5 12t-3 11.5t-2 13.5z" />
<glyph unicode="&#xac;" horiz-adv-x="1075" d="M219 778q5 35 33 60.5t65 25.5h721q36 0 56 -26t14 -62l-51 -266q-7 -36 -35 -60t-61 -24q-36 0 -56 26t-14 62l35 182h-635q-35 0 -55.5 23.5t-16.5 58.5z" />
<glyph unicode="&#xad;" horiz-adv-x="966" d="M197 592q0 40 28 66t72 26h473q42 0 64 -25q20 -20 20 -51q0 -40 -28.5 -66t-71.5 -26h-475q-39 0 -64 25q-18 21 -18 51z" />
<glyph unicode="&#xae;" horiz-adv-x="1800" d="M221 745q0 155 60.5 296.5t163 244t244 163t296.5 60.5t296.5 -60.5t244 -163t163 -244t60.5 -296.5t-60.5 -297t-163 -244.5t-244 -163t-296.5 -60.5t-296.5 60.5t-244 163t-163 244.5t-60.5 297zM354 745q0 -172 84.5 -317.5t230 -230t316.5 -84.5q170 0 315 84.5 t229.5 230t84.5 317.5q0 171 -84.5 316.5t-229.5 230t-315 84.5q-128 0 -245 -50t-201.5 -134.5t-134.5 -201.5t-50 -245zM713 395v699q0 28 19 47.5t48 19.5h224q136 0 200 -63.5t64 -155.5v-55q0 -69 -40.5 -124t-115.5 -77l139 -262q6 -12 6 -29q0 -29 -19.5 -48 t-47.5 -19q-46 0 -60 41l-155 299h-127v-273q0 -28 -20 -47.5t-48 -19.5q-29 0 -48 19.5t-19 47.5zM848 786h145q75 0 107.5 32.5t32.5 74.5v43q0 42 -30.5 74t-103.5 32h-151v-256z" />
<glyph unicode="&#xaf;" horiz-adv-x="1083" d="M479 1386q0 34 23 57t55 23h381q32 0 55 -23t23 -57q0 -32 -23 -54.5t-55 -22.5h-381q-32 0 -55 22.5t-23 54.5z" />
<glyph unicode="&#xb0;" horiz-adv-x="829" d="M236 1167q0 142 101 242t243 100q143 0 244.5 -100t101.5 -242t-101.5 -241t-244.5 -99q-142 0 -243 99t-101 241zM377 1167q0 -85 59 -144.5t144 -59.5t144.5 59.5t59.5 144.5t-59.5 145t-144.5 60t-144 -60t-59 -145z" />
<glyph unicode="&#xb1;" horiz-adv-x="1044" d="M86 76q0 40 28.5 66t71.5 26h676q42 0 64 -25q18 -21 18 -51q0 -40 -28.5 -66t-71.5 -26h-676q-42 0 -64 25q-18 21 -18 51zM227 793q0 40 29 66t72 26h258l51 272q7 37 33 59.5t59 22.5q32 0 56 -22.5t24 -57.5q0 -14 -2 -22l-49 -252h243q42 0 64 -25q18 -21 18 -51 q0 -39 -29 -65.5t-71 -26.5h-258l-51 -271q-7 -38 -32.5 -59.5t-59.5 -21.5q-33 0 -56.5 21t-23.5 56l2 23l49 252h-244q-40 0 -63 26q-19 19 -19 50z" />
<glyph unicode="&#xb2;" horiz-adv-x="919" d="M299 657q0 47 27.5 105.5t85.5 116.5q74 71 168 139q103 76 150.5 128.5t47.5 113.5t-33 93.5t-92 32.5q-65 0 -121 -30q-8 -5 -19.5 -12t-18 -11t-15 -7t-16.5 -3q-23 0 -37 15t-14 36q0 31 24 47q97 76 228 76q103 0 166 -64.5t63 -166.5q0 -85 -56.5 -161t-195.5 -173 q-166 -116 -205 -213h309q27 0 41 -17q15 -15 15 -32q0 -26 -19 -44t-47 -18h-379q-26 0 -41.5 13.5t-15.5 35.5z" />
<glyph unicode="&#xb3;" horiz-adv-x="919" d="M307 713q0 22 14.5 37.5t36.5 15.5q11 0 19.5 -4t22.5 -15.5t24 -17.5q42 -24 117 -24q89 0 136.5 47t47.5 114q0 74 -48.5 106t-123.5 32h-6q-25 0 -39 15t-14 38q0 22 16 37.5t39 15.5h39q69 0 125.5 43t56.5 113q0 52 -33 88.5t-96 36.5q-82 0 -137 -45 q-16 -13 -33 -13q-23 0 -38 17t-15 39q0 24 20 41q86 67 209 67q113 0 173.5 -66.5t60.5 -154.5q0 -153 -148 -223q107 -58 107 -191q0 -108 -81.5 -186t-221.5 -78q-113 0 -177 43q-53 39 -53 72z" />
<glyph unicode="&#xb4;" horiz-adv-x="1093" d="M604 1286q0 20 8 33l152 283q19 43 70 43q21 0 38 -11q43 -21 43 -63q0 -24 -12 -39l-166 -275q-24 -40 -63 -40q-14 0 -31 10q-39 17 -39 59z" />
<glyph unicode="&#xb6;" horiz-adv-x="1363" d="M287 1110q32 163 165 276t291 113h674q40 0 62 -22q18 -21 18 -50q0 -38 -27.5 -63t-68.5 -25h-96l-306 -1583q-7 -40 -35 -64t-63 -24q-37 0 -62.5 23t-25.5 63l2 23l301 1562h-233l-305 -1583q-7 -40 -35 -64t-64 -24t-61 23t-25 63q0 15 2 23l183 946 q-151 6 -235.5 118t-55.5 269z" />
<glyph unicode="&#xb7;" horiz-adv-x="618" d="M178 604q0 74 52.5 127t127.5 53t128 -53t53 -127q0 -75 -53 -127.5t-128 -52.5t-127.5 52.5t-52.5 127.5z" />
<glyph unicode="&#xb8;" horiz-adv-x="1083" d="M264 -362q0 43 101 43q71 0 110 23t39 60q0 39 -27 56t-84 22q-35 3 -49 11t-14 28q0 6 1 14t2.5 18t2.5 15l14 78h97l-11 -84q110 -1 157.5 -43t47.5 -117q0 -77 -72 -126.5t-186 -49.5q-69 0 -99 11.5t-30 40.5z" />
<glyph unicode="&#xb9;" horiz-adv-x="919" d="M291 662q0 26 18.5 43.5t46.5 17.5h183l116 606l-200 -129l-13 -6q-22 -7 -40.5 2t-24.5 29q-17 45 26 73l287 181q30 20 55 20q24 0 38 -14.5t14 -40.5l-2 -14l-138 -707h97q28 0 41 -16q14 -17 14 -35q0 -26 -19 -43t-47 -17h-397q-26 0 -43 17q-12 12 -12 33z" />
<glyph unicode="&#xba;" horiz-adv-x="899" d="M242 874q0 59 10 103l33 176q12 67 38 121t70 99t113 70t158 25q73 0 127.5 -23t85.5 -63.5t46 -89t15 -104.5q0 -49 -8 -90l-37 -187q-61 -315 -377 -315q-142 0 -208 78t-66 200zM387 889q0 -160 143 -160q186 0 222 201l34 178q9 44 7 66q0 72 -34.5 115.5 t-109.5 43.5q-186 0 -223 -200l-31 -166q-8 -36 -8 -78z" />
<glyph unicode="&#xbb;" horiz-adv-x="1247" d="M77.5 161q7.5 34 35.5 58l379 336l-265 352q-20 25 -19.5 60t25.5 57q29 22 62 17.5t53 -29.5l305 -404q35 -41 29 -73q-6 -34 -43 -66l-432 -381q-28 -23 -64 -18t-55 32q-18 25 -10.5 59zM625.5 161.5q7.5 34.5 33.5 57.5l379 336l-264 352q-19 25 -18 60t26 57 q29 22 62 17t51 -29l305 -404q36 -36 31 -73q-9 -34 -45 -66l-432 -381q-28 -23 -63 -18t-56 32q-17 25 -9.5 59.5z" />
<glyph unicode="&#xbc;" horiz-adv-x="919" d="M68 -231q0 8 8 28l350 559q19 29 51 29q22 0 35.5 -13t13.5 -36q0 -21 -12 -39l-301 -477h182l29 145q4 23 19 36t34 13q21 0 35 -13t14 -34v-14l-26 -133h43q23 0 39 -13q12 -15 12 -32q0 -24 -17 -40t-42 -16h-56l-22 -116q-3 -23 -18 -36t-36 -13q-20 0 -34.5 13.5 t-14.5 35.5q0 1 1 5.5t1 6.5l21 104h-256q-27 0 -41 17q-12 12 -12 33zM121 516q0 25 17.5 41t43.5 16h649q25 0 39 -14q11 -14 11 -33q0 -24 -17.5 -39.5t-44.5 -15.5h-647q-25 0 -39 14q-12 12 -12 31zM309 723q0 24 17.5 39.5t44.5 15.5h168l108 561l-186 -118 q-4 -4 -10 -4q-21 -9 -38.5 -0.5t-23.5 28.5q-8 17 -1 36.5t26 31.5l264 166q27 18 51 18q47 0 47 -51v-12l-127 -656h88q25 0 39 -14q12 -12 12 -33q0 -23 -17.5 -39t-43.5 -16h-367q-25 0 -38 16q-13 13 -13 31z" />
<glyph unicode="&#xbd;" horiz-adv-x="919" d="M121 520q0 25 17 41.5t44 16.5h647q25 0 39 -17q13 -13 13 -31q0 -25 -17 -41t-45 -16h-647q-28 0 -41 16q-10 13 -10 31zM125 -385q0 42 25.5 96t78.5 107q63 60 156 129q50 37 74.5 57.5t54.5 50.5t42.5 58t12.5 59q0 55 -31 86t-85 31q-58 0 -111 -29 q-10 -5 -24 -13.5t-23.5 -13t-18.5 -4.5q-21 0 -34 14t-13 33q0 29 23 46q88 67 211 67q96 0 154.5 -59.5t58.5 -153.5q0 -78 -53 -149t-183 -160q-152 -108 -188 -197h287q27 0 39 -14q10 -12 10 -31q0 -25 -17 -41t-43 -16h-350q-24 0 -38.5 13t-14.5 34zM309 727 q0 24 17.5 39.5t44.5 15.5h168l108 561l-186 -118q-8 -4 -10 -4q-21 -9 -38.5 -0.5t-25.5 28.5q-6 18 1 37t26 31l264 166q27 18 51 18q47 0 47 -51q0 -8 -2 -12l-125 -656h88q25 0 39 -14q12 -15 12 -33q0 -23 -17.5 -39t-43.5 -16h-367q-25 0 -38 16q-13 13 -13 31z" />
<glyph unicode="&#xbe;" horiz-adv-x="919" d="M68 -231q0 8 8 28l350 559q19 29 51 29q22 0 35.5 -13t13.5 -36q0 -21 -12 -39l-301 -477h182l29 145q4 23 19 36t34 13q21 0 35 -13t14 -34v-14l-26 -133h43q23 0 39 -13q12 -15 12 -32q0 -24 -17 -40t-42 -16h-56l-22 -116q-3 -23 -18 -36t-36 -13q-20 0 -34.5 13.5 t-14.5 35.5q0 1 1 5.5t1 6.5l21 104h-256q-27 0 -41 17q-12 12 -12 33zM121 516q0 25 17.5 41t43.5 16h649q25 0 39 -14q11 -14 11 -33q0 -24 -17.5 -39.5t-44.5 -15.5h-647q-25 0 -39 14q-12 12 -12 31zM344 772q0 20 14.5 34.5t34.5 14.5q10 0 18 -3.5t20 -13.5t22 -16 q40 -24 108 -24q81 0 125.5 44.5t44.5 106.5q0 67 -45 97t-113 30h-8q-24 0 -36.5 14t-12.5 36q0 19 15 33t36 14h37q64 0 116 40t52 105q0 48 -30 82.5t-89 34.5q-76 0 -127 -43q-13 -10 -30 -10q-20 0 -35 15.5t-15 35.5q0 21 19 37q78 61 194 61q105 0 160 -60.5 t55 -142.5q0 -145 -135 -207q99 -54 99 -176q0 -101 -76 -173t-205 -72q-102 0 -162 41q-51 30 -51 65z" />
<glyph unicode="&#xbf;" horiz-adv-x="917" d="M49 -137q0 67 20 124t62.5 107t84.5 86t110 86q109 79 147.5 132t52.5 130q19 76 86 76q33 0 56 -21t20 -61q-14 -102 -63.5 -178t-161.5 -158q-63 -45 -99 -74t-72 -67.5t-51.5 -77.5t-15.5 -84q0 -101 58 -151.5t145 -50.5q122 0 236 81q26 15 47 15q37 0 59.5 -22.5 t22.5 -55.5q0 -50 -58 -82q-153 -100 -336 -100q-145 0 -247.5 91t-102.5 255zM526 913q0 54 38.5 92.5t92.5 38.5q55 0 94.5 -38.5t39.5 -92.5q0 -55 -39 -93t-95 -38q-54 0 -92.5 38t-38.5 93z" />
<glyph unicode="&#xc0;" horiz-adv-x="1148" d="M4 102q269 647 641 1309q55 100 133 100q43 0 68.5 -23t38.5 -81q148 -675 190 -1315q4 -54 -22.5 -83t-73.5 -29q-81 0 -84 75q-5 58 -29 291h-563q-52 -111 -129 -295q-29 -71 -102 -71q-42 0 -65 33.5t-3 88.5zM377 514h475q-47 366 -119 700q-192 -348 -356 -700z M681 2002.5q12 30.5 46 43.5q38 13 69 -2t42 -45l112 -283q12 -30 -1.5 -55.5t-43.5 -34.5q-28 -9 -54.5 2.5t-39.5 40.5l-129 277q-13 26 -1 56.5z" />
<glyph unicode="&#xc1;" horiz-adv-x="1148" d="M4 102q269 647 641 1309q55 100 133 100q43 0 68.5 -23t38.5 -81q148 -675 190 -1315q4 -54 -22.5 -83t-73.5 -29q-81 0 -84 75q-5 58 -29 291h-563q-52 -111 -129 -295q-29 -71 -102 -71q-42 0 -65 33.5t-3 88.5zM377 514h475q-47 366 -119 700q-192 -348 -356 -700z M637 1696q0 20 8 33l152 282q19 43 69 43q24 0 39 -10q43 -21 43 -64q0 -23 -12 -38l-166 -275q-24 -41 -63 -41q-14 0 -31 10q-39 17 -39 60z" />
<glyph unicode="&#xc2;" horiz-adv-x="1148" d="M4 102q269 647 641 1309q55 100 133 100q43 0 68.5 -23t38.5 -81q148 -675 190 -1315q4 -54 -22.5 -83t-73.5 -29q-81 0 -84 75q-5 58 -29 291h-563q-52 -111 -129 -295q-29 -71 -102 -71q-42 0 -65 33.5t-3 88.5zM377 514h475q-47 366 -119 700q-192 -348 -356 -700z M463 1724q0 30 31 58l270 239q27 23 57 23q31 -3 51 -23l228 -239q24 -24 24 -53q0 -31 -20.5 -52.5t-52.5 -21.5q-26 0 -45 16l-197 197l-231 -197q-21 -16 -48 -16q-28 0 -47.5 20t-19.5 49z" />
<glyph unicode="&#xc3;" horiz-adv-x="1148" d="M4 102q269 647 641 1309q55 100 133 100q43 0 68.5 -23t38.5 -81q148 -675 190 -1315q4 -54 -22.5 -83t-73.5 -29q-81 0 -84 75q-5 58 -29 291h-563q-52 -111 -129 -295q-29 -71 -102 -71q-42 0 -65 33.5t-3 88.5zM377 514h475q-47 366 -119 700q-192 -348 -356 -700z M455 1804q-1 62 58.5 103t137.5 43q50 1 98 -20t90.5 -42t80.5 -20q36 0 58.5 15t40 30t40.5 16q27 0 47 -23.5t22 -56.5q1 -62 -59 -102.5t-137 -40.5q-51 -1 -99 19.5t-89.5 41t-79.5 19.5q-35 0 -58.5 -15.5t-42 -31t-39.5 -15.5q-29 0 -48 23.5t-21 56.5z" />
<glyph unicode="&#xc4;" horiz-adv-x="1148" d="M4 102q269 647 641 1309q55 100 133 100q43 0 68.5 -23t38.5 -81q148 -675 190 -1315q4 -54 -22.5 -83t-73.5 -29q-81 0 -84 75q-5 58 -29 291h-563q-52 -111 -129 -295q-29 -71 -102 -71q-42 0 -65 33.5t-3 88.5zM377 514h475q-47 366 -119 700q-192 -348 -356 -700z M532 1796q0 41 28 69.5t69 28.5q40 0 68 -28.5t28 -69.5q0 -40 -28 -68t-68 -28q-41 0 -69 28t-28 68zM866 1796q0 41 28 69.5t69 28.5q40 0 68 -28.5t28 -69.5q0 -40 -28 -68t-68 -28q-41 0 -69 28t-28 68z" />
<glyph unicode="&#xc5;" horiz-adv-x="1148" d="M4 102q269 647 641 1309q55 100 133 100q43 0 68.5 -23t38.5 -81q148 -675 190 -1315q4 -54 -22.5 -83t-73.5 -29q-81 0 -84 75q-5 58 -29 291h-563q-52 -111 -129 -295q-29 -71 -102 -71q-42 0 -65 33.5t-3 88.5zM377 514h475q-47 366 -119 700q-192 -348 -356 -700z M573 1823q0 100 70 169.5t170 69.5t170 -69.5t70 -169.5t-70 -170t-170 -70t-170 70t-70 170zM668 1823q0 -60 43 -102t102 -42t101 42t42 102q0 61 -42 102t-101 41t-102 -41t-43 -102z" />
<glyph unicode="&#xc6;" horiz-adv-x="1800" d="M-10 82q8 30 18 43q414 617 924 1280q66 90 145 90h705q44 0 67 -29q19 -22 19 -51q0 -41 -30.5 -68.5t-74.5 -27.5h-510l-94 -488h445q44 0 67 -26q17 -20 17 -49q0 -41 -29.5 -67.5t-73.5 -26.5h-459l-94 -486h524q45 0 68 -29q18 -21 18 -51q0 -41 -30 -68.5 t-74 -27.5h-620q-36 0 -62.5 24t-26.5 62q0 5 5 25l47 235h-510q-133 -190 -207 -301q-36 -53 -92 -53q-39 0 -64 26.5t-18 63.5zM487 514h424l150 774q-299 -384 -574 -774z" />
<glyph unicode="&#xc7;" horiz-adv-x="1091" d="M182 434q0 88 19 193l49 272q56 307 203.5 460.5t425.5 153.5q124 0 221 -51q86 -46 86 -102q0 -33 -24 -58.5t-60 -25.5q-9 0 -18 2.5t-15.5 5.5t-21 10.5t-23.5 12.5q-65 36 -150 36q-104 0 -181 -33.5t-128 -100t-82.5 -152t-52.5 -203.5l-47 -262q-16 -81 -16 -160 q0 -282 266 -282q112 0 219 63q8 4 24 13.5t21.5 12.5t16 7.5t17.5 6t15 1.5q35 0 57.5 -25t22.5 -59q0 -55 -78 -98q-145 -87 -311 -90l-8 -66q110 -1 157.5 -43t47.5 -117q0 -77 -72.5 -126.5t-186.5 -49.5q-69 0 -99 11t-30 40q0 43 101 43q71 0 110 23.5t39 60.5 q0 39 -26.5 56t-83.5 22q-35 3 -49.5 11t-14.5 28q0 6 1 14t2.5 18t2.5 15l13 66q-187 21 -273 140t-86 306z" />
<glyph unicode="&#xc8;" horiz-adv-x="1107" d="M129 86q0 17 2 25l248 1288q9 46 38 71t68 25h650q25 0 53 -20q33 -26 33 -60q0 -41 -30.5 -68.5t-76.5 -27.5h-563l-92 -488h495q29 0 54 -18q30 -23 30 -57q0 -41 -29 -67.5t-73 -26.5h-512l-92 -486h575q28 0 56 -20q30 -23 30 -60q0 -41 -30 -68.5t-74 -27.5h-672 q-37 0 -62.5 23.5t-25.5 62.5zM667 2002.5q12 30.5 46 43.5q38 13 68.5 -2t41.5 -45l113 -283q12 -30 -1.5 -55.5t-43.5 -34.5q-28 -9 -54.5 2.5t-39.5 40.5l-129 277q-13 26 -1 56.5z" />
<glyph unicode="&#xc9;" horiz-adv-x="1107" d="M129 86q0 17 2 25l248 1288q9 46 38 71t68 25h650q25 0 53 -20q33 -26 33 -60q0 -41 -30.5 -68.5t-76.5 -27.5h-563l-92 -488h495q29 0 54 -18q30 -23 30 -57q0 -41 -29 -67.5t-73 -26.5h-512l-92 -486h575q28 0 56 -20q30 -23 30 -60q0 -41 -30 -68.5t-74 -27.5h-672 q-37 0 -62.5 23.5t-25.5 62.5zM727 1696q0 20 8 33l152 282q19 43 69 43q24 0 39 -10q43 -21 43 -64q0 -23 -12 -38l-166 -275q-24 -41 -63 -41q-14 0 -31 10q-39 17 -39 60z" />
<glyph unicode="&#xca;" horiz-adv-x="1107" d="M129 86q0 17 2 25l248 1288q9 46 38 71t68 25h650q25 0 53 -20q33 -26 33 -60q0 -41 -30.5 -68.5t-76.5 -27.5h-563l-92 -488h495q29 0 54 -18q30 -23 30 -57q0 -41 -29 -67.5t-73 -26.5h-512l-92 -486h575q28 0 56 -20q30 -23 30 -60q0 -41 -30 -68.5t-74 -27.5h-672 q-37 0 -62.5 23.5t-25.5 62.5zM502 1724q0 31 30 58l271 239q27 23 57 23q31 -3 51 -23l228 -239q24 -24 24 -53q0 -31 -20.5 -52.5t-52.5 -21.5q-27 0 -46 16l-196 197l-232 -197q-21 -16 -47 -16q-28 0 -47.5 20t-19.5 49z" />
<glyph unicode="&#xcb;" horiz-adv-x="1107" d="M129 86q0 17 2 25l248 1288q9 46 38 71t68 25h650q25 0 53 -20q33 -26 33 -60q0 -41 -30.5 -68.5t-76.5 -27.5h-563l-92 -488h495q29 0 54 -18q30 -23 30 -57q0 -41 -29 -67.5t-73 -26.5h-512l-92 -486h575q28 0 56 -20q30 -23 30 -60q0 -41 -30 -68.5t-74 -27.5h-672 q-37 0 -62.5 23.5t-25.5 62.5zM563 1796q0 41 27.5 69.5t68.5 28.5q40 0 68.5 -28.5t28.5 -69.5q0 -40 -28.5 -68t-68.5 -28q-41 0 -68.5 28t-27.5 68zM897 1796q0 41 27.5 69.5t68.5 28.5q40 0 68.5 -28.5t28.5 -69.5q0 -40 -28.5 -68t-68.5 -28q-41 0 -68.5 28t-27.5 68z " />
<glyph unicode="&#xcc;" horiz-adv-x="530" d="M129 68q0 16 2 24l256 1331q9 42 36 66t62 24q37 0 62.5 -24t25.5 -64q0 -14 -2 -22l-256 -1333q-9 -40 -36 -64t-62 -24q-37 0 -62.5 23.5t-25.5 62.5zM433 2002.5q12 30.5 46 43.5q38 13 69 -2t42 -45l112 -283q12 -30 -1.5 -55.5t-43.5 -34.5q-28 -9 -54.5 2.5 t-39.5 40.5l-129 277q-13 26 -1 56.5z" />
<glyph unicode="&#xcd;" horiz-adv-x="530" d="M129 68q0 16 2 24l256 1331q9 42 36 66t62 24q37 0 62.5 -24t25.5 -64q0 -14 -2 -22l-256 -1333q-9 -40 -36 -64t-62 -24q-37 0 -62.5 23.5t-25.5 62.5zM377 1696q0 20 8 33l152 282q19 43 69 43q24 0 39 -10q43 -21 43 -64q0 -23 -12 -38l-166 -275q-24 -41 -64 -41 q-13 0 -30 10q-39 17 -39 60z" />
<glyph unicode="&#xce;" horiz-adv-x="530" d="M129 68q0 16 2 24l256 1331q9 42 36 66t62 24q37 0 62.5 -24t25.5 -64q0 -14 -2 -22l-256 -1333q-9 -40 -36 -64t-62 -24q-37 0 -62.5 23.5t-25.5 62.5zM205 1724q0 30 31 58l270 239q27 23 57 23q31 -3 51 -23l228 -239q24 -24 24 -53q0 -31 -20.5 -52.5t-52.5 -21.5 q-26 0 -45 16l-197 197l-232 -197q-21 -16 -47 -16q-28 0 -47.5 20t-19.5 49z" />
<glyph unicode="&#xcf;" horiz-adv-x="530" d="M129 68q0 16 2 24l256 1331q9 42 36 66t62 24q37 0 62.5 -24t25.5 -64q0 -14 -2 -22l-256 -1333q-9 -40 -36 -64t-62 -24q-37 0 -62.5 23.5t-25.5 62.5zM250 1796q0 41 27.5 69.5t68.5 28.5q40 0 68 -28.5t28 -69.5q0 -40 -28 -68t-68 -28q-41 0 -68.5 28t-27.5 68z M584 1796q0 41 27.5 69.5t68.5 28.5q40 0 68 -28.5t28 -69.5q0 -40 -28 -68t-68 -28q-41 0 -68.5 28t-27.5 68z" />
<glyph unicode="&#xd0;" horiz-adv-x="1357" d="M70 725q0 40 29 67t73 27h131l111 580q9 46 38 71t68 25h344q108 0 190.5 -30t132.5 -77.5t81.5 -114t43 -131.5t11.5 -138q0 -83 -18 -193l-52 -254q-108 -557 -630 -557h-373q-35 0 -60.5 24t-25.5 62q0 17 2 25l104 538h-116q-44 0 -66 25q-18 21 -18 51zM365 172h262 q92 0 164 24t118 62t80 96t52 113.5t32 128.5l51 262q15 81 15 141q0 144 -70.5 232t-224.5 88h-258l-97 -500h154q43 0 64 -24q20 -20 20 -54q0 -40 -29 -66t-73 -26h-168z" />
<glyph unicode="&#xd1;" horiz-adv-x="1355" d="M127 63q0 15 2 23l256 1335q9 46 36.5 69t65.5 23q59 0 84 -65l445 -1088l205 1061q9 45 36 68.5t66 23.5q35 0 56.5 -22t21.5 -61q0 -7 -4 -23l-258 -1339q-7 -41 -33.5 -63.5t-63.5 -22.5q-63 0 -88 61l-444 1087l-205 -1062q-7 -40 -33.5 -63t-60.5 -23 q-35 0 -59.5 22t-24.5 59zM616 1804q-1 62 59 103t138 43q50 1 98 -20t90 -42t80 -20q28 0 49 9.5t31 20.5t25.5 20.5t34.5 10.5q27 0 47 -23.5t22 -56.5q1 -62 -59 -102.5t-137 -40.5q-51 -1 -99 19.5t-90 41t-80 19.5q-28 0 -49 -9.5t-31.5 -21.5t-26 -21.5t-32.5 -9.5 q-29 0 -48.5 23.5t-21.5 56.5z" />
<glyph unicode="&#xd2;" horiz-adv-x="1255" d="M180 438q0 77 23 211l47 248q13 70 29 129.5t41.5 124t57.5 116t78 98.5t101.5 79t130 50.5t160.5 18.5q107 0 187 -38t125.5 -104t67.5 -147.5t21 -176.5q0 -91 -16 -179l-53 -282q-13 -70 -29.5 -129.5t-42.5 -122.5t-58 -113.5t-78 -96t-101 -76t-128.5 -48.5 t-158.5 -18q-107 0 -186.5 35.5t-126 99.5t-68.5 144t-23 177zM369 444q0 -292 227 -292q78 0 140 24.5t103 64t72.5 99.5t49.5 121t32 139l56 297q14 71 14 154q0 129 -56.5 209.5t-170.5 80.5q-80 0 -143 -25.5t-104.5 -66t-73 -102.5t-49.5 -123.5t-32 -140.5l-49 -267 q-16 -94 -16 -172zM812 2002.5q12 30.5 46 43.5q38 13 69 -2t42 -45l112 -283q12 -30 -1.5 -55.5t-43.5 -34.5q-28 -9 -54.5 2.5t-39.5 40.5l-129 277q-13 26 -1 56.5z" />
<glyph unicode="&#xd3;" horiz-adv-x="1255" d="M180 438q0 77 23 211l47 248q13 70 29 129.5t41.5 124t57.5 116t78 98.5t101.5 79t130 50.5t160.5 18.5q107 0 187 -38t125.5 -104t67.5 -147.5t21 -176.5q0 -91 -16 -179l-53 -282q-13 -70 -29.5 -129.5t-42.5 -122.5t-58 -113.5t-78 -96t-101 -76t-128.5 -48.5 t-158.5 -18q-107 0 -186.5 35.5t-126 99.5t-68.5 144t-23 177zM369 444q0 -292 227 -292q78 0 140 24.5t103 64t72.5 99.5t49.5 121t32 139l56 297q14 71 14 154q0 129 -56.5 209.5t-170.5 80.5q-80 0 -143 -25.5t-104.5 -66t-73 -102.5t-49.5 -123.5t-32 -140.5l-49 -267 q-16 -94 -16 -172zM748 1696q0 20 8 33l151 282q19 43 70 43q24 0 39 -10q43 -21 43 -64q0 -23 -12 -38l-166 -275q-24 -41 -64 -41q-14 0 -31 10q-38 17 -38 60z" />
<glyph unicode="&#xd4;" horiz-adv-x="1255" d="M180 438q0 77 23 211l47 248q13 70 29 129.5t41.5 124t57.5 116t78 98.5t101.5 79t130 50.5t160.5 18.5q107 0 187 -38t125.5 -104t67.5 -147.5t21 -176.5q0 -91 -16 -179l-53 -282q-13 -70 -29.5 -129.5t-42.5 -122.5t-58 -113.5t-78 -96t-101 -76t-128.5 -48.5 t-158.5 -18q-107 0 -186.5 35.5t-126 99.5t-68.5 144t-23 177zM369 444q0 -292 227 -292q78 0 140 24.5t103 64t72.5 99.5t49.5 121t32 139l56 297q14 71 14 154q0 129 -56.5 209.5t-170.5 80.5q-80 0 -143 -25.5t-104.5 -66t-73 -102.5t-49.5 -123.5t-32 -140.5l-49 -267 q-16 -94 -16 -172zM571 1724q0 30 31 58l270 239q27 23 58 23q31 -3 51 -23l227 -239q25 -25 25 -53q0 -31 -21 -52.5t-53 -21.5q-26 0 -45 16l-196 197l-232 -197q-21 -16 -47 -16q-28 0 -48 20t-20 49z" />
<glyph unicode="&#xd5;" horiz-adv-x="1255" d="M180 438q0 77 23 211l47 248q13 70 29 129.5t41.5 124t57.5 116t78 98.5t101.5 79t130 50.5t160.5 18.5q107 0 187 -38t125.5 -104t67.5 -147.5t21 -176.5q0 -91 -16 -179l-53 -282q-13 -70 -29.5 -129.5t-42.5 -122.5t-58 -113.5t-78 -96t-101 -76t-128.5 -48.5 t-158.5 -18q-107 0 -186.5 35.5t-126 99.5t-68.5 144t-23 177zM369 444q0 -292 227 -292q78 0 140 24.5t103 64t72.5 99.5t49.5 121t32 139l56 297q14 71 14 154q0 129 -56.5 209.5t-170.5 80.5q-80 0 -143 -25.5t-104.5 -66t-73 -102.5t-49.5 -123.5t-32 -140.5l-49 -267 q-16 -94 -16 -172zM563 1804q-1 62 59 103t138 43q50 1 98 -20t90 -42t80 -20q36 0 58.5 15t40 30t40.5 16q28 0 48 -23.5t22 -56.5q1 -62 -59 -102.5t-138 -40.5q-51 -1 -99 19.5t-89.5 41t-79.5 19.5q-28 0 -49 -9.5t-31.5 -21.5t-26 -21.5t-32.5 -9.5q-29 0 -48.5 23.5 t-21.5 56.5z" />
<glyph unicode="&#xd6;" horiz-adv-x="1255" d="M180 438q0 77 23 211l47 248q13 70 29 129.5t41.5 124t57.5 116t78 98.5t101.5 79t130 50.5t160.5 18.5q107 0 187 -38t125.5 -104t67.5 -147.5t21 -176.5q0 -91 -16 -179l-53 -282q-13 -70 -29.5 -129.5t-42.5 -122.5t-58 -113.5t-78 -96t-101 -76t-128.5 -48.5 t-158.5 -18q-107 0 -186.5 35.5t-126 99.5t-68.5 144t-23 177zM369 444q0 -292 227 -292q78 0 140 24.5t103 64t72.5 99.5t49.5 121t32 139l56 297q14 71 14 154q0 129 -56.5 209.5t-170.5 80.5q-80 0 -143 -25.5t-104.5 -66t-73 -102.5t-49.5 -123.5t-32 -140.5l-49 -267 q-16 -94 -16 -172zM625 1796q0 41 27.5 69.5t68.5 28.5q40 0 68 -28.5t28 -69.5q0 -40 -28 -68t-68 -28q-41 0 -68.5 28t-27.5 68zM958 1796q0 41 28 69.5t69 28.5q40 0 68 -28.5t28 -69.5q0 -40 -28 -68t-68 -28q-41 0 -69 28t-28 68z" />
<glyph unicode="&#xd7;" horiz-adv-x="907" d="M123 315q0 37 31 62l229 198l-143 195q-24 35 -15 66q9 30 33 45q36 26 69 19.5t58 -40.5l127 -172l213 186q31 28 67.5 26t61.5 -34q18 -18 18 -49q0 -34 -30 -61l-232 -203l138 -188q25 -31 14 -66q-5 -25 -31 -47q-37 -25 -70.5 -19t-58.5 41l-121 168l-213 -184 q-31 -28 -67.5 -26t-61.5 34q-16 24 -16 49z" />
<glyph unicode="&#xd8;" horiz-adv-x="1255" d="M180 438q0 77 23 211l47 248q13 70 29 129.5t41.5 124t57.5 116t78 98.5t101.5 79t130 50.5t160.5 18.5q142 0 237 -69l62 98q12 19 34 24t42 -7q24 -12 24 -43q0 -20 -8 -31l-74 -121q87 -124 84 -317q0 -91 -16 -179l-53 -282q-13 -70 -29.5 -129.5t-42.5 -122.5 t-58 -113.5t-78 -96t-101 -76t-128.5 -48.5t-158.5 -18q-146 0 -240 65l-61 -98q-12 -19 -34.5 -24t-41.5 7q-20 12 -25 34t6 40l76 121q-84 117 -84 311zM369 444q0 -75 14 -127l602 967q-57 57 -149 57q-80 0 -143 -25.5t-104.5 -66t-73 -102.5t-49.5 -123.5t-32 -140.5 l-49 -267q-16 -94 -16 -172zM442 207q58 -55 154 -55q78 0 140 24.5t103 64t72.5 99.5t49.5 121t32 139l56 297q14 71 14 154q0 63 -16 125z" />
<glyph unicode="&#xd9;" horiz-adv-x="1290" d="M174 420q3 102 29 233l147 770q7 42 35 66t64 24t62 -24t26 -64q0 -2 -5 -22l-149 -785q-23 -121 -23 -192q0 -279 248 -279q85 0 150.5 24.5t108 63t74.5 102t50 126.5t35 151l156 809q7 41 35 65.5t63 24.5q37 0 62.5 -24t25.5 -64q0 -14 -2 -22l-158 -823 q-19 -100 -45.5 -180t-74.5 -161t-112 -135t-161 -88t-219 -34q-213 0 -318.5 117.5t-103.5 320.5zM740 2002.5q12 30.5 46 43.5q38 13 69 -2t42 -45l113 -283q12 -30 -1.5 -55.5t-43.5 -34.5q-28 -9 -55 2.5t-40 40.5l-129 277q-13 26 -1 56.5z" />
<glyph unicode="&#xda;" horiz-adv-x="1290" d="M174 420q3 102 29 233l147 770q7 42 35 66t64 24t62 -24t26 -64q0 -2 -5 -22l-149 -785q-23 -121 -23 -192q0 -279 248 -279q85 0 150.5 24.5t108 63t74.5 102t50 126.5t35 151l156 809q7 41 35 65.5t63 24.5q37 0 62.5 -24t25.5 -64q0 -14 -2 -22l-158 -823 q-19 -100 -45.5 -180t-74.5 -161t-112 -135t-161 -88t-219 -34q-213 0 -318.5 117.5t-103.5 320.5zM778 1696q0 20 8 33l152 282q19 43 70 43q24 0 39 -10q43 -21 43 -64q0 -22 -13 -38l-166 -275q-24 -41 -63 -41q-14 0 -31 10q-39 17 -39 60z" />
<glyph unicode="&#xdb;" horiz-adv-x="1290" d="M174 420q3 102 29 233l147 770q7 42 35 66t64 24t62 -24t26 -64q0 -2 -5 -22l-149 -785q-23 -121 -23 -192q0 -279 248 -279q85 0 150.5 24.5t108 63t74.5 102t50 126.5t35 151l156 809q7 41 35 65.5t63 24.5q37 0 62.5 -24t25.5 -64q0 -14 -2 -22l-158 -823 q-19 -100 -45.5 -180t-74.5 -161t-112 -135t-161 -88t-219 -34q-213 0 -318.5 117.5t-103.5 320.5zM561 1724q0 30 31 58l270 239q27 23 58 23q31 -3 51 -23l227 -239q25 -25 25 -53q0 -31 -21 -52.5t-53 -21.5q-26 0 -45 16l-197 197l-231 -197q-21 -16 -47 -16 q-28 0 -48 20t-20 49z" />
<glyph unicode="&#xdc;" horiz-adv-x="1290" d="M174 420q3 102 29 233l147 770q7 42 35 66t64 24t62 -24t26 -64q0 -2 -5 -22l-149 -785q-23 -121 -23 -192q0 -279 248 -279q85 0 150.5 24.5t108 63t74.5 102t50 126.5t35 151l156 809q7 41 35 65.5t63 24.5q37 0 62.5 -24t25.5 -64q0 -14 -2 -22l-158 -823 q-19 -100 -45.5 -180t-74.5 -161t-112 -135t-161 -88t-219 -34q-213 0 -318.5 117.5t-103.5 320.5zM633 1796q0 41 27.5 69.5t68.5 28.5q40 0 68 -28.5t28 -69.5q0 -40 -28 -68t-68 -28q-41 0 -68.5 28t-27.5 68zM967 1796q0 41 27.5 69.5t68.5 28.5q40 0 68 -28.5t28 -69.5 q0 -40 -28 -68t-68 -28q-41 0 -68.5 28t-27.5 68z" />
<glyph unicode="&#xdd;" horiz-adv-x="995" d="M209 1399q-11 50 18.5 82t73.5 32q30 0 54.5 -18t31.5 -53q88 -373 191 -699q253 364 473 727q22 43 71 43q46 0 72.5 -39.5t-0.5 -89.5q-248 -411 -555 -847l-90 -467q-7 -40 -35 -64t-63 -24q-37 0 -63 24t-26 62l3 24l88 449q-158 478 -244 858zM608 1696q0 20 8 33 l152 282q19 43 70 43q24 0 39 -10q43 -21 43 -64q0 -22 -13 -38l-166 -275q-24 -41 -63 -41q-14 0 -31 10q-39 17 -39 60z" />
<glyph unicode="&#xde;" horiz-adv-x="1183" d="M59 -274q0 6 4 22l349 1829q7 40 35 64t63 24q37 0 62.5 -23.5t25.5 -62.5l-2 -25l-78 -403h275q103 0 181 -31t123 -85t67 -119.5t22 -141.5q0 -55 -8 -102l-11 -54q-31 -177 -157 -273.5t-340 -96.5h-324l-100 -520q-7 -41 -34.5 -64.5t-64.5 -23.5q-36 0 -62 23.5 t-26 62.5zM379 418h289q267 0 315 223l10 41q8 54 8 78q0 98 -58.5 157.5t-174.5 59.5h-283z" />
<glyph unicode="&#xdf;" horiz-adv-x="1167" d="M76 -41l198 1022q51 259 182 384.5t330 125.5q100 0 177 -36t116.5 -112t18.5 -178q-12 -64 -41.5 -112.5t-67 -76.5t-80 -48.5t-84 -34t-76 -26t-58.5 -31.5t-29 -45q-8 -46 27.5 -71t111.5 -48q37 -10 67.5 -22t62 -29t54 -37t42 -47t28.5 -58t12 -70.5t-8 -84.5 q-16 -87 -60.5 -153t-108.5 -105.5t-140 -58.5t-164 -19q-128 0 -213 35q-30 12 -36.5 43.5t11.5 58.5q13 21 35 35.5t47 7.5q110 -25 188 -25q112 0 182.5 48t88.5 143q7 29 4.5 53t-10 42.5t-22 33.5t-32 26.5t-40 21.5t-46 18t-49.5 17q-49 16 -73 25q-74 28 -112.5 79.5 t-25.5 119.5q11 57 46 97t79.5 59t96 39t96 38.5t79.5 58t46 95.5q16 88 -29 132t-127 44q-247 0 -315 -352l-199 -1022q-7 -38 -38.5 -63t-67.5 -25q-37 0 -59 25t-15 63z" />
<glyph unicode="&#xe0;" horiz-adv-x="1046" d="M123 303q0 60 16 154l25 143q14 79 33.5 141.5t53.5 121.5t79 98t112.5 62.5t151.5 23.5q137 0 240 -80l8 34q6 22 27.5 34t48.5 12q34 0 57.5 -21.5t23.5 -58.5l-2 -23l-135 -690q-8 -65 -1 -87t34 -44q31 -24 25 -62q-14 -73 -99 -73q-58 0 -100 45q-16 20 -23 39 q-133 -84 -260 -84q-152 0 -233.5 83.5t-81.5 231.5zM299 330q-2 -89 42.5 -138t129.5 -49q96 0 211 84l113 584q-37 39 -88.5 60.5t-102.5 21.5q-65 0 -112.5 -22.5t-76.5 -65t-45.5 -88.5t-27.5 -109l-37 -196q-6 -44 -6 -82zM540 1594.5q12 30.5 46 43.5q38 13 68.5 -2 t41.5 -45l113 -282q12 -30 -1.5 -55.5t-43.5 -34.5q-28 -9 -54.5 2.5t-39.5 40.5l-129 276q-13 26 -1 56.5z" />
<glyph unicode="&#xe1;" horiz-adv-x="1046" d="M123 303q0 60 16 154l25 143q14 79 33.5 141.5t53.5 121.5t79 98t112.5 62.5t151.5 23.5q137 0 240 -80l8 34q6 22 27.5 34t48.5 12q34 0 57.5 -21.5t23.5 -58.5l-2 -23l-135 -690q-8 -65 -1 -87t34 -44q31 -24 25 -62q-14 -73 -99 -73q-58 0 -100 45q-16 20 -23 39 q-133 -84 -260 -84q-152 0 -233.5 83.5t-81.5 231.5zM299 330q-2 -89 42.5 -138t129.5 -49q96 0 211 84l113 584q-37 39 -88.5 60.5t-102.5 21.5q-65 0 -112.5 -22.5t-76.5 -65t-45.5 -88.5t-27.5 -109l-37 -196q-6 -44 -6 -82zM532 1286q0 18 9 33l151 283q19 43 70 43 q22 0 39 -11q43 -21 43 -63q0 -23 -13 -39l-165 -275q-24 -40 -64 -40q-14 0 -31 10q-39 17 -39 59z" />
<glyph unicode="&#xe2;" horiz-adv-x="1046" d="M123 303q0 60 16 154l25 143q14 79 33.5 141.5t53.5 121.5t79 98t112.5 62.5t151.5 23.5q137 0 240 -80l8 34q6 22 27.5 34t48.5 12q34 0 57.5 -21.5t23.5 -58.5l-2 -23l-135 -690q-8 -65 -1 -87t34 -44q31 -24 25 -62q-14 -73 -99 -73q-58 0 -100 45q-16 20 -23 39 q-133 -84 -260 -84q-152 0 -233.5 83.5t-81.5 231.5zM299 330q-2 -89 42.5 -138t129.5 -49q96 0 211 84l113 584q-37 39 -88.5 60.5t-102.5 21.5q-65 0 -112.5 -22.5t-76.5 -65t-45.5 -88.5t-27.5 -109l-37 -196q-6 -44 -6 -82zM340 1315q0 29 31 57l270 240q26 22 57 22 q33 -3 52 -22l227 -240q24 -24 24 -53q0 -31 -20.5 -52.5t-52.5 -21.5q-25 0 -45 17l-197 196l-231 -196q-23 -17 -47 -17q-28 0 -48 20.5t-20 49.5z" />
<glyph unicode="&#xe3;" horiz-adv-x="1046" d="M123 303q0 60 16 154l25 143q14 79 33.5 141.5t53.5 121.5t79 98t112.5 62.5t151.5 23.5q137 0 240 -80l8 34q6 22 27.5 34t48.5 12q34 0 57.5 -21.5t23.5 -58.5l-2 -23l-135 -690q-8 -65 -1 -87t34 -44q31 -24 25 -62q-14 -73 -99 -73q-58 0 -100 45q-16 20 -23 39 q-133 -84 -260 -84q-152 0 -233.5 83.5t-81.5 231.5zM299 330q-2 -89 42.5 -138t129.5 -49q96 0 211 84l113 584q-37 39 -88.5 60.5t-102.5 21.5q-65 0 -112.5 -22.5t-76.5 -65t-45.5 -88.5t-27.5 -109l-37 -196q-6 -44 -6 -82zM332 1393q-1 62 58.5 102.5t137.5 42.5 q50 1 98 -20t90.5 -42t80.5 -20q28 0 49 9.5t31 21t25 21t34 10.5q28 0 48 -23.5t22 -56.5q1 -62 -59.5 -103t-137.5 -41q-51 -1 -99 19.5t-89.5 41t-79.5 19.5q-28 0 -49 -9.5t-32 -21t-26.5 -21t-32.5 -9.5q-29 0 -48 23.5t-21 56.5z" />
<glyph unicode="&#xe4;" horiz-adv-x="1046" d="M123 303q0 60 16 154l25 143q14 79 33.5 141.5t53.5 121.5t79 98t112.5 62.5t151.5 23.5q137 0 240 -80l8 34q6 22 27.5 34t48.5 12q34 0 57.5 -21.5t23.5 -58.5l-2 -23l-135 -690q-8 -65 -1 -87t34 -44q31 -24 25 -62q-14 -73 -99 -73q-58 0 -100 45q-16 20 -23 39 q-133 -84 -260 -84q-152 0 -233.5 83.5t-81.5 231.5zM299 330q-2 -89 42.5 -138t129.5 -49q96 0 211 84l113 584q-37 39 -88.5 60.5t-102.5 21.5q-65 0 -112.5 -22.5t-76.5 -65t-45.5 -88.5t-27.5 -109l-37 -196q-6 -44 -6 -82zM375 1376q0 42 27.5 70.5t68.5 28.5 q40 0 68 -29t28 -70q0 -40 -28 -68t-68 -28q-41 0 -68.5 28t-27.5 68zM709 1376q0 42 27.5 70.5t68.5 28.5q40 0 68 -29t28 -70q0 -40 -28 -68t-68 -28q-41 0 -68.5 28t-27.5 68z" />
<glyph unicode="&#xe5;" horiz-adv-x="1046" d="M123 303q0 60 16 154l25 143q14 79 33.5 141.5t53.5 121.5t79 98t112.5 62.5t151.5 23.5q137 0 240 -80l8 34q6 22 27.5 34t48.5 12q34 0 57.5 -21.5t23.5 -58.5l-2 -23l-135 -690q-8 -65 -1 -87t34 -44q31 -24 25 -62q-14 -73 -99 -73q-58 0 -100 45q-16 20 -23 39 q-133 -84 -260 -84q-152 0 -233.5 83.5t-81.5 231.5zM299 330q-2 -89 42.5 -138t129.5 -49q96 0 211 84l113 584q-37 39 -88.5 60.5t-102.5 21.5q-65 0 -112.5 -22.5t-76.5 -65t-45.5 -88.5t-27.5 -109l-37 -196q-6 -44 -6 -82zM422 1413q0 100 70 170t170 70t169.5 -70 t69.5 -170t-69.5 -169.5t-169.5 -69.5t-170 69.5t-70 169.5zM516 1413q0 -59 43.5 -101t102.5 -42t101 41.5t42 101.5q0 61 -42 102t-101 41q-60 0 -103 -41t-43 -102z" />
<glyph unicode="&#xe6;" horiz-adv-x="1572" d="M123 301q0 56 16 154l25 141q14 80 33.5 142.5t53.5 121.5t79 98t112.5 62.5t151.5 23.5q138 0 240 -79l8 32q4 23 26 35t50 12q22 0 38 -11t15 -27l-2 -39q103 77 248 77q166 0 247.5 -94t81.5 -250q0 -58 -8 -110l-10 -64q-5 -29 -27.5 -47t-56.5 -18h-537l-6 -37 q-6 -30 -6 -76q0 -95 52 -153t143 -58q88 0 182 33q52 18 59 18q33 0 52.5 -20t19.5 -55q0 -51 -64 -76q-138 -51 -276 -51q-166 0 -244 120l-18 -83q-8 -37 -66 -37q-26 0 -46 13t-19 32l2 22q-122 -67 -234 -67q-152 0 -233.5 83.5t-81.5 231.5zM297 328q0 -89 44 -138 t130 -49q96 0 211 84l113 584q-37 39 -88.5 59.5t-102.5 20.5q-65 0 -112.5 -22t-76.5 -64.5t-46 -88t-29 -108.5l-35 -198q-8 -58 -8 -80zM932 602h438l4 25q6 43 6 84q0 91 -42 139.5t-124 48.5q-228 0 -278 -270z" />
<glyph unicode="&#xe7;" horiz-adv-x="870" d="M133 356q0 43 8 97l23 143q34 206 153 328.5t322 122.5q142 0 229 -50q45 -27 45 -71q0 -34 -22 -57t-57 -23q-18 0 -47.5 14t-57.5 21q-36 10 -98 10q-119 0 -195.5 -84.5t-101.5 -235.5l-23 -141q-4 -23 -4 -65q0 -107 53 -165.5t164 -58.5q62 0 117 15q22 6 55.5 20 t53.5 14q26 0 45.5 -16t19.5 -47q0 -32 -17.5 -52t-56.5 -38q-86 -42 -213 -49l-8 -72q110 -1 157.5 -43t47.5 -117q0 -77 -72 -126.5t-186 -49.5q-69 0 -99 11t-30 40q0 43 100 43q71 0 110.5 23.5t39.5 60.5q0 39 -27 56t-84 22q-35 3 -49 11t-14 28q0 6 1 14t2.5 18 t2.5 15l12 70q-150 15 -225.5 109.5t-73.5 254.5z" />
<glyph unicode="&#xe8;" horiz-adv-x="980" d="M131 356q0 37 8 107l27 155q15 89 49 164t89 135.5t137 95t184 34.5q166 0 247.5 -94.5t81.5 -250.5q0 -59 -8 -108l-10 -66q-5 -29 -27.5 -47t-56.5 -18h-537l-6 -37q-6 -30 -6 -76q0 -95 52 -153t143 -58q88 0 182 33q52 18 59 18q33 0 52.5 -20t19.5 -55 q0 -51 -63 -76q-138 -51 -277 -51q-86 0 -152.5 29t-106.5 80.5t-60.5 117t-20.5 141.5zM340 604h438l4 25q6 43 6 84q0 91 -42 139.5t-125 48.5q-226 0 -277 -268zM519 1594.5q12 30.5 46 43.5q38 13 69 -2t42 -45l112 -282q12 -30 -1.5 -55.5t-43.5 -34.5 q-28 -9 -54.5 2.5t-39.5 40.5l-129 276q-13 26 -1 56.5z" />
<glyph unicode="&#xe9;" horiz-adv-x="980" d="M131 356q0 37 8 107l27 155q15 89 49 164t89 135.5t137 95t184 34.5q166 0 247.5 -94.5t81.5 -250.5q0 -59 -8 -108l-10 -66q-5 -29 -27.5 -47t-56.5 -18h-537l-6 -37q-6 -30 -6 -76q0 -95 52 -153t143 -58q88 0 182 33q52 18 59 18q33 0 52.5 -20t19.5 -55 q0 -51 -63 -76q-138 -51 -277 -51q-86 0 -152.5 29t-106.5 80.5t-60.5 117t-20.5 141.5zM340 604h438l4 25q6 43 6 84q0 91 -42 139.5t-125 48.5q-226 0 -277 -268zM512 1286q0 20 8 33l152 283q19 43 69 43q23 0 39 -11q43 -21 43 -63q0 -24 -12 -39l-166 -275 q-24 -40 -63 -40q-14 0 -31 10q-39 17 -39 59z" />
<glyph unicode="&#xea;" horiz-adv-x="980" d="M131 356q0 37 8 107l27 155q15 89 49 164t89 135.5t137 95t184 34.5q166 0 247.5 -94.5t81.5 -250.5q0 -59 -8 -108l-10 -66q-5 -29 -27.5 -47t-56.5 -18h-537l-6 -37q-6 -30 -6 -76q0 -95 52 -153t143 -58q88 0 182 33q52 18 59 18q33 0 52.5 -20t19.5 -55 q0 -51 -63 -76q-138 -51 -277 -51q-86 0 -152.5 29t-106.5 80.5t-60.5 117t-20.5 141.5zM340 604h438l4 25q6 43 6 84q0 91 -42 139.5t-125 48.5q-226 0 -277 -268zM342 1315q0 29 31 57l270 240q26 22 57 22q33 -3 52 -22l227 -240q25 -25 25 -53q0 -31 -21 -52.5 t-53 -21.5q-25 0 -45 17l-197 196l-231 -196q-23 -17 -47 -17q-28 0 -48 20.5t-20 49.5z" />
<glyph unicode="&#xeb;" horiz-adv-x="980" d="M131 356q0 37 8 107l27 155q15 89 49 164t89 135.5t137 95t184 34.5q166 0 247.5 -94.5t81.5 -250.5q0 -59 -8 -108l-10 -66q-5 -29 -27.5 -47t-56.5 -18h-537l-6 -37q-6 -30 -6 -76q0 -95 52 -153t143 -58q88 0 182 33q52 18 59 18q33 0 52.5 -20t19.5 -55 q0 -51 -63 -76q-138 -51 -277 -51q-86 0 -152.5 29t-106.5 80.5t-60.5 117t-20.5 141.5zM340 604h438l4 25q6 43 6 84q0 91 -42 139.5t-125 48.5q-226 0 -277 -268zM385 1376q0 42 27.5 70.5t68.5 28.5q40 0 68.5 -29t28.5 -70q0 -40 -28.5 -68t-68.5 -28q-41 0 -68.5 28 t-27.5 68zM719 1376q0 42 27.5 70.5t68.5 28.5q40 0 68 -29t28 -70q0 -40 -28 -68t-68 -28q-41 0 -68.5 28t-27.5 68z" />
<glyph unicode="&#xec;" horiz-adv-x="466" d="M100 68q0 14 2 22l168 873q7 39 33 61.5t59 22.5q34 0 58 -21.5t24 -58.5q0 -15 -2 -23l-168 -872q-7 -39 -33 -61.5t-59 -22.5q-34 0 -58 21.5t-24 58.5zM318.5 1594.5q12.5 30.5 46.5 43.5q38 13 68.5 -2t41.5 -45l113 -282q12 -30 -1.5 -55.5t-43.5 -34.5 q-28 -9 -54.5 2.5t-39.5 40.5l-130 276q-13 26 -0.5 56.5z" />
<glyph unicode="&#xed;" horiz-adv-x="466" d="M100 68q0 14 2 22l168 873q7 39 33 61.5t59 22.5q34 0 58 -21.5t24 -58.5q0 -15 -2 -23l-168 -872q-7 -39 -33 -61.5t-59 -22.5q-34 0 -58 21.5t-24 58.5zM319 1286q0 18 9 33l151 283q19 43 70 43q23 0 39 -11q43 -21 43 -63q0 -23 -13 -39l-165 -275q-24 -40 -64 -40 q-14 0 -31 10q-39 17 -39 59z" />
<glyph unicode="&#xee;" horiz-adv-x="466" d="M66 1315q0 30 30 57l271 240q26 22 57 22q32 -3 51 -22l227 -240q25 -25 25 -53q0 -31 -21 -52.5t-53 -21.5q-25 0 -45 17l-196 196l-232 -196q-23 -17 -47 -17q-28 0 -47.5 20.5t-19.5 49.5zM100 68q0 14 2 22l168 873q7 39 33 61.5t59 22.5q34 0 58 -21.5t24 -58.5 q0 -15 -2 -23l-168 -872q-7 -39 -33 -61.5t-59 -22.5q-34 0 -58 21.5t-24 58.5z" />
<glyph unicode="&#xef;" horiz-adv-x="466" d="M100 68q0 14 2 22l168 873q7 39 33 61.5t59 22.5q34 0 58 -21.5t24 -58.5q0 -15 -2 -23l-168 -872q-7 -39 -33 -61.5t-59 -22.5q-34 0 -58 21.5t-24 58.5zM139 1376q0 41 28 70t69 29q40 0 68 -29t28 -70q0 -40 -28 -68t-68 -28q-41 0 -69 28t-28 68zM473 1376 q0 42 27.5 70.5t68.5 28.5q40 0 68.5 -29t28.5 -70q0 -40 -28.5 -68t-68.5 -28q-41 0 -68.5 28t-27.5 68z" />
<glyph unicode="&#xf0;" horiz-adv-x="1105" d="M119 424q0 109 45 201t117.5 150.5t161.5 91t180 32.5q118 0 213 -53q-50 177 -179 340l-206 -144q-26 -17 -55.5 -12.5t-43.5 27.5q-15 25 -7 54t34 48l182 125q-42 49 -69 70q-25 21 -31 49t6.5 51t32.5 39.5t48.5 15.5t53.5 -22q37 -33 107 -103l155 107q26 19 56 15 t43 -29q15 -23 7 -52.5t-34 -48.5l-137 -92q258 -326 258 -725q0 -266 -140 -421.5t-362 -155.5q-196 0 -316 119t-120 323zM291 424q0 -128 73 -202.5t193 -74.5q146 0 236 107.5t90 304.5q0 32 -4 94q-111 90 -256 90q-132 0 -232 -91t-100 -228z" />
<glyph unicode="&#xf1;" horiz-adv-x="1087" d="M129 68q0 14 2 22l131 680q9 64 2 85t-35 44q-30 26 -22 64q14 71 98 71q56 0 98 -45q21 -25 23 -53q166 111 317 111q144 0 212.5 -77t68.5 -212q0 -67 -14 -146l-107 -540q-7 -39 -32.5 -61.5t-59.5 -22.5t-58 22.5t-24 59.5l2 20l105 533q10 77 10 98q0 158 -150 158 q-130 0 -260 -113q-2 -20 -10 -55l-123 -639q-7 -39 -33 -61.5t-59 -22.5q-34 0 -58 21.5t-24 58.5zM365 1393q-1 62 58.5 102.5t137.5 42.5q50 1 98 -20t90 -42t80 -20q28 0 49 9.5t31 21t25.5 21t34.5 10.5q27 0 47 -23.5t22 -56.5q1 -62 -59 -103t-137 -41 q-51 -1 -99 19.5t-90 41t-80 19.5q-28 0 -49 -9.5t-31.5 -21t-26 -21t-32.5 -9.5q-29 0 -48 23.5t-21 56.5z" />
<glyph unicode="&#xf2;" horiz-adv-x="1015" d="M125 326q0 64 12 125l41 215q15 80 46.5 145t85 120t137.5 85.5t192 30.5q87 0 153 -28.5t104 -77.5t56.5 -108t18.5 -126q0 -51 -10 -109l-46 -227q-72 -383 -458 -383q-89 0 -155 27t-103.5 75t-55.5 106.5t-18 129.5zM301 344q0 -194 176 -194q121 0 183 65.5 t85 177.5l41 215q9 40 9 80q0 87 -42 141t-132 54q-227 0 -273 -244l-37 -203q-10 -52 -10 -92zM568 1594.5q12 30.5 46 43.5q38 13 69 -2t42 -45l113 -282q12 -30 -1.5 -55.5t-43.5 -34.5q-28 -9 -55 2.5t-40 40.5l-129 276q-13 26 -1 56.5z" />
<glyph unicode="&#xf3;" horiz-adv-x="1015" d="M125 326q0 64 12 125l41 215q15 80 46.5 145t85 120t137.5 85.5t192 30.5q87 0 153 -28.5t104 -77.5t56.5 -108t18.5 -126q0 -51 -10 -109l-46 -227q-72 -383 -458 -383q-89 0 -155 27t-103.5 75t-55.5 106.5t-18 129.5zM301 344q0 -194 176 -194q121 0 183 65.5 t85 177.5l41 215q9 40 9 80q0 87 -42 141t-132 54q-227 0 -273 -244l-37 -203q-10 -52 -10 -92zM557 1286q0 20 8 33l152 283q19 43 69 43q22 0 39 -11q43 -21 43 -63q0 -24 -12 -39l-166 -275q-24 -40 -63 -40q-14 0 -31 10q-39 17 -39 59z" />
<glyph unicode="&#xf4;" horiz-adv-x="1015" d="M125 326q0 64 12 125l41 215q15 80 46.5 145t85 120t137.5 85.5t192 30.5q87 0 153 -28.5t104 -77.5t56.5 -108t18.5 -126q0 -51 -10 -109l-46 -227q-72 -383 -458 -383q-89 0 -155 27t-103.5 75t-55.5 106.5t-18 129.5zM301 344q0 -194 176 -194q121 0 183 65.5 t85 177.5l41 215q9 40 9 80q0 87 -42 141t-132 54q-227 0 -273 -244l-37 -203q-10 -52 -10 -92zM352 1315q0 29 31 57l270 240q26 22 58 22q32 -3 51 -22l227 -240q25 -25 25 -53q0 -31 -21 -52.5t-53 -21.5q-25 0 -45 17l-197 196l-231 -196q-23 -17 -47 -17 q-28 0 -48 20.5t-20 49.5z" />
<glyph unicode="&#xf5;" horiz-adv-x="1015" d="M125 326q0 64 12 125l41 215q15 80 46.5 145t85 120t137.5 85.5t192 30.5q87 0 153 -28.5t104 -77.5t56.5 -108t18.5 -126q0 -51 -10 -109l-46 -227q-72 -383 -458 -383q-89 0 -155 27t-103.5 75t-55.5 106.5t-18 129.5zM301 344q0 -194 176 -194q121 0 183 65.5 t85 177.5l41 215q9 40 9 80q0 87 -42 141t-132 54q-227 0 -273 -244l-37 -203q-10 -52 -10 -92zM334 1393q-1 62 58.5 102.5t137.5 42.5q50 1 98 -20t90.5 -42t80.5 -20q28 0 49 9.5t31 21t25 21t34 10.5q28 0 48 -23.5t22 -56.5q1 -62 -59.5 -103t-137.5 -41 q-51 -1 -99 19.5t-89.5 41t-79.5 19.5q-28 0 -49 -9.5t-32 -21t-26.5 -21t-32.5 -9.5q-29 0 -48 23.5t-21 56.5z" />
<glyph unicode="&#xf6;" horiz-adv-x="1015" d="M125 326q0 64 12 125l41 215q15 80 46.5 145t85 120t137.5 85.5t192 30.5q87 0 153 -28.5t104 -77.5t56.5 -108t18.5 -126q0 -51 -10 -109l-46 -227q-72 -383 -458 -383q-89 0 -155 27t-103.5 75t-55.5 106.5t-18 129.5zM301 344q0 -194 176 -194q121 0 183 65.5 t85 177.5l41 215q9 40 9 80q0 87 -42 141t-132 54q-227 0 -273 -244l-37 -203q-10 -52 -10 -92zM395 1376q0 41 28 70t69 29q40 0 68 -29t28 -70q0 -40 -28 -68t-68 -28q-41 0 -69 28t-28 68zM729 1376q0 42 27.5 70.5t68.5 28.5q40 0 68.5 -29t28.5 -70q0 -40 -28.5 -68 t-68.5 -28q-41 0 -68.5 28t-27.5 68z" />
<glyph unicode="&#xf7;" horiz-adv-x="1173" d="M229 559q0 40 29 66t72 26h626q43 0 64 -24q20 -20 20 -52q0 -39 -29 -65.5t-73 -26.5h-627q-38 0 -63 25q-19 22 -19 51zM440 197q0 51 35 85.5t86 34.5q50 0 85.5 -34.5t35.5 -85.5q0 -49 -35.5 -84t-85.5 -35q-51 0 -86 34.5t-35 84.5zM588 938q0 51 34.5 86t84.5 35 q51 0 85.5 -35t34.5 -86q0 -50 -34.5 -85.5t-85.5 -35.5q-49 0 -84 35.5t-35 85.5z" />
<glyph unicode="&#xf8;" horiz-adv-x="1017" d="M125 326q0 64 12 125l41 215q15 80 46.5 145t85 120t137.5 85.5t192 30.5q90 0 164 -33l55 90q10 17 29.5 21t34.5 -7q17 -10 21 -28t-5 -35l-59 -94q92 -92 92 -254q0 -51 -10 -109l-46 -227q-72 -383 -458 -383q-96 0 -164 30l-55 -88q-10 -17 -29.5 -21t-34.5 7 q-17 9 -21 28t5 36l57 92q-90 87 -90 254zM301 344q0 -60 18 -104l390 624q-36 19 -88 19q-227 0 -273 -244l-37 -203q-10 -52 -10 -92zM385 168q37 -18 92 -18q121 0 183 65.5t85 177.5l41 215q9 40 9 80q0 62 -21 105z" />
<glyph unicode="&#xf9;" horiz-adv-x="1097" d="M152 279q0 72 16 147l102 537q7 39 33 61.5t59 22.5q34 0 58 -21.5t24 -58.5q0 -15 -2 -23l-96 -502q-14 -72 -14 -125q0 -83 36.5 -121t118.5 -38q127 0 252 116l133 689q7 39 33.5 61.5t59.5 22.5q34 0 58 -21.5t24 -58.5q0 -11 -3 -23l-133 -690q-10 -39 -5.5 -66 t12.5 -38.5t26 -26.5q31 -27 25 -64q-14 -71 -99 -71q-58 0 -100 45q-22 24 -25 65q-147 -110 -296 -110q-147 0 -222 77.5t-75 213.5zM577 1594.5q12 30.5 46 43.5q38 13 68.5 -2t41.5 -45l113 -282q12 -30 -1.5 -55.5t-43.5 -34.5q-28 -9 -54.5 2.5t-39.5 40.5l-129 276 q-13 26 -1 56.5z" />
<glyph unicode="&#xfa;" horiz-adv-x="1097" d="M152 279q0 72 16 147l102 537q7 39 33 61.5t59 22.5q34 0 58 -21.5t24 -58.5q0 -15 -2 -23l-96 -502q-14 -72 -14 -125q0 -83 36.5 -121t118.5 -38q127 0 252 116l133 689q7 39 33.5 61.5t59.5 22.5q34 0 58 -21.5t24 -58.5q0 -11 -3 -23l-133 -690q-10 -39 -5.5 -66 t12.5 -38.5t26 -26.5q31 -27 25 -64q-14 -71 -99 -71q-58 0 -100 45q-22 24 -25 65q-147 -110 -296 -110q-147 0 -222 77.5t-75 213.5zM584 1286q0 20 8 33l151 283q19 43 70 43q23 0 39 -11q43 -21 43 -63q0 -24 -12 -39l-166 -275q-24 -40 -64 -40q-13 0 -30 10 q-39 17 -39 59z" />
<glyph unicode="&#xfb;" horiz-adv-x="1097" d="M152 279q0 72 16 147l102 537q7 39 33 61.5t59 22.5q34 0 58 -21.5t24 -58.5q0 -15 -2 -23l-96 -502q-14 -72 -14 -125q0 -83 36.5 -121t118.5 -38q127 0 252 116l133 689q7 39 33.5 61.5t59.5 22.5q34 0 58 -21.5t24 -58.5q0 -11 -3 -23l-133 -690q-10 -39 -5.5 -66 t12.5 -38.5t26 -26.5q31 -27 25 -64q-14 -71 -99 -71q-58 0 -100 45q-22 24 -25 65q-147 -110 -296 -110q-147 0 -222 77.5t-75 213.5zM379 1315q0 29 31 57l270 240q26 22 57 22q32 -3 51 -22l228 -240q24 -24 24 -53q0 -31 -20.5 -52.5t-52.5 -21.5q-25 0 -45 17l-197 196 l-231 -196q-23 -17 -48 -17q-28 0 -47.5 20.5t-19.5 49.5z" />
<glyph unicode="&#xfc;" horiz-adv-x="1097" d="M152 279q0 72 16 147l102 537q7 39 33 61.5t59 22.5q34 0 58 -21.5t24 -58.5q0 -15 -2 -23l-96 -502q-14 -72 -14 -125q0 -83 36.5 -121t118.5 -38q127 0 252 116l133 689q7 39 33.5 61.5t59.5 22.5q34 0 58 -21.5t24 -58.5q0 -11 -3 -23l-133 -690q-10 -39 -5.5 -66 t12.5 -38.5t26 -26.5q31 -27 25 -64q-14 -71 -99 -71q-58 0 -100 45q-22 24 -25 65q-147 -110 -296 -110q-147 0 -222 77.5t-75 213.5zM432 1376q0 42 27.5 70.5t68.5 28.5q40 0 68.5 -29t28.5 -70q0 -40 -28.5 -68t-68.5 -28q-41 0 -68.5 28t-27.5 68zM766 1376 q0 42 27.5 70.5t68.5 28.5q40 0 68 -29t28 -70q0 -40 -28 -68t-68 -28q-41 0 -68.5 28t-27.5 68z" />
<glyph unicode="&#xfd;" horiz-adv-x="913" d="M-109 -287q6 38 32.5 61.5t66.5 24.5q87 3 162.5 48.5t156.5 160.5q-112 568 -151 930q-6 48 19 78.5t65 30.5q74 0 86 -82q43 -355 108 -732l389 752q33 62 88 62q42 0 62 -23.5t17.5 -58t-21.5 -70.5l-398 -752q-142 -268 -275 -389.5t-310 -128.5q-49 -3 -75.5 22 t-21.5 66zM483 1286q0 18 9 33l151 283q19 43 70 43q23 0 39 -11q43 -21 43 -63q0 -23 -13 -39l-166 -275q-24 -40 -63 -40q-14 0 -31 10q-39 17 -39 59z" />
<glyph unicode="&#xfe;" horiz-adv-x="1001" d="M16 -299l2 23l330 1710q7 39 33 60.5t61 21.5q34 0 58 -21.5t24 -58.5q0 -7 -4 -23l-86 -444q119 73 230 73q153 0 228 -80t75 -223q0 -75 -21 -178l-31 -158q-19 -100 -49.5 -172.5t-81 -130.5t-128 -87t-181.5 -29q-120 0 -217 61l-68 -340q-7 -39 -33 -61.5t-59 -22.5 q-34 0 -58 22t-24 58zM287 203q81 -64 180 -64q70 0 121 22.5t82 66t48.5 91.5t29.5 115l32 184q11 56 11 101q0 166 -166 166q-96 0 -226 -101z" />
<glyph unicode="&#xff;" horiz-adv-x="913" d="M-109 -287q6 38 32.5 61.5t66.5 24.5q87 3 162.5 48.5t156.5 160.5q-112 568 -151 930q-6 48 19 78.5t65 30.5q74 0 86 -82q43 -355 108 -732l389 752q33 62 88 62q42 0 62 -23.5t17.5 -58t-21.5 -70.5l-398 -752q-142 -268 -275 -389.5t-310 -128.5q-49 -3 -75.5 22 t-21.5 66zM342 1376q0 42 27.5 70.5t68.5 28.5q40 0 68.5 -29t28.5 -70q0 -40 -28.5 -68t-68.5 -28q-41 0 -68.5 28t-27.5 68zM676 1376q0 42 27.5 70.5t68.5 28.5q40 0 68 -29t28 -70q0 -40 -28 -68t-68 -28q-41 0 -68.5 28t-27.5 68z" />
<glyph unicode="&#x100;" horiz-adv-x="1148" d="M4 102q269 647 641 1309q55 100 133 100q43 0 68.5 -23t38.5 -81q148 -675 190 -1315q4 -54 -22.5 -83t-73.5 -29q-81 0 -84 75q-5 58 -29 291h-563q-52 -111 -129 -295q-29 -71 -102 -71q-42 0 -65 33.5t-3 88.5zM377 514h475q-47 366 -119 700q-192 -348 -356 -700z M547 1851q0 34 23 57t55 23h381q32 0 54.5 -23t22.5 -57q0 -32 -22.5 -54.5t-54.5 -22.5h-381q-32 0 -55 22.5t-23 54.5z" />
<glyph unicode="&#x101;" horiz-adv-x="1046" d="M123 303q0 60 16 154l25 143q14 79 33.5 141.5t53.5 121.5t79 98t112.5 62.5t151.5 23.5q137 0 240 -80l8 34q6 22 27.5 34t48.5 12q34 0 57.5 -21.5t23.5 -58.5l-2 -23l-135 -690q-8 -65 -1 -87t34 -44q31 -24 25 -62q-14 -73 -99 -73q-58 0 -100 45q-16 20 -23 39 q-133 -84 -260 -84q-152 0 -233.5 83.5t-81.5 231.5zM299 330q-2 -89 42.5 -138t129.5 -49q96 0 211 84l113 584q-37 39 -88.5 60.5t-102.5 21.5q-65 0 -112.5 -22.5t-76.5 -65t-45.5 -88.5t-27.5 -109l-37 -196q-6 -44 -6 -82zM408 1386q0 34 22.5 57t54.5 23h381 q32 0 55 -23t23 -57q0 -32 -23 -54.5t-55 -22.5h-381q-32 0 -54.5 22.5t-22.5 54.5z" />
<glyph unicode="&#x102;" horiz-adv-x="1148" d="M4 102q269 647 641 1309q55 100 133 100q43 0 68.5 -23t38.5 -81q148 -675 190 -1315q4 -54 -22.5 -83t-73.5 -29q-81 0 -84 75q-5 58 -29 291h-563q-52 -111 -129 -295q-29 -71 -102 -71q-42 0 -65 33.5t-3 88.5zM377 514h475q-47 366 -119 700q-192 -348 -356 -700z M506 1962q7 24 29 39q22 17 52.5 13t49.5 -34q71 -129 176 -129t178 129q18 29 48.5 34.5t52.5 -11.5q23 -14 29.5 -40t-9.5 -56q-117 -197 -299 -197q-183 0 -297 197q-17 31 -10 55z" />
<glyph unicode="&#x103;" horiz-adv-x="1046" d="M123 303q0 60 16 154l25 143q14 79 33.5 141.5t53.5 121.5t79 98t112.5 62.5t151.5 23.5q137 0 240 -80l8 34q6 22 27.5 34t48.5 12q34 0 57.5 -21.5t23.5 -58.5l-2 -23l-135 -690q-8 -65 -1 -87t34 -44q31 -24 25 -62q-14 -73 -99 -73q-58 0 -100 45q-16 20 -23 39 q-133 -84 -260 -84q-152 0 -233.5 83.5t-81.5 231.5zM299 330q-2 -89 42.5 -138t129.5 -49q96 0 211 84l113 584q-37 39 -88.5 60.5t-102.5 21.5q-65 0 -112.5 -22.5t-76.5 -65t-45.5 -88.5t-27.5 -109l-37 -196q-6 -44 -6 -82zM368.5 1497q6.5 24 28.5 39q22 17 53 13.5 t50 -33.5q71 -130 176 -130q104 0 178 130q18 29 48 34t52 -12q23 -14 30 -40t-9 -56q-117 -197 -299 -197q-183 0 -297 197q-17 31 -10.5 55z" />
<glyph unicode="&#x104;" horiz-adv-x="1148" d="M4 102q269 647 641 1309q55 100 133 100q43 0 68.5 -23t38.5 -81q148 -675 190 -1315q6 -77 -45 -100q-78 -84 -78 -156q0 -44 26.5 -68t78.5 -24q19 0 37.5 2t23.5 2q28 0 45 -18t17 -45q0 -53 -54 -68q-39 -10 -94 -10q-108 0 -166.5 48.5t-58.5 133.5q0 102 102 219 q-14 17 -14 47q-5 58 -29 291h-563q-52 -111 -129 -295q-29 -71 -102 -71q-42 0 -65 33.5t-3 88.5zM377 514h475q-47 366 -119 700q-192 -348 -356 -700z" />
<glyph unicode="&#x105;" horiz-adv-x="1046" d="M123 303q0 60 16 154l25 143q14 79 33.5 141.5t53.5 121.5t79 98t112.5 62.5t151.5 23.5q137 0 240 -80l8 34q6 22 27.5 34t48.5 12q34 0 57.5 -21.5t23.5 -58.5l-2 -23l-135 -690q-8 -65 -1 -87t34 -44q31 -24 25 -62q-9 -50 -50 -63q-86 -96 -86 -166q0 -44 26.5 -68 t78.5 -24q19 0 37.5 2t23.5 2q28 0 45 -18t17 -45q0 -53 -54 -68q-39 -10 -94 -10q-108 0 -166.5 48.5t-58.5 133.5q0 108 106 225q-4 3 -24 23q-16 20 -23 39q-133 -84 -260 -84q-152 0 -233.5 83.5t-81.5 231.5zM299 330q-2 -89 42.5 -138t129.5 -49q96 0 211 84l113 584 q-37 39 -88.5 60.5t-102.5 21.5q-65 0 -112.5 -22.5t-76.5 -65t-45.5 -88.5t-27.5 -109l-37 -196q-6 -44 -6 -82z" />
<glyph unicode="&#x106;" horiz-adv-x="1091" d="M182 434q0 88 19 193l49 272q56 307 203.5 460.5t425.5 153.5q124 0 221 -51q86 -46 86 -102q0 -33 -24 -58.5t-60 -25.5q-9 0 -18 2.5t-15.5 5.5t-21 10.5t-23.5 12.5q-65 36 -150 36q-104 0 -181 -33.5t-128 -100t-82.5 -152t-52.5 -203.5l-47 -262q-16 -81 -16 -160 q0 -282 266 -282q112 0 219 63q8 4 24 13.5t21.5 12.5t16 7.5t17.5 6t15 1.5q35 0 57.5 -25t22.5 -59q0 -55 -78 -98q-151 -90 -325 -90q-118 0 -205 34t-137.5 96.5t-74.5 142.5t-24 179zM774 1698q0 20 8 33l152 282q19 43 70 43q23 0 38 -10q43 -21 43 -64q0 -23 -12 -38 l-166 -275q-24 -41 -63 -41q-14 0 -31 10q-39 17 -39 60z" />
<glyph unicode="&#x107;" horiz-adv-x="870" d="M133 356q0 43 8 97l23 143q34 206 153 328.5t322 122.5q142 0 229 -50q45 -27 45 -71q0 -34 -22 -57t-57 -23q-18 0 -47.5 14t-57.5 21q-36 10 -98 10q-119 0 -195.5 -84.5t-101.5 -235.5l-23 -141q-4 -23 -4 -65q0 -107 53 -165.5t164 -58.5q62 0 117 15q22 6 55.5 20 t53.5 14q26 0 45.5 -16t19.5 -47q0 -32 -17.5 -52t-56.5 -38q-106 -49 -245 -49q-181 0 -273 96.5t-90 271.5zM547 1286q0 20 8 33l152 283q19 43 69 43q22 0 39 -11q43 -21 43 -63q0 -24 -12 -39l-166 -275q-24 -40 -64 -40q-13 0 -30 10q-39 17 -39 59z" />
<glyph unicode="&#x10c;" horiz-adv-x="1091" d="M182 434q0 88 19 193l49 272q56 307 203.5 460.5t425.5 153.5q124 0 221 -51q86 -46 86 -102q0 -33 -24 -58.5t-60 -25.5q-9 0 -18 2.5t-15.5 5.5t-21 10.5t-23.5 12.5q-65 36 -150 36q-104 0 -181 -33.5t-128 -100t-82.5 -152t-52.5 -203.5l-47 -262q-16 -81 -16 -160 q0 -282 266 -282q112 0 219 63q8 4 24 13.5t21.5 12.5t16 7.5t17.5 6t15 1.5q35 0 57.5 -25t22.5 -59q0 -55 -78 -98q-151 -90 -325 -90q-118 0 -205 34t-137.5 96.5t-74.5 142.5t-24 179zM557 1972q0 31 21 52.5t53 21.5q26 0 47 -18l194 -197l234 197q21 18 47 18 q28 0 48 -21.5t20 -50.5t-33 -55l-268 -242q-23 -20 -58 -20q-31 0 -53 22l-225 238q-27 27 -27 55z" />
<glyph unicode="&#x10d;" horiz-adv-x="870" d="M133 356q0 43 8 97l23 143q34 206 153 328.5t322 122.5q142 0 229 -50q45 -27 45 -71q0 -34 -22 -57t-57 -23q-18 0 -47.5 14t-57.5 21q-36 10 -98 10q-119 0 -195.5 -84.5t-101.5 -235.5l-23 -141q-4 -23 -4 -65q0 -107 53 -165.5t164 -58.5q62 0 117 15q22 6 55.5 20 t53.5 14q26 0 45.5 -16t19.5 -47q0 -32 -17.5 -52t-56.5 -38q-106 -49 -245 -49q-181 0 -273 96.5t-90 271.5zM336 1559q0 31 21 52t53 21q26 0 47 -18l194 -197l234 197q21 18 47 18q28 0 47.5 -21t19.5 -50q0 -30 -32 -56l-269 -241q-24 -21 -57 -21q-30 0 -53 23 l-226 237q-26 26 -26 56z" />
<glyph unicode="&#x10e;" horiz-adv-x="1306" d="M129 86q0 17 2 25l248 1288q9 46 38 71t68 25h344q108 0 190.5 -30t132.5 -77.5t81.5 -114t43 -131.5t11.5 -138q0 -83 -18 -193l-51 -254q-108 -557 -631 -557h-371q-37 0 -62.5 23.5t-25.5 62.5zM330 172h262q92 0 164 24t118 62t80 96t52 113.5t32 128.5l52 262 q14 75 14 141q0 144 -70.5 232t-224.5 88h-258zM551 1972q0 31 21 52.5t53 21.5q26 0 47 -18l194 -197l234 197q21 18 47 18q28 0 47.5 -21.5t19.5 -50.5t-32 -55l-269 -242q-23 -20 -57 -20q-31 0 -53 22l-225 238q-27 27 -27 55z" />
<glyph unicode="&#x10f;" horiz-adv-x="1351" d="M123 305q0 58 16 152l25 143q14 79 33.5 141.5t53.5 121.5t79 98t112.5 62.5t151.5 23.5q130 0 229 -86l84 440q7 39 33 60.5t59 21.5q34 0 58 -21.5t24 -58.5q0 -15 -2 -23l-217 -1126q-9 -66 -2 -87t35 -44q31 -24 25 -62q-14 -73 -99 -73q-58 0 -100 45q-16 20 -23 39 q-131 -84 -264 -84q-150 0 -230.5 85.5t-80.5 231.5zM297 330q0 -89 44 -138t130 -49q99 0 211 82l111 574q-84 94 -189 94q-65 0 -112.5 -22.5t-77 -65t-46 -88.5t-28.5 -109l-35 -196q-8 -58 -8 -82zM1255 1176q1 13 12 23t24 17.5t27.5 26t22.5 45.5q-34 10 -53 40 t-16 65q3 41 35.5 67t74.5 23q46 -5 72 -40t23 -89q-5 -51 -29.5 -95.5t-55.5 -70.5t-59.5 -40.5t-44.5 -12.5q-14 2 -23.5 13t-9.5 28z" />
<glyph unicode="&#x110;" horiz-adv-x="1306" d="M129 86q0 17 2 25l248 1288q9 46 38 71t68 25h344q108 0 190.5 -30t132.5 -77.5t81.5 -114t43 -131.5t11.5 -138q0 -83 -18 -193l-51 -254q-108 -557 -631 -557h-371q-37 0 -62.5 23.5t-25.5 62.5zM330 172h262q92 0 164 24t118 62t80 96t52 113.5t32 128.5l52 262 q14 75 14 141q0 144 -70.5 232t-224.5 88h-258zM590 1851q0 34 23 57t55 23h381q32 0 54.5 -23t22.5 -57q0 -32 -22.5 -54.5t-54.5 -22.5h-381q-32 0 -55 22.5t-23 54.5z" />
<glyph unicode="&#x111;" horiz-adv-x="1046" d="M123 305q0 58 16 152l25 143q14 79 33.5 141.5t53.5 121.5t79 98t112.5 62.5t151.5 23.5q130 0 229 -86l39 204h-151q-36 0 -54 21q-16 16 -16 43q0 34 23.5 56t60.5 22h164l18 94q7 39 33 60.5t59 21.5q34 0 58 -21.5t24 -58.5q0 -15 -2 -23l-14 -73h59q34 0 54 -23 q18 -15 18 -43q0 -32 -24.5 -54t-61.5 -22h-74l-174 -911q-9 -66 -2 -87t35 -44q31 -24 25 -62q-14 -73 -99 -73q-58 0 -100 45q-16 20 -23 39q-131 -84 -264 -84q-150 0 -230.5 85.5t-80.5 231.5zM297 330q0 -89 44 -138t130 -49q99 0 211 82l111 574q-84 94 -189 94 q-65 0 -112.5 -22.5t-77 -65t-46 -88.5t-28.5 -109l-35 -196q-8 -58 -8 -82z" />
<glyph unicode="&#x112;" horiz-adv-x="1107" d="M129 86q0 17 2 25l248 1288q9 46 38 71t68 25h650q25 0 53 -20q33 -26 33 -60q0 -41 -30.5 -68.5t-76.5 -27.5h-563l-92 -488h495q29 0 54 -18q30 -23 30 -57q0 -41 -29 -67.5t-73 -26.5h-512l-92 -486h575q28 0 56 -20q30 -23 30 -60q0 -41 -30 -68.5t-74 -27.5h-672 q-37 0 -62.5 23.5t-25.5 62.5zM578 1851q0 34 22.5 57t54.5 23h381q32 0 55 -23t23 -57q0 -32 -23 -54.5t-55 -22.5h-381q-32 0 -54.5 22.5t-22.5 54.5z" />
<glyph unicode="&#x113;" horiz-adv-x="980" d="M131 356q0 37 8 107l27 155q15 89 49 164t89 135.5t137 95t184 34.5q166 0 247.5 -94.5t81.5 -250.5q0 -59 -8 -108l-10 -66q-5 -29 -27.5 -47t-56.5 -18h-537l-6 -37q-6 -30 -6 -76q0 -95 52 -153t143 -58q88 0 182 33q52 18 59 18q33 0 52.5 -20t19.5 -55 q0 -51 -63 -76q-138 -51 -277 -51q-86 0 -152.5 29t-106.5 80.5t-60.5 117t-20.5 141.5zM340 604h438l4 25q6 43 6 84q0 91 -42 139.5t-125 48.5q-226 0 -277 -268zM408 1386q0 34 22.5 57t54.5 23h381q32 0 55 -23t23 -57q0 -32 -23 -54.5t-55 -22.5h-381q-32 0 -54.5 22.5 t-22.5 54.5z" />
<glyph unicode="&#x116;" horiz-adv-x="1107" d="M129 86q0 17 2 25l248 1288q9 46 38 71t68 25h650q25 0 53 -20q33 -26 33 -60q0 -41 -30.5 -68.5t-76.5 -27.5h-563l-92 -488h495q29 0 54 -18q30 -23 30 -57q0 -41 -29 -67.5t-73 -26.5h-512l-92 -486h575q28 0 56 -20q30 -23 30 -60q0 -41 -30 -68.5t-74 -27.5h-672 q-37 0 -62.5 23.5t-25.5 62.5zM735 1839q0 44 31.5 76.5t75.5 32.5t76 -32.5t32 -76.5t-32 -75t-76 -31t-75.5 31t-31.5 75z" />
<glyph unicode="&#x117;" horiz-adv-x="980" d="M131 356q0 37 8 107l27 155q15 89 49 164t89 135.5t137 95t184 34.5q166 0 247.5 -94.5t81.5 -250.5q0 -59 -8 -108l-10 -66q-5 -29 -27.5 -47t-56.5 -18h-537l-6 -37q-6 -30 -6 -76q0 -95 52 -153t143 -58q88 0 182 33q52 18 59 18q33 0 52.5 -20t19.5 -55 q0 -51 -63 -76q-138 -51 -277 -51q-86 0 -152.5 29t-106.5 80.5t-60.5 117t-20.5 141.5zM340 604h438l4 25q6 43 6 84q0 91 -42 139.5t-125 48.5q-226 0 -277 -268zM567 1374q0 44 31.5 76.5t75.5 32.5t76 -32.5t32 -76.5t-32 -75t-76 -31t-75.5 31t-31.5 75z" />
<glyph unicode="&#x118;" horiz-adv-x="1107" d="M129 86q0 17 2 25l248 1288q9 46 38 71t68 25h650q25 0 53 -20q33 -26 33 -60q0 -41 -30.5 -68.5t-76.5 -27.5h-563l-92 -488h495q29 0 54 -18q30 -23 30 -57q0 -41 -29 -67.5t-73 -26.5h-512l-92 -486h575q28 0 56 -20q30 -23 30 -60q0 -41 -30 -68.5t-74 -27.5h-53 q-84 -87 -84 -162q0 -44 26.5 -68t77.5 -24q19 0 38 2t24 2q28 0 44.5 -18t16.5 -45q0 -53 -53 -68q-39 -10 -95 -10q-108 0 -166.5 48.5t-58.5 133.5q0 101 94 209h-483q-37 0 -62.5 23.5t-25.5 62.5z" />
<glyph unicode="&#x119;" horiz-adv-x="980" d="M131 356q0 37 8 107l27 155q15 89 49 164t89 135.5t137 95t184 34.5q166 0 247.5 -94.5t81.5 -250.5q0 -59 -8 -108l-10 -66q-5 -29 -27.5 -47t-56.5 -18h-537l-6 -37q-6 -30 -6 -76q0 -95 52 -153t143 -58q88 0 182 33q52 18 59 18q33 0 52.5 -20t19.5 -55 q0 -51 -63 -76q-6 -2 -17.5 -6.5t-21 -7.5t-17.5 -5q-92 -92 -92 -170q0 -44 26.5 -68t78.5 -24q19 0 37.5 2t23.5 2q28 0 44.5 -18t16.5 -45q0 -53 -53 -68q-39 -10 -94 -10q-108 0 -166.5 48.5t-58.5 133.5q0 90 75 187q-20 -2 -59 -2q-86 0 -152.5 29t-106.5 80.5 t-60.5 117t-20.5 141.5zM340 604h438l4 25q6 43 6 84q0 91 -42 139.5t-125 48.5q-226 0 -277 -268z" />
<glyph unicode="&#x11a;" horiz-adv-x="1107" d="M129 86q0 17 2 25l248 1288q9 46 38 71t68 25h650q25 0 53 -20q33 -26 33 -60q0 -41 -30.5 -68.5t-76.5 -27.5h-563l-92 -488h495q29 0 54 -18q30 -23 30 -57q0 -41 -29 -67.5t-73 -26.5h-512l-92 -486h575q28 0 56 -20q30 -23 30 -60q0 -41 -30 -68.5t-74 -27.5h-672 q-37 0 -62.5 23.5t-25.5 62.5zM530 1970q0 31 21 52.5t53 21.5q25 0 47 -19l195 -196l233 196q22 19 47 19q28 0 48 -21.5t20 -50.5t-33 -55l-268 -242q-23 -20 -57 -20q-32 0 -54 22l-225 238q-27 27 -27 55z" />
<glyph unicode="&#x11b;" horiz-adv-x="980" d="M131 356q0 37 8 107l27 155q15 89 49 164t89 135.5t137 95t184 34.5q166 0 247.5 -94.5t81.5 -250.5q0 -59 -8 -108l-10 -66q-5 -29 -27.5 -47t-56.5 -18h-537l-6 -37q-6 -30 -6 -76q0 -95 52 -153t143 -58q88 0 182 33q52 18 59 18q33 0 52.5 -20t19.5 -55 q0 -51 -63 -76q-138 -51 -277 -51q-86 0 -152.5 29t-106.5 80.5t-60.5 117t-20.5 141.5zM336 1559q0 31 21 52t53 21q26 0 47 -18l194 -197l234 197q21 18 47 18q28 0 47.5 -21t19.5 -50q0 -30 -32 -56l-269 -241q-24 -21 -57 -21q-30 0 -53 23l-226 237q-26 26 -26 56z M340 604h438l4 25q6 43 6 84q0 91 -42 139.5t-125 48.5q-226 0 -277 -268z" />
<glyph unicode="&#x11e;" horiz-adv-x="1228" d="M180 416q0 73 23 211l51 272q29 151 75.5 261.5t119 191.5t176.5 121t241 40q199 0 305 -122q25 -31 25 -60q0 -37 -24.5 -61.5t-61.5 -24.5q-14 0 -24.5 5.5t-30.5 21t-37 26.5q-62 43 -156 43q-176 0 -277.5 -111t-148.5 -364l-51 -274q-18 -88 -18 -172 q0 -136 61.5 -203t177.5 -67q288 0 363 358l16 90h-211q-28 0 -53 18q-31 25 -31 60q0 40 29.5 67t73.5 27h305q25 0 53 -20q31 -22 31 -58q0 -17 -4 -41l-33 -159q-47 -239 -186 -374.5t-365 -135.5q-204 0 -309 114t-105 320zM565 1962q7 24 29 39q22 17 52.5 13t49.5 -34 q71 -129 176 -129q106 0 179 129q18 29 48 34.5t52 -11.5q23 -14 29.5 -40t-9.5 -56q-117 -197 -299 -197q-183 0 -297 197q-17 31 -10 55z" />
<glyph unicode="&#x11f;" horiz-adv-x="1017" d="M43 -258q0 35 23.5 58.5t60.5 23.5q23 0 47 -12q82 -35 180 -35q242 0 301 305l4 18q-109 -59 -213 -59q-149 0 -230 85.5t-81 231.5q0 62 15 154l16 88q14 79 33.5 141.5t53 121.5t78.5 98t112.5 62.5t152.5 23.5q133 0 238 -84l8 34q6 25 28.5 37.5t49.5 12.5 q34 0 56.5 -21.5t22.5 -58.5q0 -15 -2 -23l-166 -868q-87 -453 -485 -453q-143 0 -244 43q-59 24 -59 76zM311 385q0 -90 43.5 -138t128.5 -48q101 0 211 75l103 533q-83 86 -191 86q-65 0 -112.5 -22.5t-76.5 -65t-45.5 -88.5t-27.5 -109l-27 -143q-6 -43 -6 -80z M360.5 1497q6.5 24 28.5 39q22 17 53 13.5t50 -33.5q71 -130 176 -130q104 0 178 130q18 29 48 34t52 -12q23 -14 30 -40t-9 -56q-117 -197 -299 -197q-183 0 -297 197q-17 31 -10.5 55z" />
<glyph unicode="&#x122;" horiz-adv-x="1228" d="M180 416q0 73 23 211l51 272q29 151 75.5 261.5t119 191.5t176.5 121t241 40q199 0 305 -122q25 -31 25 -60q0 -37 -24.5 -61.5t-61.5 -24.5q-14 0 -24.5 5.5t-30.5 21t-37 26.5q-62 43 -156 43q-176 0 -277.5 -111t-148.5 -364l-51 -274q-18 -88 -18 -172 q0 -136 61.5 -203t177.5 -67q288 0 363 358l16 90h-211q-28 0 -53 18q-31 25 -31 60q0 40 29.5 67t73.5 27h305q25 0 53 -20q31 -22 31 -58q0 -17 -4 -41l-33 -159q-47 -239 -186 -374.5t-365 -135.5q-204 0 -309 114t-105 320zM416 -438q1 13 12 23t24 17.5t27.5 26 t22.5 45.5q-34 10 -53.5 40t-16.5 65q3 41 36 67t75 23q46 -4 71.5 -39.5t22.5 -89.5q-5 -51 -29.5 -95.5t-55.5 -70.5t-59 -40.5t-44 -12.5q-14 2 -23.5 13t-9.5 28z" />
<glyph unicode="&#x123;" horiz-adv-x="1017" d="M43 -258q0 35 23.5 58.5t60.5 23.5q23 0 47 -12q82 -35 180 -35q242 0 301 305l4 18q-109 -59 -213 -59q-149 0 -230 85.5t-81 231.5q0 62 15 154l16 88q14 79 33.5 141.5t53 121.5t78.5 98t112.5 62.5t152.5 23.5q133 0 238 -84l8 34q6 25 28.5 37.5t49.5 12.5 q34 0 56.5 -21.5t22.5 -58.5q0 -15 -2 -23l-166 -868q-87 -453 -485 -453q-143 0 -244 43q-59 24 -59 76zM311 385q0 -90 43.5 -138t128.5 -48q101 0 211 75l103 533q-83 86 -191 86q-65 0 -112.5 -22.5t-76.5 -65t-45.5 -88.5t-27.5 -109l-27 -143q-6 -43 -6 -80zM588 1399 q8 95 77 158t109 61q14 -2 24 -13t9 -26q-1 -13 -12 -24t-24 -18.5t-27 -26t-21 -44.5q32 -12 51.5 -41t16.5 -63q-3 -42 -35.5 -68.5t-75.5 -23.5q-46 4 -71.5 40t-20.5 89z" />
<glyph unicode="&#x12a;" horiz-adv-x="530" d="M129 68q0 16 2 24l256 1331q9 42 36 66t62 24q37 0 62.5 -24t25.5 -64q0 -14 -2 -22l-256 -1333q-9 -40 -36 -64t-62 -24q-37 0 -62.5 23.5t-25.5 62.5zM258 1851q0 34 23 57t55 23h381q32 0 55 -23t23 -57q0 -32 -23 -54.5t-55 -22.5h-381q-32 0 -55 22.5t-23 54.5z" />
<glyph unicode="&#x12b;" horiz-adv-x="466" d="M100 68q0 14 2 22l168 873q7 39 33 61.5t59 22.5q34 0 58 -21.5t24 -58.5q0 -15 -2 -23l-168 -872q-7 -39 -33 -61.5t-59 -22.5q-34 0 -58 21.5t-24 58.5zM139 1386q0 34 23 57t55 23h381q32 0 55 -23t23 -57q0 -32 -23 -54.5t-55 -22.5h-381q-32 0 -55 22.5t-23 54.5z " />
<glyph unicode="&#x12e;" horiz-adv-x="530" d="M39 -213q0 108 108 225q-18 21 -18 56q0 16 2 24l256 1331q9 42 36 66t62 24q37 0 62.5 -24t25.5 -64q0 -14 -2 -22l-256 -1333q-12 -45 -43 -70q-88 -91 -88 -166q0 -44 26.5 -68t78.5 -24q19 0 37.5 2t23.5 2q28 0 45 -18t17 -45q0 -53 -54 -68q-39 -10 -94 -10 q-108 0 -166.5 48.5t-58.5 133.5z" />
<glyph unicode="&#x12f;" horiz-adv-x="473" d="M-6 -213q0 110 117 236q-11 22 -11 45q0 14 2 22l168 873q7 39 33 61.5t59 22.5q34 0 58 -21.5t24 -58.5q0 -15 -2 -23l-168 -872q-9 -52 -47 -72q-88 -91 -88 -166q0 -44 26.5 -68t78.5 -24q19 0 37.5 2t23.5 2q28 0 45 -18t17 -45q0 -53 -54 -68q-39 -10 -94 -10 q-108 0 -166.5 48.5t-58.5 133.5zM319 1413q0 51 37 88t88 37q52 0 88.5 -37t36.5 -88q0 -53 -36.5 -89t-88.5 -36q-51 0 -88 36.5t-37 88.5z" />
<glyph unicode="&#x130;" horiz-adv-x="530" d="M129 68q0 16 2 24l256 1331q9 42 36 66t62 24q37 0 62.5 -24t25.5 -64q0 -14 -2 -22l-256 -1333q-9 -40 -36 -64t-62 -24q-37 0 -62.5 23.5t-25.5 62.5zM451 1839q0 45 31 77t75 32t76.5 -32.5t32.5 -76.5t-32 -75t-77 -31q-44 0 -75 31t-31 75z" />
<glyph unicode="&#x131;" horiz-adv-x="473" d="M100 68q0 14 2 22l168 873q7 39 33 61.5t59 22.5q34 0 58 -21.5t24 -58.5q0 -15 -2 -23l-168 -872q-7 -39 -33 -61.5t-59 -22.5q-34 0 -58 21.5t-24 58.5z" />
<glyph unicode="&#x136;" horiz-adv-x="1167" d="M129 68q0 16 2 24l256 1331q9 42 36 66t62 24q37 0 62.5 -24t25.5 -64q0 -14 -2 -22l-120 -631l704 709q29 27 62.5 31t60.5 -15q28 -19 33.5 -51.5t-15.5 -65.5q-10 -14 -18 -20l-535 -520q200 -382 326 -736q18 -51 -13.5 -86.5t-78.5 -35.5q-64 0 -84 63 q-124 341 -289 662l-205 -201l-84 -436q-9 -40 -36 -64t-62 -24q-37 0 -62.5 23.5t-25.5 62.5zM446 -438q1 13 12 23t24 17.5t27.5 26t22.5 45.5q-34 10 -53 40t-16 65q3 41 35.5 67t74.5 23q46 -5 72 -40t23 -89q-5 -51 -29.5 -95.5t-55.5 -70.5t-59.5 -40.5t-44.5 -12.5 q-14 2 -23.5 13t-9.5 28z" />
<glyph unicode="&#x137;" horiz-adv-x="950" d="M100 68q0 14 2 22l252 1311q7 39 33 60.5t59 21.5q34 0 58 -21.5t24 -58.5l-2 -23l-157 -813l495 453q27 25 59 26.5t56 -16.5q24 -19 27.5 -49.5t-17.5 -58.5q-1 -1 -5.5 -7t-8.5 -8l-322 -289q131 -287 205 -520q14 -47 -13.5 -78.5t-70.5 -31.5q-65 0 -82 61 q-81 242 -176 449l-192 -172l-50 -254q-7 -39 -33 -61.5t-59 -22.5q-35 0 -58.5 21.5t-23.5 58.5zM334 -438q1 13 12 23t24 17.5t27.5 26t22.5 45.5q-34 10 -53.5 40t-16.5 65q3 41 36 67t75 23q46 -4 71.5 -39.5t22.5 -89.5q-5 -51 -29.5 -95.5t-55.5 -70.5t-59 -40.5 t-44 -12.5q-14 2 -23.5 13t-9.5 28z" />
<glyph unicode="&#x139;" horiz-adv-x="1044" d="M129 86q0 17 2 25l252 1306q9 46 37 71t69 25q36 0 58 -23.5t22 -64.5q0 -14 -2 -22l-237 -1231h577q26 0 54 -20q30 -23 30 -58q0 -40 -29 -67t-73 -27h-674q-35 0 -60.5 24t-25.5 62zM451 1698q0 20 8 33l151 282q19 43 70 43q24 0 39 -10q43 -21 43 -64q0 -23 -12 -38 l-166 -275q-24 -41 -64 -41q-14 0 -31 10q-38 17 -38 60z" />
<glyph unicode="&#x13a;" horiz-adv-x="475" d="M123.5 140q-4.5 69 17.5 171l211 1090q7 39 33 60.5t59 21.5q34 0 58 -21.5t24 -58.5q0 -15 -2 -23l-217 -1126q-9 -64 -2 -86t35 -43q31 -24 25 -68q-16 -69 -101 -69q-56 0 -98 45q-38 38 -42.5 107zM414 1698q0 20 8 33l151 282q19 43 70 43q24 0 39 -10 q43 -21 43 -64q0 -23 -12 -38l-166 -275q-24 -41 -64 -41q-13 0 -30 10q-39 17 -39 60z" />
<glyph unicode="&#x13b;" horiz-adv-x="1044" d="M129 86q0 17 2 25l252 1306q9 46 37 71t69 25q36 0 58 -23.5t22 -64.5q0 -14 -2 -22l-237 -1231h577q26 0 54 -20q30 -23 30 -58q0 -40 -29 -67t-73 -27h-674q-35 0 -60.5 24t-25.5 62zM418 -438q1 13 12 23t24 17.5t27.5 26t22.5 45.5q-34 10 -53.5 40t-16.5 65 q3 41 36 67t75 23q46 -4 71.5 -39.5t22.5 -89.5q-5 -51 -29.5 -95.5t-55.5 -70.5t-59 -40.5t-44 -12.5q-14 2 -23.5 13t-9.5 28z" />
<glyph unicode="&#x13c;" horiz-adv-x="475" d="M45 -438q1 13 12 23t24 17.5t27.5 26t22.5 45.5q-34 10 -53.5 40t-16.5 65q3 41 36 67t75 23q46 -4 71.5 -39.5t22.5 -89.5q-5 -51 -29.5 -95.5t-55.5 -70.5t-59 -40.5t-44 -12.5q-14 2 -23.5 13t-9.5 28zM123.5 140q-4.5 69 17.5 171l211 1090q7 39 33 60.5t59 21.5 q34 0 58 -21.5t24 -58.5q0 -15 -2 -23l-217 -1126q-9 -64 -2 -86t35 -43q31 -24 25 -68q-16 -69 -101 -69q-56 0 -98 45q-38 38 -42.5 107z" />
<glyph unicode="&#x13d;" horiz-adv-x="1044" d="M129 86q0 17 2 25l252 1306q9 46 37 71t69 25q36 0 58 -23.5t22 -64.5q0 -14 -2 -22l-237 -1231h577q26 0 54 -20q30 -23 30 -58q0 -40 -29 -67t-73 -27h-674q-35 0 -60.5 24t-25.5 62zM754 1202q1 13 12 23t24 17.5t27.5 26.5t22.5 46q-34 11 -53.5 40t-16.5 64 q3 41 36 67t75 23q46 -4 71.5 -39.5t22.5 -89.5q-5 -51 -29.5 -95.5t-55.5 -70.5t-59.5 -40.5t-44.5 -12.5q-14 2 -23 13t-9 28z" />
<glyph unicode="&#x13e;" horiz-adv-x="798" d="M123.5 140q-4.5 69 17.5 171l211 1090q7 39 33 60.5t59 21.5q34 0 58 -21.5t24 -58.5q0 -15 -2 -23l-217 -1126q-9 -64 -2 -86t35 -43q31 -24 25 -68q-16 -69 -101 -69q-56 0 -98 45q-38 38 -42.5 107zM705 1176q1 13 12 23t24 17.5t27.5 26t22.5 45.5q-34 10 -53.5 40 t-16.5 65q3 41 35.5 67t74.5 23q46 -5 72 -40t23 -89q-5 -51 -29.5 -95.5t-55.5 -70.5t-59.5 -40.5t-44.5 -12.5q-14 2 -23 13t-9 28z" />
<glyph unicode="&#x141;" horiz-adv-x="1159" d="M76 545q-11 31 1.5 61.5t45.5 48.5l227 131l121 631q9 46 38.5 71t70.5 25q35 0 57 -24t22 -64l-2 -22l-96 -496l180 105q18 9 21 10q33 10 61 -4.5t37 -44.5q11 -31 -1.5 -62t-45.5 -49l-293 -170l-100 -520h577q28 0 52 -20q32 -25 32 -58q0 -40 -29.5 -67t-72.5 -27 h-674q-35 0 -61.5 24t-26.5 62q0 9 4 25l88 460l-114 -65q-3 -2 -11 -5.5t-10 -4.5q-33 -10 -60 4.5t-38 44.5z" />
<glyph unicode="&#x142;" horiz-adv-x="724" d="M68 545q-11 31 1.5 61.5t45.5 48.5l229 131l119 623q7 39 33 61.5t59 22.5q34 0 58 -22.5t24 -59.5q0 -14 -2 -22l-94 -488l184 107q7 5 20 8q33 12 60.5 -3t38.5 -46q11 -30 -1.5 -60.5t-45.5 -50.5l-297 -170l-82 -424q-9 -64 -2 -85t35 -44q30 -23 24 -67 q-14 -70 -100 -70q-57 0 -99 45q-38 39 -42 107.5t20 170.5l47 252l-115 -65q-3 -1 -7 -3l-7 -3.5t-6 -3.5q-33 -10 -61 4.5t-37 44.5z" />
<glyph unicode="&#x143;" horiz-adv-x="1355" d="M127 63q0 15 2 23l256 1335q9 46 36.5 69t65.5 23q59 0 84 -65l445 -1088l205 1061q9 45 36 68.5t66 23.5q35 0 56.5 -22t21.5 -61q0 -7 -4 -23l-258 -1339q-7 -41 -33.5 -63.5t-63.5 -22.5q-63 0 -88 61l-444 1087l-205 -1062q-7 -40 -33.5 -63t-60.5 -23 q-35 0 -59.5 22t-24.5 59zM834 1698q0 20 8 33l151 282q19 43 70 43q24 0 39 -10q43 -21 43 -64q0 -23 -12 -38l-166 -275q-24 -41 -64 -41q-14 0 -31 10q-38 17 -38 60z" />
<glyph unicode="&#x144;" horiz-adv-x="1087" d="M129 68q0 14 2 22l131 680q9 64 2 85t-35 44q-30 26 -22 64q14 71 98 71q56 0 98 -45q21 -25 23 -53q166 111 317 111q144 0 212.5 -77t68.5 -212q0 -67 -14 -146l-107 -540q-7 -39 -32.5 -61.5t-59.5 -22.5t-58 22.5t-24 59.5l2 20l105 533q10 77 10 98q0 158 -150 158 q-130 0 -260 -113q-2 -20 -10 -55l-123 -639q-7 -39 -33 -61.5t-59 -22.5q-34 0 -58 21.5t-24 58.5zM616 1286q0 18 9 33l151 283q19 43 70 43q22 0 39 -11q43 -21 43 -63q0 -23 -13 -39l-165 -275q-24 -40 -64 -40q-14 0 -31 10q-39 17 -39 59z" />
<glyph unicode="&#x145;" horiz-adv-x="1355" d="M127 63q0 15 2 23l256 1335q9 46 36.5 69t65.5 23q59 0 84 -65l445 -1088l205 1061q9 45 36 68.5t66 23.5q35 0 56.5 -22t21.5 -61q0 -7 -4 -23l-258 -1339q-7 -41 -33.5 -63.5t-63.5 -22.5q-63 0 -88 61l-444 1087l-205 -1062q-7 -40 -33.5 -63t-60.5 -23 q-35 0 -59.5 22t-24.5 59zM487 -438q1 13 12 23t24 17.5t27.5 26t22.5 45.5q-34 10 -53 40t-16 65q3 41 35.5 67t74.5 23q46 -5 72 -40t23 -89q-5 -51 -29.5 -95.5t-55.5 -70.5t-59.5 -40.5t-44.5 -12.5q-14 2 -23.5 13t-9.5 28z" />
<glyph unicode="&#x146;" horiz-adv-x="1087" d="M129 68q0 14 2 22l131 680q9 64 2 85t-35 44q-30 26 -22 64q14 71 98 71q56 0 98 -45q21 -25 23 -53q166 111 317 111q144 0 212.5 -77t68.5 -212q0 -67 -14 -146l-107 -540q-7 -39 -32.5 -61.5t-59.5 -22.5t-58 22.5t-24 59.5l2 20l105 533q10 77 10 98q0 158 -150 158 q-130 0 -260 -113q-2 -20 -10 -55l-123 -639q-7 -39 -33 -61.5t-59 -22.5q-34 0 -58 21.5t-24 58.5zM362 -438q1 13 12 23t24.5 17.5t28 26t22.5 45.5q-34 10 -53.5 40t-16.5 65q3 41 35.5 67t74.5 23q46 -5 72 -40t23 -89q-5 -51 -29.5 -95.5t-55.5 -70.5t-59.5 -40.5 t-44.5 -12.5q-14 2 -23.5 13t-9.5 28z" />
<glyph unicode="&#x147;" horiz-adv-x="1355" d="M127 63q0 15 2 23l256 1335q9 46 36.5 69t65.5 23q59 0 84 -65l445 -1088l205 1061q9 45 36 68.5t66 23.5q35 0 56.5 -22t21.5 -61q0 -7 -4 -23l-258 -1339q-7 -41 -33.5 -63.5t-63.5 -22.5q-63 0 -88 61l-444 1087l-205 -1062q-7 -40 -33.5 -63t-60.5 -23 q-35 0 -59.5 22t-24.5 59zM606 1970q0 31 21 52.5t53 21.5q25 0 47 -19l195 -196l233 196q22 19 47 19q28 0 48 -21.5t20 -50.5t-33 -55l-268 -242q-23 -20 -58 -20q-31 0 -53 22l-225 238q-27 27 -27 55z" />
<glyph unicode="&#x148;" horiz-adv-x="1087" d="M129 68q0 14 2 22l131 680q9 64 2 85t-35 44q-30 26 -22 64q14 71 98 71q56 0 98 -45q21 -25 23 -53q166 111 317 111q144 0 212.5 -77t68.5 -212q0 -67 -14 -146l-107 -540q-7 -39 -32.5 -61.5t-59.5 -22.5t-58 22.5t-24 59.5l2 20l105 533q10 77 10 98q0 158 -150 158 q-130 0 -260 -113q-2 -20 -10 -55l-123 -639q-7 -39 -33 -61.5t-59 -22.5q-34 0 -58 21.5t-24 58.5zM422 1559q0 31 21 52t53 21q26 0 47 -18l194 -197l234 197q21 18 47 18q28 0 47.5 -21t19.5 -50q0 -30 -32 -56l-269 -241q-24 -21 -57 -21q-30 0 -53 23l-225 237 q-27 27 -27 56z" />
<glyph unicode="&#x14c;" horiz-adv-x="1255" d="M180 438q0 77 23 211l47 248q13 70 29 129.5t41.5 124t57.5 116t78 98.5t101.5 79t130 50.5t160.5 18.5q107 0 187 -38t125.5 -104t67.5 -147.5t21 -176.5q0 -91 -16 -179l-53 -282q-13 -70 -29.5 -129.5t-42.5 -122.5t-58 -113.5t-78 -96t-101 -76t-128.5 -48.5 t-158.5 -18q-107 0 -186.5 35.5t-126 99.5t-68.5 144t-23 177zM369 444q0 -292 227 -292q78 0 140 24.5t103 64t72.5 99.5t49.5 121t32 139l56 297q14 71 14 154q0 129 -56.5 209.5t-170.5 80.5q-80 0 -143 -25.5t-104.5 -66t-73 -102.5t-49.5 -123.5t-32 -140.5l-49 -267 q-16 -94 -16 -172zM633 1851q0 34 23 57t55 23h381q32 0 54.5 -23t22.5 -57q0 -32 -22.5 -54.5t-54.5 -22.5h-381q-32 0 -55 22.5t-23 54.5z" />
<glyph unicode="&#x14d;" horiz-adv-x="1015" d="M125 326q0 64 12 125l41 215q15 80 46.5 145t85 120t137.5 85.5t192 30.5q87 0 153 -28.5t104 -77.5t56.5 -108t18.5 -126q0 -51 -10 -109l-46 -227q-72 -383 -458 -383q-89 0 -155 27t-103.5 75t-55.5 106.5t-18 129.5zM301 344q0 -194 176 -194q121 0 183 65.5 t85 177.5l41 215q9 40 9 80q0 87 -42 141t-132 54q-227 0 -273 -244l-37 -203q-10 -52 -10 -92zM420 1386q0 34 23 57t55 23h381q32 0 54.5 -23t22.5 -57q0 -32 -22.5 -54.5t-54.5 -22.5h-381q-32 0 -55 22.5t-23 54.5z" />
<glyph unicode="&#x150;" horiz-adv-x="1255" d="M180 438q0 77 23 211l47 248q13 70 29 129.5t41.5 124t57.5 116t78 98.5t101.5 79t130 50.5t160.5 18.5q107 0 187 -38t125.5 -104t67.5 -147.5t21 -176.5q0 -91 -16 -179l-53 -282q-13 -70 -29.5 -129.5t-42.5 -122.5t-58 -113.5t-78 -96t-101 -76t-128.5 -48.5 t-158.5 -18q-107 0 -186.5 35.5t-126 99.5t-68.5 144t-23 177zM369 444q0 -292 227 -292q78 0 140 24.5t103 64t72.5 99.5t49.5 121t32 139l56 297q14 71 14 154q0 129 -56.5 209.5t-170.5 80.5q-80 0 -143 -25.5t-104.5 -66t-73 -102.5t-49.5 -123.5t-32 -140.5l-49 -267 q-16 -94 -16 -172zM637 1751q0 20 8 33l152 282q19 43 69 43q24 0 39 -10q41 -20 41 -63q0 -26 -10 -39l-166 -275q-24 -41 -63 -41q-13 0 -31 11q-39 16 -39 59zM1038 1751q0 18 9 33l151 282q19 43 70 43q24 0 39 -10q43 -21 43 -63q0 -23 -13 -39l-166 -275 q-24 -41 -63 -41q-13 0 -31 11q-39 17 -39 59z" />
<glyph unicode="&#x151;" horiz-adv-x="1015" d="M125 326q0 64 12 125l41 215q15 80 46.5 145t85 120t137.5 85.5t192 30.5q87 0 153 -28.5t104 -77.5t56.5 -108t18.5 -126q0 -51 -10 -109l-46 -227q-72 -383 -458 -383q-89 0 -155 27t-103.5 75t-55.5 106.5t-18 129.5zM301 344q0 -194 176 -194q121 0 183 65.5 t85 177.5l41 215q9 40 9 80q0 87 -42 141t-132 54q-227 0 -273 -244l-37 -203q-10 -52 -10 -92zM391 1286q0 20 8 33l152 283q19 43 70 43q21 0 38 -11q41 -20 41 -63q0 -27 -10 -39l-166 -275q-24 -40 -63 -40q-14 0 -31 10q-39 16 -39 59zM793 1286q0 20 8 33l151 283 q19 43 70 43q22 0 39 -11q43 -21 43 -63q0 -24 -12 -39l-166 -275q-24 -40 -64 -40q-14 0 -31 10q-38 17 -38 59z" />
<glyph unicode="&#x152;" horiz-adv-x="1890" d="M180 438q0 77 23 211l47 248q13 70 29 130t41.5 124.5t57.5 115.5t78 98.5t101.5 79t130 50t160.5 18.5q218 0 309 -182l25 123q8 41 75 41h648q44 0 67 -29q19 -22 19 -51q0 -41 -30.5 -68.5t-74.5 -27.5h-563l-94 -488h497q46 0 66 -26q18 -21 18 -49 q0 -41 -29.5 -67.5t-74.5 -26.5h-510l-94 -486h575q45 0 68 -29q20 -20 20 -51q0 -41 -30 -68.5t-76 -27.5h-672q-28 0 -46 12t-15 31l8 66q-134 -127 -350 -127q-107 0 -186.5 35.5t-126 99.5t-68.5 144t-23 177zM369 444q0 -292 227 -292q78 0 140 24.5t103 64t72.5 99.5 t49.5 121t32 139l56 297q14 71 14 154q0 129 -56.5 209.5t-170.5 80.5q-80 0 -143 -25.5t-104.5 -66t-73 -102.5t-49.5 -123.5t-32 -140.5l-49 -267q-16 -94 -16 -172z" />
<glyph unicode="&#x153;" horiz-adv-x="1603" d="M125 326q0 64 12 125l39 213q15 80 47.5 145.5t86 120t137.5 84.5t192 30q201 0 276 -153q120 153 332 153q166 0 248 -94t82 -250q0 -45 -10 -110l-8 -64q-4 -29 -27.5 -47t-56.5 -18h-539q-12 -105 -12 -113q0 -96 52 -153.5t144 -57.5q90 0 183 33q52 18 59 18 q32 0 52 -20t20 -55q0 -51 -66 -76q-135 -51 -274 -51q-201 0 -285 164q-113 -164 -350 -164q-90 0 -156.5 27.5t-104 75.5t-55.5 107t-18 130zM301 344q0 -197 176 -197q118 0 181.5 64.5t86.5 181.5l41 215q9 38 9 78q0 87 -42 142t-132 55q-226 0 -273 -244l-37 -203 q-10 -52 -10 -92zM963 602h438l2 25q8 41 8 84q0 90 -43 139t-125 49q-225 0 -276 -268z" />
<glyph unicode="&#x154;" horiz-adv-x="1239" d="M129 68q0 16 2 24l252 1311q9 42 36.5 66t63.5 24h373q83 0 151 -20.5t112.5 -55t75 -81.5t43.5 -99t13 -109q0 -45 -10 -100l-10 -51q-23 -133 -112 -221.5t-234 -120.5q113 -291 186 -541q14 -49 -16 -80.5t-74 -31.5q-65 0 -88 71q-82 277 -193 561h-280l-105 -544 q-9 -40 -36 -64t-62 -24q-37 0 -62.5 23.5t-25.5 62.5zM453 784h274q278 0 322 215l6 39q8 33 8 72q0 93 -57 152t-175 59h-276zM715 1698q0 20 8 33l151 282q19 43 70 43q24 0 39 -10q43 -21 43 -64q0 -23 -12 -38l-166 -275q-24 -41 -64 -41q-13 0 -30 10q-39 17 -39 60z " />
<glyph unicode="&#x155;" horiz-adv-x="782" d="M129 68q0 14 2 22l131 680q9 64 2 86t-35 43q-30 26 -24 64q13 71 98 71q57 0 100 -43q27 -30 35 -78q126 134 299 134q80 0 120.5 -32t25.5 -93q-7 -30 -32.5 -46t-57.5 -16q-8 0 -41 7t-78 7q-72 0 -139.5 -40t-110.5 -138l-121 -624q-7 -39 -33 -61.5t-59 -22.5 q-34 0 -58 21.5t-24 58.5zM412 1286q0 20 8 33l151 283q19 43 70 43q23 0 39 -11q43 -21 43 -63q0 -24 -12 -39l-166 -275q-24 -40 -64 -40q-13 0 -30 10q-39 17 -39 59z" />
<glyph unicode="&#x156;" horiz-adv-x="1239" d="M129 68q0 16 2 24l252 1311q9 42 36.5 66t63.5 24h373q83 0 151 -20.5t112.5 -55t75 -81.5t43.5 -99t13 -109q0 -45 -10 -100l-10 -51q-23 -133 -112 -221.5t-234 -120.5q113 -291 186 -541q14 -49 -16 -80.5t-74 -31.5q-65 0 -88 71q-82 277 -193 561h-280l-105 -544 q-9 -40 -36 -64t-62 -24q-37 0 -62.5 23.5t-25.5 62.5zM453 784h274q278 0 322 215l6 39q8 33 8 72q0 93 -57 152t-175 59h-276zM459 -438q1 13 12 23t24 17.5t27.5 26t22.5 45.5q-34 10 -53.5 40t-16.5 65q3 41 36 67t75 23q46 -4 71.5 -39.5t22.5 -89.5 q-5 -51 -29.5 -95.5t-55.5 -70.5t-59 -40.5t-44 -12.5q-14 2 -23.5 13t-9.5 28z" />
<glyph unicode="&#x157;" horiz-adv-x="782" d="M20 -438q1 13 12 23t24 17.5t27.5 26t22.5 45.5q-34 10 -53 40t-16 65q3 41 35.5 67t74.5 23q46 -5 72 -40t23 -89q-5 -51 -29.5 -95.5t-55.5 -70.5t-59.5 -40.5t-44.5 -12.5q-14 2 -23.5 13t-9.5 28zM129 68q0 14 2 22l131 680q9 64 2 86t-35 43q-30 26 -24 64 q13 71 98 71q57 0 100 -43q27 -30 35 -78q126 134 299 134q80 0 120.5 -32t25.5 -93q-7 -30 -32.5 -46t-57.5 -16q-8 0 -41 7t-78 7q-72 0 -139.5 -40t-110.5 -138l-121 -624q-7 -39 -33 -61.5t-59 -22.5q-34 0 -58 21.5t-24 58.5z" />
<glyph unicode="&#x158;" horiz-adv-x="1239" d="M129 68q0 16 2 24l252 1311q9 42 36.5 66t63.5 24h373q83 0 151 -20.5t112.5 -55t75 -81.5t43.5 -99t13 -109q0 -45 -10 -100l-10 -51q-23 -133 -112 -221.5t-234 -120.5q113 -291 186 -541q14 -49 -16 -80.5t-74 -31.5q-65 0 -88 71q-82 277 -193 561h-280l-105 -544 q-9 -40 -36 -64t-62 -24q-37 0 -62.5 23.5t-25.5 62.5zM453 784h274q278 0 322 215l6 39q8 33 8 72q0 93 -57 152t-175 59h-276zM500 1970q0 31 20.5 52.5t52.5 21.5q26 0 48 -19l194 -196l234 196q22 19 47 19q28 0 47.5 -21.5t19.5 -50.5t-33 -55l-268 -242 q-23 -20 -57 -20q-31 0 -53 22l-226 238q-26 26 -26 55z" />
<glyph unicode="&#x159;" horiz-adv-x="782" d="M129 68q0 14 2 22l131 680q9 64 2 86t-35 43q-30 26 -24 64q13 71 98 71q57 0 100 -43q27 -30 35 -78q126 134 299 134q80 0 120.5 -32t25.5 -93q-7 -30 -32.5 -46t-57.5 -16q-8 0 -41 7t-78 7q-72 0 -139.5 -40t-110.5 -138l-121 -624q-7 -39 -33 -61.5t-59 -22.5 q-34 0 -58 21.5t-24 58.5zM186 1559q0 31 21 52t53 21q26 0 47 -18l195 -197l233 197q21 18 47 18q28 0 48 -21t20 -50q0 -30 -33 -56l-268 -241q-25 -21 -57 -21q-31 0 -54 23l-225 237q-27 27 -27 56z" />
<glyph unicode="&#x15a;" horiz-adv-x="1132" d="M90 125q0 35 24.5 61.5t61.5 26.5q19 0 37 -6q131 -60 268 -60q200 0 303 76.5t103 192.5q0 37 -10 68t-32 56t-44 43t-60.5 37t-65.5 30.5t-74 30.5t-73 30q-50 21 -87 41.5t-76 53t-64 69.5t-41 90.5t-16 117.5q0 104 44 186.5t119.5 134.5t174 79.5t211.5 27.5 q152 0 284 -55q60 -23 60 -78q0 -37 -25 -64.5t-63 -27.5q-18 0 -37 8q-115 47 -226 47q-165 0 -260.5 -67.5t-95.5 -173.5q0 -44 18 -81.5t38.5 -61t68.5 -51.5t74 -39.5t89 -38.5l21 -9q44 -19 70.5 -31t66 -34.5t63.5 -42t52.5 -50.5t44 -64t26.5 -77.5t11 -95.5 q0 -145 -80 -247.5t-213.5 -151t-306.5 -48.5q-167 0 -323 66q-29 12 -44.5 34t-15.5 48zM633 1698q0 20 8 33l152 282q19 43 69 43q24 0 39 -10q43 -21 43 -64q0 -23 -12 -38l-166 -275q-24 -41 -64 -41q-13 0 -30 10q-39 17 -39 60z" />
<glyph unicode="&#x15b;" horiz-adv-x="872" d="M47 104q0 37 22 57.5t54 20.5q15 0 43.5 -10.5t58.5 -17.5q66 -15 125 -15q128 0 199.5 43t71.5 115q0 24 -10.5 44.5t-23.5 34.5t-41.5 29.5t-48 24t-59.5 24.5t-61 25q-48 20 -82 40.5t-68 51.5t-51.5 75.5t-17.5 101.5q0 74 33.5 132t91.5 94t130 54.5t154 18.5 q77 0 150 -17q63 -14 88.5 -36.5t25.5 -55.5q0 -38 -22 -58t-55 -20q-12 0 -39 9t-49 14q-62 12 -103 12q-102 0 -167.5 -39.5t-65.5 -101.5q0 -25 11.5 -46.5t25.5 -35.5t44 -30.5t49.5 -24.5t60.5 -24q19 -7 28 -11q42 -17 72 -31.5t64.5 -38.5t56.5 -51.5t36.5 -67.5 t14.5 -88q0 -106 -61.5 -179t-159.5 -105.5t-224 -32.5q-94 0 -166 16q-135 30 -135 100zM424 1286q0 20 8 33l152 283q19 43 69 43q23 0 39 -11q43 -21 43 -63q0 -24 -12 -39l-166 -275q-24 -40 -63 -40q-14 0 -31 10q-39 17 -39 59z" />
<glyph unicode="&#x15e;" horiz-adv-x="1132" d="M90 125q0 35 24.5 61.5t61.5 26.5q19 0 37 -6q131 -60 268 -60q200 0 303 76.5t103 192.5q0 37 -10 68t-32 56t-44 43t-60.5 37t-65.5 30.5t-74 30.5t-73 30q-50 21 -87 41.5t-76 53t-64 69.5t-41 90.5t-16 117.5q0 104 44 186.5t119.5 134.5t174 79.5t211.5 27.5 q152 0 284 -55q60 -23 60 -78q0 -37 -25 -64.5t-63 -27.5q-18 0 -37 8q-115 47 -226 47q-165 0 -260.5 -67.5t-95.5 -173.5q0 -44 18 -81.5t38.5 -61t68.5 -51.5t74 -39.5t89 -38.5l21 -9q44 -19 70.5 -31t66 -34.5t63.5 -42t52.5 -50.5t44 -64t26.5 -77.5t11 -95.5 q0 -133 -68 -231t-183 -149.5t-267 -61.5l-8 -66q110 -1 157.5 -43t47.5 -117q0 -77 -72 -126.5t-186 -49.5q-69 0 -99 11t-30 40q0 43 100 43q71 0 110 23.5t39 60.5q0 39 -26.5 56t-83.5 22q-35 3 -49.5 11t-14.5 28q0 6 1 14t2.5 18t2.5 15l11 55q-156 3 -307 66 q-29 12 -44.5 34t-15.5 48z" />
<glyph unicode="&#x15f;" horiz-adv-x="872" d="M47 104q0 37 22 57.5t54 20.5q15 0 43.5 -10.5t58.5 -17.5q66 -15 125 -15q128 0 199.5 43t71.5 115q0 24 -10.5 44.5t-23.5 34.5t-41.5 29.5t-48 24t-59.5 24.5t-61 25q-48 20 -82 40.5t-68 51.5t-51.5 75.5t-17.5 101.5q0 74 33.5 132t91.5 94t130 54.5t154 18.5 q77 0 150 -17q63 -14 88.5 -36.5t25.5 -55.5q0 -38 -22 -58t-55 -20q-12 0 -39 9t-49 14q-62 12 -103 12q-102 0 -167.5 -39.5t-65.5 -101.5q0 -25 11.5 -46.5t25.5 -35.5t44 -30.5t49.5 -24.5t60.5 -24q19 -7 28 -11q42 -17 72 -31.5t64.5 -38.5t56.5 -51.5t36.5 -67.5 t14.5 -88q0 -137 -97 -216t-256 -95l-8 -78q110 -1 157.5 -43t47.5 -117q0 -77 -72 -126.5t-186 -49.5q-69 0 -99 11t-30 40q0 43 100 43q71 0 110.5 23.5t39.5 60.5q0 39 -26.5 56t-84.5 22q-35 3 -49 11t-14 28q0 6 1 14t2.5 18t2.5 15l12 66q-93 0 -162 16 q-135 30 -135 100z" />
<glyph unicode="&#x160;" horiz-adv-x="1132" d="M90 125q0 35 24.5 61.5t61.5 26.5q19 0 37 -6q131 -60 268 -60q200 0 303 76.5t103 192.5q0 37 -10 68t-32 56t-44 43t-60.5 37t-65.5 30.5t-74 30.5t-73 30q-50 21 -87 41.5t-76 53t-64 69.5t-41 90.5t-16 117.5q0 104 44 186.5t119.5 134.5t174 79.5t211.5 27.5 q152 0 284 -55q60 -23 60 -78q0 -37 -25 -64.5t-63 -27.5q-18 0 -37 8q-115 47 -226 47q-165 0 -260.5 -67.5t-95.5 -173.5q0 -44 18 -81.5t38.5 -61t68.5 -51.5t74 -39.5t89 -38.5l21 -9q44 -19 70.5 -31t66 -34.5t63.5 -42t52.5 -50.5t44 -64t26.5 -77.5t11 -95.5 q0 -145 -80 -247.5t-213.5 -151t-306.5 -48.5q-167 0 -323 66q-29 12 -44.5 34t-15.5 48zM446 1970q0 31 21 52.5t53 21.5q25 0 47 -19l195 -196l233 196q22 19 47 19q28 0 48 -21.5t20 -50.5t-33 -55l-268 -242q-23 -20 -57 -20q-32 0 -54 22l-225 238q-27 27 -27 55z" />
<glyph unicode="&#x161;" horiz-adv-x="872" d="M47 104q0 37 22 57.5t54 20.5q15 0 43.5 -10.5t58.5 -17.5q66 -15 125 -15q128 0 199.5 43t71.5 115q0 24 -10.5 44.5t-23.5 34.5t-41.5 29.5t-48 24t-59.5 24.5t-61 25q-48 20 -82 40.5t-68 51.5t-51.5 75.5t-17.5 101.5q0 74 33.5 132t91.5 94t130 54.5t154 18.5 q77 0 150 -17q63 -14 88.5 -36.5t25.5 -55.5q0 -38 -22 -58t-55 -20q-12 0 -39 9t-49 14q-62 12 -103 12q-102 0 -167.5 -39.5t-65.5 -101.5q0 -25 11.5 -46.5t25.5 -35.5t44 -30.5t49.5 -24.5t60.5 -24q19 -7 28 -11q42 -17 72 -31.5t64.5 -38.5t56.5 -51.5t36.5 -67.5 t14.5 -88q0 -106 -61.5 -179t-159.5 -105.5t-224 -32.5q-94 0 -166 16q-135 30 -135 100zM207 1559q0 31 21 52t53 21q26 0 47 -18l194 -197l234 197q21 18 47 18q28 0 47.5 -21t19.5 -50q0 -30 -32 -56l-269 -241q-25 -21 -57 -21q-30 0 -53 23l-226 237q-26 26 -26 56z " />
<glyph unicode="&#x162;" horiz-adv-x="1155" d="M238 1395q0 41 30.5 69.5t75.5 28.5h903q43 0 70 -27q18 -21 18 -53q0 -43 -30 -70.5t-76 -27.5h-361l-239 -1245q-7 -40 -35 -64t-64 -24q-35 0 -60.5 24t-25.5 62q0 16 2 24l234 1223h-354q-47 0 -70 26q-18 21 -18 54zM365 -438q1 13 12 23t24 17.5t27.5 26t22.5 45.5 q-34 10 -53.5 40t-16.5 65q3 41 36 67t75 23q46 -4 71.5 -39.5t22.5 -89.5q-5 -51 -29.5 -95.5t-55.5 -70.5t-59.5 -40.5t-44.5 -12.5q-14 2 -23 13t-9 28z" />
<glyph unicode="&#x163;" horiz-adv-x="681" d="M164 950q0 36 27 60t67 24h59l41 219q7 38 33 60t60 22t57.5 -21.5t23.5 -58.5q0 -14 -2 -22l-38 -199h167q39 0 58 -22q18 -18 18 -47q0 -35 -27 -59.5t-67 -24.5h-180l-90 -443q-19 -105 -19 -147q0 -67 31.5 -97t110.5 -30h34q40 0 62 -25q18 -21 18 -49 q0 -39 -27 -64.5t-69 -25.5h-51q-287 0 -287 264q0 72 23 180l88 437h-43q-41 0 -60 22q-18 21 -18 47zM215 -438q1 13 12 23t24 17.5t27.5 26t22.5 45.5q-34 10 -53.5 40t-16.5 65q3 41 36 67t75 23q46 -4 71.5 -39.5t22.5 -89.5q-5 -51 -29.5 -95.5t-55.5 -70.5t-59 -40.5 t-44 -12.5q-14 2 -23.5 13t-9.5 28z" />
<glyph unicode="&#x164;" horiz-adv-x="1155" d="M238 1395q0 41 30.5 69.5t75.5 28.5h903q43 0 70 -27q18 -21 18 -53q0 -43 -30 -70.5t-76 -27.5h-361l-239 -1245q-7 -40 -35 -64t-64 -24q-35 0 -60.5 24t-25.5 62q0 16 2 24l234 1223h-354q-47 0 -70 26q-18 21 -18 54zM508 1970q0 31 21 52.5t53 21.5q25 0 47 -19 l194 -196l234 196q22 19 47 19q28 0 47.5 -21.5t19.5 -50.5t-32 -55l-269 -242q-23 -20 -57 -20q-31 0 -53 22l-225 238q-27 27 -27 55z" />
<glyph unicode="&#x165;" horiz-adv-x="929" d="M164 950q0 36 27 60t67 24h59l41 219q7 38 33 60t60 22t57.5 -21.5t23.5 -58.5q0 -14 -2 -22l-38 -199h167q39 0 58 -22q18 -18 18 -47q0 -35 -27 -59.5t-67 -24.5h-180l-90 -443q-19 -105 -19 -147q0 -67 31.5 -97t110.5 -30h34q40 0 62 -25q18 -21 18 -49 q0 -39 -27 -64.5t-69 -25.5h-51q-287 0 -287 264q0 72 23 180l88 437h-43q-41 0 -60 22q-18 21 -18 47zM836 1176q1 13 12 23t24 17.5t27.5 26t22.5 45.5q-34 10 -53.5 40t-16.5 65q3 41 36 67t75 23q46 -4 71.5 -39.5t22.5 -89.5q-5 -51 -29.5 -95.5t-55.5 -70.5 t-59.5 -40.5t-44.5 -12.5q-14 2 -23 13t-9 28z" />
<glyph unicode="&#x16a;" horiz-adv-x="1290" d="M174 420q3 102 29 233l147 770q7 42 35 66t64 24t62 -24t26 -64q0 -2 -5 -22l-149 -785q-23 -121 -23 -192q0 -279 248 -279q85 0 150.5 24.5t108 63t74.5 102t50 126.5t35 151l156 809q7 41 35 65.5t63 24.5q37 0 62.5 -24t25.5 -64q0 -14 -2 -22l-158 -823 q-19 -100 -45.5 -180t-74.5 -161t-112 -135t-161 -88t-219 -34q-213 0 -318.5 117.5t-103.5 320.5zM649 1851q0 34 23 57t55 23h381q32 0 55 -23t23 -57q0 -32 -23 -54.5t-55 -22.5h-381q-32 0 -55 22.5t-23 54.5z" />
<glyph unicode="&#x16b;" horiz-adv-x="1097" d="M152 279q0 72 16 147l102 537q7 39 33 61.5t59 22.5q34 0 58 -21.5t24 -58.5q0 -15 -2 -23l-96 -502q-14 -72 -14 -125q0 -83 36.5 -121t118.5 -38q127 0 252 116l133 689q7 39 33.5 61.5t59.5 22.5q34 0 58 -21.5t24 -58.5q0 -11 -3 -23l-133 -690q-10 -39 -5.5 -66 t12.5 -38.5t26 -26.5q31 -27 25 -64q-14 -71 -99 -71q-58 0 -100 45q-22 24 -25 65q-147 -110 -296 -110q-147 0 -222 77.5t-75 213.5zM440 1386q0 34 23 57t55 23h381q32 0 55 -23t23 -57q0 -32 -23 -54.5t-55 -22.5h-381q-32 0 -55 22.5t-23 54.5z" />
<glyph unicode="&#x16e;" horiz-adv-x="1290" d="M174 420q3 102 29 233l147 770q7 42 35 66t64 24t62 -24t26 -64q0 -2 -5 -22l-149 -785q-23 -121 -23 -192q0 -279 248 -279q85 0 150.5 24.5t108 63t74.5 102t50 126.5t35 151l156 809q7 41 35 65.5t63 24.5q37 0 62.5 -24t25.5 -64q0 -14 -2 -22l-158 -823 q-19 -100 -45.5 -180t-74.5 -161t-112 -135t-161 -88t-219 -34q-213 0 -318.5 117.5t-103.5 320.5zM651 1823q0 100 70 169.5t170 69.5t169.5 -69.5t69.5 -169.5t-69.5 -170t-169.5 -70t-170 70t-70 170zM745 1823q0 -59 43.5 -101.5t102.5 -42.5t101 42t42 102 q0 61 -42 102t-101 41q-60 0 -103 -41t-43 -102z" />
<glyph unicode="&#x16f;" horiz-adv-x="1097" d="M152 279q0 72 16 147l102 537q7 39 33 61.5t59 22.5q34 0 58 -21.5t24 -58.5q0 -15 -2 -23l-96 -502q-14 -72 -14 -125q0 -83 36.5 -121t118.5 -38q127 0 252 116l133 689q7 39 33.5 61.5t59.5 22.5q34 0 58 -21.5t24 -58.5q0 -11 -3 -23l-133 -690q-10 -39 -5.5 -66 t12.5 -38.5t26 -26.5q31 -27 25 -64q-14 -71 -99 -71q-58 0 -100 45q-22 24 -25 65q-147 -110 -296 -110q-147 0 -222 77.5t-75 213.5zM440 1413q0 100 70 170t170 70t170 -70t70 -170t-70 -169.5t-170 -69.5t-170 69.5t-70 169.5zM535 1413q0 -59 43 -101t102 -42t101 41.5 t42 101.5q0 61 -42 102t-101 41t-102 -41t-43 -102z" />
<glyph unicode="&#x170;" horiz-adv-x="1290" d="M174 420q3 102 29 233l147 770q7 42 35 66t64 24t62 -24t26 -64q0 -2 -5 -22l-149 -785q-23 -121 -23 -192q0 -279 248 -279q85 0 150.5 24.5t108 63t74.5 102t50 126.5t35 151l156 809q7 41 35 65.5t63 24.5q37 0 62.5 -24t25.5 -64q0 -14 -2 -22l-158 -823 q-19 -100 -45.5 -180t-74.5 -161t-112 -135t-161 -88t-219 -34q-213 0 -318.5 117.5t-103.5 320.5zM625 1751q0 20 8 33l151 282q19 43 70 43q24 0 39 -10q41 -20 41 -63q0 -26 -10 -39l-166 -275q-24 -41 -64 -41q-12 0 -30 11q-39 16 -39 59zM1026 1751q0 20 8 33l152 282 q19 43 69 43q24 0 39 -10q43 -21 43 -63q0 -24 -12 -39l-166 -275q-24 -41 -63 -41q-13 0 -31 11q-39 17 -39 59z" />
<glyph unicode="&#x171;" horiz-adv-x="1097" d="M152 279q0 72 16 147l102 537q7 39 33 61.5t59 22.5q34 0 58 -21.5t24 -58.5q0 -15 -2 -23l-96 -502q-14 -72 -14 -125q0 -83 36.5 -121t118.5 -38q127 0 252 116l133 689q7 39 33.5 61.5t59.5 22.5q34 0 58 -21.5t24 -58.5q0 -11 -3 -23l-133 -690q-10 -39 -5.5 -66 t12.5 -38.5t26 -26.5q31 -27 25 -64q-14 -71 -99 -71q-58 0 -100 45q-22 24 -25 65q-147 -110 -296 -110q-147 0 -222 77.5t-75 213.5zM428 1286q0 20 8 33l152 283q19 43 69 43q23 0 39 -11q41 -20 41 -63q0 -27 -10 -39l-166 -275q-24 -40 -63 -40q-14 0 -31 10 q-39 16 -39 59zM829 1286q0 18 9 33l151 283q19 43 70 43q23 0 39 -11q43 -21 43 -63q0 -23 -13 -39l-165 -275q-24 -40 -64 -40q-14 0 -31 10q-39 17 -39 59z" />
<glyph unicode="&#x172;" horiz-adv-x="1290" d="M174 420q3 102 29 233l147 770q7 42 35 66t64 24t62 -24t26 -64q0 -2 -5 -22l-149 -785q-23 -121 -23 -192q0 -279 248 -279q85 0 150.5 24.5t108 63t74.5 102t50 126.5t35 151l156 809q7 41 35 65.5t63 24.5q37 0 62.5 -24t25.5 -64q0 -14 -2 -22l-158 -823 q-19 -95 -43 -171t-67.5 -154t-100 -131.5t-142.5 -91.5t-193 -46q-84 -90 -84 -164q0 -44 26.5 -68t77.5 -24q19 0 37.5 2t23.5 2q28 0 45 -18.5t17 -45.5q0 -52 -53 -67q-43 -11 -95 -11q-108 0 -166.5 49t-58.5 134q0 103 94 211q-178 20 -266 134t-86 300z" />
<glyph unicode="&#x173;" horiz-adv-x="1097" d="M152 279q0 72 16 147l102 537q7 39 33 61.5t59 22.5q34 0 58 -21.5t24 -58.5q0 -15 -2 -23l-96 -502q-14 -72 -14 -125q0 -83 36.5 -121t118.5 -38q127 0 252 116l133 689q7 39 33.5 61.5t59.5 22.5q34 0 58 -21.5t24 -58.5q0 -11 -3 -23l-133 -690q-10 -39 -5.5 -66 t12.5 -38.5t26 -26.5q31 -27 25 -64q-8 -40 -39 -57q-86 -92 -86 -164q0 -44 26.5 -68t77.5 -24q19 0 38 2t24 2q28 0 44.5 -18t16.5 -45q0 -53 -53 -68q-39 -10 -94 -10q-109 0 -167.5 48.5t-58.5 133.5q0 98 101 217q-17 10 -29 25q-22 24 -25 65q-147 -110 -296 -110 q-147 0 -222 77.5t-75 213.5z" />
<glyph unicode="&#x174;" horiz-adv-x="1767" d="M250 1417q0 45 27 70.5t65 25.5t64.5 -24.5t27.5 -69.5q14 -645 51 -1134q228 479 500 1126q22 52 50 77t77 25q57 0 77.5 -37t20.5 -100q10 -562 47 -1091q248 537 508 1171q22 57 82 57q47 0 75 -36t7 -86q-269 -655 -575 -1311q-24 -53 -56.5 -75.5t-80.5 -22.5 q-53 0 -83 32.5t-34 110.5q-35 427 -53 1016q-249 -574 -480 -1051q-25 -54 -56.5 -81t-80.5 -27q-55 0 -80 32.5t-31 98.5q-50 614 -69 1304zM793 1724q0 31 30 58l271 239q27 23 57 23q31 -3 51 -23l228 -239q24 -24 24 -53q0 -31 -21 -52.5t-53 -21.5q-26 0 -45 16 l-196 197l-232 -197q-21 -16 -47 -16q-28 0 -47.5 20t-19.5 49z" />
<glyph unicode="&#x175;" horiz-adv-x="1402" d="M170 948q-1 46 22 72.5t60 26.5q46 0 63 -24t19 -65q25 -419 57 -722q185 380 340 731q17 39 42 59.5t69 20.5q81 0 84 -109q16 -325 59 -702q162 335 344 747q14 34 32.5 49t51.5 15q47 0 62.5 -36.5t-7.5 -90.5q-202 -460 -399 -846q-45 -86 -123 -86q-48 0 -69 28.5 t-27 89.5q-31 266 -59 650q-165 -361 -324 -674q-26 -52 -55 -73t-74 -21q-53 0 -73 35t-29 112q-49 449 -66 813zM539 1315q0 30 30 57l271 240q26 22 57 22q32 -3 51 -22l228 -240q24 -24 24 -53q0 -31 -21 -52.5t-53 -21.5q-25 0 -45 17l-196 196l-232 -196 q-23 -17 -47 -17q-28 0 -47.5 20.5t-19.5 49.5z" />
<glyph unicode="&#x176;" horiz-adv-x="995" d="M209 1399q-11 50 18.5 82t73.5 32q30 0 54.5 -18t31.5 -53q88 -373 191 -699q253 364 473 727q22 43 71 43q46 0 72.5 -39.5t-0.5 -89.5q-248 -411 -555 -847l-90 -467q-7 -40 -35 -64t-63 -24q-37 0 -63 24t-26 62l3 24l88 449q-158 478 -244 858zM393 1724q0 30 31 58 l270 239q27 23 58 23q31 -3 51 -23l227 -239q25 -25 25 -53q0 -31 -21 -52.5t-53 -21.5q-26 0 -45 16l-197 197l-231 -197q-21 -16 -47 -16q-28 0 -48 20t-20 49z" />
<glyph unicode="&#x177;" horiz-adv-x="913" d="M-109 -287q6 38 32.5 61.5t66.5 24.5q87 3 162.5 48.5t156.5 160.5q-112 568 -151 930q-6 48 19 78.5t65 30.5q74 0 86 -82q43 -355 108 -732l389 752q33 62 88 62q42 0 62 -23.5t17.5 -58t-21.5 -70.5l-398 -752q-142 -268 -275 -389.5t-310 -128.5q-49 -3 -75.5 22 t-21.5 66zM262 1315q0 29 31 57l270 240q26 22 58 22q32 -3 51 -22l227 -240q25 -25 25 -53q0 -31 -21 -52.5t-53 -21.5q-25 0 -45 17l-197 196l-231 -196q-23 -17 -47 -17q-28 0 -48 20.5t-20 49.5z" />
<glyph unicode="&#x178;" horiz-adv-x="995" d="M209 1399q-11 50 18.5 82t73.5 32q30 0 54.5 -18t31.5 -53q88 -373 191 -699q253 364 473 727q22 43 71 43q46 0 72.5 -39.5t-0.5 -89.5q-248 -411 -555 -847l-90 -467q-7 -40 -35 -64t-63 -24q-37 0 -63 24t-26 62l3 24l88 449q-158 478 -244 858zM436 1796 q0 41 27.5 69.5t68.5 28.5q40 0 68.5 -28.5t28.5 -69.5q0 -40 -28.5 -68t-68.5 -28q-41 0 -68.5 28t-27.5 68zM770 1796q0 41 27.5 69.5t68.5 28.5q40 0 68.5 -28.5t28.5 -69.5q0 -40 -28.5 -68t-68.5 -28q-41 0 -68.5 28t-27.5 68z" />
<glyph unicode="&#x179;" horiz-adv-x="1036" d="M-4 80q0 18 9.5 38.5t16.5 30t31 41.5l877 1127h-592q-45 0 -68 26q-18 21 -18 54q0 41 29 68.5t75 27.5h752q42 0 66 -27q20 -20 20 -53q0 -28 -14 -53.5t-45 -63.5l-871 -1120h598q43 0 66 -26q20 -20 20 -54q0 -41 -30 -68.5t-76 -27.5h-758q-44 0 -68 27 q-20 20 -20 53zM651 1698q0 20 8 33l152 282q19 43 70 43q24 0 39 -10q43 -21 43 -64q0 -22 -13 -38l-166 -275q-24 -41 -63 -41q-14 0 -31 10q-39 17 -39 60z" />
<glyph unicode="&#x17a;" horiz-adv-x="837" d="M0 72q0 33 31 73l641 729h-391q-39 0 -62 23q-16 18 -16 49q0 38 27.5 63t68.5 25h547q42 0 61 -22t19 -49q0 -37 -37 -80l-635 -721h424q36 0 61 -25q19 -22 19 -49q0 -38 -27.5 -63t-68.5 -25h-580q-42 0 -64 25q-18 18 -18 47zM514 1286q0 20 8 33l152 283 q19 43 69 43q22 0 39 -11q43 -21 43 -63q0 -24 -12 -39l-166 -275q-24 -40 -63 -40q-14 0 -31 10q-39 17 -39 59z" />
<glyph unicode="&#x17b;" horiz-adv-x="1036" d="M-4 80q0 18 9.5 38.5t16.5 30t31 41.5l877 1127h-592q-45 0 -68 26q-18 21 -18 54q0 41 29 68.5t75 27.5h752q42 0 66 -27q20 -20 20 -53q0 -28 -14 -53.5t-45 -63.5l-871 -1120h598q43 0 66 -26q20 -20 20 -54q0 -41 -30 -68.5t-76 -27.5h-758q-44 0 -68 27 q-20 20 -20 53zM643 1839q0 44 31.5 76.5t75.5 32.5t76 -32.5t32 -76.5t-32 -75t-76 -31t-75.5 31t-31.5 75z" />
<glyph unicode="&#x17c;" horiz-adv-x="837" d="M0 72q0 33 31 73l641 729h-391q-39 0 -62 23q-16 18 -16 49q0 38 27.5 63t68.5 25h547q42 0 61 -22t19 -49q0 -37 -37 -80l-635 -721h424q36 0 61 -25q19 -22 19 -49q0 -38 -27.5 -63t-68.5 -25h-580q-42 0 -64 25q-18 18 -18 47zM479 1374q0 44 31.5 76.5t75.5 32.5 t76 -32.5t32 -76.5t-32 -75t-76 -31t-75.5 31t-31.5 75z" />
<glyph unicode="&#x17d;" horiz-adv-x="1036" d="M-4 80q0 18 9.5 38.5t16.5 30t31 41.5l877 1127h-592q-45 0 -68 26q-18 21 -18 54q0 41 29 68.5t75 27.5h752q42 0 66 -27q20 -20 20 -53q0 -28 -14 -53.5t-45 -63.5l-871 -1120h598q43 0 66 -26q20 -20 20 -54q0 -41 -30 -68.5t-76 -27.5h-758q-44 0 -68 27 q-20 20 -20 53zM432 1970q0 31 21 52.5t53 21.5q25 0 47 -19l195 -196l233 196q22 19 47 19q28 0 48 -21.5t20 -50.5t-33 -55l-268 -242q-23 -20 -58 -20q-31 0 -53 22l-225 238q-27 27 -27 55z" />
<glyph unicode="&#x17e;" horiz-adv-x="837" d="M0 72q0 33 31 73l641 729h-391q-39 0 -62 23q-16 18 -16 49q0 38 27.5 63t68.5 25h547q42 0 61 -22t19 -49q0 -37 -37 -80l-635 -721h424q36 0 61 -25q19 -22 19 -49q0 -38 -27.5 -63t-68.5 -25h-580q-42 0 -64 25q-18 18 -18 47zM276 1559q0 31 21 52t53 21q26 0 47 -18 l195 -197l233 197q21 18 47 18q28 0 48 -21t20 -50q0 -30 -33 -56l-268 -241q-25 -21 -57 -21q-31 0 -54 23l-225 237q-27 27 -27 56z" />
<glyph unicode="&#x192;" horiz-adv-x="573" d="M-182 -330q0 34 23 57t57 23h20q78 0 121 41.5t61 147.5l164 933h-63q-32 0 -55 22.5t-23 53.5q0 32 23 54t55 22h90l28 168q21 124 106 204.5t218 80.5h41q34 0 58 -22.5t24 -57.5t-24 -57.5t-58 -22.5h-33q-63 0 -103 -37.5t-52 -108.5l-25 -147h117q32 0 55 -22 t23 -54q0 -31 -23 -53.5t-55 -22.5h-144l-165 -954q-59 -328 -351 -328h-30q-33 0 -56.5 23.5t-23.5 56.5z" />
<glyph unicode="&#x218;" horiz-adv-x="1132" d="M90 125q0 35 24.5 61.5t61.5 26.5q19 0 37 -6q131 -60 268 -60q200 0 303 76.5t103 192.5q0 37 -10 68t-32 56t-44 43t-60.5 37t-65.5 30.5t-74 30.5t-73 30q-50 21 -87 41.5t-76 53t-64 69.5t-41 90.5t-16 117.5q0 104 44 186.5t119.5 134.5t174 79.5t211.5 27.5 q152 0 284 -55q60 -23 60 -78q0 -37 -25 -64.5t-63 -27.5q-18 0 -37 8q-115 47 -226 47q-165 0 -260.5 -67.5t-95.5 -173.5q0 -44 18 -81.5t38.5 -61t68.5 -51.5t74 -39.5t89 -38.5l21 -9q44 -19 70.5 -31t66 -34.5t63.5 -42t52.5 -50.5t44 -64t26.5 -77.5t11 -95.5 q0 -145 -80 -247.5t-213.5 -151t-306.5 -48.5q-167 0 -323 66q-29 12 -44.5 34t-15.5 48zM371 -438q1 13 12 23t24 17.5t27.5 26t22.5 45.5q-34 10 -53.5 40t-16.5 65q3 41 36 67t75 23q46 -4 71.5 -39.5t22.5 -89.5q-5 -51 -29.5 -95.5t-55.5 -70.5t-59.5 -40.5 t-44.5 -12.5q-14 2 -23 13t-9 28z" />
<glyph unicode="&#x219;" horiz-adv-x="872" d="M47 104q0 37 22 57.5t54 20.5q15 0 43.5 -10.5t58.5 -17.5q66 -15 125 -15q128 0 199.5 43t71.5 115q0 24 -10.5 44.5t-23.5 34.5t-41.5 29.5t-48 24t-59.5 24.5t-61 25q-48 20 -82 40.5t-68 51.5t-51.5 75.5t-17.5 101.5q0 74 33.5 132t91.5 94t130 54.5t154 18.5 q77 0 150 -17q63 -14 88.5 -36.5t25.5 -55.5q0 -38 -22 -58t-55 -20q-12 0 -39 9t-49 14q-62 12 -103 12q-102 0 -167.5 -39.5t-65.5 -101.5q0 -25 11.5 -46.5t25.5 -35.5t44 -30.5t49.5 -24.5t60.5 -24q19 -7 28 -11q42 -17 72 -31.5t64.5 -38.5t56.5 -51.5t36.5 -67.5 t14.5 -88q0 -106 -61.5 -179t-159.5 -105.5t-224 -32.5q-94 0 -166 16q-135 30 -135 100zM250 -438q1 13 12 23t24 17.5t27.5 26t22.5 45.5q-34 10 -53.5 40t-16.5 65q3 41 36 67t75 23q46 -4 71.5 -39.5t22.5 -89.5q-5 -51 -29.5 -95.5t-55.5 -70.5t-59 -40.5t-44 -12.5 q-14 2 -23.5 13t-9.5 28z" />
<glyph unicode="&#x21a;" horiz-adv-x="1155" d="M238 1395q0 41 30.5 69.5t75.5 28.5h903q43 0 70 -27q18 -21 18 -53q0 -43 -30 -70.5t-76 -27.5h-361l-239 -1245q-7 -40 -35 -64t-64 -24q-35 0 -60.5 24t-25.5 62q0 16 2 24l234 1223h-354q-47 0 -70 26q-18 21 -18 54zM365 -438q1 13 12 23t24 17.5t27.5 26t22.5 45.5 q-34 10 -53.5 40t-16.5 65q3 41 36 67t75 23q46 -4 71.5 -39.5t22.5 -89.5q-5 -51 -29.5 -95.5t-55.5 -70.5t-59.5 -40.5t-44.5 -12.5q-14 2 -23 13t-9 28z" />
<glyph unicode="&#x21b;" horiz-adv-x="681" d="M164 950q0 36 27 60t67 24h59l41 219q7 38 33 60t60 22t57.5 -21.5t23.5 -58.5q0 -14 -2 -22l-38 -199h167q39 0 58 -22q18 -18 18 -47q0 -35 -27 -59.5t-67 -24.5h-180l-90 -443q-19 -105 -19 -147q0 -67 31.5 -97t110.5 -30h34q40 0 62 -25q18 -21 18 -49 q0 -39 -27 -64.5t-69 -25.5h-51q-287 0 -287 264q0 72 23 180l88 437h-43q-41 0 -60 22q-18 21 -18 47zM215 -438q1 13 12 23t24 17.5t27.5 26t22.5 45.5q-34 10 -53.5 40t-16.5 65q3 41 36 67t75 23q46 -4 71.5 -39.5t22.5 -89.5q-5 -51 -29.5 -95.5t-55.5 -70.5t-59 -40.5 t-44 -12.5q-14 2 -23.5 13t-9.5 28z" />
<glyph unicode="&#x2c6;" horiz-adv-x="1083" d="M416 1315q0 30 30 57l271 240q26 22 57 22q32 -3 51 -22l228 -240q24 -24 24 -53q0 -31 -20.5 -52.5t-52.5 -21.5q-26 0 -46 17l-196 196l-232 -196q-23 -17 -47 -17q-28 0 -47.5 20.5t-19.5 49.5z" />
<glyph unicode="&#x2c7;" horiz-adv-x="1083" d="M451 1559q0 31 20.5 52t52.5 21q26 0 47 -18l195 -197l233 197q21 18 48 18q28 0 47.5 -21t19.5 -50q0 -30 -33 -56l-268 -241q-25 -21 -57 -21q-31 0 -54 23l-225 237q-26 26 -26 56z" />
<glyph unicode="&#x2d8;" horiz-adv-x="1083" d="M458.5 1497q6.5 24 28.5 39q22 17 53 13.5t50 -33.5q71 -130 176 -130q104 0 178 130q18 29 48 34t52 -12q23 -14 30 -40t-9 -56q-117 -197 -299 -197q-183 0 -297 197q-17 31 -10.5 55z" />
<glyph unicode="&#x2d9;" horiz-adv-x="1083" d="M647 1374q0 44 31.5 76.5t75.5 32.5t76 -32.5t32 -76.5t-32 -75t-76 -31t-75.5 31t-31.5 75z" />
<glyph unicode="&#x2da;" horiz-adv-x="1083" d="M518 1413q0 100 70 170t170 70t169.5 -70t69.5 -170t-69.5 -169.5t-169.5 -69.5t-170 69.5t-70 169.5zM612 1413q0 -59 43.5 -101t102.5 -42t101 41.5t42 101.5q0 61 -42 102t-101 41q-60 0 -103 -41t-43 -102z" />
<glyph unicode="&#x2db;" horiz-adv-x="1083" d="M309 -209q0 113 129 248l111 -29q-94 -97 -94 -172q0 -44 26.5 -68t77.5 -24q19 0 38 2t24 2q28 0 44.5 -18t16.5 -45q0 -53 -53 -68q-39 -10 -94 -10q-109 0 -167.5 48.5t-58.5 133.5z" />
<glyph unicode="&#x2dc;" horiz-adv-x="1083" d="M418 1393q-1 62 58.5 102.5t137.5 42.5q50 1 98 -20t90.5 -42t80.5 -20q28 0 49 9.5t31 21t25 21t34 10.5q28 0 48 -23.5t22 -56.5q1 -62 -59.5 -103t-137.5 -41q-51 -1 -99 19.5t-89.5 41t-79.5 19.5q-28 0 -49 -9.5t-32 -21t-26.5 -21t-32.5 -9.5q-29 0 -48 23.5 t-21 56.5z" />
<glyph unicode="&#x2dd;" horiz-adv-x="1083" d="M387 1286q0 20 8 33l152 283q19 43 69 43q22 0 39 -11q41 -20 41 -63q0 -27 -10 -39l-166 -275q-24 -40 -63 -40q-14 0 -31 10q-39 16 -39 59zM788 1286q0 18 9 33l151 283q19 43 70 43q22 0 39 -11q43 -21 43 -63q0 -23 -13 -39l-165 -275q-24 -40 -64 -40q-14 0 -31 10 q-39 17 -39 59z" />
<glyph unicode="&#x394;" horiz-adv-x="1095" d="M-4 111q275 631 682 1302q34 57 66 77.5t67 20.5t60.5 -20.5t37.5 -77.5q142 -672 176 -1302q3 -48 -32.5 -79.5t-79.5 -31.5h-912q-42 0 -64.5 31.5t-0.5 79.5zM203 166h696q-40 547 -143 1053q-311 -531 -553 -1053z" />
<glyph unicode="&#x3a9;" horiz-adv-x="1200" d="M8 80q5 35 33 60.5t63 25.5h207q-87 73 -118 195.5t-3 275.5l46 258q17 96 44.5 179t77 165.5t115 140.5t163.5 94.5t218 36.5q109 0 191.5 -35.5t130 -98t71 -140t23.5 -170.5q0 -74 -17 -164l-47 -266q-57 -330 -293 -471h199q34 0 54 -23.5t16 -58.5q-5 -34 -33 -59 t-64 -25h-362q-34 0 -55 20.5t-17 55.5q7 43 47 71q7 5 37 23t56 35t62.5 51.5t64.5 72.5t54 96.5t38 125.5l65 369q10 59 10 131q0 131 -63 209.5t-188 78.5q-81 0 -146 -23.5t-109.5 -63t-77.5 -99.5t-53 -123.5t-34 -144.5l-60 -334q-12 -82 -8 -142.5t30.5 -111 t59.5 -85.5t80 -65q31 -20 25 -67q-6 -36 -33.5 -58t-63.5 -22h-366q-33 0 -53.5 23.5t-16.5 56.5z" />
<glyph unicode="&#x3bc;" horiz-adv-x="1097" d="M25 -326q0 15 2 23l243 1266q7 39 33 61.5t59 22.5q34 0 58 -21.5t24 -58.5q0 -15 -2 -23l-96 -502q-14 -72 -14 -125q0 -83 36.5 -121t118.5 -38q127 0 252 116l133 689q7 39 33.5 61.5t59.5 22.5q34 0 58 -21.5t24 -58.5q0 -11 -3 -23l-133 -690q-10 -39 -5.5 -66 t12.5 -38.5t26 -26.5q31 -27 25 -64q-14 -71 -99 -71q-58 0 -100 45q-22 24 -25 65q-147 -110 -296 -110q-122 0 -177 67l-73 -377q-7 -39 -33.5 -61.5t-59.5 -22.5q-34 0 -57.5 21.5t-23.5 58.5z" />
<glyph unicode="&#x3c0;" horiz-adv-x="1087" d="M20 74q15 41 54 55q37 15 59.5 40.5t40.5 82.5l174 620h-51q-41 0 -61 27q-19 19 -19 47q0 38 27.5 63t68.5 25h811q44 0 62 -24q18 -15 18 -47q0 -38 -27.5 -64.5t-68.5 -26.5h-43l-121 -618q-9 -64 0 -87.5t41 -39.5q31 -24 23 -61q-7 -38 -36 -58t-67 -20 q-59 0 -102 43q-66 70 -45 192l129 649h-359l-190 -667q-36 -126 -129 -182q-63 -39 -121 -35q-39 3 -58.5 25t-9.5 61z" />
<glyph unicode="&#x2000;" horiz-adv-x="1054" />
<glyph unicode="&#x2001;" horiz-adv-x="2109" />
<glyph unicode="&#x2002;" horiz-adv-x="1054" />
<glyph unicode="&#x2003;" horiz-adv-x="2109" />
<glyph unicode="&#x2004;" horiz-adv-x="703" />
<glyph unicode="&#x2005;" horiz-adv-x="527" />
<glyph unicode="&#x2006;" horiz-adv-x="351" />
<glyph unicode="&#x2007;" horiz-adv-x="351" />
<glyph unicode="&#x2008;" horiz-adv-x="263" />
<glyph unicode="&#x2009;" horiz-adv-x="421" />
<glyph unicode="&#x200a;" horiz-adv-x="117" />
<glyph unicode="&#x2010;" horiz-adv-x="966" d="M197 592q0 40 28 66t72 26h473q42 0 64 -25q20 -20 20 -51q0 -40 -28.5 -66t-71.5 -26h-475q-39 0 -64 25q-18 21 -18 51z" />
<glyph unicode="&#x2011;" horiz-adv-x="966" d="M197 592q0 40 28 66t72 26h473q42 0 64 -25q20 -20 20 -51q0 -40 -28.5 -66t-71.5 -26h-475q-39 0 -64 25q-18 21 -18 51z" />
<glyph unicode="&#x2012;" horiz-adv-x="966" d="M197 592q0 40 28 66t72 26h473q42 0 64 -25q20 -20 20 -51q0 -40 -28.5 -66t-71.5 -26h-475q-39 0 -64 25q-18 21 -18 51z" />
<glyph unicode="&#x2013;" horiz-adv-x="1024" d="M74 559q0 39 29 65.5t71 26.5h842q39 0 63 -24q19 -22 19 -52q0 -40 -29 -66t-72 -26h-839q-44 0 -66 25q-18 21 -18 51z" />
<glyph unicode="&#x2014;" horiz-adv-x="2048" d="M74 559q0 39 29 65.5t71 26.5h1866q39 0 63 -24q19 -22 19 -52q0 -40 -29 -66t-72 -26h-1863q-44 0 -66 25q-18 21 -18 51z" />
<glyph unicode="&#x2018;" horiz-adv-x="423" d="M268 1251q5 61 34.5 114.5t66.5 84t71 48t52 15.5q17 -2 28 -15t10 -32q-1 -15 -14 -27.5t-28 -22t-32.5 -31.5t-25.5 -54q38 -14 61.5 -49t20.5 -76q-4 -51 -43 -82t-90 -26q-55 4 -86 47t-25 106z" />
<glyph unicode="&#x2019;" horiz-adv-x="423" d="M279 1145q1 15 14 27.5t28.5 22t33 31.5t26.5 54q-40 14 -63.5 49t-20.5 76q4 51 43 82t90 26q55 -4 86.5 -47t26.5 -108q-5 -49 -25.5 -93.5t-48 -74.5t-58 -52.5t-55.5 -32.5t-39 -9q-18 2 -28.5 15.5t-9.5 33.5z" />
<glyph unicode="&#x201a;" horiz-adv-x="423" d="M27 -152q1 15 14 28t29 22.5t33.5 32.5t25.5 55q-40 12 -63 47t-19 78q4 51 43 81.5t90 24.5q55 -4 86 -47.5t25 -106.5q-6 -61 -35 -114.5t-66 -84t-70.5 -48t-51.5 -15.5t-30 15.5t-11 31.5z" />
<glyph unicode="&#x201c;" horiz-adv-x="774" d="M268 1251q5 61 34.5 114.5t66.5 84t71 48t52 15.5q17 -2 28 -15t10 -32q-1 -15 -14 -27.5t-28 -22t-32.5 -31.5t-25.5 -54q38 -14 61.5 -49t20.5 -76q-4 -51 -43 -82t-90 -26q-55 4 -86 47t-25 106zM618 1251q5 61 34.5 114.5t66.5 84t71 48t52 15.5q19 -2 30.5 -15 t10.5 -32q-1 -15 -14 -27.5t-29.5 -22t-34 -31.5t-25.5 -54q40 -14 63 -49t19 -76q-3 -50 -42 -81.5t-89 -26.5q-56 5 -87.5 47.5t-25.5 105.5z" />
<glyph unicode="&#x201d;" horiz-adv-x="774" d="M279 1145q1 15 14 27.5t28.5 22t33 31.5t26.5 54q-40 14 -63.5 49t-20.5 76q4 51 43 82t90 26q55 -4 86.5 -47t26.5 -108q-5 -49 -25.5 -93.5t-48 -74.5t-58 -52.5t-55.5 -32.5t-39 -9q-18 2 -28.5 15.5t-9.5 33.5zM629 1145q1 15 14 27.5t29 22t33.5 31.5t25.5 54 q-40 14 -63 49t-19 76q4 51 43 82t90 26q55 -4 86 -47t25 -108q-4 -49 -24 -93.5t-47.5 -74.5t-57.5 -52.5t-55 -32.5t-39 -9q-18 2 -30 15.5t-11 33.5z" />
<glyph unicode="&#x201e;" horiz-adv-x="778" d="M29 -152q1 15 14 28t28.5 22.5t33 32.5t26.5 55q-40 12 -63.5 47t-20.5 78q4 51 43 81.5t90 24.5q56 -5 87 -48t24 -106q-5 -61 -34 -114t-65.5 -84t-70.5 -48.5t-53 -15.5q-18 2 -29 15.5t-10 31.5zM379 -152q1 15 14 28t29 22.5t33.5 32.5t25.5 55q-40 12 -63 47 t-19 78q3 50 42 81t89 25q57 -4 88 -47.5t25 -106.5q-4 -49 -24 -94t-47.5 -75t-57.5 -52t-55 -32t-39 -9q-19 2 -30.5 15t-10.5 32z" />
<glyph unicode="&#x2020;" horiz-adv-x="1089" d="M231 975q0 37 28 62.5t69 25.5h274l70 362q7 39 33 61.5t61 22.5q34 0 59 -22t25 -60q0 -8 -4 -20l-66 -344h258q40 0 62 -25q18 -21 18 -49q0 -37 -27.5 -62.5t-68.5 -25.5h-272l-162 -838q-7 -39 -33 -61t-59 -22q-35 0 -59.5 22t-24.5 59q0 15 2 23l157 817h-260 q-36 0 -61 25q-19 22 -19 49z" />
<glyph unicode="&#x2021;" horiz-adv-x="903" d="M-33 86q0 38 27.5 63t68.5 25h273l139 731h-260q-38 0 -61 23q-19 22 -19 49q0 38 27.5 63t68.5 25h275l69 362q7 40 34 63t61 23t59 -22t25 -59l-2 -23l-68 -344h260q41 0 60 -25q18 -18 18 -47q0 -38 -27.5 -63t-68.5 -25h-273l-139 -731h260q40 0 62 -22 q16 -21 16 -50q0 -37 -27.5 -62.5t-68.5 -25.5h-273l-69 -362q-9 -40 -35.5 -63t-59.5 -23q-35 0 -59 22.5t-24 59.5q0 14 2 22l65 344h-258q-36 0 -61 25q-17 20 -17 47z" />
<glyph unicode="&#x2022;" horiz-adv-x="1021" d="M184 684q0 146 103.5 249t249.5 103t248 -103t102 -249t-102 -248t-248 -102q-147 0 -250 102t-103 248z" />
<glyph unicode="&#x2026;" horiz-adv-x="1574" d="M82 125q0 59 41.5 100t101.5 41q59 0 100.5 -41.5t41.5 -99.5q0 -59 -42 -101t-100 -42q-60 0 -101.5 42t-41.5 101zM598 125q0 59 41.5 100t101.5 41q59 0 100.5 -41.5t41.5 -99.5q0 -59 -42 -101t-100 -42q-60 0 -101.5 42t-41.5 101zM1114 125q0 58 42 99.5t101 41.5 t101.5 -41.5t42.5 -99.5t-42.5 -100.5t-101.5 -42.5t-101 42t-42 101z" />
<glyph unicode="&#x202f;" horiz-adv-x="421" />
<glyph unicode="&#x2030;" horiz-adv-x="1671" d="M219 26q-6 24 6 44l793 1413q12 21 35.5 27t44.5 -5q22 -12 28 -36t-6 -46l-794 -1411q-11 -20 -34.5 -27t-45.5 5q-21 12 -27 36zM281.5 1112q-4.5 51 9.5 100l18 88q47 213 258 213q47 0 83 -16t56 -42t32 -60.5t11 -71.5t-8 -74l-24 -110q-23 -99 -81 -156t-173 -57 q-60 0 -101.5 26.5t-58.5 67.5t-21.5 92zM403 1190q-15 -70 4.5 -113t65.5 -43q59 0 88 33t41 92l23 105q14 61 -5 100t-65 39q-61 0 -90 -32.5t-41 -90.5zM599 190q0 40 9 80l21 88q47 211 258 211q58 0 99.5 -24t58.5 -61.5t23 -84.5t-7 -92l-27 -110 q-21 -98 -78.5 -155.5t-171.5 -57.5q-49 0 -85.5 17t-57.5 45.5t-31.5 66t-10.5 77.5zM723 246q-15 -69 5 -111.5t67 -42.5q59 0 86 32t41 93l22 105q14 60 -5 98.5t-65 38.5q-60 0 -89.5 -32.5t-41.5 -90.5zM1121.5 170q-5.5 51 8.5 100l21 88q47 211 258 211q57 0 98 -24 t58.5 -61.5t23 -84.5t-7.5 -92l-25 -110q-21 -98 -78.5 -155.5t-172.5 -57.5q-60 0 -102 26.5t-59 67.5t-22.5 92zM1245 246q-17 -68 3.5 -111t66.5 -43q59 0 87 32t42 93l22 105q14 60 -4.5 98.5t-64.5 38.5q-61 0 -90 -32t-43 -91z" />
<glyph unicode="&#x2039;" horiz-adv-x="710" d="M113 580q7 32 45 63l430 381q28 23 63 18t56 -32q17 -25 10 -58.5t-35 -58.5l-379 -338l264 -350q20 -24 18.5 -59t-26.5 -56q-27 -22 -60.5 -18t-52.5 30l-307 400q-32 47 -26 78z" />
<glyph unicode="&#x203a;" horiz-adv-x="700" d="M77.5 161q7.5 34 35.5 58l379 336l-265 352q-20 25 -19.5 60t25.5 57q29 22 62 17.5t53 -29.5l305 -404q35 -41 29 -73q-6 -34 -43 -66l-432 -381q-28 -23 -64 -18t-55 32q-18 25 -10.5 59z" />
<glyph unicode="&#x2044;" horiz-adv-x="790" d="M-9 35q-6 32 13 63l815 1366q19 31 53 44t60 -1q28 -12 34.5 -43.5t-12.5 -62.5l-817 -1366q-19 -32 -50.5 -44.5t-61.5 -0.5q-28 13 -34 45z" />
<glyph unicode="&#x205f;" horiz-adv-x="527" />
<glyph unicode="&#x20ac;" d="M131 575q0 32 23.5 53t58.5 21h51l33 185h-43q-27 0 -47 20q-14 14 -14 41q0 32 23 54t58 22h52q61 269 205 404.5t405 135.5q126 0 223 -51q84 -47 84 -100q0 -34 -24 -59t-60 -25q-11 0 -20.5 3t-28 13t-29.5 15q-67 36 -149 36q-91 0 -161.5 -27t-118.5 -79 t-79.5 -116t-54.5 -150h346q33 0 54 -21q14 -16 14 -41q0 -33 -23 -54t-59 -21h-365l-34 -185h352q35 0 53 -18q14 -16 14 -43q0 -32 -22.5 -53t-59.5 -21h-358q-6 -47 -6 -84q0 -280 266 -280q115 0 221 61q9 5 23 14t21 12.5t16.5 8t17 6.5t15.5 2q36 0 58.5 -25.5 t22.5 -60.5q0 -52 -79 -98q-156 -90 -326 -90q-117 0 -204 34.5t-137.5 97t-74.5 143t-24 179.5q0 22 4 80h-45q-36 0 -52 21q-16 16 -16 40z" />
<glyph unicode="&#x2122;" horiz-adv-x="1392" d="M272 1401q0 26 19 43.5t47 17.5h412q28 0 43 -18q14 -14 14 -35q0 -27 -19 -44t-47 -17h-151l-107 -555q-4 -25 -20.5 -39.5t-38.5 -14.5q-24 0 -39.5 15t-15.5 41v16l104 537h-143q-31 0 -43 18q-15 12 -15 35zM743 793q0 3 1 8t1 6l117 612q6 25 23 38t37 13 q45 0 57 -47l106 -395l263 406q22 36 63 36q23 0 39 -14.5t16 -38.5q0 -10 -2 -12l-116 -612q-4 -24 -21 -39t-39 -15q-21 0 -37 15t-16 39q0 10 2 14l74 383l-195 -299q-20 -33 -55 -33q-39 0 -49 41l-78 297l-78 -405q-4 -23 -20.5 -37.5t-38.5 -14.5q-21 0 -37.5 15 t-16.5 39z" />
<glyph unicode="&#x2202;" horiz-adv-x="1103" d="M119 424q0 109 45 200.5t117.5 150.5t161.5 91.5t180 32.5q118 0 213 -53q-83 280 -344 508q-25 21 -31 49t6 51t32 39.5t48 15.5t53 -22q219 -187 338 -421.5t119 -508.5q0 -264 -140 -419.5t-362 -155.5q-196 0 -316 118t-120 324zM291 424q0 -129 73 -203t193 -74 q146 0 236 107.5t90 302.5q0 34 -4 96q-111 90 -256 90q-132 0 -232 -91.5t-100 -227.5z" />
<glyph unicode="&#x220f;" horiz-adv-x="1327" d="M57 -283l328 1686q8 37 38.5 63.5t65.5 26.5h850q35 0 55 -26.5t13 -63.5l-328 -1686q-7 -39 -39 -65.5t-69 -26.5q-38 0 -59 26t-15 66l311 1598h-657l-311 -1598q-7 -39 -39.5 -65.5t-69.5 -26.5q-39 0 -60 26.5t-14 65.5z" />
<glyph unicode="&#x2211;" horiz-adv-x="1040" d="M14 80q0 39 33 72l666 593l-432 605q-15 21 -15 51q0 40 29.5 67t73.5 27h766q40 0 67 -27q19 -22 19 -51q0 -41 -30.5 -68.5t-74.5 -27.5h-596l344 -485q39 -53 39 -91q-3 -50 -55 -96l-529 -473h580q45 0 68 -26q20 -23 20 -54q0 -41 -30 -68.5t-76 -27.5h-779 q-43 0 -67 27q-21 24 -21 53z" />
<glyph unicode="&#x2212;" horiz-adv-x="1118" d="M168 559q0 39 29 65.5t73 26.5h693q42 0 65 -26q19 -19 19 -50q0 -40 -29.5 -67t-73.5 -27h-692q-40 0 -64 27q-20 20 -20 51z" />
<glyph unicode="&#x221a;" horiz-adv-x="1619" d="M129 424q6 36 34 61t64 25h217q50 0 70 -45l156 -326l989 1372q23 31 57 40.5t62 -5.5q28 -18 32.5 -49.5t-18.5 -64.5l-1077 -1493q-36 -48 -82 -48q-48 0 -66 41l-192 408h-174q-34 0 -55 24.5t-17 59.5z" />
<glyph unicode="&#x221e;" horiz-adv-x="1515" d="M162 588v117q0 67 21 125.5t62.5 106t111 75.5t159.5 28q61 0 113 -18.5t93.5 -54t72 -74t63.5 -92.5q66 112 145 175.5t195 63.5q90 0 159.5 -28t111 -75.5t62.5 -106t21 -125.5v-117q0 -67 -21 -126.5t-62.5 -107.5t-111 -76t-159.5 -28q-61 0 -112.5 19t-93 54.5 t-72 75t-62.5 93.5q-33 -54 -63.5 -93t-72 -75.5t-93.5 -55t-113 -18.5q-90 0 -159.5 28t-111 76t-62.5 107.5t-21 126.5zM311 610q0 -34 5.5 -63.5t19.5 -59t36.5 -50t59.5 -33.5t84 -13q89 0 144.5 60t115.5 194q-60 134 -115.5 195t-144.5 61q-59 0 -101 -18.5 t-63.5 -51.5t-31 -70t-9.5 -81v-70zM938 645q62 -134 117.5 -194t142.5 -60q48 0 85 13t59 33.5t36.5 50t19.5 59t5 63.5v70q0 221 -205 221q-87 0 -142.5 -60.5t-117.5 -195.5z" />
<glyph unicode="&#x222b;" horiz-adv-x="573" d="M-293 -360q5 35 31.5 59.5t62.5 24.5h47q121 0 175 54.5t81 192.5l215 1112q39 201 143 305.5t304 104.5h57q34 0 54 -22.5t16 -57.5q-5 -34 -32 -58t-62 -24h-47q-122 0 -175.5 -55t-80.5 -193l-215 -1112q-41 -202 -144.5 -305.5t-304.5 -103.5h-57q-33 0 -52.5 22.5 t-15.5 55.5z" />
<glyph unicode="&#x2248;" horiz-adv-x="1110" d="M211 418q13 70 95 115t175 45q47 0 90 -15t69.5 -33.5t63 -33.5t72.5 -15q42 0 74 16.5t57 33t49 16.5q35 0 55.5 -28t12.5 -66q-13 -69 -94 -113.5t-174 -44.5q-48 0 -91 14.5t-69.5 32.5t-63 32.5t-73.5 14.5q-41 0 -72.5 -16.5t-56.5 -32.5t-49 -16q-35 0 -55.5 28 t-14.5 66zM285 799q13 70 94 116t174 46q59 0 110.5 -24.5t96.5 -48.5t88 -24q42 0 74 16.5t56 33t48 16.5q37 0 57.5 -28t12.5 -66q-13 -70 -94 -114t-175 -44q-47 0 -90.5 14.5t-70.5 32.5t-63 32.5t-71 14.5q-33 0 -61 -10t-44 -22.5t-36 -22.5t-39 -10q-35 0 -55 27.5 t-12 64.5z" />
<glyph unicode="&#x2260;" horiz-adv-x="1110" d="M188 360q0 40 29 66.5t72 26.5h205l147 239h-291q-43 0 -65 25q-19 22 -19 51q0 40 29.5 66t73.5 26h376l138 219q14 23 40.5 29.5t51.5 -8.5q23 -14 29 -40.5t-9 -51.5l-92 -148h127q36 0 57 -24q21 -21 21 -52q0 -40 -29 -66t-73 -26h-207l-148 -239h295q42 0 64 -25 q18 -21 18 -51q0 -40 -28.5 -66t-71.5 -26h-383l-137 -222q-15 -24 -42.5 -30t-50.5 8q-23 15 -29.5 42t7.5 50l94 152h-125q-34 0 -55 24q-19 22 -19 51z" />
<glyph unicode="&#x2264;" horiz-adv-x="1110" d="M84 74q0 38 28 64t70 26h672q39 0 61 -25q21 -21 21 -49q0 -38 -28.5 -64t-69.5 -26h-674q-37 0 -62 25q-18 18 -18 49zM199 743q10 51 55 70l752 365q43 19 74.5 11t45.5 -38q15 -29 1.5 -59.5t-50.5 -47.5l-653 -315l514 -305q32 -16 43 -46t-8 -65q-13 -20 -34 -27 t-42 -3.5t-41 14.5l-610 360q-25 15 -37.5 38.5t-9.5 47.5z" />
<glyph unicode="&#x2265;" horiz-adv-x="1110" d="M133 74q0 38 28 64t70 26h672q39 0 64 -25q18 -21 18 -49q0 -38 -28.5 -64t-69.5 -26h-674q-36 0 -61 25q-19 22 -19 49zM181.5 381.5q13.5 30.5 51.5 48.5l654 313l-516 308q-30 16 -41.5 45t6.5 63q19 31 56 34t63 -17l610 -361q53 -30 43 -86q-6 -49 -53 -70 l-750 -362q-45 -20 -77 -12t-46 37t-0.5 59.5z" />
<glyph unicode="&#x25ca;" horiz-adv-x="1105" d="M164 745q7 28 24 48l560 682q29 36 71 36q44 0 58 -36l294 -682q12 -28 7 -48q-3 -21 -25 -47l-559 -684q-27 -34 -72 -34t-57 34l-295 684q-9 21 -6 47zM330 743l231 -546l453 555l-232 546z" />
<glyph unicode="&#xe000;" horiz-adv-x="1044" d="M0 0v1044h1044v-1044h-1044z" />
<glyph horiz-adv-x="1107" d="M213 489q0 149 89.5 238.5t240.5 89.5q97 0 162 -33q5 71 52 103.5t132 23.5l88 -10v-92h-105q-83 0 -90 -76q92 -88 92 -244q0 -153 -90.5 -240t-240.5 -87q-60 0 -99 10v-86q23 -16 68.5 -32.5t113.5 -38t111 -38.5q44 -17 76.5 -34.5t64 -43t48 -61.5t16.5 -80 q0 -78 -47 -141q-51 -65 -141.5 -98t-182.5 -33q-94 0 -183 31.5t-132 99.5q-31 53 -31 113l92 45q-2 -8 -2 -21q0 -41 25.5 -77.5t71.5 -59.5q71 -33 159 -33t156 33q98 48 98 141q0 44 -51 78t-123.5 57.5t-145.5 48.5t-124 65t-51 93q0 51 47 95q-84 39 -124 117.5 t-40 176.5zM326 489q0 -105 55 -167t162 -62q103 0 159 63.5t56 165.5q0 104 -55.5 166t-159.5 62q-102 0 -159.5 -63t-57.5 -165zM403 -225h62v-8h-27v-70h-8v70h-27v8zM483 -229l6 4l29 -37l29 37l6 -4l-31 -39v-35h-8v35zM580 -225h30q10 0 17.5 -7.5t7.5 -17.5 q0 -8 -8 -16q-6 -6 -17 -6h-22v-31h-8v78zM588 -233v-31h22q9 0 11 4q4 2 4 10q0 17 -15 17h-22zM664 -225h53v-8h-45v-25h41v-8h-41v-29h45v-8h-53v78z" />
</font>
</defs>
</svg>
