<?xml version="1.0" encoding="utf-8"?>
<!-- Generator: Adobe Illustrator 17.1.0, SVG Export Plug-In . SVG Version: 6.00 Build 0)  -->
<!DOCTYPE svg PUBLIC "-//W3C//DTD SVG 1.1//EN" "http://www.w3.org/Graphics/SVG/1.1/DTD/svg11.dtd">
<svg version="1.1" id="Layer_1" xmlns="http://www.w3.org/2000/svg" xmlns:xlink="http://www.w3.org/1999/xlink" x="0px" y="0px"
	 viewBox="0 0 84.8 70.6" enable-background="new 0 0 84.8 70.6" xml:space="preserve">
<line fill="#FFFFFF" x1="0" y1="0" x2="0" y2="0"/>
<g>
	<defs>
		<path id="SVGID_1_" d="M0,0"/>
	</defs>
	<use xlink:href="#SVGID_1_"  overflow="visible" fill="#FFFFFF"/>
	<clipPath id="SVGID_2_">
		<use xlink:href="#SVGID_1_"  overflow="visible"/>
	</clipPath>
	<g clip-path="url(#SVGID_2_)">
		<path fill-rule="evenodd" clip-rule="evenodd" fill="#FFFFFF" d="M0,0"/>
	</g>
</g>
<g>
	<g>
		<polygon fill="#00295A" points="0,0 84.8,0 84.8,70.6 0,70.6 0,0 		"/>
		<path fill="#FFFFFF" d="M12.9,61.8l-0.1,0.6c-0.3,1.1-1.5,1.3-2.2,1.3c-1.7,0-3.2-1.2-3.2-4.1c0-2.6,1.3-4,3.1-4
			c1.2,0,2,0.5,2.1,1.2l0.1,0.4H13v-1.6c-0.8-0.3-1.7-0.4-2.5-0.4c-2.8,0-4.4,2.2-4.4,4.5c0,2.6,1.9,4.4,4.4,4.4
			c1,0,1.9-0.2,2.6-0.6l0.2-1.7H12.9L12.9,61.8z"/>
		<path fill="#FFFFFF" d="M17.4,59.7c0,2.6,1.9,4.4,4.4,4.4c2.5,0,4.4-1.8,4.4-4.4c0-2.2-1.6-4.5-4.4-4.5
			C18.9,55.2,17.4,57.5,17.4,59.7L17.4,59.7z M18.6,59.6c0-2.6,1.3-4,3.2-4c1.7,0,3.2,1.2,3.2,4.1c0,3-1.4,4.1-3.2,4.1
			C20.1,63.7,18.6,62.5,18.6,59.6L18.6,59.6z"/>
		<path fill="#FFFFFF" d="M35.1,55.7c0.8,0,0.9,0.1,1,0.1c0.1,0.1,0.2,0.9,0.2,4.8c0,2.5-1.4,2.9-2.6,2.9c-1.5,0-2.1-0.9-2.1-2.2
			c0-0.4,0-0.8,0-1.1l0.1-3.4c0-0.9,0.1-1,0.2-1c0.1,0,0.8-0.1,1-0.1v-0.4c-0.6,0-1.2,0-1.8,0c-0.5,0-1,0-1.5,0v0.4
			c0.9,0,1,0.1,1,0.5v5.2c0,1.7,1.3,2.6,3.1,2.6c2.1,0,3.1-1.2,3.1-3l0.1-4.9c0-0.4,0.1-0.5,0.8-0.5v-0.4c-0.3,0-0.8,0-1.2,0
			c-0.4,0-0.9,0-1.3,0V55.7L35.1,55.7z"/>
		<path fill="#FFFFFF" d="M40.9,63.9c0.4,0,0.6,0,1.2,0c0.6,0,0.9,0,1.2,0v-0.4l-0.5,0c-0.3,0-0.4-0.3-0.4-0.5
			c-0.1-1.5-0.1-4.5-0.1-6.2l0,0c1.8,2.2,4.1,5,5.9,7.4h0.3v-1.1c0-3.8,0.1-6.7,0.2-6.9c0.1-0.2,0.2-0.3,0.8-0.3v-0.4
			c-0.4,0-0.8,0-1.3,0c-0.3,0-0.5,0-1.2,0v0.4c0.7,0,0.8,0.1,0.9,0.2c0.1,0.1,0.2,0.7,0.2,4.3c0,0.7,0,1.3,0,2
			c-1.7-2-3.6-4.4-5.3-6.8c-0.3,0-0.5,0-0.8,0c-0.3,0-0.7,0-1,0v0.4c0.4,0,0.7,0.1,0.8,0.1c0.1,0.1,0.2,0.3,0.2,1.3
			c0,5.4-0.1,6-0.2,6.1c-0.1,0.1-0.2,0.1-0.8,0.2V63.9L40.9,63.9z"/>
		<path fill="#FFFFFF" d="M59.7,61.8l-0.1,0.6c-0.3,1.1-1.5,1.3-2.2,1.3c-1.7,0-3.2-1.2-3.2-4.1c0-2.6,1.3-4,3.1-4
			c1.2,0,2,0.5,2.1,1.2l0.1,0.4h0.4v-1.6c-0.8-0.3-1.7-0.4-2.5-0.4c-2.8,0-4.4,2.2-4.4,4.5c0,2.6,1.9,4.4,4.4,4.4
			c1,0,1.9-0.2,2.6-0.6l0.2-1.7H59.7L59.7,61.8z"/>
		<path fill="#FFFFFF" d="M64.1,63.9c0.5,0,1.1,0,1.9,0c0.8,0,1.4,0,1.9,0v-0.4c-0.9-0.1-1.1-0.1-1.2-0.2c-0.1-0.1-0.1-0.9-0.1-2.2
			v-3.1c0-1.3,0-2.1,0.1-2.2c0.1-0.1,0.3-0.1,1.2-0.2v-0.4c-0.5,0-1.1,0-1.9,0c-0.8,0-1.4,0-1.9,0v0.4c0.9,0.1,1.1,0.1,1.2,0.2
			c0.1,0.1,0.1,0.9,0.1,2.2v3.1c0,1.3,0,2.1-0.1,2.2c-0.1,0.1-0.3,0.1-1.2,0.2V63.9L64.1,63.9z"/>
		<path fill="#FFFFFF" d="M72,63.9c1.3,0,2.6,0,3.5,0c0.9,0,1.8,0,2.8,0l0.5-2.2l-0.3,0l-0.4,0.9c-0.3,0.8-0.4,0.8-3,0.8
			c-0.7,0-0.8,0-0.8-0.4c0-1.5,0-3.1,0-4.7c0-1.7,0.1-2.3,0.1-2.4c0.1-0.1,0.2-0.1,1.2-0.2v-0.3c-0.4,0-1.1,0-1.7,0
			c-0.4,0-1.3,0-1.9,0v0.4c1,0.1,1.1,0.1,1.1,0.2c0.1,0.1,0.1,0.3,0.1,2.2v3c0,1.9-0.1,2.1-0.1,2.2c-0.1,0.1-0.1,0.1-1.1,0.2V63.9
			L72,63.9z"/>
		<path fill="#FFFFFF" d="M5.9,53.3c0.5,0,1.1,0,1.9,0c0.8,0,1.4,0,1.9,0V53c-0.9-0.1-1.1-0.1-1.2-0.2c-0.1-0.1-0.1-0.9-0.1-2.2
			v-1.5H9c0.4,0,0.5,0.1,1,1c0.6,1,1.1,1.8,1.7,3.2c0.4,0,1.2,0,1.7,0v-0.4c-0.7,0-0.7-0.1-0.9-0.3l-1.2-2.1c-0.8-1.4-1-1.6-1.2-1.6
			v0c1.6-0.3,2-1.3,2-2c0-1.2-0.9-2-2.5-2c-0.7,0-1,0-1.7,0c-0.7,0-1.6,0-2.1,0v0.4c0.9,0.1,1.2,0.1,1.3,0.2
			c0.1,0.1,0.1,0.9,0.1,2.2v3.1c0,1.3,0,2.1-0.1,2.2C7,52.9,6.8,52.9,5.9,53V53.3L5.9,53.3z M8.2,46.6c0-1.3,0.1-1.4,0.5-1.4
			c1.3,0,2.3,0.3,2.3,1.8c0,1.3-0.9,1.8-2.4,1.8c-0.2,0-0.3,0-0.4,0V46.6L8.2,46.6z"/>
		<path fill="#FFFFFF" d="M15.9,53.3c0.9,0,1.9,0,3.2,0c1.3,0,2.6,0,3.5,0l0.4-2.1h-0.4c-0.4,1.3-0.7,1.6-1.8,1.6h-2.1
			c-0.4,0-0.5,0-0.5-1.1c0-0.9,0-1.7,0-2.6c0.3,0,0.8,0,1.3,0c0.4,0,0.7,0,1,0c0.5,0.1,0.5,0.1,0.5,1.1h0.4c0-0.4,0-1,0-1.3
			c0-0.4,0-0.8,0-1.2H21v0.5c0,0.5,0,0.6-1.3,0.6c-0.7,0-1.2,0-1.5,0l0-3.1c0-0.3,0-0.4,1.5-0.4c1.8,0,1.8,0.1,2,0.7l0.1,0.6h0.4
			v-1.7c-0.7,0-4,0-4.6,0c-0.4,0-1.3,0-1.9,0v0.4c1,0.1,1.1,0.1,1.1,0.2c0.1,0.1,0.1,0.3,0.1,2.2v3c0,1.9-0.1,2.1-0.1,2.2
			c-0.1,0.1-0.1,0.1-1.1,0.2V53.3L15.9,53.3z"/>
		<path fill="#FFFFFF" d="M25.7,52.9c0.4,0.3,1.3,0.5,2,0.5c2.1,0,2.9-1.5,2.9-2.6c0-1.1-0.5-1.6-2.5-2.8c-1.4-0.8-1.6-1.2-1.6-1.7
			c0-0.7,0.6-1.4,1.6-1.4c1.1,0,1.5,0.6,1.6,1.6h0.5v-1.4c-0.6-0.3-1.1-0.5-2.1-0.5c-1.7,0-2.4,1.2-2.4,2.2c0,1,0.5,1.7,2.6,2.8
			c1.1,0.6,1.6,1.1,1.6,1.8c0,1.2-1,1.7-1.9,1.7c-1.3,0-1.6-0.8-1.7-1.5l0-0.4h-0.5V52.9L25.7,52.9z"/>
		<path fill="#FFFFFF" d="M33.5,53.3c0.9,0,1.9,0,3.2,0c1.3,0,2.6,0,3.5,0l0.4-2.1h-0.4c-0.4,1.3-0.7,1.6-1.8,1.6h-2.1
			c-0.4,0-0.5,0-0.5-1.1c0-0.9,0-1.7,0-2.6c0.3,0,0.8,0,1.3,0c0.4,0,0.7,0,1,0c0.5,0.1,0.5,0.1,0.5,1.1H39c0-0.4,0-1,0-1.3
			c0-0.4,0-0.8,0-1.2h-0.4v0.5c0,0.5,0,0.6-1.3,0.6c-0.7,0-1.2,0-1.5,0l0-3.1c0-0.3,0-0.4,1.5-0.4c1.8,0,1.8,0.1,2,0.7l0.1,0.6h0.4
			v-1.7c-0.7,0-4,0-4.6,0c-0.4,0-1.3,0-1.9,0v0.4c1,0.1,1.1,0.1,1.1,0.2c0.1,0.1,0.1,0.3,0.1,2.2v3c0,1.9-0.1,2.1-0.1,2.2
			c-0.1,0.1-0.1,0.1-1.1,0.2V53.3L33.5,53.3z"/>
		<path fill="#FFFFFF" d="M46.2,46c0.2,0.4,0.9,2.4,1.1,3.5c-0.2,0-0.4,0-0.6,0c-0.5,0-1.3-0.1-1.8-0.1C45.3,48.3,45.7,47.1,46.2,46
			L46.2,46z M43.3,52.3c-0.2,0.5-0.3,0.6-0.5,0.6L42.3,53v0.3c0.3,0,0.8,0,1.4,0c0.6,0,1.1,0,1.3,0V53c-1-0.1-1.1-0.1-1.1-0.4
			c0-0.2,0.5-1.8,0.8-2.7c0.7,0,1.4-0.1,2.1-0.1c0.2,0,0.4,0,0.6,0l0.7,1.8c0.1,0.2,0.2,0.7,0.2,0.9c0,0.3-0.1,0.4-1.1,0.4v0.4
			c0.4,0,1,0,1.7,0c0.7,0,1.1,0,1.4,0V53l-0.3,0c-0.4,0-0.5-0.2-0.7-0.8l-2.3-6.7c-0.1-0.3-0.1-0.5-0.2-0.7h-0.5"/>
		<path fill="#FFFFFF" d="M64.4,35.4c0.2,0.4,0.9,2.4,1.1,3.5c-0.2,0-0.4,0-0.6,0c-0.5,0-1.3-0.1-1.8-0.1
			C63.5,37.7,63.9,36.5,64.4,35.4L64.4,35.4z M61.5,41.8c-0.2,0.5-0.3,0.6-0.5,0.6l-0.5,0.1v0.3c0.3,0,0.8,0,1.4,0
			c0.6,0,1.1,0,1.3,0v-0.4c-1-0.1-1.1-0.1-1.1-0.4c0-0.2,0.5-1.8,0.8-2.7c0.7,0,1.4-0.1,2.1-0.1c0.2,0,0.4,0,0.6,0l0.7,1.8
			c0.1,0.2,0.2,0.7,0.2,0.9c0,0.3-0.1,0.4-1.1,0.4v0.4c0.4,0,1,0,1.7,0c0.7,0,1.1,0,1.4,0v-0.4l-0.3,0c-0.4,0-0.5-0.2-0.7-0.8
			l-2.3-6.7c-0.1-0.3-0.1-0.5-0.2-0.7l-0.5,0L61.5,41.8L61.5,41.8z"/>
		<path fill="#FFFFFF" d="M51.9,53.3c0.5,0,1.1,0,1.9,0c0.8,0,1.4,0,1.9,0V53c-0.9-0.1-1.1-0.1-1.2-0.2c-0.1-0.1-0.1-0.9-0.1-2.2
			v-1.5H55c0.4,0,0.5,0.1,1,1c0.6,1,1.1,1.8,1.7,3.2c0.4,0,1.2,0,1.7,0v-0.4c-0.7,0-0.7-0.1-0.9-0.3l-1.2-2.1
			c-0.8-1.4-1-1.6-1.2-1.6v0c1.6-0.3,2-1.3,2-2c0-1.2-0.9-2-2.5-2c-0.7,0-1,0-1.7,0c-0.7,0-1.6,0-2.1,0v0.4c0.9,0.1,1.2,0.1,1.3,0.2
			c0.1,0.1,0.1,0.9,0.1,2.2v3.1c0,1.3,0,2.1-0.1,2.2c-0.1,0.1-0.3,0.1-1.3,0.2V53.3L51.9,53.3z M54.3,46.6c0-1.3,0.1-1.4,0.5-1.4
			c1.3,0,2.3,0.3,2.3,1.8c0,1.3-0.9,1.8-2.4,1.8c-0.2,0-0.3,0-0.4,0V46.6L54.3,46.6z"/>
		<path fill="#FFFFFF" d="M68.2,51.2l-0.1,0.6c-0.3,1.1-1.5,1.3-2.2,1.3c-1.7,0-3.2-1.2-3.2-4.1c0-2.6,1.3-4,3.1-4
			c1.2,0,2,0.5,2.1,1.2l0.1,0.4h0.4v-1.6c-0.8-0.3-1.7-0.4-2.5-0.4c-2.8,0-4.4,2.2-4.4,4.5c0,2.6,1.9,4.4,4.4,4.4
			c1,0,1.9-0.2,2.6-0.6l0.2-1.7H68.2L68.2,51.2z"/>
		<path fill="#FFFFFF" d="M76.3,53.3c0.4,0,1.1,0,1.7,0c0.4,0,1.3,0,1.9,0V53c-1-0.1-1.1-0.1-1.1-0.2c-0.1-0.1-0.1-0.3-0.1-2.2v-3
			c0-1.9,0.1-2.1,0.1-2.2c0.1-0.1,0.1-0.1,1.1-0.2v-0.4c-0.6,0-1.4,0-1.9,0c-0.6,0-1.2,0-1.7,0v0.3c1,0.1,1.1,0.1,1.2,0.2
			c0.1,0.1,0.1,0.6,0.1,2.4c0,0.4,0,0.7,0,1.1c-0.9,0-2,0-2.6,0c-0.5,0-1.3,0-2,0c0-0.4,0-0.7,0-1.1c0-1.8,0.1-2.3,0.1-2.4
			c0.1-0.1,0.2-0.1,1.2-0.2v-0.3c-0.4,0-1.1,0-1.7,0c-0.4,0-1.3,0-1.9,0v0.4c1,0.1,1.1,0.1,1.1,0.2c0.1,0.1,0.1,0.3,0.1,2.2v3
			c0,1.9-0.1,2.1-0.1,2.2c-0.1,0.1-0.1,0.1-1.1,0.2v0.4c0.6,0,1.4,0,1.9,0c0.6,0,1.2,0,1.7,0V53c-1-0.1-1.1-0.1-1.2-0.2
			c-0.1-0.1-0.1-0.6-0.1-2.4c0-0.4,0-0.8,0-1.1c0.8,0,2.2-0.1,3.2-0.1c0.5,0,1.1,0,1.5,0.1c0,0.3,0,0.7,0,1.1c0,1.7-0.1,2.3-0.1,2.4
			c-0.1,0.1-0.2,0.1-1.2,0.2V53.3L76.3,53.3z"/>
		<path fill="#FFFFFF" d="M12.1,37.9c0.2,0,0.9,0,0.9,0.3c0,0.3-0.3,1-1.3,2.2c-0.5-0.7-1.6-1.8-2.2-2.4c0.9-0.4,1.3-0.9,1.3-1.4
			c0-0.8-0.8-1.3-1.5-1.3c-0.9,0-1.5,0.7-1.5,1.4c0,0.5,0.2,0.9,0.7,1.5c-1.7,0.8-2.1,1.6-2.1,2.5c0,1.4,1,2.3,2.2,2.3
			c0.9,0,1.8-0.4,2.7-1.5c0.7,1.1,1.2,1.3,1.8,1.3c0.6,0,1.1-0.2,1.8-0.6l-0.2-0.3c-0.4,0.2-0.9,0.4-1.3,0.4c-0.6,0-0.9-0.3-1.7-1.5
			c0.5-0.6,1-1.3,1.3-2c0.4-0.8,0.5-1,1.3-1v-0.4c-0.4,0-0.8,0-1.3,0c-0.4,0-0.8,0-1.3,0V37.9L12.1,37.9z M11.2,41.1
			c-0.7,0.8-1.4,1.2-2.1,1.2c-1.1,0-1.7-0.9-1.7-1.7c0-0.8,0.4-1.4,1.4-2.1C9.6,39.2,10.6,40.2,11.2,41.1L11.2,41.1z M10.1,36.7
			c0,0.4-0.3,0.8-0.8,1.1c-0.6-0.6-0.8-0.9-0.8-1.3c0-0.4,0.3-0.7,0.7-0.7C9.7,35.8,10.1,36.1,10.1,36.7L10.1,36.7z"/>
		<path fill="#FFFFFF" d="M21.5,42.4c0.4,0.3,1.3,0.5,2,0.5c2.1,0,2.9-1.5,2.9-2.6c0-1.1-0.5-1.6-2.5-2.8c-1.4-0.8-1.6-1.2-1.6-1.8
			c0-0.7,0.6-1.4,1.6-1.4c1.1,0,1.5,0.6,1.6,1.6H26v-1.4c-0.6-0.3-1.1-0.5-2.1-0.5c-1.7,0-2.4,1.2-2.4,2.2c0,1,0.5,1.7,2.6,2.8
			c1.1,0.6,1.6,1.1,1.6,1.8c0,1.2-1,1.7-1.9,1.7c-1.3,0-1.6-0.8-1.7-1.5l0-0.4h-0.5V42.4L21.5,42.4z"/>
		<path fill="#FFFFFF" d="M30.3,38.6c0,2.6,1.9,4.4,4.4,4.4c2.5,0,4.4-1.8,4.4-4.4c0-2.2-1.6-4.5-4.4-4.5
			C31.9,34.1,30.3,36.3,30.3,38.6L30.3,38.6z M31.5,38.5c0-2.6,1.3-4,3.2-4c1.7,0,3.2,1.2,3.2,4.1c0,3-1.4,4.1-3.2,4.1
			C33,42.6,31.5,41.4,31.5,38.5L31.5,38.5z"/>
		<path fill="#FFFFFF" d="M49.4,40.7l-0.1,0.6c-0.3,1.1-1.5,1.3-2.2,1.3c-1.7,0-3.2-1.2-3.2-4.1c0-2.6,1.3-4,3.1-4
			c1.2,0,2,0.5,2.1,1.2l0.1,0.4h0.4v-1.6c-0.8-0.3-1.7-0.4-2.5-0.4c-2.8,0-4.4,2.2-4.4,4.5c0,2.6,1.9,4.4,4.4,4.4
			c1,0,1.9-0.2,2.6-0.6l0.2-1.7H49.4L49.4,40.7z"/>
		<path fill="#FFFFFF" d="M53.5,42.8c0.5,0,1.1,0,1.9,0c0.8,0,1.4,0,1.9,0v-0.4c-0.9-0.1-1.1-0.1-1.2-0.2c-0.1-0.1-0.1-0.9-0.1-2.2
			V37c0-1.3,0-2.1,0.1-2.2c0.1-0.1,0.3-0.1,1.2-0.2v-0.4c-0.5,0-1.1,0-1.9,0c-0.8,0-1.4,0-1.9,0v0.4c0.9,0.1,1.1,0.1,1.2,0.2
			c0.1,0.1,0.1,0.9,0.1,2.2V40c0,1.3,0,2.1-0.1,2.2c-0.1,0.1-0.3,0.1-1.2,0.2V42.8L53.5,42.8z"/>
		<path fill="#FFFFFF" d="M71.9,42.8c1.3,0,2.6,0,3.5,0c0.9,0,1.8,0,2.8,0l0.5-2.2l-0.3,0L78,41.4c-0.3,0.8-0.4,0.8-3,0.8
			c-0.7,0-0.8,0-0.8-0.4c0-1.5,0-3.1,0-4.7c0-1.7,0.1-2.3,0.1-2.4c0.1-0.1,0.2-0.1,1.2-0.2v-0.3c-0.4,0-1.1,0-1.7,0
			c-0.4,0-1.3,0-1.9,0v0.4c1,0.1,1.1,0.1,1.1,0.2c0.1,0.1,0.1,0.3,0.1,2.2v3c0,1.9-0.1,2.1-0.1,2.2c-0.1,0.1-0.1,0.1-1.1,0.2V42.8
			L71.9,42.8z"/>
		<path fill="#FFFFFF" d="M6,32.2c0.9,0,1.9,0,3.2,0c1.3,0,2.6,0,3.5,0l0.4-2.1h-0.4c-0.4,1.3-0.7,1.6-1.8,1.6H8.8
			c-0.4,0-0.5,0-0.5-1.1c0-0.9,0-1.7,0-2.6c0.3,0,0.8,0,1.3,0c0.4,0,0.7,0,1,0c0.5,0.1,0.5,0.1,0.5,1.1h0.4c0-0.4,0-1,0-1.3
			c0-0.4,0-0.8,0-1.2h-0.4V27c0,0.5,0,0.6-1.3,0.6c-0.7,0-1.2,0-1.5,0l0-3.1c0-0.3,0-0.4,1.5-0.4c1.8,0,1.8,0.1,2,0.7l0.1,0.6h0.4
			v-1.8c-0.7,0-4,0-4.6,0c-0.4,0-1.3,0-1.9,0v0.4c1,0.1,1.1,0.1,1.1,0.2c0.1,0.1,0.1,0.3,0.1,2.2v3c0,1.9-0.1,2.1-0.1,2.2
			C7.1,31.7,7,31.8,6,31.8V32.2L6,32.2z"/>
		<path fill="#FFFFFF" d="M21.4,30.1l-0.1,0.6C21,31.8,19.8,32,19.1,32c-1.7,0-3.2-1.2-3.2-4.1c0-2.6,1.3-4,3.1-4
			c1.2,0,2,0.5,2.1,1.2l0.1,0.4h0.4v-1.6c-0.8-0.3-1.7-0.4-2.5-0.4c-2.8,0-4.4,2.2-4.4,4.5c0,2.6,1.9,4.4,4.4,4.4
			c1,0,1.9-0.2,2.6-0.6l0.2-1.7H21.4L21.4,30.1z"/>
		<path fill="#FFFFFF" d="M23.5,28c0,2.6,1.9,4.4,4.4,4.4c2.5,0,4.4-1.8,4.4-4.4c0-2.2-1.6-4.5-4.4-4.5S23.5,25.8,23.5,28L23.5,28z
			 M24.7,27.9c0-2.6,1.3-4,3.2-4c1.7,0,3.2,1.2,3.2,4.1c0,3-1.4,4.1-3.2,4.1C26.3,32,24.7,30.8,24.7,27.9L24.7,27.9z"/>
		<path fill="#FFFFFF" d="M33.8,32.2c0.4,0,0.6,0,1.2,0c0.6,0,0.9,0,1.2,0v-0.4l-0.5,0c-0.3,0-0.4-0.3-0.4-0.5
			c-0.1-1.5-0.1-4.5-0.1-6.2l0,0c1.8,2.2,4.1,5,5.9,7.4h0.3v-1.1c0-3.8,0.1-6.7,0.2-6.9c0.1-0.2,0.2-0.3,0.8-0.3v-0.4
			c-0.4,0-0.8,0-1.3,0c-0.3,0-0.4,0-1.2,0v0.4c0.7,0,0.8,0.1,0.9,0.2c0.1,0.1,0.2,0.7,0.2,4.3c0,0.7,0,1.3,0,2
			c-1.7-2-3.6-4.4-5.3-6.8c-0.3,0-0.5,0-0.8,0c-0.3,0-0.7,0-1,0v0.4c0.4,0,0.7,0.1,0.8,0.1c0.1,0.1,0.2,0.3,0.2,1.3
			c0,5.4-0.1,6-0.2,6.1c-0.1,0.1-0.2,0.1-0.8,0.2V32.2L33.8,32.2z"/>
		<path fill="#FFFFFF" d="M43.9,28c0,2.6,1.9,4.4,4.4,4.4c2.5,0,4.4-1.8,4.4-4.4c0-2.2-1.6-4.5-4.4-4.5C45.5,23.5,43.9,25.8,43.9,28
			L43.9,28z M45.1,27.9c0-2.6,1.3-4,3.2-4c1.7,0,3.2,1.2,3.2,4.1c0,3-1.4,4.1-3.2,4.1C46.6,32,45.1,30.8,45.1,27.9L45.1,27.9z"/>
		<path fill="#FFFFFF" d="M61,32.2c0.5,0,1.1,0,1.6,0c0.6,0,1.2,0,1.7,0v-0.4c-0.8,0-0.9-0.1-1-0.2c-0.2-0.3-0.3-6.6-0.3-6.6
			c0-0.9,0-0.9,0.6-0.9l0.5,0v-0.4c-0.5,0-0.9,0-1.2,0c-0.4,0-0.7,0-1,0c-0.4,1.4-1.5,4.5-2.5,6.7c-0.6-1-2.2-5.2-2.8-6.7
			c-0.4,0-0.8,0-1.2,0c-0.3,0-0.7,0-1,0v0.4h0.2c0.9,0,0.9,0.1,0.9,0.4c0,0.7-0.5,6.9-0.6,7.2c-0.1,0.2-0.2,0.2-0.9,0.2v0.4
			c0.3,0,0.7,0,1.2,0c0.6,0,1,0,1.5,0v-0.4c-0.3,0-0.6,0-0.9-0.1c-0.2-0.1-0.3-0.2-0.3-1c0-1.8,0.2-4.2,0.3-5.7h0
			c0.4,1,2.6,5.9,3,7.1h0.4c0,0,2.1-6,2.6-7.4h0c0.1,0.9,0.1,3.6,0.1,4.9c0,0.6,0,1.7-0.1,1.9c-0.1,0.1-0.3,0.2-1.1,0.2V32.2
			L61,32.2z"/>
		<path fill="#FFFFFF" d="M66.2,32.2c0.5,0,1.1,0,1.9,0c0.8,0,1.4,0,1.9,0v-0.4c-0.9-0.1-1.1-0.1-1.2-0.2c-0.1-0.1-0.1-0.9-0.1-2.2
			v-3.1c0-1.3,0-2.1,0.1-2.2c0.1-0.1,0.3-0.1,1.2-0.2v-0.4c-0.5,0-1.1,0-1.9,0c-0.8,0-1.4,0-1.9,0v0.4c0.9,0.1,1.1,0.1,1.2,0.2
			c0.1,0.1,0.1,0.9,0.1,2.2v3.1c0,1.3,0,2.1-0.1,2.2c-0.1,0.1-0.3,0.1-1.2,0.2V32.2L66.2,32.2z"/>
		<path fill="#FFFFFF" d="M78.4,30.1l-0.1,0.6C77.9,31.8,76.7,32,76,32c-1.7,0-3.2-1.2-3.2-4.1c0-2.6,1.3-4,3.1-4
			c1.2,0,2,0.5,2.1,1.2l0.1,0.4h0.4v-1.6c-0.8-0.3-1.7-0.4-2.5-0.4c-2.8,0-4.4,2.2-4.4,4.5c0,2.6,1.9,4.4,4.4,4.4
			c1,0,1.9-0.2,2.6-0.6l0.2-1.7H78.4L78.4,30.1z"/>
		<path fill="#FFFFFF" d="M6.1,19.5c1.4-0.1,2.9-0.1,4.8-0.1c2,0,4,0,5.3,0.1l0.6-3.1h-0.6c-0.6,1.9-1,2.4-2.7,2.4h-3.2
			c-0.7,0-0.8,0-0.8-1.6c0-1.3,0-2.6,0.1-3.9c0.5,0,1.3,0,2,0c0.6,0,1.1,0,1.5,0.1c0.7,0.1,0.8,0.1,0.8,1.6h0.5c0-0.6,0-1.5,0-1.9
			c0-0.6,0-1.2,0-1.8h-0.5v0.8c0,0.7-0.1,0.9-2,0.9c-1.1,0-1.8,0-2.3,0L9.6,8c0-0.4,0-0.6,2.3-0.6c2.7,0,2.8,0.1,3,1l0.2,1h0.6V6.8
			c-1.1,0-6,0.1-6.9,0.1c-0.7,0-2,0-2.8-0.1v0.5c1.5,0.1,1.6,0.1,1.7,0.3C7.9,7.8,8,8.1,8,10.9v4.5c0,2.8-0.1,3.1-0.2,3.3
			c-0.1,0.1-0.2,0.2-1.7,0.3V19.5L6.1,19.5z"/>
		<path fill="#FFFFFF" d="M21.3,12.6c0,0.5,0.5,1,1,1c0.6,0,1-0.5,1-1c0-0.6-0.5-1-1-1C21.7,11.6,21.3,12.1,21.3,12.6L21.3,12.6z"/>
		<path fill="#FFFFFF" d="M28.3,19c0.6,0.4,1.9,0.8,3.1,0.8c3.1,0,4.3-2.2,4.3-3.8c0-1.7-0.7-2.4-3.8-4.2c-2.1-1.2-2.4-1.8-2.4-2.6
			c0-1.1,0.8-2.1,2.4-2.1c1.6,0,2.2,0.9,2.3,2.4H35V7.3c-0.9-0.4-1.7-0.7-3.1-0.7c-2.6,0-3.6,1.9-3.6,3.2c0,1.5,0.8,2.6,3.8,4.2
			c1.7,0.9,2.4,1.7,2.4,2.7c0,1.8-1.5,2.6-2.8,2.6c-1.9,0-2.4-1.2-2.5-2.3L29,16.4h-0.7V19L28.3,19z"/>
		<path fill="#FFFFFF" d="M40.6,12.6c0,0.5,0.5,1,1,1c0.6,0,1-0.5,1-1c0-0.6-0.5-1-1-1C41.1,11.6,40.6,12.1,40.6,12.6L40.6,12.6z"/>
		<path fill="#FFFFFF" d="M46.9,19.5c0.8,0,1.7-0.1,2.8-0.1c1.2,0,2.1,0,2.8,0.1V19c-1.4-0.1-1.7-0.1-1.9-0.3
			c-0.2-0.2-0.2-1.3-0.2-3.2v-2.3h1.2c0.6,0,0.8,0.2,1.5,1.5c0.9,1.6,1.6,2.8,2.6,4.8c0.6,0,1.8,0,2.5,0.1v-0.6
			c-1-0.1-1.1-0.1-1.3-0.4l-1.8-3.2c-1.2-2.2-1.5-2.3-1.8-2.4v0c2.4-0.5,2.9-2,2.9-3c0-1.8-1.3-3-3.8-3c-1,0-1.5,0.1-2.5,0.1
			c-1.1,0-2.4-0.1-3.1-0.1v0.5c1.4,0.1,1.7,0.1,1.9,0.3C49,7.8,49,8.9,49,10.9v4.6c0,2,0,3.1-0.2,3.2c-0.2,0.2-0.5,0.2-1.9,0.3V19.5
			L46.9,19.5z M50.5,9.4c0-1.9,0.2-2.1,0.8-2.1c2,0,3.4,0.5,3.4,2.6c0,1.9-1.3,2.7-3.6,2.7c-0.3,0-0.5,0-0.6,0V9.4L50.5,9.4z"/>
		<path fill="#FFFFFF" d="M61.9,12.6c0,0.5,0.5,1,1,1c0.5,0,1-0.5,1-1c0-0.6-0.5-1-1-1C62.4,11.6,61.9,12.1,61.9,12.6L61.9,12.6z"/>
		<path fill="#FFFFFF" d="M78.7,16.4l-0.2,0.8c-0.4,1.7-2.2,2-3.3,2c-2.5,0-4.8-1.8-4.8-6.1c0-3.9,1.9-6.1,4.7-6.1
			c1.8,0,2.9,0.7,3.2,1.8l0.1,0.6H79V7.2c-1.3-0.4-2.5-0.6-3.8-0.6c-4.2,0-6.6,3.4-6.6,6.7c0,3.8,2.9,6.5,6.6,6.5
			c1.5,0,2.9-0.3,3.9-0.8l0.2-2.5H78.7L78.7,16.4z"/>
	</g>
</g>
</svg>
