<?xml version="1.0" standalone="no"?>
<!DOCTYPE svg PUBLIC "-//W3C//DTD SVG 1.1//EN" "http://www.w3.org/Graphics/SVG/1.1/DTD/svg11.dtd" >
<svg xmlns="http://www.w3.org/2000/svg">
<metadata>
This is a custom SVG webfont generated by Font Squirrel.
Copyright   : 2003 GType  Designed and digitized by Nick Cooke  01943 461 808
</metadata>
<defs>
<font id="ChevinMedium" horiz-adv-x="1296" >
<font-face units-per-em="2048" ascent="1556" descent="-492" />
<missing-glyph horiz-adv-x="604" />
<glyph unicode=" "  horiz-adv-x="604" />
<glyph unicode="&#x09;" horiz-adv-x="604" />
<glyph unicode="&#xa0;" horiz-adv-x="604" />
<glyph unicode="!" horiz-adv-x="571" d="M176 100.5q0 49.5 35 85t86 35.5q49 0 84 -35.5t35 -85t-35 -85t-84 -35.5q-51 0 -86 35.5t-35 85zM199 1407q-2 45 23.5 74.5t74.5 29.5q47 0 72.5 -30.5t23.5 -73.5l-20 -901q-4 -88 -76 -88q-74 0 -78 88z" />
<glyph unicode="&#x22;" horiz-adv-x="733" d="M90 1409q-4 43 19.5 72.5t70.5 29.5t70.5 -29.5t19.5 -72.5l-18 -254q-6 -80 -72 -80q-68 0 -74 80zM449 1409q-4 43 19.5 72.5t70.5 29.5t71.5 -29.5t20.5 -72.5l-19 -254q-6 -80 -73 -80q-66 0 -72 80z" />
<glyph unicode="#" horiz-adv-x="1523" d="M49 457q0 35 24.5 59.5t59.5 24.5h234l61 405h-207q-35 0 -59.5 25.5t-24.5 60.5t24.5 59.5t59.5 24.5h232l49 324q6 35 34.5 56.5t63.5 14.5q33 -4 53.5 -33.5t16.5 -64.5l-45 -297h370l49 324q6 35 34 55.5t63 15.5q35 -6 56.5 -34.5t14.5 -63.5l-47 -297h207 q33 0 58.5 -25.5t25.5 -58.5q0 -35 -24.5 -60.5t-59.5 -25.5h-231l-62 -405h205q35 0 59.5 -24.5t24.5 -59.5t-24.5 -59.5t-59.5 -24.5h-231l-47 -322q-4 -35 -34 -55.5t-65 -13.5q-33 4 -53 32.5t-16 63.5l45 295h-371l-49 -322q-4 -33 -33 -53.5t-63 -15.5 q-35 6 -55.5 33.5t-16.5 62.5l45 295h-207q-35 0 -59.5 24.5t-24.5 59.5zM537 541h370l64 405h-373z" />
<glyph unicode="$" horiz-adv-x="1181" d="M102 129q0 35 24 61.5t58 26.5q16 0 67.5 -20.5t106.5 -30.5q84 -18 183 -19q182 0 272 74t90 203q0 90 -47 138t-151 81q-31 10 -190 43t-224 66q-184 90 -185 317q0 180 106.5 295t281.5 139v139q0 33 21.5 54.5t53.5 21.5q31 0 53.5 -21.5t22.5 -54.5v-133 q154 -2 283 -55q61 -27 61 -82q0 -37 -23.5 -62.5t-62.5 -25.5q-16 0 -60 16.5t-89 26.5q-68 14 -156 14q-143 0 -225 -68.5t-82 -185.5q0 -92 49 -139t154 -76q41 -12 140 -30.5t178 -41t128 -55.5q147 -96 147 -307q0 -195 -117.5 -312.5t-324.5 -139.5v-138 q0 -31 -22.5 -53t-53.5 -22q-33 0 -54 22.5t-21 52.5v134q-199 6 -332 63q-60 25 -60 84z" />
<glyph unicode="%" horiz-adv-x="1159" d="M115 1153v131q0 104 63.5 165.5t161.5 61.5q96 0 160.5 -62.5t64.5 -164.5v-131q0 -104 -64.5 -165.5t-160.5 -61.5q-98 0 -161.5 61.5t-63.5 165.5zM236 1147q0 -53 27.5 -83t76.5 -30q47 0 74.5 30t27.5 83v141q0 53 -27.5 83t-74.5 30q-49 0 -76.5 -29t-27.5 -84v-141 zM264 61l518 1412q8 25 32 35t46 -1q23 -8 33 -30.5t2 -44.5l-518 -1414q-8 -23 -31.5 -33t-46.5 -1.5t-33 31.5t-2 46zM596 209v131q0 104 63.5 165.5t159.5 61.5q98 0 163 -61.5t65 -165.5v-131q0 -104 -64.5 -165.5t-163.5 -61.5q-96 0 -159.5 61.5t-63.5 165.5zM717 203 q0 -53 28.5 -83t73.5 -30q49 0 78 30t29 83v141q0 53 -29 83t-78 30q-47 0 -74.5 -30t-27.5 -83v-141z" />
<glyph unicode="&#x26;" horiz-adv-x="1275" d="M102 403q0 152 86 257.5t230 193.5q-154 197 -154 334q0 160 106.5 241.5t246 81.5t235.5 -53q57 -31 93 -79t36 -87q0 -37 -25.5 -61.5t-60.5 -24.5q-25 0 -61 37q-16 23 -56 51q-76 57 -160 58q-68 0 -120 -45t-52 -127q0 -18 4.5 -37t14.5 -40.5t17 -34.5t24.5 -40 t24 -34t28 -35.5t23.5 -30.5l374 -490q49 102 62 254q2 35 27.5 56.5t60.5 21.5t60.5 -24.5t25.5 -61.5q-2 -84 -34 -194.5t-87 -200.5l125 -164q20 -27 21 -55q0 -37 -27 -63.5t-62 -26.5q-43 0 -71 38l-101 132q-170 -170 -426 -170q-205 0 -316.5 124.5t-111.5 298.5z M276 408q0 -113 70 -188t195 -75q193 0 311 140l-334 438q-242 -133 -242 -315z" />
<glyph unicode="'" horiz-adv-x="385" d="M102 1409q-4 43 19.5 72.5t71 29.5t71 -29.5t19.5 -72.5l-17 -254q-6 -80 -73 -80q-66 0 -72 80z" />
<glyph unicode="(" horiz-adv-x="606" d="M94 745.5q0 542.5 246 903.5q27 41 74 41q37 0 62.5 -25t25.5 -61q0 -31 -17 -58q-207 -336 -206 -801q0 -469 206 -800q16 -27 17 -58q0 -37 -25.5 -61.5t-62.5 -24.5q-47 0 -74 41q-246 361 -246 903.5z" />
<glyph unicode=")" horiz-adv-x="606" d="M104 -113q0 31 17 58q207 332 207 800q0 465 -207 801q-16 27 -17 58q0 37 26 61.5t63 24.5q47 0 73 -41q246 -360 246 -903t-246 -904q-27 -41 -73 -41q-37 0 -63 24.5t-26 61.5z" />
<glyph unicode="*" horiz-adv-x="985" d="M102 1227q25 74 103 45l227 -90l-14 243q-2 35 17.5 59.5t58.5 24.5q37 0 56 -24.5t17 -59.5l-14 -243l227 90q78 29 103 -45q23 -76 -58 -97l-235 -61l153 -188q53 -66 -10 -113q-66 -47 -108 25l-131 206l-134 -206q-43 -72 -108 -25q-63 47 -10 113l153 188l-235 61 q-35 8 -52.5 34t-5.5 63z" />
<glyph unicode="+" horiz-adv-x="1126" d="M127 567q0 35 24.5 59.5t59.5 24.5h268v269q0 35 24.5 59.5t59.5 24.5t59.5 -25t24.5 -59v-269h268q35 0 59.5 -24.5t24.5 -59.5t-24.5 -59.5t-59.5 -24.5h-268v-268q0 -35 -24.5 -59.5t-59.5 -24.5t-59.5 24.5t-24.5 59.5v268h-268q-35 0 -59.5 24.5t-24.5 59.5z" />
<glyph unicode="," horiz-adv-x="485" d="M109 104q0 49 35.5 83t84.5 34q53 0 87 -39t34 -102q0 -113 -73.5 -195t-120.5 -82q-16 0 -29.5 12.5t-13.5 31t18.5 34t41 42t28.5 67.5q-41 10 -66.5 41.5t-25.5 72.5z" />
<glyph unicode="-" horiz-adv-x="1003" d="M143 600q0 35 25 59.5t59 24.5h551q35 0 58.5 -24.5t23.5 -59.5t-24.5 -59.5t-57.5 -24.5h-551q-35 0 -59.5 24.5t-24.5 59.5z" />
<glyph unicode="." horiz-adv-x="497" d="M123 102q0 49 35 84t86 35q49 0 83.5 -34.5t34.5 -84.5q0 -51 -34.5 -85.5t-83.5 -34.5q-51 0 -86 34.5t-35 85.5z" />
<glyph unicode="/" horiz-adv-x="663" d="M-16 -47l524 1636q10 33 42 49.5t64.5 6t49 -42t6.5 -64.5l-525 -1636q-10 -33 -41.5 -49.5t-64.5 -6.5q-35 10 -50 42t-5 65z" />
<glyph unicode="0" horiz-adv-x="1146" d="M100 520v453q0 231 120 384.5t353 153.5q231 0 352.5 -153.5t121.5 -384.5v-453q0 -231 -121 -384.5t-353 -153.5q-233 0 -353 152.5t-120 385.5zM285 520q0 -172 72.5 -270t215.5 -98q141 0 215 98t74 270v451q0 172 -73.5 271t-215 99t-215 -99t-73.5 -271v-451z" />
<glyph unicode="1" horiz-adv-x="1146" d="M70.5 1109q7.5 36 38.5 56l481 328q29 18 57 18q39 0 65.5 -26.5t26.5 -65.5v-1245h201q37 0 62.5 -25.5t25.5 -60.5q0 -37 -25.5 -62.5t-62.5 -25.5h-729q-37 0 -62.5 25.5t-25.5 62.5q0 35 25.5 60.5t62.5 25.5h344v1086l-350 -240q-29 -20 -65 -13t-56 37 q-21 29 -13.5 65z" />
<glyph unicode="2" horiz-adv-x="1146" d="M121 88q0 246 217 440q49 45 129 103.5t136 101.5t112.5 96.5t86 116t29.5 131.5q0 115 -65.5 190.5t-194.5 75.5q-117 0 -204 -47q-27 -14 -54.5 -35.5t-45 -30.5t-36.5 -9q-35 0 -61.5 25.5t-26.5 62.5q0 41 33 67q154 135 399 135q217 0 329 -128t112 -306 q0 -109 -46 -202t-116 -155.5t-155 -128t-160.5 -120.5t-137 -132t-82.5 -163h609q37 0 62.5 -25.5t25.5 -62.5t-25.5 -62.5t-62.5 -25.5h-719q-39 0 -63.5 24.5t-24.5 63.5z" />
<glyph unicode="3" horiz-adv-x="1146" d="M92 186.5q0 34.5 23.5 58t56.5 23.5q14 0 27.5 -8t40 -27.5t49.5 -33.5q86 -55 217 -56q143 0 221 79t78 202q0 254 -320 262q-92 0 -92 80q0 76 94 80q74 4 136.5 24.5t112.5 77t50 142.5q0 109 -61 183.5t-199 74.5q-115 0 -204 -56q-23 -14 -47.5 -33.5t-39 -27.5 t-32.5 -8q-31 0 -53.5 21.5t-22.5 58.5q0 39 41 75q133 133 364 133q113 0 199 -36.5t133 -98t69.5 -128t22.5 -138.5q0 -246 -237 -336q268 -82 268 -366q0 -178 -125 -302t-350 -124q-248 0 -389 139q-31 31 -31 65.5z" />
<glyph unicode="4" horiz-adv-x="1146" d="M96 373q0 14 10 45l453 1038q16 35 50 48.5t69 -1t48 -50.5t-1 -71l-403 -923h358v278q0 37 26.5 63.5t63.5 26.5t63.5 -26.5t26.5 -63.5v-278h105q35 0 59.5 -25.5t24.5 -60.5t-25 -60.5t-59 -25.5h-105v-215q0 -37 -26.5 -63.5t-63.5 -26.5t-63.5 26.5t-26.5 63.5v215 h-500q-35 0 -59.5 24.5t-24.5 61.5z" />
<glyph unicode="5" horiz-adv-x="1146" d="M156 152q0 35 24.5 61.5t61.5 26.5q33 0 53 -17q100 -76 231 -76q150 0 221.5 87.5t71.5 220.5q0 152 -68.5 226.5t-191.5 74.5q-90 0 -164 -54q-20 -14 -43.5 -35.5t-38 -30.5t-34.5 -9q-37 0 -63 25.5t-23 66.5l22 688q2 37 28.5 61.5t61.5 24.5h535q35 0 60.5 -25.5 t25.5 -62.5q0 -35 -26 -60.5t-60 -25.5h-455l-16 -461q86 59 202 60q203 0 318 -122t115 -341q0 -197 -121 -335t-357 -138q-195 0 -325 92q-45 33 -45 78z" />
<glyph unicode="6" horiz-adv-x="1146" d="M117 534.5q0 247.5 137 493.5t344 453q29 29 66 28q41 0 66.5 -26.5t25.5 -65.5q0 -35 -29 -63q-254 -250 -354 -512q98 59 207 59q190 0 318 -115.5t128 -334.5q0 -215 -127 -342t-334 -127t-327.5 152.5t-120.5 400zM301 535q0 -193 77 -289t189 -96q129 0 202 78.5 t73 218t-76 216t-201 76.5q-141 0 -256 -98q-8 -47 -8 -106z" />
<glyph unicode="7" horiz-adv-x="1146" d="M102 1405q0 37 26 62.5t60 25.5h752q37 0 62.5 -25.5t25.5 -62.5q0 -25 -10 -51l-512 -1313q-14 -35 -49 -51.5t-70 -2t-51.5 49.5t-1.5 69l481 1213h-627q-35 0 -60.5 25.5t-25.5 60.5z" />
<glyph unicode="8" horiz-adv-x="1146" d="M86 387q0 139 79 227t228 160q-113 59 -175 140t-62 210q0 184 116.5 284.5t299 100.5t298 -102t115.5 -277q0 -111 -58.5 -189.5t-176.5 -143.5q150 -68 230.5 -158t80.5 -250q0 -182 -132 -294.5t-353.5 -112.5t-355.5 108.5t-134 296.5zM270 403q0 -119 84 -187.5 t217 -68.5q139 0 222.5 70t83.5 182q0 61 -23 108.5t-76 83.5t-95 55.5t-122 49.5q-139 -59 -215 -123t-76 -170zM334 1116q0 -96 63.5 -151.5t186.5 -102.5q106 49 165.5 107.5t59.5 142.5q0 113 -65.5 174.5t-170 61.5t-172 -61.5t-67.5 -170.5z" />
<glyph unicode="9" horiz-adv-x="1146" d="M129 1042q0 215 127 341t332 126q207 0 327.5 -151.5t120.5 -401.5q0 -248 -137 -493.5t-344 -452.5q-29 -29 -66 -28q-39 0 -65.5 27.5t-26.5 64.5q0 35 29 63q254 250 354 512q-94 -59 -205 -59q-190 0 -318 115.5t-128 336.5zM311 1044.5q0 -139.5 76 -216t203 -76.5 q135 0 254 100q8 43 8 104q0 193 -76 289t-190 96q-129 0 -202 -78.5t-73 -218z" />
<glyph unicode=":" horiz-adv-x="497" d="M123 102q0 49 35 84t86 35q49 0 83.5 -34.5t34.5 -84.5q0 -51 -34.5 -85.5t-83.5 -34.5q-51 0 -86 34.5t-35 85.5zM123 741q0 49 35 84t86 35q49 0 83.5 -34.5t34.5 -84.5q0 -51 -34.5 -85.5t-83.5 -34.5q-51 0 -86 34.5t-35 85.5z" />
<glyph unicode=";" horiz-adv-x="489" d="M113 104q0 49 35.5 83t84.5 34q53 0 87 -39t34 -102q0 -113 -73.5 -195t-120.5 -82q-16 0 -29.5 12.5t-13.5 31t18.5 34t41 42t28.5 67.5q-41 10 -66.5 41.5t-25.5 72.5zM113 741.5q0 49.5 35.5 84t85 34.5t84 -34.5t34.5 -84t-34.5 -85t-84 -35.5t-85 35.5t-35.5 85z " />
<glyph unicode="&#x3c;" horiz-adv-x="890" d="M127 571q0 37 33 66l479 446q25 23 56.5 22t54.5 -26q23 -23 21.5 -55.5t-26.5 -54.5l-423 -398l423 -395q25 -23 26 -55.5t-21 -57.5q-20 -23 -53 -23.5t-58 21.5l-479 447q-33 28 -33 63z" />
<glyph unicode="=" horiz-adv-x="1212" d="M170 373q0 35 24.5 59.5t59.5 24.5h704q35 0 59.5 -24.5t24.5 -59.5t-24.5 -59.5t-59.5 -24.5h-704q-35 0 -59.5 24.5t-24.5 59.5zM170 780q0 35 24.5 59.5t59.5 24.5h704q35 0 59.5 -24.5t24.5 -59.5t-24.5 -59.5t-59.5 -24.5h-704q-35 0 -59.5 24.5t-24.5 59.5z" />
<glyph unicode="&#x3e;" horiz-adv-x="890" d="M120 121q1 33 25 55l424 395l-424 398q-25 23 -25.5 55.5t21.5 54.5q23 25 55.5 26t57.5 -22l479 -446q31 -31 31 -66q0 -33 -31 -63l-479 -447q-25 -23 -57.5 -21.5t-55.5 23.5q-22 25 -21 58z" />
<glyph unicode="?" horiz-adv-x="1003" d="M88 1319q0 53 78 104q125 88 313 88q160 0 285 -99t125 -290q0 -125 -53.5 -202.5t-169.5 -171.5q-100 -80 -129 -133.5t-29 -122.5q0 -35 -23.5 -58.5t-60.5 -23.5t-61.5 23.5t-24.5 64.5q0 100 35 171.5t143 159.5q78 63 108.5 93t55.5 78.5t25 107.5q0 119 -72 179.5 t-170 60.5q-143 0 -240 -93q-23 -16 -49 -16q-37 0 -61.5 23.5t-24.5 56.5zM307 102q0 49 35 84t84 35q51 0 86 -34.5t35 -84.5q0 -51 -35 -85.5t-86 -34.5q-49 0 -84 34.5t-35 85.5z" />
<glyph unicode="@" horiz-adv-x="1693" d="M137 623q0 143 46 278t133 248t228.5 181.5t315.5 68.5q186 0 326.5 -52.5t219.5 -142.5t116 -194.5t37 -223.5q0 -190 -104.5 -329.5t-272.5 -139.5q-154 0 -205 138q-94 -133 -250 -133q-104 0 -156.5 73.5t-52.5 184.5q0 172 104.5 310t268.5 138q106 0 215 -35 q51 -16 39 -78l-43 -194q-18 -78 -19 -148q0 -141 107 -141q104 0 175 104.5t71 247.5q0 213 -137.5 355.5t-436.5 142.5q-147 0 -266 -60.5t-189.5 -156.5t-107.5 -210t-37 -228q0 -256 133 -414t416 -158q94 0 203 23q18 4 37.5 9t31 8t19.5 3q27 0 42 -17.5t15 -41.5 q0 -45 -59 -62q-147 -37 -289 -36q-336 0 -505 190.5t-169 491.5zM657 586q0 -125 95 -125q78 0 132 61.5t74 159.5l46 207q-55 16 -117 16q-96 0 -163 -100t-67 -219z" />
<glyph unicode="A" horiz-adv-x="1161" d="M31 94q160 643 432 1317q41 100 117 100q78 0 118 -100q268 -653 432 -1317q4 -14 4 -27q0 -31 -21 -54q-30 -32 -73 -31q-70 0 -88 71q-27 113 -82 295h-585q-68 -242 -80 -295q-18 -72 -86 -71q-41 0 -71 31q-21 22 -21 54q0 13 4 27zM332 516h491q-104 340 -245 698 q-142 -362 -246 -698z" />
<glyph unicode="B" horiz-adv-x="1292" d="M170 92v1309q0 37 26.5 64.5t65.5 27.5h408q221 0 329.5 -103.5t108.5 -265.5v-59q0 -217 -197 -297q121 -37 189.5 -124t68.5 -206v-55q0 -383 -454 -383h-453q-39 0 -65.5 26.5t-26.5 65.5zM354 172h357q154 0 215 59.5t61 167.5v50q0 104 -81 162.5t-224 58.5h-328 v-498zM354 836h224q348 0 348 211v57q0 98 -63.5 156.5t-194.5 58.5h-314v-483z" />
<glyph unicode="C" horiz-adv-x="1122" d="M137 625v243q0 295 128 469t403 174q219 0 342 -125q35 -39 34 -67q0 -33 -22.5 -57.5t-63.5 -26.5q-20 0 -77 43q-84 66 -213 65q-346 0 -346 -479v-237q0 -248 79.5 -362.5t255.5 -114.5q131 0 230 71q55 41 80 41q35 2 56 -22.5t21 -57.5q0 -37 -32 -69 q-66 -66 -163 -98.5t-192 -32.5q-520 0 -520 643z" />
<glyph unicode="D" horiz-adv-x="1323" d="M170 92v1309q0 37 26.5 64.5t65.5 27.5h400q131 0 229 -37t153.5 -93t89 -135t44 -146.5t10.5 -145.5v-383q0 -76 -10.5 -143.5t-44 -145.5t-89 -134t-153.5 -93t-229 -37h-400q-39 0 -65.5 26.5t-26.5 65.5zM354 172h297q106 0 179 32t109 90t50.5 119.5t14.5 141.5v379 q0 80 -14.5 142.5t-50.5 119.5t-108.5 89t-179.5 32h-297v-1145z" />
<glyph unicode="E" horiz-adv-x="1136" d="M170 88v1317q0 35 25.5 61.5t62.5 26.5h682q37 0 62.5 -26.5t25.5 -61.5q0 -37 -25.5 -62.5t-62.5 -25.5h-586v-486h535q35 0 59.5 -25.5t24.5 -60t-24.5 -60.5t-59.5 -26h-535v-483h617q37 0 62.5 -25.5t25.5 -62.5t-26.5 -62.5t-61.5 -25.5h-713q-37 0 -62.5 25.5 t-25.5 62.5z" />
<glyph unicode="F" horiz-adv-x="1067" d="M170 74v1331q0 35 25.5 61.5t62.5 26.5h666q37 0 62.5 -26.5t25.5 -61.5q0 -37 -25.5 -62.5t-62.5 -25.5h-570v-486h475q35 0 60.5 -25.5t25.5 -60t-25.5 -60.5t-60.5 -26h-475v-585q0 -39 -26.5 -65.5t-65.5 -26.5t-65.5 26.5t-26.5 65.5z" />
<glyph unicode="G" horiz-adv-x="1259" d="M137 627v241q0 295 128 469t405 174q229 0 346 -127q35 -29 35 -67q0 -33 -22.5 -56.5t-63.5 -25.5q-27 0 -82 41q-84 68 -213 67q-348 0 -348 -479v-235q0 -250 79.5 -364.5t255.5 -114.5q305 0 306 339v109h-246q-35 0 -60.5 25.5t-25.5 60.5t25.5 60.5t60.5 25.5h336 q39 0 63.5 -25.5t24.5 -66.5v-184q0 -229 -121 -369.5t-363 -140.5q-520 0 -520 643z" />
<glyph unicode="H" horiz-adv-x="1384" d="M170 74v1345q0 37 26.5 64.5t65.5 27.5t65.5 -27.5t26.5 -64.5v-602h676v602q0 37 26.5 64.5t65.5 27.5t65.5 -27.5t26.5 -64.5v-1345q0 -39 -26.5 -65.5t-65.5 -26.5t-65.5 26.5t-26.5 65.5v575h-676v-575q0 -39 -26.5 -65.5t-65.5 -26.5t-65.5 26.5t-26.5 65.5z" />
<glyph unicode="I" horiz-adv-x="522" d="M170 74v1345q0 37 26.5 64.5t65.5 27.5t65.5 -27.5t26.5 -64.5v-1345q0 -39 -26.5 -65.5t-65.5 -26.5t-65.5 26.5t-26.5 65.5z" />
<glyph unicode="J" horiz-adv-x="897" d="M8 84q0 37 23.5 62.5t62.5 25.5q2 0 68 -10q43 -6 96 -6q170 0 239.5 87t69.5 287v889q0 37 27 64.5t65 27.5q37 0 65 -27.5t28 -64.5v-889q0 -549 -494 -548q-88 0 -176 16q-74 14 -74 86z" />
<glyph unicode="K" horiz-adv-x="1165" d="M170 74v1345q0 37 26.5 64.5t65.5 27.5t65.5 -27.5t26.5 -64.5v-659l580 719q27 33 70 32q31 0 57 -22q29 -23 33 -61q1 -5 0 -10q0 -31 -21 -56l-426 -504q260 -362 471 -741q12 -24 13 -46q0 -25 -17 -47q-31 -42 -80 -42t-80 51q-178 324 -430 684l-170 -205v-438 q0 -39 -26.5 -65.5t-65.5 -26.5t-65.5 26.5t-26.5 65.5z" />
<glyph unicode="L" horiz-adv-x="1071" d="M170 88v1331q0 37 26.5 64.5t65.5 27.5t65.5 -27.5t26.5 -64.5v-1243h613q37 0 62.5 -25.5t25.5 -62.5t-25.5 -62.5t-62.5 -25.5h-709q-37 0 -62.5 25.5t-25.5 62.5z" />
<glyph unicode="M" horiz-adv-x="1607" d="M170 66v1359q0 37 24.5 61.5t63.5 24.5q61 0 90 -55l457 -958l459 962q27 51 86 51q39 0 63.5 -24.5t24.5 -61.5v-1357q0 -35 -26 -60.5t-60.5 -25.5t-60 25.5t-25.5 60.5v1032l-379 -807q-25 -53 -84.5 -53t-83.5 53l-379 805v-1032q0 -35 -25.5 -59.5t-60.5 -24.5 t-59.5 24.5t-24.5 59.5z" />
<glyph unicode="N" horiz-adv-x="1368" d="M170 68v1357q0 37 24.5 61.5t65.5 24.5q59 0 90 -51l678 -1100v1065q0 35 25.5 60.5t60.5 25.5t59.5 -25.5t24.5 -60.5v-1357q0 -37 -24.5 -61.5t-65.5 -24.5q-61 0 -88 45l-680 1103v-1062q0 -35 -25.5 -60.5t-60.5 -25.5t-59.5 25.5t-24.5 60.5z" />
<glyph unicode="O" d="M137 535v423q0 111 26.5 205t84 175t160 127t241.5 46q137 0 239.5 -46t160 -127t84 -175t26.5 -205v-423q0 -111 -26.5 -205t-84 -175t-160 -127t-239.5 -46q-139 0 -241.5 46t-160 127t-84 175t-26.5 205zM322 535q0 -385 327.5 -385t327.5 385v423q0 383 -327.5 383 t-327.5 -383v-423z" />
<glyph unicode="P" horiz-adv-x="1210" d="M170 74v1327q0 37 26.5 64.5t65.5 27.5h391q242 0 356.5 -119t114.5 -284v-105q0 -176 -120.5 -285.5t-331.5 -109.5h-318v-516q0 -39 -26.5 -65.5t-65.5 -26.5t-65.5 26.5t-26.5 65.5zM354 760h314q137 0 204.5 64.5t67.5 162.5v100q0 96 -69.5 164t-229.5 68h-287v-559 z" />
<glyph unicode="Q" d="M137 535v423q0 111 26.5 205t84 175t160 127t241.5 46q137 0 239.5 -46t160 -127t84 -175t26.5 -205v-423q0 -209 -88 -349l121 -108q29 -29 29 -60.5t-25 -58.5q-23 -27 -54 -29h-5q-29 0 -58 25l-118 113q-125 -86 -312 -86q-139 0 -241.5 46t-160 127t-84 175 t-26.5 205zM322 535q0 -385 327 -385q109 0 180 43l-61 57q-27 27 -29 59.5t21 55.5q23 25 55.5 24.5t58.5 -24.5l60 -56q43 88 43 226v423q0 383 -327.5 383t-327.5 -383v-423z" />
<glyph unicode="R" horiz-adv-x="1241" d="M170 74v1327q0 37 26.5 64.5t65.5 27.5h389q238 0 356.5 -107.5t118.5 -283.5v-88q0 -131 -75.5 -231.5t-223.5 -135.5q184 -297 303 -534q11 -23 11 -44q0 -26 -17 -47q-31 -40 -80 -40q-55 0 -79 53q-141 281 -334 581h-277v-542q0 -39 -26.5 -65.5t-65.5 -26.5 t-65.5 26.5t-26.5 65.5zM354 786h293q145 0 220 66t75 162v88q0 94 -70.5 156.5t-222.5 62.5h-295v-535z" />
<glyph unicode="S" horiz-adv-x="1181" d="M102 131q0 35 24 61.5t58 26.5q16 0 67.5 -20.5t106.5 -30.5q84 -18 183 -18q180 0 271 73.5t91 200.5q0 90 -47 139t-151 82q-25 8 -187 41t-227 66q-184 90 -185 317q0 205 135.5 323.5t346.5 118.5q203 0 340 -57q61 -23 61 -82q0 -35 -23.5 -61.5t-62.5 -26.5 q-16 0 -60 16.5t-89 26.5q-68 14 -156 14q-143 0 -225 -68.5t-82 -185.5q0 -92 49 -139t154 -76q45 -12 143 -30.5t176 -41t127 -55.5q147 -96 147 -305q0 -217 -143 -337.5t-389 -120.5q-231 0 -393 65q-60 25 -60 84z" />
<glyph unicode="T" horiz-adv-x="1171" d="M18 1403q0 37 26 63.5t62 26.5h959q37 0 63.5 -26.5t26.5 -63.5t-26.5 -62.5t-63.5 -25.5h-387v-1241q0 -39 -26.5 -65.5t-65.5 -26.5t-65.5 26.5t-26.5 65.5v1241h-388q-37 0 -62.5 25.5t-25.5 62.5z" />
<glyph unicode="U" d="M137 485v934q0 39 26.5 65.5t65.5 26.5q37 0 63.5 -26.5t26.5 -65.5v-930q0 -152 79 -248t251 -96q170 0 249 96.5t79 247.5v930q0 37 26.5 64.5t65.5 27.5q37 0 64.5 -27.5t27.5 -64.5v-934q0 -221 -131 -362t-381 -141q-252 0 -382 141t-130 362z" />
<glyph unicode="V" horiz-adv-x="1159" d="M31 1393q-5 16 -5 30q0 31 21 55q31 34 76 33q66 0 84 -67q182 -618 377 -1157q215 598 381 1161q18 63 77 63q43 0 71 -31q19 -22 19 -52q0 -13 -4 -27q-184 -623 -442 -1327q-35 -92 -108 -92q-80 0 -113 94q-258 717 -434 1317z" />
<glyph unicode="W" horiz-adv-x="1777" d="M37 1425q0 39 28.5 62.5t65.5 23.5q31 0 54.5 -18t31.5 -53q125 -561 285 -1147q164 590 276 1110q25 109 113 108q84 0 108 -108q133 -590 277 -1110q147 530 285 1147q8 35 31.5 53t54.5 18q37 0 65.5 -23.5t28.5 -62.5q0 -8 -4 -24q-139 -623 -336 -1313 q-31 -106 -119 -106q-90 0 -119 104q-154 537 -274 1053q-121 -516 -275 -1053q-29 -104 -118 -104q-88 0 -119 106q-197 690 -336 1313q-4 16 -4 24z" />
<glyph unicode="X" horiz-adv-x="1116" d="M12 70q0 29 13 49q170 289 426 659q-201 291 -371 598q-10 20 -10 47q0 37 27.5 62.5t64.5 25.5q49 0 76 -49q141 -262 319 -524q160 233 322 524q27 49 75 49q37 0 66 -26.5t29 -63.5q0 -25 -13 -45q-160 -297 -368 -600q281 -410 424 -659q14 -23 14 -47 q0 -37 -28.5 -62.5t-65.5 -25.5q-47 0 -74 45q-166 287 -379 591q-215 -309 -377 -589q-29 -47 -76 -47q-37 0 -65.5 25.5t-28.5 62.5z" />
<glyph unicode="Y" horiz-adv-x="1030" d="M0 1421q0 39 28.5 64.5t65.5 25.5q57 0 80 -55q143 -324 342 -702q197 367 342 702q23 55 78 55q37 0 65.5 -25.5t28.5 -62.5q0 -16 -10 -37q-162 -379 -414 -839v-473q0 -39 -26.5 -65.5t-65.5 -26.5t-65.5 26.5t-26.5 65.5v473q-242 446 -414 835q-8 19 -8 39z" />
<glyph unicode="Z" horiz-adv-x="1062" d="M39 88q0 39 29 86l702 1143h-641q-37 0 -62.5 25.5t-25.5 62.5q0 35 25.5 61.5t62.5 26.5h803q41 0 63.5 -24.5t22.5 -63.5q0 -37 -27 -78l-710 -1151h653q37 0 61.5 -25.5t24.5 -62.5t-24.5 -62.5t-61.5 -25.5h-809q-37 0 -61.5 25.5t-24.5 62.5z" />
<glyph unicode="[" horiz-adv-x="565" d="M102 -111v1708q0 37 26 63t62 26h193q35 0 60.5 -26t25.5 -63q0 -35 -25.5 -61.5t-60.5 -26.5h-96v-1532h96q35 0 60.5 -25.5t25.5 -62.5q0 -35 -25.5 -61.5t-60.5 -26.5h-193q-37 0 -62.5 26.5t-25.5 61.5z" />
<glyph unicode="\" horiz-adv-x="747" d="M0 1507q-12 33 1 64t46 43t63.5 -1.5t43.5 -45.5l602 -1587q12 -33 -1.5 -64t-46 -43t-63.5 1t-43 46z" />
<glyph unicode="]" horiz-adv-x="565" d="M96 -111q0 37 25.5 62.5t62.5 25.5h97v1532h-97q-37 0 -62.5 27t-25.5 61q0 37 25.5 63t62.5 26h193q35 0 60.5 -26t25.5 -63v-1708q0 -35 -25.5 -61.5t-60.5 -26.5h-193q-37 0 -62.5 26.5t-25.5 61.5z" />
<glyph unicode="^" horiz-adv-x="1024" d="M96 890q-6 34 13 62l317 502q35 51 86 51q55 0 86 -51l317 -502q18 -29 12.5 -61.5t-34.5 -52.5q-29 -18 -62.5 -11t-52.5 35l-266 420l-266 -420q-18 -29 -52 -37t-63 13q-29 18 -35 52z" />
<glyph unicode="_" horiz-adv-x="960" d="M-80 -276.5q0 32.5 23.5 56t56.5 23.5h961q33 0 56 -23.5t23 -55.5q0 -35 -22.5 -57.5t-56.5 -22.5h-961q-33 0 -56.5 23.5t-23.5 56z" />
<glyph unicode="`" horiz-adv-x="1085" d="M389 1587q8 31 39 49q37 16 65.5 5t43.5 -39l153 -283q14 -29 5 -54.5t-36 -37.5q-57 -31 -94 30l-168 275q-16 24 -8 55z" />
<glyph unicode="a" horiz-adv-x="1032" d="M76 289v16q0 135 95 216t282 81h233v49q0 131 -44 188.5t-167 57.5q-117 0 -209 -51q-22 -11 -42 -11t-39 11q-38 23 -38 60.5t37 68.5q115 72 301 72q211 0 295 -99.5t84 -312.5v-381q0 -57 13.5 -84t44.5 -45q35 -18 34 -59q0 -78 -88 -78q-63 0 -106 43q-27 20 -41 61 q-96 -104 -287 -104q-182 0 -270 83t-88 218zM254 287q0 -160 211 -160q104 0 162.5 54.5t58.5 160.5v121h-215q-217 0 -217 -160v-16z" />
<glyph unicode="b" horiz-adv-x="1069" d="M76 66q0 41 35 59q33 18 45 44t12 85v1141q0 37 25.5 62.5t62.5 25.5t63.5 -25.5t26.5 -62.5v-445q109 96 258 97q193 0 273.5 -114t80.5 -329v-196q0 -201 -94 -310.5t-286 -109.5q-152 0 -269 86q-14 -25 -37 -43q-49 -43 -108 -43q-88 0 -88 78zM346 223 q92 -80 207 -80q225 0 225 252v232q0 133 -49 198.5t-162 65.5q-133 0 -221 -107v-561z" />
<glyph unicode="c" horiz-adv-x="872" d="M111 442v142q0 199 105.5 331t299.5 132q154 0 256 -60q44 -25 44 -61q0 -18 -11 -39q-12 -29 -40 -39t-56 4q-82 41 -179 41q-113 0 -176 -79t-63 -214v-166q0 -139 58.5 -216t174.5 -77q102 0 187 41q31 14 58.5 4t39.5 -41q8 -20 8 -36q0 -39 -43 -62 q-111 -59 -258 -59q-205 0 -305 123.5t-100 330.5z" />
<glyph unicode="d" horiz-adv-x="1069" d="M111 401v187q0 459 366 459q139 0 246 -80v428q0 37 25.5 62.5t64.5 25.5q37 0 62.5 -25.5t25.5 -62.5v-1141q0 -59 12.5 -85t44.5 -44q35 -18 35 -59q0 -78 -88 -78q-59 0 -108 43q-23 16 -39 47q-119 -90 -269 -90q-378 -1 -378 413zM291 391q0 -127 51 -187.5 t172 -60.5q111 0 209 86v568q-92 94 -213 94q-219 0 -219 -277v-223z" />
<glyph unicode="e" horiz-adv-x="1011" d="M111 422v190q0 190 100 312.5t303 122.5q211 0 306 -120t95 -311v-84q0 -31 -19 -50t-48 -19h-559v-55q0 -125 57 -196t174 -71q145 0 256 58q29 14 57.5 1.5t38.5 -42.5q6 -18 7 -34q0 -39 -41 -63q-141 -74 -324 -73q-207 0 -305 120.5t-98 313.5zM289 604h452v35 q0 260 -223 260q-229 0 -229 -260v-35z" />
<glyph unicode="f" horiz-adv-x="645" d="M33 956q0 33 21.5 55.5t54.5 22.5h57v49q0 201 85 305.5t286 104.5h75q33 0 56.5 -23.5t23.5 -56.5q0 -35 -23.5 -58.5t-56.5 -23.5h-57q-123 0 -166 -55t-43 -193v-49h170q33 0 55.5 -22.5t22.5 -55.5q0 -31 -22.5 -53t-55.5 -22h-170v-803q0 -39 -26.5 -64.5 t-63.5 -25.5t-63.5 25.5t-26.5 64.5v803h-57q-33 0 -54.5 22t-21.5 53z" />
<glyph unicode="g" horiz-adv-x="1048" d="M111 473v135q0 438 364 439q137 0 250 -93v2q0 37 25.5 64t62.5 27q41 0 65.5 -26t24.5 -65v-880q0 -207 -99 -329t-315 -122q-166 0 -278 49q-53 25 -53 72q0 35 26 59q20 18 45 19q8 0 17 -2q12 -2 56 -15.5t84 -20.5t93 -7q246 0 246 289v57q-119 -82 -254 -82 q-195 0 -277.5 110.5t-82.5 319.5zM291 453q0 -129 48 -190.5t163 -61.5q129 0 223 86v501q-92 100 -219 101q-215 0 -215 -260v-176z" />
<glyph unicode="h" horiz-adv-x="1087" d="M145 78v1317q0 37 26 62.5t62 25.5q39 0 65 -25.5t26 -62.5v-447q109 98 286 99q336 0 336 -375v-594q0 -39 -26.5 -64.5t-63.5 -25.5t-63.5 25.5t-26.5 64.5v577q0 109 -42 165.5t-151 56.5q-172 0 -249 -129v-670q0 -39 -26 -64.5t-65 -25.5q-37 0 -62.5 25.5 t-25.5 64.5z" />
<glyph unicode="i" horiz-adv-x="468" d="M129 1372q0 43 30.5 74t73.5 31q45 0 76 -31t31 -74t-30.5 -73.5t-76.5 -30.5q-43 0 -73.5 30.5t-30.5 73.5zM145 78v878q0 37 26 64t62 27q39 0 65 -27t26 -64v-878q0 -39 -26 -64.5t-65 -25.5q-37 0 -62.5 25.5t-25.5 64.5z" />
<glyph unicode="j" horiz-adv-x="468" d="M-102 -299q0 33 20.5 54.5t56.5 23.5q88 4 129 53t41 172v952q0 37 26 64t62 27q39 0 65 -27t26 -64v-944q0 -387 -349 -387q-37 0 -57 21.5t-20 54.5zM129 1372q0 43 30.5 74t73.5 31q45 0 76 -31t31 -74t-30.5 -73.5t-76.5 -30.5q-43 0 -73.5 30.5t-30.5 73.5z" />
<glyph unicode="k" horiz-adv-x="956" d="M145 78v1317q0 37 26 62.5t62 25.5q39 0 65 -25.5t26 -62.5v-817l440 446q23 23 55.5 23t57 -25t23.5 -57.5t-23 -55.5l-281 -280q209 -287 319 -520q10 -20 10 -39q0 -24 -17 -45q-30 -37 -77 -37q-49 0 -75 53q-109 225 -285 467l-147 -146v-284q0 -39 -26 -64.5 t-65 -25.5q-37 0 -62.5 25.5t-25.5 64.5z" />
<glyph unicode="l" horiz-adv-x="491" d="M137 221v1174q0 37 26.5 62.5t63.5 25.5t63.5 -25.5t26.5 -62.5v-1141q0 -59 14.5 -85t49.5 -44.5t35 -58.5q0 -78 -88 -78q-57 0 -111 43q-80 67 -80 190z" />
<glyph unicode="m" horiz-adv-x="1701" d="M76 956q0 78 88 78q57 0 110 -43q27 -27 43 -59q115 115 310 115q199 0 276 -136q113 135 324 136q332 0 332 -373v-596q0 -39 -27 -64.5t-63.5 -25.5t-63.5 25.5t-27 64.5v577q0 109 -41 165.5t-147 56.5q-166 0 -238 -132q4 -45 4 -71v-596q0 -39 -26.5 -64.5 t-63.5 -25.5t-63.5 25.5t-26.5 64.5v577q0 109 -41 165.5t-147 56.5q-162 0 -234 -119v-680q0 -39 -26.5 -64.5t-63.5 -25.5t-63.5 26.5t-26.5 63.5v690q0 57 -14.5 84t-49 45t-34.5 59z" />
<glyph unicode="n" horiz-adv-x="1118" d="M76 956q0 78 88 78q57 0 110 -43q29 -29 45 -67q113 123 320 123q336 0 336 -375v-594q0 -39 -25.5 -64.5t-64.5 -25.5q-37 0 -62.5 25.5t-25.5 64.5v577q0 109 -42 165.5t-153 56.5q-174 0 -248 -129v-670q0 -39 -26.5 -64.5t-63.5 -25.5t-63.5 26.5t-26.5 63.5v690 q0 57 -14.5 84t-49 45t-34.5 59z" />
<glyph unicode="o" horiz-adv-x="1046" d="M111 412v211q0 188 102 306t309 118q209 0 311.5 -118t102.5 -306v-211q0 -188 -102.5 -306t-311.5 -118q-207 0 -309 118t-102 306zM291 412q0 -260 231 -260q233 0 234 260v211q0 258 -234 258q-231 0 -231 -258v-211z" />
<glyph unicode="p" horiz-adv-x="1069" d="M76 969q0 78 88 78q59 0 108 -43q25 -23 39 -48q123 90 269 91q379 0 378 -414v-187q0 -459 -368 -458q-139 0 -244 80v-353q0 -39 -26.5 -64.5t-63.5 -25.5t-62.5 25.5t-25.5 64.5v1065q0 59 -12.5 85t-44.5 44q-35 19 -35 60zM346 238q92 -94 213 -95q219 0 219 277 v223q0 127 -52 187.5t-173 60.5q-109 0 -207 -86v-567z" />
<glyph unicode="q" horiz-adv-x="1069" d="M111 430v197q0 201 94 310.5t287 109.5q152 0 268 -86q14 25 37 43q49 43 108 43q88 0 88 -78q0 -41 -35 -60q-33 -18 -45 -43.5t-12 -85.5v-1065q0 -39 -25.5 -64.5t-62.5 -25.5q-39 0 -64.5 25.5t-25.5 64.5v369q-109 -96 -258 -96q-193 0 -273.5 113.5t-80.5 328.5z M291 408q0 -133 49 -199t162 -66q133 0 221 107v561q-92 80 -209 80q-223 0 -223 -252v-231z" />
<glyph unicode="r" horiz-adv-x="798" d="M76 956q0 37 23.5 57.5t64.5 20.5q20 0 29 -2q102 -27 137 -127q100 141 282 142q84 0 138 -25q29 -14 38 -45q5 -14 5 -28q0 -16 -7 -31q-12 -31 -38 -48q-18 -11 -41 -11q-11 0 -23 3q-45 12 -102 12q-188 0 -228 -186v-610q0 -39 -26.5 -64.5t-63.5 -25.5t-63.5 26.5 t-26.5 63.5v690q0 57 -14.5 84t-49 45t-34.5 59z" />
<glyph unicode="s" horiz-adv-x="892" d="M82 133q10 33 40 46.5t60 0.5q109 -41 236 -41q109 0 164 43t55 115q0 31 -13.5 55.5t-28.5 39t-50 26.5t-57.5 17t-69.5 15.5t-70 14.5q-125 29 -194.5 87t-69.5 189q0 143 98.5 224.5t251.5 81.5q152 0 264 -43q33 -14 45.5 -43t2 -60t-39 -45t-59.5 -2 q-111 39 -205 39q-92 0 -140 -39t-48 -104q0 -18 4 -35t13.5 -29t18.5 -22.5t27.5 -18.5t30.5 -13t38 -11.5t40 -9.5t44 -9t44 -8q66 -12 109 -27.5t90 -46.5t71.5 -85t24.5 -132q0 -154 -108.5 -234.5t-284.5 -80.5q-166 0 -289 45q-31 10 -43 40q-7 16 -7 32q0 14 5 28z " />
<glyph unicode="t" horiz-adv-x="690" d="M33 956q0 33 22.5 55.5t55.5 22.5h59v211q0 37 26.5 63.5t63.5 26.5t62.5 -26.5t25.5 -63.5v-211h191q33 0 55 -22.5t22 -55.5q0 -31 -22.5 -53t-54.5 -22h-191v-437q0 -158 40 -219t159 -61h41q35 0 58.5 -24.5t23.5 -57.5t-23.5 -57.5t-58.5 -24.5h-62 q-201 0 -278.5 112.5t-77.5 329.5v439h-59q-33 0 -55.5 22t-22.5 53z" />
<glyph unicode="u" horiz-adv-x="1120" d="M145 360v596q0 37 26 64t65 27q37 0 62.5 -27t25.5 -64v-579q0 -109 42 -164t152 -55q178 0 248 137v661q0 37 26.5 64t63.5 27t63.5 -27t26.5 -64v-702q0 -59 14.5 -85t49 -44.5t34.5 -58.5q0 -78 -88 -78q-57 0 -110 43q-29 25 -49 75q-115 -119 -318 -118 q-334 -1 -334 372z" />
<glyph unicode="v" horiz-adv-x="948" d="M43 938q-5 16 -5 30q0 28 19 48q29 31 70 31q59 0 78 -60q150 -461 264 -764q141 367 270 764q20 59 80 60q43 0 72 -32q18 -20 18 -47q0 -15 -6 -32q-137 -420 -317 -858q-37 -90 -117 -90q-84 0 -119 90q-162 407 -307 860z" />
<glyph unicode="w" horiz-adv-x="1449" d="M47 948q-3 12 -3 22q0 28 21 49q28 28 66 28q66 0 80 -64q125 -473 209 -747q115 379 205 729q20 82 102 82q78 0 98 -82q94 -369 207 -729q84 281 207 747q14 63 80 64q39 0 66 -28q20 -20 21 -49q0 -11 -3 -22q-113 -446 -252 -880q-27 -80 -113 -80t-110 78 q-102 324 -203 690q-104 -385 -203 -690q-25 -78 -110.5 -78t-112.5 80q-139 434 -252 880z" />
<glyph unicode="x" horiz-adv-x="917" d="M61 109q74 141 287 419q-195 258 -260 392q-11 22 -11 41q0 25 17 47q31 39 80 39q55 0 82 -54q66 -133 205 -317q147 201 209 321q23 49 73 50q47 0 76 -37q16 -21 16 -45q0 -19 -10 -39q-82 -162 -260 -389q211 -266 289 -420q12 -22 12 -43q0 -24 -17 -46 q-32 -40 -81 -40q-51 0 -78 51q-70 133 -235 354q-162 -215 -238 -358q-25 -47 -74 -47q-47 0 -75 37q-16 21 -16 44q-1 19 9 40z" />
<glyph unicode="y" horiz-adv-x="927" d="M6 -287q0 33 21.5 58.5t62.5 27.5q90 4 158.5 49.5t130.5 159.5q-231 573 -342 928q-5 16 -5 30q0 28 19 49q29 32 72 32q57 0 78 -62q106 -334 266 -752l254 754q20 59 82 60q45 0 74 -35q17 -21 17 -48q0 -17 -7 -36l-277 -785q-94 -266 -208.5 -388t-297.5 -130h-6 q-41 0 -65 25q-27 26 -27 63z" />
<glyph unicode="z" horiz-adv-x="868" d="M43 88q0 31 16 53l529 731h-430q-33 0 -56.5 25t-23.5 57.5t23.5 56t56.5 23.5h585q35 0 59.5 -20.5t24.5 -59.5q0 -37 -24 -69l-522 -723h467q33 0 56 -23.5t23 -58.5q0 -33 -23.5 -56.5t-55.5 -23.5h-623q-33 0 -57.5 24.5t-24.5 63.5z" />
<glyph unicode="{" horiz-adv-x="647" d="M61 745.5q0 30.5 20.5 51t51.5 20.5h10q41 0 74 36t33 114q0 57 -40 196.5t-40 210.5q0 143 81 228.5t204 85.5h14q39 0 62.5 -25t23.5 -61q0 -33 -22.5 -57.5t-57.5 -24.5h-10q-47 0 -79 -40t-32 -114q0 -63 38 -194.5t38 -202.5q0 -162 -127 -219v-9q127 -57 127 -221 q0 -70 -38 -200t-38 -195q0 -74 32 -114t79 -40h10q35 0 57.5 -24.5t22.5 -59t-23.5 -59.5t-62.5 -25h-14q-123 0 -204 85t-81 229q0 72 40 211t40 196q0 78 -33 114t-74 36h-10q-31 0 -51.5 20.5t-20.5 51z" />
<glyph unicode="|" horiz-adv-x="483" d="M150 -106v1703q0 39 26.5 66t65.5 27t65.5 -27t26.5 -66v-1703q0 -39 -26.5 -66t-65.5 -27t-65.5 27t-26.5 66z" />
<glyph unicode="}" horiz-adv-x="647" d="M92 -112.5q0 34.5 22.5 59t57.5 24.5h10q47 0 80 40t33 114q0 66 -39 196t-39 199q0 164 127 221v9q-127 57 -127 219q0 72 39 203t39 194q0 74 -33 114t-80 40h-10q-35 0 -57.5 24.5t-22.5 57.5q0 37 24.5 61.5t61.5 24.5h15q123 0 203.5 -85t80.5 -229q0 -72 -40 -211 t-40 -196q0 -78 33 -114t74 -36h10q31 0 51.5 -20.5t20.5 -51t-20.5 -51t-51.5 -20.5h-10q-41 0 -74 -36t-33 -114q0 -57 40 -196.5t40 -210.5q0 -143 -81 -228.5t-203 -85.5h-15q-37 0 -61.5 25t-24.5 59.5z" />
<glyph unicode="~" horiz-adv-x="1114" d="M125 559q0 70 79 115t179 45q80 0 180.5 -47t153.5 -47q57 0 104 31.5t76 31.5q39 0 65.5 -27.5t26.5 -64.5q0 -70 -77.5 -114t-180.5 -44q-80 0 -180 46t-154 46q-57 0 -104 -31.5t-76 -31.5q-39 0 -65.5 26.5t-26.5 65.5z" />
<glyph unicode="&#xa1;" horiz-adv-x="550" d="M156 926q0 51 34.5 86t85.5 35q49 0 84 -35t35 -86q0 -49 -34.5 -84t-84.5 -35q-51 0 -85.5 35t-34.5 84zM178 -379l21 899q4 90 77 90q72 0 76 -90l21 -899q2 -45 -23.5 -75.5t-73.5 -30.5q-49 0 -74.5 30.5t-23.5 75.5z" />
<glyph unicode="&#xa2;" horiz-adv-x="872" d="M111 442v142q0 180 87 306t248 150v105q0 33 23 54.5t53 21.5q33 0 54.5 -21.5t21.5 -54.5v-107q100 -10 174 -51q63 -39 33 -102q-12 -29 -40 -38t-56 5q-84 39 -179 39q-113 0 -176 -79t-63 -214v-164q0 -139 58.5 -216t174.5 -77q102 0 187 41q31 14 58.5 4t39.5 -41 q25 -63 -35 -98q-82 -43 -176 -53v-107q0 -31 -21.5 -53t-54.5 -22q-31 0 -53.5 22.5t-22.5 52.5v105q-168 20 -251.5 140t-83.5 310z" />
<glyph unicode="&#xa3;" horiz-adv-x="1208" d="M113 88q0 29 19.5 49.5t38.5 29.5t62 26q59 43 93 100t34 162q0 68 -36 155h-97q-33 0 -55 22.5t-22 55.5t22.5 55.5t54.5 22.5h52q-66 166 -66 289q0 182 124 316t361 134q164 0 295 -47q70 -25 70 -84q0 -39 -23.5 -63.5t-60.5 -24.5q-2 0 -92 23q-88 20 -176 20 q-160 0 -237 -83t-77 -193q0 -98 70 -287h324q33 0 55 -22.5t22 -55.5t-22.5 -55.5t-54.5 -22.5h-281q35 -80 35 -155q0 -164 -117 -281h586q37 0 62.5 -25.5t25.5 -60.5q0 -37 -25.5 -62.5t-62.5 -25.5h-813q-37 0 -62.5 24.5t-25.5 63.5z" />
<glyph unicode="&#xa4;" horiz-adv-x="1210" d="M92 584q0 27 19.5 47t48.5 20h57v185h-57q-29 0 -48.5 20.5t-19.5 46.5q0 29 19.5 49.5t48.5 20.5h61q20 250 149.5 394t379.5 144q223 0 340 -125q35 -29 34 -67q0 -33 -22.5 -57.5t-63.5 -26.5q-20 0 -77 43q-84 66 -211 65q-307 0 -342 -370h370q29 0 48.5 -20.5 t19.5 -49.5t-19.5 -48t-48.5 -19h-377v-185h377q29 0 48.5 -19.5t19.5 -48t-19.5 -49t-48.5 -20.5h-370q16 -186 95 -275t234 -89q133 0 230 71q55 41 80 41q35 2 57 -22.5t22 -57.5q0 -35 -34 -69q-66 -66 -163.5 -98.5t-191.5 -32.5q-471 0 -516 532h-61q-29 0 -48.5 20.5 t-19.5 49.5z" />
<glyph unicode="&#xa5;" horiz-adv-x="1030" d="M0 1421q0 39 28.5 64.5t65.5 25.5q57 0 80 -55q143 -324 342 -702q197 367 342 702q23 55 78 55q37 0 65.5 -25.5t28.5 -62.5q0 -16 -10 -37q-104 -246 -254 -538h137q33 0 55.5 -21.5t22.5 -54.5t-22.5 -55.5t-55.5 -22.5h-217l-80 -147v-45h297q33 0 55.5 -22.5 t22.5 -55.5q0 -31 -22.5 -53.5t-55.5 -22.5h-297v-274q0 -39 -26.5 -65.5t-65.5 -26.5t-65.5 26.5t-26.5 65.5v274h-299q-31 0 -53.5 22.5t-22.5 53.5q0 33 22.5 55.5t53.5 22.5h299v45q-16 27 -42 77t-38 70h-219q-31 0 -53.5 22.5t-22.5 55.5t22.5 54.5t53.5 21.5h139 q-139 274 -254 534q-8 19 -8 39z" />
<glyph unicode="&#xa6;" horiz-adv-x="483" d="M150 -104v626q0 39 26.5 65.5t65.5 26.5t65.5 -26.5t26.5 -65.5v-626q0 -39 -26.5 -66t-65.5 -27t-65.5 27t-26.5 66zM150 969v628q0 37 26.5 64t65.5 27t65.5 -27t26.5 -64v-628q0 -39 -26.5 -65.5t-65.5 -26.5t-65.5 26.5t-26.5 65.5z" />
<glyph unicode="&#xa7;" horiz-adv-x="1112" d="M102 594q0 180 134 287q-78 82 -78 211q0 193 127 291t307 98q143 0 260 -41q80 -29 80 -84q0 -35 -21.5 -59.5t-56.5 -24.5q-12 0 -24.5 4t-32 11t-37.5 13q-88 27 -160 27q-123 0 -197.5 -55t-74.5 -166q0 -68 40 -106.5t121 -69.5q23 -8 172.5 -54.5t202.5 -76.5 q154 -86 154 -273q0 -180 -135 -286q80 -80 80 -211q0 -193 -127 -292t-308 -99q-137 0 -262 43q-78 29 -78 83q0 35 21.5 59.5t56.5 24.5q14 0 44 -12t50 -18q78 -25 160 -25q121 0 197 55.5t76 163.5q0 70 -40 109t-122 69q-23 8 -172.5 54.5t-202.5 77.5 q-154 90 -154 272zM270 606q0 -23 4.5 -42t15.5 -36.5t19 -30t29.5 -24.5t32 -18t40 -17.5t41 -15.5t47.5 -15.5t46 -13.5q162 -51 203 -71q100 68 100 192q0 61 -40 103t-76 56.5t-128 43.5q-20 6 -31 10q-164 53 -200 72q-103 -68 -103 -193z" />
<glyph unicode="&#xa8;" horiz-adv-x="1085" d="M195 1415q0 51 35.5 87t87 36t88 -36t36.5 -87t-36.5 -88t-88 -37t-87 37t-35.5 88zM643 1415q0 51 37 87t88 36t87 -36t36 -87t-36 -88t-87 -37t-88 37t-37 88z" />
<glyph unicode="&#xa9;" horiz-adv-x="1802" d="M137 745q0 317 224.5 541.5t540 224.5t539.5 -224t224 -542q0 -315 -224 -539t-539.5 -224t-540 224t-224.5 539zM270 745.5q0 -262.5 185.5 -447.5t445.5 -185t445.5 185t185.5 447.5t-185.5 447.5t-445.5 185t-445.5 -185t-185.5 -447.5zM571 692v109q0 156 87 262 t241 106q117 0 199 -36q39 -18 39 -58q0 -27 -17.5 -47t-44.5 -20q-14 0 -28 6q-63 29 -142 28q-90 0 -144 -64.5t-54 -176.5v-109q0 -242 196 -241q82 0 148 28q10 6 26 6q27 0 44.5 -19.5t17.5 -45.5q0 -41 -39 -58q-90 -41 -201 -40q-162 0 -245 102t-83 268z" />
<glyph unicode="&#xaa;" horiz-adv-x="876" d="M76 848v14q0 111 77.5 177.5t233.5 66.5h186v39q0 104 -34.5 151t-133 47t-169.5 -43q-53 -31 -91 19q-14 18 -10 47t31 45q94 59 248 59q174 0 243.5 -82.5t69.5 -257.5v-311q0 -47 10.5 -67.5t34.5 -34.5q29 -16 29 -51q0 -66 -76 -66q-53 0 -88 35q-23 16 -33 47 q-78 -82 -233 -82q-147 0 -221 68.5t-74 179.5zM227 846q0 -127 168 -127q178 0 178 172v96h-172q-174 0 -174 -127v-14z" />
<glyph unicode="&#xab;" horiz-adv-x="1265" d="M68 557q0 33 24 57l385 398q25 27 58.5 27.5t60.5 -23.5q25 -23 25 -58.5t-23 -60.5l-330 -340l330 -340q23 -25 23 -60.5t-25 -58.5q-27 -25 -60.5 -23.5t-58.5 25.5l-385 400q-24 28 -24 57zM614 557q0 29 25 57l385 398q25 27 59.5 26.5t59.5 -22.5q25 -25 25.5 -59.5 t-23.5 -59.5l-330 -340l330 -340q25 -25 23.5 -59.5t-25.5 -59.5q-25 -23 -59.5 -22.5t-59.5 24.5l-385 400q-25 24 -25 57z" />
<glyph unicode="&#xac;" horiz-adv-x="1024" />
<glyph unicode="&#xad;" horiz-adv-x="1003" d="M143 600q0 35 25 59.5t59 24.5h551q35 0 58.5 -24.5t23.5 -59.5t-24.5 -59.5t-57.5 -24.5h-551q-35 0 -59.5 24.5t-24.5 59.5z" />
<glyph unicode="&#xae;" horiz-adv-x="1802" d="M137 745q0 317 224.5 541.5t540 224.5t539.5 -224t224 -542q0 -315 -224 -539t-539.5 -224t-540 224t-224.5 539zM270 745.5q0 -262.5 185.5 -447.5t445.5 -185t445.5 185t185.5 447.5t-185.5 447.5t-445.5 185t-445.5 -185t-185.5 -447.5zM629 397v699q0 27 19.5 46 t47.5 19h224q137 0 200.5 -62.5t63.5 -154.5v-57q0 -70 -40 -124t-116 -75l139 -262q8 -16 9 -29q0 -31 -20.5 -49t-49.5 -18q-39 0 -59 41l-156 299h-127v-273q0 -29 -19.5 -48t-48 -19t-48 19t-19.5 48zM764 786h145q76 0 109 33t33 76v41q0 43 -31 75.5t-105 32.5h-151 v-258z" />
<glyph unicode="&#xaf;" horiz-adv-x="1085" d="M262 1388.5q0 32.5 22.5 55t55.5 22.5h405q33 0 55.5 -22.5t22.5 -55t-22.5 -55t-55.5 -22.5h-405q-33 0 -55.5 22.5t-22.5 55z" />
<glyph unicode="&#xb0;" horiz-adv-x="831" d="M72 1169q0 141 100 241.5t243.5 100.5t244 -100t100.5 -242q0 -143 -100.5 -242.5t-244 -99.5t-243.5 99.5t-100 242.5zM217 1169q0 -82 58.5 -140t140.5 -58t139 58t57 140t-57 139.5t-139 57.5t-140.5 -57.5t-58.5 -139.5z" />
<glyph unicode="&#xb1;" horiz-adv-x="1024" />
<glyph unicode="&#xb2;" horiz-adv-x="921" d="M197 668q0 57 17 106t52 89t58.5 62.5t64.5 53.5q14 12 59.5 46t63.5 50.5t46 46t39 58t11 61.5q0 66 -35.5 109t-109.5 43q-63 0 -117 -29q-14 -6 -38.5 -24.5t-41.5 -18.5q-23 0 -40 16.5t-17 38.5q0 25 20 43q92 80 236 80q129 0 194.5 -75.5t65.5 -182.5 q0 -51 -15.5 -94t-47 -79t-59.5 -60.5t-73 -57.5q-70 -49 -97 -71.5t-63 -65.5t-48 -88h348q23 0 39 -17.5t16 -40t-16.5 -39t-38.5 -16.5h-418q-25 0 -40 15.5t-15 40.5z" />
<glyph unicode="&#xb3;" horiz-adv-x="921" d="M197 727q0 23 14 37t37 14q10 0 17 -4t22.5 -16.5t29.5 -20.5q49 -33 123 -32q82 0 126 45t44 114q0 141 -182 146q-57 0 -57 51t59 51q70 4 120 36t50 101q0 61 -35 103.5t-112 42.5q-66 0 -117 -31q-12 -6 -25.5 -18.5t-24 -18.5t-22.5 -6q-18 0 -33.5 14.5t-15.5 36.5 q0 25 25 47q80 80 217 80q129 0 189.5 -71.5t60.5 -165.5q0 -139 -125 -195q143 -51 143 -213q0 -104 -73.5 -178t-207.5 -74q-147 0 -229 82q-18 18 -18 43z" />
<glyph unicode="&#xb4;" horiz-adv-x="1085" d="M390 1264.5q-9 25.5 5 54.5l154 283q14 29 43 40t65 -6q31 -18 39.5 -49t-8.5 -55l-168 -275q-37 -61 -94 -30q-27 12 -36 37.5z" />
<glyph unicode="&#xb5;" horiz-adv-x="1120" d="M145 -315v1271q0 37 26 64t65 27q37 0 62.5 -27t25.5 -64v-579q0 -109 42 -164t152 -55q178 0 248 137v661q0 37 26.5 64t63.5 27t63.5 -27t26.5 -64v-702q0 -59 14.5 -85t49 -44.5t34.5 -58.5q0 -78 -88 -78q-57 0 -110 43q-29 25 -49 75q-115 -119 -318 -118 q-86 0 -155 26v-329q0 -37 -26 -64t-62 -27q-39 0 -65 27t-26 64z" />
<glyph unicode="&#xb6;" horiz-adv-x="1333" d="M123 1112q0 162 115.5 275.5t279.5 113.5h664q33 0 56.5 -23.5t23.5 -58.5q0 -33 -24 -56.5t-56 -23.5h-86v-1577q0 -39 -27 -65.5t-65 -26.5q-37 0 -64 27t-27 65v1577h-229v-1577q0 -39 -26.5 -65.5t-65.5 -26.5q-37 0 -63.5 27t-26.5 65v961q-158 6 -268.5 118.5 t-110.5 270.5z" />
<glyph unicode="&#xb7;" horiz-adv-x="497" d="M123 604q0 49 35 84t86 35q49 0 83.5 -35t34.5 -84q0 -51 -34.5 -86t-83.5 -35q-51 0 -86 35t-35 86z" />
<glyph unicode="&#xb8;" horiz-adv-x="1085" d="M354 -358q0 39 99 39q141 0 141 83q0 68 -119 78q-43 2 -57.5 14.5t-11.5 45.5l6 104h96v-84q223 0 223 -164q0 -78 -63.5 -124t-175.5 -46q-138 1 -138 54z" />
<glyph unicode="&#xb9;" horiz-adv-x="921" d="M177 1261.5q5 22.5 24 34.5l280 191q14 12 35 12q25 0 41 -17.5t16 -39.5v-719h113q23 0 39 -16.5t16 -39t-16 -39t-39 -16.5h-422q-23 0 -40 16.5t-17 39t17.5 39t39.5 16.5h195v616l-197 -135q-18 -12 -40.5 -8t-35.5 25q-14 18 -9 40.5z" />
<glyph unicode="&#xba;" horiz-adv-x="901" d="M111 948v172q0 156 85 253t255 97t255 -97t85 -253v-172q0 -154 -85 -251t-255 -97t-255 97t-85 251zM264 948q0 -209 186.5 -209t186.5 209v172q0 209 -186.5 209t-186.5 -209v-172z" />
<glyph unicode="&#xbb;" horiz-adv-x="1265" d="M97 158q-1 35 24 59l330 340l-330 340q-25 25 -24 59.5t26 59.5q25 23 59.5 22.5t59.5 -26.5l385 -398q25 -29 24 -57q0 -33 -24 -57l-385 -400q-25 -25 -60 -24.5t-59 22.5q-25 25 -26 60zM645 157q0 36 23 60l329 340l-329 340q-23 25 -23 60.5t25 58.5 q27 25 60.5 23.5t57.5 -27.5l386 -398q25 -25 24.5 -57.5t-24.5 -56.5l-386 -400q-25 -25 -58.5 -25.5t-59.5 23.5q-25 23 -25 59z" />
<glyph unicode="&#xbc;" horiz-adv-x="921" d="M82 524.5q0 20.5 14.5 35.5t36.5 15h655q23 0 37.5 -15t14.5 -35.5t-14.5 -36t-37.5 -15.5h-655q-23 0 -37 15.5t-14 36zM178 -227q0 8 6 26l242 557q23 47 72 27q20 -8 28.5 -28.5t-2.5 -41.5l-213 -489h181v145q0 23 15 38.5t38 15.5q20 0 35.5 -15.5t15.5 -38.5v-145 h51q20 0 35.5 -14.5t15.5 -37t-15 -37t-36 -14.5h-51v-110q0 -23 -15.5 -38t-35.5 -15q-23 0 -38 15t-15 38v110h-263q-20 0 -35.5 14.5t-15.5 37.5zM192.5 1278.5q4.5 21.5 22.5 34.5l258 176q16 10 33 10q23 0 38 -15.5t15 -37.5v-664h105q20 0 35.5 -15t15.5 -36 q0 -23 -15.5 -38t-35.5 -15h-392q-20 0 -35.5 15.5t-15.5 37.5q0 20 15.5 35.5t35.5 15.5h181v568l-181 -123q-43 -29 -71 14q-13 16 -8.5 37.5z" />
<glyph unicode="&#xbd;" horiz-adv-x="921" d="M82 524.5q0 20.5 14.5 35.5t36.5 15h655q23 0 37.5 -15t14.5 -35.5t-14.5 -36t-37.5 -15.5h-655q-23 0 -37 15.5t-14 36zM192.5 1278.5q4.5 21.5 22.5 34.5l258 176q16 10 33 10q23 0 38 -15.5t15 -37.5v-664h105q20 0 35.5 -15t15.5 -36q0 -23 -15.5 -38t-35.5 -15h-392 q-20 0 -35.5 15.5t-15.5 37.5q0 20 15.5 35.5t35.5 15.5h181v568l-181 -123q-43 -29 -71 14q-13 16 -8.5 37.5zM219 -379q0 68 34 129.5t63.5 89t80.5 68.5q12 10 56.5 43t59.5 46t42 42t36 55.5t9 57.5q0 59 -34 98t-101 39q-57 0 -107 -25q-14 -6 -36.5 -23.5t-36.5 -17.5 q-23 0 -38.5 15.5t-15.5 38t19 38.5q86 74 217 74q119 0 180.5 -70.5t61.5 -166.5q0 -61 -29 -114.5t-62.5 -84.5t-89.5 -72q-49 -35 -67.5 -50t-51 -44t-49 -56.5t-24.5 -58.5h321q23 0 37.5 -14t14.5 -36.5t-15.5 -38t-36.5 -15.5h-387q-23 0 -37 15t-14 38z" />
<glyph unicode="&#xbe;" horiz-adv-x="921" d="M82 524.5q0 20.5 14.5 35.5t36.5 15h655q23 0 37.5 -15t14.5 -35.5t-14.5 -36t-37.5 -15.5h-655q-23 0 -37 15.5t-14 36zM182 -227q0 18 6 26l242 557q10 20 29.5 27.5t40 -0.5t29 -28.5t-0.5 -41.5l-213 -489h181v145q0 23 15 38.5t36 15.5q23 0 38 -15.5t15 -38.5v-145 h51q20 0 34.5 -14.5t14.5 -37t-14 -37t-35 -14.5h-51v-110q0 -20 -15.5 -36.5t-37.5 -16.5q-20 0 -35.5 15t-15.5 38v110h-265q-20 0 -34.5 16t-14.5 36zM229 784q0 20 13.5 35t33.5 15q8 0 16.5 -4.5t22 -15.5t27.5 -19q45 -31 113 -31q76 0 115.5 41t39.5 106 q0 131 -166 136q-55 0 -55 47q0 49 55 49q158 10 158 125q0 55 -31.5 94t-103.5 39q-63 0 -109 -29q-10 -6 -23 -16t-22.5 -15.5t-19.5 -5.5q-45 0 -45 47q0 23 22 43q70 74 199 74q119 0 176 -67.5t57 -151.5q0 -131 -116 -180q133 -47 133 -199q0 -96 -67.5 -163.5 t-192.5 -67.5q-137 0 -213 75q-17 16 -17 39z" />
<glyph unicode="&#xbf;" horiz-adv-x="935" d="M115 -96q0 125 53 203.5t170 173.5q100 80 129 133t29 123q0 35 23.5 58t60 23t61.5 -23.5t25 -64.5q0 -100 -34 -171.5t-143 -159.5q-78 -63 -108.5 -93t-56 -78t-25.5 -108q0 -119 71.5 -179t170.5 -60q139 0 241 92q16 16 47 16q39 0 62.5 -23.5t23.5 -56.5 q0 -51 -75 -104q-127 -88 -316 -88q-98 0 -188 37.5t-155.5 129t-65.5 220.5zM457 926q0 51 34.5 86t86.5 35q49 0 84.5 -35t35.5 -86q0 -49 -35.5 -84t-84.5 -35q-51 0 -86 35t-35 84z" />
<glyph unicode="&#xc0;" horiz-adv-x="1161" d="M31 94q160 643 432 1317q41 100 117 100q78 0 118 -100q268 -653 432 -1317q12 -49 -17.5 -80.5t-72.5 -31.5q-70 0 -88 71q-27 113 -82 295h-585q-68 -242 -80 -295q-18 -72 -86 -71q-41 0 -70.5 31.5t-17.5 80.5zM332 516h491q-104 340 -245 698q-142 -362 -246 -698z M444.5 1997q8.5 31 38.5 49q37 16 66 5t43 -40l153 -282q14 -29 5 -54.5t-35 -38.5q-57 -31 -94 31l-168 275q-17 24 -8.5 55z" />
<glyph unicode="&#xc1;" horiz-adv-x="1161" d="M31 94q160 643 432 1317q41 100 117 100q78 0 118 -100q268 -653 432 -1317q12 -49 -17.5 -80.5t-72.5 -31.5q-70 0 -88 71q-27 113 -82 295h-585q-68 -242 -80 -295q-18 -72 -86 -71q-41 0 -70.5 31.5t-17.5 80.5zM332 516h491q-104 340 -245 698q-142 -362 -246 -698z M415 1674.5q-9 25.5 5 54.5l153 282q14 29 43 40t66 -5q31 -18 39 -49t-8 -55l-168 -275q-37 -61 -94 -31q-27 13 -36 38.5z" />
<glyph unicode="&#xc2;" horiz-adv-x="1161" d="M31 94q160 643 432 1317q41 100 117 100q78 0 118 -100q268 -653 432 -1317q12 -49 -17.5 -80.5t-72.5 -31.5q-70 0 -88 71q-27 113 -82 295h-585q-68 -242 -80 -295q-18 -72 -86 -71q-41 0 -70.5 31.5t-17.5 80.5zM264 1679q-45 53 8 103l250 239q18 23 56 23 q33 0 55 -23l250 -241q53 -49 8 -103q-18 -23 -47 -24.5t-53 18.5l-213 193l-213 -193q-25 -20 -54 -17.5t-47 25.5zM332 516h491q-104 340 -245 698q-142 -362 -246 -698z" />
<glyph unicode="&#xc3;" horiz-adv-x="1161" d="M31 94q160 643 432 1317q41 100 117 100q78 0 118 -100q268 -653 432 -1317q12 -49 -17.5 -80.5t-72.5 -31.5q-70 0 -88 71q-27 113 -82 295h-585q-68 -242 -80 -295q-18 -72 -86 -71q-41 0 -70.5 31.5t-17.5 80.5zM248 1804q-2 61 57.5 102.5t136.5 43.5q63 2 144.5 -40 t124.5 -42q45 0 79.5 30.5t59.5 30.5q29 0 49.5 -23.5t20.5 -56.5q2 -61 -57.5 -102t-137.5 -43q-63 -2 -144 40t-124 42q-45 -2 -81 -32t-59 -30q-29 0 -49 23.5t-20 56.5zM332 516h491q-104 340 -245 698q-142 -362 -246 -698z" />
<glyph unicode="&#xc4;" horiz-adv-x="1161" d="M31 94q160 643 432 1317q41 100 117 100q78 0 118 -100q268 -653 432 -1317q12 -49 -17.5 -80.5t-72.5 -31.5q-70 0 -88 71q-27 113 -82 295h-585q-68 -242 -80 -295q-18 -72 -86 -71q-41 0 -70.5 31.5t-17.5 80.5zM225 1825q0 51 36 87t87 36t88 -36t37 -87t-36 -88 t-89 -37q-51 0 -87 37t-36 88zM332 516h491q-104 340 -245 698q-142 -362 -246 -698zM674 1825q0 51 37 87t88 36t87 -36t36 -87t-36 -88t-87 -37q-53 0 -89 37t-36 88z" />
<glyph unicode="&#xc5;" horiz-adv-x="1161" d="M31 94q160 643 432 1317q41 100 117 100q78 0 118 -100q268 -653 432 -1317q12 -49 -17.5 -80.5t-72.5 -31.5q-70 0 -88 71q-27 113 -82 295h-585q-68 -242 -80 -295q-18 -72 -86 -71q-41 0 -70.5 31.5t-17.5 80.5zM332 516h491q-104 340 -245 698q-142 -362 -246 -698z M340 1824.5q0 100.5 69.5 170t170 69.5t170 -69.5t69.5 -170t-69.5 -170t-170 -69.5t-170 69.5t-69.5 170zM440 1824.5q0 -57.5 41 -98t98.5 -40.5t98.5 40.5t41 98t-41 98.5t-98.5 41t-98.5 -41t-41 -98.5z" />
<glyph unicode="&#xc6;" horiz-adv-x="1804" d="M29 82q0 25 10 43q295 594 692 1266q33 55 71 78.5t101 23.5h707q35 0 60.5 -26.5t25.5 -61.5q0 -37 -25.5 -62.5t-60.5 -25.5h-543v-486h489q35 0 60.5 -25.5t25.5 -60t-25.5 -60.5t-60.5 -26h-489v-483h571q37 0 62.5 -25.5t25.5 -62.5t-25.5 -62.5t-62.5 -25.5h-667 q-35 0 -61.5 25.5t-26.5 62.5v258h-525l-153 -301q-27 -53 -82 -53q-39 0 -66.5 25.5t-27.5 64.5zM444 514h439v774q-240 -403 -439 -774z" />
<glyph unicode="&#xc7;" horiz-adv-x="1122" d="M137 625v243q0 295 128 469t403 174q219 0 342 -125q35 -39 34 -67q0 -33 -22.5 -57.5t-63.5 -26.5q-20 0 -77 43q-84 66 -213 65q-346 0 -346 -479v-237q0 -248 79.5 -362.5t255.5 -114.5q131 0 230 71q55 41 80 41q35 2 56 -22.5t21 -57.5q0 -37 -32 -69 q-119 -119 -328 -131v-66q115 0 170 -45t55 -121q0 -78 -64.5 -124t-176.5 -46q-137 0 -138 53q0 41 99 41q141 0 141 82q0 39 -28.5 56.5t-90.5 21.5q-41 4 -56 16.5t-13 45.5l6 90q-451 39 -451 639z" />
<glyph unicode="&#xc8;" horiz-adv-x="1136" d="M170 88v1317q0 35 25.5 61.5t62.5 26.5h682q37 0 62.5 -26.5t25.5 -61.5q0 -37 -25.5 -62.5t-62.5 -25.5h-586v-486h535q35 0 59.5 -25.5t24.5 -60t-24.5 -60.5t-59.5 -26h-535v-483h617q37 0 62.5 -25.5t25.5 -62.5t-26.5 -62.5t-61.5 -25.5h-713q-37 0 -62.5 25.5 t-25.5 62.5zM459 1997q8 31 39 49q37 16 65.5 5t42.5 -40l154 -282q14 -29 5 -54.5t-36 -38.5q-57 -31 -94 31l-168 275q-16 24 -8 55z" />
<glyph unicode="&#xc9;" horiz-adv-x="1136" d="M170 88v1317q0 35 25.5 61.5t62.5 26.5h682q37 0 62.5 -26.5t25.5 -61.5q0 -37 -25.5 -62.5t-62.5 -25.5h-586v-486h535q35 0 59.5 -25.5t24.5 -60t-24.5 -60.5t-59.5 -26h-535v-483h617q37 0 62.5 -25.5t25.5 -62.5t-26.5 -62.5t-61.5 -25.5h-713q-37 0 -62.5 25.5 t-25.5 62.5zM464 1674.5q-9 25.5 5 54.5l154 282q14 29 42.5 40t65.5 -5q31 -18 39 -49t-8 -55l-168 -275q-37 -61 -94 -31q-27 13 -36 38.5z" />
<glyph unicode="&#xca;" horiz-adv-x="1136" d="M170 88v1317q0 35 25.5 61.5t62.5 26.5h682q37 0 62.5 -26.5t25.5 -61.5q0 -37 -25.5 -62.5t-62.5 -25.5h-586v-486h535q35 0 59.5 -25.5t24.5 -60t-24.5 -60.5t-59.5 -26h-535v-483h617q37 0 62.5 -25.5t25.5 -62.5t-26.5 -62.5t-61.5 -25.5h-713q-37 0 -62.5 25.5 t-25.5 62.5zM289 1679q-45 53 8 103l250 239q18 23 55 23q33 0 55 -23l250 -241q53 -49 8 -103q-18 -23 -46.5 -24.5t-53.5 18.5l-213 193l-213 -193q-25 -20 -53.5 -17.5t-46.5 25.5z" />
<glyph unicode="&#xcb;" horiz-adv-x="1136" d="M170 88v1317q0 35 25.5 61.5t62.5 26.5h682q37 0 62.5 -26.5t25.5 -61.5q0 -37 -25.5 -62.5t-62.5 -25.5h-586v-486h535q35 0 59.5 -25.5t24.5 -60t-24.5 -60.5t-59.5 -26h-535v-483h617q37 0 62.5 -25.5t25.5 -62.5t-26.5 -62.5t-61.5 -25.5h-713q-37 0 -62.5 25.5 t-25.5 62.5zM248 1825q0 51 35.5 87t87 36t88.5 -36t37 -87t-37 -88t-88.5 -37t-87 37t-35.5 88zM696 1825q0 51 37 87t88 36t87 -36t36 -87t-36 -88t-87 -37t-88 37t-37 88z" />
<glyph unicode="&#xcc;" horiz-adv-x="522" d="M123 1997q8 31 39 49q37 16 65.5 5t42.5 -40l154 -282q14 -29 5 -54.5t-36 -38.5q-57 -31 -94 31l-168 275q-16 24 -8 55zM170 74v1345q0 37 26.5 64.5t65.5 27.5t65.5 -27.5t26.5 -64.5v-1345q0 -39 -26.5 -65.5t-65.5 -26.5t-65.5 26.5t-26.5 65.5z" />
<glyph unicode="&#xcd;" horiz-adv-x="522" d="M97 1674.5q-9 25.5 5 54.5l154 282q14 29 43 40t66 -5q31 -18 39 -49t-9 -55l-168 -275q-37 -61 -94 -31q-27 13 -36 38.5zM170 74v1345q0 37 26.5 64.5t65.5 27.5t65.5 -27.5t26.5 -64.5v-1345q0 -39 -26.5 -65.5t-65.5 -26.5t-65.5 26.5t-26.5 65.5z" />
<glyph unicode="&#xce;" horiz-adv-x="522" d="M-49 1679q-45 53 8 103l250 239q18 23 55 23q33 0 55 -23l250 -241q53 -49 9 -103q-18 -23 -47 -24.5t-54 18.5l-213 193l-213 -193q-25 -20 -53.5 -17.5t-46.5 25.5zM170 74v1345q0 37 26.5 64.5t65.5 27.5t65.5 -27.5t26.5 -64.5v-1345q0 -39 -26.5 -65.5t-65.5 -26.5 t-65.5 26.5t-26.5 65.5z" />
<glyph unicode="&#xcf;" horiz-adv-x="522" d="M-86 1825q0 51 36 87t87 36t88 -36t37 -87t-36 -88t-89 -37q-51 0 -87 37t-36 88zM170 74v1345q0 37 26.5 64.5t65.5 27.5t65.5 -27.5t26.5 -64.5v-1345q0 -39 -26.5 -65.5t-65.5 -26.5t-65.5 26.5t-26.5 65.5zM362 1825q0 51 37 87t88.5 36t87 -36t35.5 -87t-35.5 -88 t-87.5 -37q-53 0 -89 37t-36 88z" />
<glyph unicode="&#xd0;" horiz-adv-x="1357" d="M29 733q0 35 24.5 60.5t59.5 25.5h92v582q0 39 26.5 65.5t65.5 26.5h399q131 0 229.5 -37t154 -93t89 -135t44 -146.5t10.5 -145.5v-383q0 -76 -10.5 -143.5t-44 -145.5t-89 -134t-154 -93t-229.5 -37h-399q-39 0 -65.5 26.5t-26.5 65.5v555h-92q-35 0 -59.5 25.5 t-24.5 60.5zM389 172h297q106 0 179 32t109 90t50 119.5t14 141.5v379q0 80 -14 142.5t-50 119.5t-108.5 89t-179.5 32h-297v-498h201q37 0 61.5 -25.5t24.5 -60.5t-24.5 -60.5t-61.5 -25.5h-201v-475z" />
<glyph unicode="&#xd1;" horiz-adv-x="1368" d="M170 68v1357q0 37 24.5 61.5t65.5 24.5q59 0 90 -51l678 -1100v1065q0 35 25.5 60.5t60.5 25.5t59.5 -25.5t24.5 -60.5v-1357q0 -37 -24.5 -61.5t-65.5 -24.5q-61 0 -88 45l-680 1103v-1062q0 -35 -25.5 -60.5t-60.5 -25.5t-59.5 25.5t-24.5 60.5zM344 1804 q-2 61 57.5 102.5t137.5 43.5q63 2 144 -40t124 -42q45 0 80 30.5t59 30.5q29 0 49.5 -23.5t20.5 -56.5q2 -61 -57.5 -102t-137.5 -43q-63 -2 -144 40t-124 42q-45 -2 -81 -32t-58 -30q-29 0 -49.5 23.5t-20.5 56.5z" />
<glyph unicode="&#xd2;" d="M137 535v423q0 111 26.5 205t84 175t160 127t241.5 46q137 0 239.5 -46t160 -127t84 -175t26.5 -205v-423q0 -111 -26.5 -205t-84 -175t-160 -127t-239.5 -46q-139 0 -241.5 46t-160 127t-84 175t-26.5 205zM322 535q0 -385 327.5 -385t327.5 385v423q0 383 -327.5 383 t-327.5 -383v-423zM524 1997q8 31 39 49q37 16 65.5 5t43.5 -40l153 -282q14 -29 5 -54.5t-35 -38.5q-57 -31 -95 31l-168 275q-16 24 -8 55z" />
<glyph unicode="&#xd3;" d="M137 535v423q0 111 26.5 205t84 175t160 127t241.5 46q137 0 239.5 -46t160 -127t84 -175t26.5 -205v-423q0 -111 -26.5 -205t-84 -175t-160 -127t-239.5 -46q-139 0 -241.5 46t-160 127t-84 175t-26.5 205zM322 535q0 -385 327.5 -385t327.5 385v423q0 383 -327.5 383 t-327.5 -383v-423zM476 1674.5q-9 25.5 5 54.5l154 282q14 29 43 40t65 -5q31 -18 39.5 -49t-8.5 -55l-168 -275q-37 -61 -94 -31q-27 13 -36 38.5z" />
<glyph unicode="&#xd4;" d="M137 535v423q0 111 26.5 205t84 175t160 127t241.5 46q137 0 239.5 -46t160 -127t84 -175t26.5 -205v-423q0 -111 -26.5 -205t-84 -175t-160 -127t-239.5 -46q-139 0 -241.5 46t-160 127t-84 175t-26.5 205zM322 535q0 -385 327.5 -385t327.5 385v423q0 383 -327.5 383 t-327.5 -383v-423zM334 1679q-45 53 8 103l250 239q18 23 55 23q33 0 55 -23l250 -241q53 -49 9 -103q-18 -23 -47 -24.5t-54 18.5l-213 193l-213 -193q-25 -20 -53.5 -17.5t-46.5 25.5z" />
<glyph unicode="&#xd5;" d="M137 535v423q0 111 26.5 205t84 175t160 127t241.5 46q137 0 239.5 -46t160 -127t84 -175t26.5 -205v-423q0 -111 -26.5 -205t-84 -175t-160 -127t-239.5 -46q-139 0 -241.5 46t-160 127t-84 175t-26.5 205zM307 1804q-2 61 57.5 102.5t137.5 43.5q63 2 144 -40t124 -42 q45 0 80 30.5t59 30.5q29 0 49.5 -23.5t20.5 -56.5q2 -61 -57.5 -102t-137.5 -43q-63 -2 -144 40t-124 42q-45 -2 -81 -32t-58 -30q-29 0 -49.5 23.5t-20.5 56.5zM322 535q0 -385 327.5 -385t327.5 385v423q0 383 -327.5 383t-327.5 -383v-423z" />
<glyph unicode="&#xd6;" d="M137 535v423q0 111 26.5 205t84 175t160 127t241.5 46q137 0 239.5 -46t160 -127t84 -175t26.5 -205v-423q0 -111 -26.5 -205t-84 -175t-160 -127t-239.5 -46q-139 0 -241.5 46t-160 127t-84 175t-26.5 205zM291 1825q0 51 35.5 87t87 36t88.5 -36t37 -87t-36 -88 t-89 -37q-51 0 -87 37t-36 88zM322 535q0 -385 327.5 -385t327.5 385v423q0 383 -327.5 383t-327.5 -383v-423zM739 1825q0 51 37 87t88 36t87 -36t36 -87t-36 -88t-87 -37q-53 0 -89 37t-36 88z" />
<glyph unicode="&#xd7;" horiz-adv-x="909" d="M119 316.5q0 33.5 26 60.5l191 190l-191 191q-27 27 -26.5 60.5t26.5 58.5q25 25 60 24.5t59 -24.5l191 -191l190 191q25 25 59.5 24.5t59 -25t24.5 -59.5t-24 -59l-191 -191l191 -190q25 -25 24.5 -59.5t-25 -59.5t-59 -25t-59.5 25l-190 191l-191 -191 q-25 -25 -59.5 -25t-59.5 25q-26 25 -26 58.5z" />
<glyph unicode="&#xd8;" d="M137 535v423q0 111 26.5 205t84 175t160 127t241.5 46t250 -53l33 74q10 23 33.5 32t46 -1.5t32 -34t-1.5 -45.5l-41 -94q158 -143 158 -431v-423q0 -111 -26.5 -205t-84 -175t-160 -127t-239.5 -46q-145 0 -252 51l-32 -72q-10 -23 -34 -32t-46.5 1.5t-31.5 34t1 45.5 l41 92q-158 148 -158 433zM322 535q0 -158 55 -250l452 1015q-72 41 -180 41q-328 0 -327 -383v-423zM469 193q68 -43 180 -43q328 0 328 385v423q0 156 -55 248z" />
<glyph unicode="&#xd9;" d="M137 485v934q0 39 26.5 65.5t65.5 26.5q37 0 63.5 -26.5t26.5 -65.5v-930q0 -152 79 -248t251 -96q170 0 249 96.5t79 247.5v930q0 37 26.5 64.5t65.5 27.5q37 0 64.5 -27.5t27.5 -64.5v-934q0 -221 -131 -362t-381 -141q-252 0 -382 141t-130 362zM493.5 1997 q8.5 31 38.5 49q37 16 66 5t43 -40l154 -282q14 -29 5 -54.5t-36 -38.5q-57 -31 -94 31l-168 275q-17 24 -8.5 55z" />
<glyph unicode="&#xda;" d="M137 485v934q0 39 26.5 65.5t65.5 26.5q37 0 63.5 -26.5t26.5 -65.5v-930q0 -152 79 -248t251 -96q170 0 249 96.5t79 247.5v930q0 37 26.5 64.5t65.5 27.5q37 0 64.5 -27.5t27.5 -64.5v-934q0 -221 -131 -362t-381 -141q-252 0 -382 141t-130 362zM515 1674.5 q-9 25.5 5 54.5l154 282q14 29 42.5 40t65.5 -5q31 -18 39 -49t-8 -55l-168 -275q-37 -61 -94 -31q-27 13 -36 38.5z" />
<glyph unicode="&#xdb;" d="M137 485v934q0 39 26.5 65.5t65.5 26.5q37 0 63.5 -26.5t26.5 -65.5v-930q0 -152 79 -248t251 -96q170 0 249 96.5t79 247.5v930q0 37 26.5 64.5t65.5 27.5q37 0 64.5 -27.5t27.5 -64.5v-934q0 -221 -131 -362t-381 -141q-252 0 -382 141t-130 362zM330 1679 q-45 53 8 103l250 239q18 23 55 23q33 0 55 -23l250 -241q53 -49 8 -103q-18 -23 -46.5 -24.5t-53.5 18.5l-213 193l-213 -193q-25 -20 -53.5 -17.5t-46.5 25.5z" />
<glyph unicode="&#xdc;" d="M137 485v934q0 39 26.5 65.5t65.5 26.5q37 0 63.5 -26.5t26.5 -65.5v-930q0 -152 79 -248t251 -96q170 0 249 96.5t79 247.5v930q0 37 26.5 64.5t65.5 27.5q37 0 64.5 -27.5t27.5 -64.5v-934q0 -221 -131 -362t-381 -141q-252 0 -382 141t-130 362zM295 1825q0 51 36 87 t87 36t88 -36t37 -87t-36 -88t-89 -37q-51 0 -87 37t-36 88zM743 1825q0 51 37 87t88.5 36t87 -36t35.5 -87t-35.5 -88t-87.5 -37q-53 0 -89 37t-36 88z" />
<glyph unicode="&#xdd;" horiz-adv-x="1030" d="M0 1421q0 39 28.5 64.5t65.5 25.5q57 0 80 -55q143 -324 342 -702q197 367 342 702q23 55 78 55q37 0 65.5 -25.5t28.5 -62.5q0 -16 -10 -37q-162 -379 -414 -839v-473q0 -39 -26.5 -65.5t-65.5 -26.5t-65.5 26.5t-26.5 65.5v473q-242 446 -414 835q-8 19 -8 39z M369.5 1674.5q-9.5 25.5 5.5 54.5l153 282q14 29 43 40t66 -5q31 -18 39 -49t-8 -55l-168 -275q-37 -61 -94 -31q-27 13 -36.5 38.5z" />
<glyph unicode="&#xde;" horiz-adv-x="1210" d="M170 -268v1839q0 39 26.5 65.5t65.5 26.5t65.5 -26.5t26.5 -65.5v-420h299q242 0 356.5 -119t114.5 -284v-105q0 -176 -120.5 -284.5t-331.5 -108.5h-318v-518q0 -39 -26.5 -65.5t-65.5 -26.5t-65.5 26.5t-26.5 65.5zM354 418h314q137 0 204.5 64.5t67.5 164.5v98 q0 96 -69.5 164t-229.5 68h-287v-559z" />
<glyph unicode="&#xdf;" horiz-adv-x="1165" d="M145 -154v1135q0 256 119 383t322 127q166 0 272.5 -102.5t106.5 -270.5q0 -125 -63.5 -208t-176.5 -115q330 -76 330 -398q0 -205 -144.5 -306t-373.5 -101h-78q-33 0 -56.5 24.5t-23.5 57t23.5 56.5t56.5 24h65q352 0 353 266q0 289 -383 289h-39q-31 0 -52.5 21.5 t-21.5 51.5q0 29 21.5 50.5t52.5 21.5h59q104 0 191.5 60.5t87.5 185.5q0 109 -61.5 168t-149.5 59q-258 0 -258 -344v-1135q0 -37 -26 -63.5t-65 -26.5q-37 0 -62.5 26.5t-25.5 63.5z" />
<glyph unicode="&#xe0;" horiz-adv-x="1034" d="M76 289v16q0 135 95 216t282 81h233v49q0 131 -44 188.5t-167 57.5q-117 0 -209 -51q-43 -23 -81 -0.5t-38 60.5t37 69q115 72 301 72q211 0 295 -99.5t84 -312.5v-381q0 -57 13.5 -84t44.5 -45q35 -18 34 -59q0 -78 -88 -78q-63 0 -106 43q-27 20 -41 61 q-96 -104 -287 -104q-182 0 -270 83t-88 218zM254 287q0 -160 211 -160q104 0 162.5 54.5t58.5 160.5v121h-215q-217 0 -217 -160v-16zM336 1587q8 31 39 49q37 16 65.5 5t42.5 -39l154 -283q14 -29 5 -54.5t-36 -37.5q-57 -31 -94 30l-168 275q-16 24 -8 55z" />
<glyph unicode="&#xe1;" horiz-adv-x="1034" d="M76 289v16q0 135 95 216t282 81h233v49q0 131 -44 188.5t-167 57.5q-117 0 -209 -51q-43 -23 -81 -0.5t-38 60.5t37 69q115 72 301 72q211 0 295 -99.5t84 -312.5v-381q0 -57 13.5 -84t44.5 -45q35 -18 34 -59q0 -78 -88 -78q-63 0 -106 43q-27 20 -41 61 q-96 -104 -287 -104q-182 0 -270 83t-88 218zM254 287q0 -160 211 -160q104 0 162.5 54.5t58.5 160.5v121h-215q-217 0 -217 -160v-16zM353 1264.5q-9 25.5 5 54.5l154 283q14 29 43 40t66 -6q31 -18 39 -49t-9 -55l-168 -275q-37 -61 -94 -30q-27 12 -36 37.5z" />
<glyph unicode="&#xe2;" horiz-adv-x="1034" d="M76 289v16q0 135 95 216t282 81h233v49q0 131 -44 188.5t-167 57.5q-117 0 -209 -51q-43 -23 -81 -0.5t-38 60.5t37 69q115 72 301 72q211 0 295 -99.5t84 -312.5v-381q0 -57 13.5 -84t44.5 -45q35 -18 34 -59q0 -78 -88 -78q-63 0 -106 43q-27 20 -41 61 q-96 -104 -287 -104q-182 0 -270 83t-88 218zM180 1270q-45 53 8 102l250 240q18 23 56 22q33 0 55 -22l250 -242q53 -49 8 -102q-18 -23 -47 -25t-53 19l-213 192l-213 -192q-25 -20 -54 -17.5t-47 25.5zM254 287q0 -160 211 -160q104 0 162.5 54.5t58.5 160.5v121h-215 q-217 0 -217 -160v-16z" />
<glyph unicode="&#xe3;" horiz-adv-x="1034" d="M76 289v16q0 135 95 216t282 81h233v49q0 131 -44 188.5t-167 57.5q-117 0 -209 -51q-43 -23 -81 -0.5t-38 60.5t37 69q115 72 301 72q211 0 295 -99.5t84 -312.5v-381q0 -57 13.5 -84t44.5 -45q35 -18 34 -59q0 -78 -88 -78q-63 0 -106 43q-27 20 -41 61 q-96 -104 -287 -104q-182 0 -270 83t-88 218zM150 1395q-2 61 57 102t137 43q63 2 144 -40t124 -42q45 0 80 31t60 31q29 0 49 -23.5t20 -56.5q2 -61 -57 -102.5t-137 -43.5q-63 -2 -144.5 40t-124.5 42q-45 -2 -80.5 -31.5t-58.5 -29.5q-29 0 -49 23.5t-20 56.5zM254 287 q0 -160 211 -160q104 0 162.5 54.5t58.5 160.5v121h-215q-217 0 -217 -160v-16z" />
<glyph unicode="&#xe4;" horiz-adv-x="1034" d="M76 289v16q0 135 95 216t282 81h233v49q0 131 -44 188.5t-167 57.5q-117 0 -209 -51q-43 -23 -81 -0.5t-38 60.5t37 69q115 72 301 72q211 0 295 -99.5t84 -312.5v-381q0 -57 13.5 -84t44.5 -45q35 -18 34 -59q0 -78 -88 -78q-63 0 -106 43q-27 20 -41 61 q-96 -104 -287 -104q-182 0 -270 83t-88 218zM145 1415q0 51 36 87t87 36t88 -36t37 -87t-37 -88t-88 -37t-87 37t-36 88zM254 287q0 -160 211 -160q104 0 162.5 54.5t58.5 160.5v121h-215q-217 0 -217 -160v-16zM594 1415q0 51 37 87t88 36t87 -36t36 -87t-36 -88t-87 -37 t-88 37t-37 88z" />
<glyph unicode="&#xe5;" horiz-adv-x="1034" d="M76 289v16q0 135 95 216t282 81h233v49q0 131 -44 188.5t-167 57.5q-117 0 -209 -51q-43 -23 -81 -0.5t-38 60.5t37 69q115 72 301 72q211 0 295 -99.5t84 -312.5v-381q0 -57 13.5 -84t44.5 -45q35 -18 34 -59q0 -78 -88 -78q-63 0 -106 43q-27 20 -41 61 q-96 -104 -287 -104q-182 0 -270 83t-88 218zM242 1415.5q0 100.5 69.5 170t170 69.5t170 -69.5t69.5 -170t-69.5 -170t-170 -69.5t-170 69.5t-69.5 170zM254 287q0 -160 211 -160q104 0 162.5 54.5t58.5 160.5v121h-215q-217 0 -217 -160v-16zM342 1415.5q0 -57.5 41 -98.5 t98.5 -41t98.5 41t41 98.5t-41 98t-98.5 40.5t-98.5 -40.5t-41 -98z" />
<glyph unicode="&#xe6;" horiz-adv-x="1587" d="M76 289v16q0 133 94 214t283 81h233v51q0 131 -44 188.5t-167 57.5q-117 0 -209 -51q-43 -23 -81 -0.5t-38 60.5t37 69q115 72 301 72q227 0 308 -132q100 131 297 132q211 0 307 -120t96 -311v-84q0 -31 -20.5 -50t-49.5 -19h-559v-55q0 -125 57.5 -196t176.5 -71 q143 0 254 58q29 14 57.5 1.5t38.5 -42.5q23 -63 -35 -97q-141 -74 -323 -73q-221 0 -324 153q-86 -154 -332 -153q-180 0 -269 83t-89 218zM254 287q0 -160 211 -160q104 0 162.5 54.5t58.5 160.5v121h-215q-217 0 -217 -160v-16zM864 600h453v39q0 260 -223 260 q-229 0 -230 -260v-39z" />
<glyph unicode="&#xe7;" horiz-adv-x="872" d="M111 444v140q0 199 105.5 331t299.5 132q154 0 256 -60q66 -37 33 -100q-12 -29 -40 -39t-56 4q-82 41 -179 41q-113 0 -176 -79t-63 -214v-164q0 -141 58.5 -218t174.5 -77q98 0 187 43q31 14 58.5 4t39.5 -41q25 -66 -35 -98q-96 -53 -225 -59v-66q115 0 170 -45 t55 -121q0 -78 -64.5 -124t-177.5 -46q-137 0 -137 54q0 41 99 41q141 0 141 81q0 72 -119 78q-41 4 -56.5 16.5t-13.5 45.5l7 88q-172 18 -257 140t-85 312z" />
<glyph unicode="&#xe8;" horiz-adv-x="1011" d="M111 422v190q0 190 100 312.5t303 122.5q211 0 306 -120t95 -311v-84q0 -31 -19 -50t-48 -19h-559v-55q0 -125 57 -196t174 -71q145 0 256 58q29 14 57.5 1.5t38.5 -42.5q23 -63 -34 -97q-141 -74 -324 -73q-207 0 -305 120.5t-98 313.5zM289 604h452v35q0 260 -223 260 q-229 0 -229 -260v-35zM370.5 1587q8.5 31 39.5 49q37 16 65.5 5t42.5 -39l154 -283q14 -29 5 -54.5t-36 -37.5q-57 -31 -94 30l-168 275q-17 24 -8.5 55z" />
<glyph unicode="&#xe9;" horiz-adv-x="1011" d="M111 422v190q0 190 100 312.5t303 122.5q211 0 306 -120t95 -311v-84q0 -31 -19 -50t-48 -19h-559v-55q0 -125 57 -196t174 -71q145 0 256 58q29 14 57.5 1.5t38.5 -42.5q23 -63 -34 -97q-141 -74 -324 -73q-207 0 -305 120.5t-98 313.5zM289 604h452v35q0 260 -223 260 q-229 0 -229 -260v-35zM365.5 1264.5q-9.5 25.5 5.5 54.5l153 283q14 29 43 40t66 -6q31 -18 39 -49t-8 -55l-168 -275q-37 -61 -95 -30q-26 12 -35.5 37.5z" />
<glyph unicode="&#xea;" horiz-adv-x="1011" d="M111 422v190q0 190 100 312.5t303 122.5q211 0 306 -120t95 -311v-84q0 -31 -19 -50t-48 -19h-559v-55q0 -125 57 -196t174 -71q145 0 256 58q29 14 57.5 1.5t38.5 -42.5q23 -63 -34 -97q-141 -74 -324 -73q-207 0 -305 120.5t-98 313.5zM201 1270q-45 53 8 102l250 240 q18 23 55 22q33 0 55 -22l250 -242q53 -49 8 -102q-18 -23 -46.5 -25t-53.5 19l-213 192l-213 -192q-25 -20 -53.5 -17.5t-46.5 25.5zM289 604h452v35q0 260 -223 260q-229 0 -229 -260v-35z" />
<glyph unicode="&#xeb;" horiz-adv-x="1011" d="M111 422v190q0 190 100 312.5t303 122.5q211 0 306 -120t95 -311v-84q0 -31 -19 -50t-48 -19h-559v-55q0 -125 57 -196t174 -71q145 0 256 58q29 14 57.5 1.5t38.5 -42.5q23 -63 -34 -97q-141 -74 -324 -73q-207 0 -305 120.5t-98 313.5zM162 1415q0 51 35.5 87t87 36 t88.5 -36t37 -87t-37 -88t-88.5 -37t-87 37t-35.5 88zM289 604h452v35q0 260 -223 260q-229 0 -229 -260v-35zM610 1415q0 51 37 87t88 36t87 -36t36 -87t-36 -88t-87 -37t-88 37t-37 88z" />
<glyph unicode="&#xec;" horiz-adv-x="468" d="M90 1587q8 31 39 49q37 16 65.5 5t43.5 -39l153 -283q14 -29 5 -54.5t-36 -37.5q-57 -31 -94 30l-168 275q-16 24 -8 55zM145 78v878q0 37 26 64t62 27q39 0 65 -27t26 -64v-878q0 -39 -26 -64.5t-65 -25.5q-37 0 -62.5 25.5t-25.5 64.5z" />
<glyph unicode="&#xed;" horiz-adv-x="468" d="M79 1264.5q-9 25.5 5 54.5l154 283q14 29 42.5 40t65.5 -6q31 -18 39 -49t-8 -55l-168 -275q-37 -61 -94 -30q-27 12 -36 37.5zM145 78v878q0 37 26 64t62 27q39 0 65 -27t26 -64v-878q0 -39 -26 -64.5t-65 -25.5q-37 0 -62.5 25.5t-25.5 64.5z" />
<glyph unicode="&#xee;" horiz-adv-x="468" d="M-78 1270q-45 53 8 102l250 240q18 23 56 22q33 0 55 -22l250 -242q53 -49 8 -102q-18 -23 -47 -25t-53 19l-213 192l-213 -192q-25 -20 -54 -17.5t-47 25.5zM145 78v878q0 37 26 64t62 27q39 0 65 -27t26 -64v-878q0 -39 -26 -64.5t-65 -25.5q-37 0 -62.5 25.5 t-25.5 64.5z" />
<glyph unicode="&#xef;" horiz-adv-x="468" d="M-113 1415q0 51 36 87t87 36t88 -36t37 -87t-37 -88t-88 -37t-87 37t-36 88zM145 78v878q0 37 26 64t62 27q39 0 65 -27t26 -64v-878q0 -39 -26 -64.5t-65 -25.5q-37 0 -62.5 25.5t-25.5 64.5zM336 1415q0 51 37 87t88 36t87 -36t36 -87t-36 -88t-87 -37t-88 37t-37 88z " />
<glyph unicode="&#xf0;" horiz-adv-x="1130" d="M102 457q0 207 136.5 323.5t310.5 116.5q115 0 217 -57q-74 176 -223 329l-162 -120q-23 -16 -51.5 -13.5t-44.5 25.5q-18 23 -14.5 52.5t26.5 45.5l143 107q-43 41 -92 73q-39 31 -39 72q0 39 26.5 65.5t63.5 26.5q29 0 54 -18q80 -59 135 -107l151 113q23 16 51.5 13 t45.5 -25q18 -23 14 -52.5t-27 -46.5l-133 -100q340 -356 340 -788q0 -246 -134 -378t-335 -132q-205 0 -332 131t-127 344zM283 457q0 -139 74.5 -223t203.5 -84q127 0 208 84.5t81 257.5q0 70 -14 159q-111 90 -265 90q-113 0 -200.5 -76.5t-87.5 -207.5z" />
<glyph unicode="&#xf1;" horiz-adv-x="1118" d="M76 956q0 78 88 78q57 0 110 -43q29 -29 45 -67q113 123 320 123q336 0 336 -375v-594q0 -39 -25.5 -64.5t-64.5 -25.5q-37 0 -62.5 25.5t-25.5 64.5v577q0 109 -42 165.5t-153 56.5q-174 0 -248 -129v-670q0 -39 -26.5 -64.5t-63.5 -25.5t-63.5 26.5t-26.5 63.5v690 q0 57 -14.5 84t-49 45t-34.5 59zM231 1395q-2 61 57.5 102t137.5 43q63 2 144 -40t124 -42q45 0 80 31t60 31q29 0 49 -23.5t20 -56.5q2 -61 -57.5 -102.5t-136.5 -43.5q-63 -2 -144.5 40t-124.5 42q-45 -2 -80.5 -31.5t-58.5 -29.5q-29 0 -49.5 23.5t-20.5 56.5z" />
<glyph unicode="&#xf2;" horiz-adv-x="1046" d="M111 412v211q0 188 102 306t309 118q209 0 311.5 -118t102.5 -306v-211q0 -188 -102.5 -306t-311.5 -118q-207 0 -309 118t-102 306zM291 412q0 -260 231 -260q233 0 234 260v211q0 258 -234 258q-231 0 -231 -258v-211zM381 1587q8 31 39 49q37 16 65.5 5t42.5 -39 l154 -283q14 -29 5 -54.5t-36 -37.5q-57 -31 -94 30l-168 275q-16 24 -8 55z" />
<glyph unicode="&#xf3;" horiz-adv-x="1046" d="M111 412v211q0 188 102 306t309 118q209 0 311.5 -118t102.5 -306v-211q0 -188 -102.5 -306t-311.5 -118q-207 0 -309 118t-102 306zM291 412q0 -260 231 -260q233 0 234 260v211q0 258 -234 258q-231 0 -231 -258v-211zM361.5 1264.5q-9.5 25.5 5.5 54.5l153 283 q14 29 43 40t66 -6q31 -18 39 -49t-9 -55l-167 -275q-37 -61 -95 -30q-26 12 -35.5 37.5z" />
<glyph unicode="&#xf4;" horiz-adv-x="1046" d="M111 412v211q0 188 102 306t309 118q209 0 311.5 -118t102.5 -306v-211q0 -188 -102.5 -306t-311.5 -118q-207 0 -309 118t-102 306zM207 1270q-45 53 8 102l250 240q18 23 55 22q33 0 55 -22l250 -242q53 -49 9 -102q-18 -23 -47 -25t-54 19l-213 192l-213 -192 q-25 -20 -53.5 -17.5t-46.5 25.5zM291 412q0 -260 231 -260q233 0 234 260v211q0 258 -234 258q-231 0 -231 -258v-211z" />
<glyph unicode="&#xf5;" horiz-adv-x="1046" d="M111 412v211q0 188 102 306t309 118q209 0 311.5 -118t102.5 -306v-211q0 -188 -102.5 -306t-311.5 -118q-207 0 -309 118t-102 306zM188 1395q-2 61 57.5 102t137.5 43q63 2 144 -40t124 -42q45 0 80 31t60 31q29 0 49 -23.5t20 -56.5q2 -61 -57.5 -102.5t-136.5 -43.5 q-63 -2 -144.5 40t-124.5 42q-45 -2 -80.5 -31.5t-58.5 -29.5q-29 0 -49.5 23.5t-20.5 56.5zM291 412q0 -260 231 -260q233 0 234 260v211q0 258 -234 258q-231 0 -231 -258v-211z" />
<glyph unicode="&#xf6;" horiz-adv-x="1046" d="M111 412v211q0 188 102 306t309 118q209 0 311.5 -118t102.5 -306v-211q0 -188 -102.5 -306t-311.5 -118q-207 0 -309 118t-102 306zM170 1415q0 51 36 87t87 36t88 -36t37 -87t-37 -88t-88 -37t-87 37t-36 88zM291 412q0 -260 231 -260q233 0 234 260v211 q0 258 -234 258q-231 0 -231 -258v-211zM618 1415q0 51 37 87t88.5 36t87 -36t35.5 -87t-35.5 -88t-87 -37t-88.5 37t-37 88z" />
<glyph unicode="&#xf7;" horiz-adv-x="1189" d="M176 569.5q0 34.5 24.5 59t59.5 24.5h670q35 0 59.5 -24.5t24.5 -59.5q0 -33 -25.5 -58.5t-58.5 -25.5h-670q-35 0 -59.5 25t-24.5 59.5zM475 197q0 49 35 83.5t84 34.5q51 0 86 -34.5t35 -83.5q0 -51 -35 -86t-86 -35q-49 0 -84 35t-35 86zM475 944q0 49 35 84t84 35 q51 0 86 -35t35 -84q0 -51 -35 -86t-86 -35q-49 0 -84 35t-35 86z" />
<glyph unicode="&#xf8;" horiz-adv-x="1046" d="M111 412v211q0 188 102 306t309 118q100 0 168 -27l35 76q8 18 27.5 25t40 -1t27.5 -27.5t-1 -39.5l-37 -80q154 -109 154 -350v-211q0 -188 -102.5 -306t-311.5 -118q-96 0 -168 26l-32 -75q-8 -18 -28 -25.5t-40.5 0.5t-27.5 27.5t1 40.5l37 79q-153 109 -153 351z M291 412q0 -117 47 -183l285 637q-41 14 -101 15q-231 0 -231 -258v-211zM424 168q45 -16 98 -16q233 0 234 260v211q0 119 -49 180z" />
<glyph unicode="&#xf9;" horiz-adv-x="1120" d="M145 360v596q0 37 26 64t65 27q37 0 62.5 -27t25.5 -64v-579q0 -109 42 -164t152 -55q178 0 248 137v661q0 37 26.5 64t63.5 27t63.5 -27t26.5 -64v-702q0 -59 14.5 -85t49 -44.5t34.5 -58.5q0 -78 -88 -78q-57 0 -110 43q-29 25 -49 75q-115 -119 -318 -118 q-334 -1 -334 372zM387 1587q8 31 39 49q37 16 65.5 5t43.5 -39l153 -283q14 -29 5 -54.5t-36 -37.5q-57 -31 -94 30l-168 275q-16 24 -8 55z" />
<glyph unicode="&#xfa;" horiz-adv-x="1120" d="M145 360v596q0 37 26 64t65 27q37 0 62.5 -27t25.5 -64v-579q0 -109 42 -164t152 -55q178 0 248 137v661q0 37 26.5 64t63.5 27t63.5 -27t26.5 -64v-702q0 -59 14.5 -85t49 -44.5t34.5 -58.5q0 -78 -88 -78q-57 0 -110 43q-29 25 -49 75q-115 -119 -318 -118 q-334 -1 -334 372zM390 1264.5q-9 25.5 5 54.5l154 283q14 29 43 40t65 -6q31 -18 39.5 -49t-8.5 -55l-168 -275q-37 -61 -94 -30q-27 12 -36 37.5z" />
<glyph unicode="&#xfb;" horiz-adv-x="1120" d="M145 360v596q0 37 26 64t65 27q37 0 62.5 -27t25.5 -64v-579q0 -109 42 -164t152 -55q178 0 248 137v661q0 37 26.5 64t63.5 27t63.5 -27t26.5 -64v-702q0 -59 14.5 -85t49 -44.5t34.5 -58.5q0 -78 -88 -78q-57 0 -110 43q-29 25 -49 75q-115 -119 -318 -118 q-334 -1 -334 372zM231 1270q-45 53 9 102l249 240q18 23 56 22q33 0 55 -22l250 -242q53 -49 8 -102q-18 -23 -47 -25t-53 19l-213 192l-213 -192q-25 -20 -54 -17.5t-47 25.5z" />
<glyph unicode="&#xfc;" horiz-adv-x="1120" d="M145 360v596q0 37 26 64t65 27q37 0 62.5 -27t25.5 -64v-579q0 -109 42 -164t152 -55q178 0 248 137v661q0 37 26.5 64t63.5 27t63.5 -27t26.5 -64v-702q0 -59 14.5 -85t49 -44.5t34.5 -58.5q0 -78 -88 -78q-57 0 -110 43q-29 25 -49 75q-115 -119 -318 -118 q-334 -1 -334 372zM199 1415q0 51 35.5 87t87 36t88 -36t36.5 -87t-36.5 -88t-88 -37t-87 37t-35.5 88zM647 1415q0 51 37 87t88 36t87 -36t36 -87t-36 -88t-87 -37t-88 37t-37 88z" />
<glyph unicode="&#xfd;" horiz-adv-x="935" d="M6 -287q0 33 21.5 58.5t62.5 27.5q90 4 158.5 49.5t130.5 159.5q-231 573 -342 928q-14 47 14.5 79t71.5 32q57 0 78 -62q106 -334 266 -752l254 754q20 59 82 60q45 0 73.5 -35t10.5 -84l-277 -785q-94 -266 -208.5 -388t-297.5 -130q-45 -2 -71.5 24.5t-26.5 63.5z M339 1264.5q-9 25.5 5 54.5l154 283q14 29 42.5 40t65.5 -6q31 -18 39 -49t-8 -55l-168 -275q-37 -61 -94 -30q-27 12 -36 37.5z" />
<glyph unicode="&#xfe;" horiz-adv-x="1034" d="M133 -289v1714q0 37 25.5 64t62.5 27q39 0 64.5 -27t25.5 -64v-450q113 70 234 69q379 0 379 -413v-187q0 -459 -369 -458q-135 0 -244 80v-355q0 -37 -25.5 -62.5t-64.5 -25.5q-37 0 -62.5 25.5t-25.5 62.5zM311 236q92 -94 213 -95q219 0 219 277v221q0 127 -51 188.5 t-172 61.5q-109 0 -209 -86v-567z" />
<glyph unicode="&#xff;" horiz-adv-x="927" d="M6 -287q0 33 21.5 58.5t62.5 27.5q90 4 158.5 49.5t130.5 159.5q-231 573 -342 928q-14 47 14.5 79t71.5 32q57 0 78 -62q106 -334 266 -752l254 754q20 59 82 60q45 0 73.5 -35t10.5 -84l-277 -785q-94 -266 -208.5 -388t-297.5 -130q-45 -2 -71.5 24.5t-26.5 63.5z M115 1415q0 51 35.5 87t87 36t88 -36t36.5 -87t-35.5 -88t-88.5 -37q-51 0 -87 37t-36 88zM563 1415q0 51 37 87t88 36t87 -36t36 -87t-36 -88t-87 -37q-53 0 -89 37t-36 88z" />
<glyph unicode="&#x152;" horiz-adv-x="1941" d="M137 537v421q0 111 26.5 205t84 175t160 127t241.5 46q197 0 328 -100q2 33 26.5 57.5t59.5 24.5h684q37 0 62.5 -26.5t25.5 -61.5q0 -37 -25.5 -62.5t-62.5 -25.5h-588v-486h535q35 0 60.5 -25.5t25.5 -60t-25.5 -60.5t-60.5 -26h-535v-483h619q35 0 60.5 -25.5 t25.5 -62.5t-26 -62.5t-60 -25.5h-715q-35 0 -59.5 24.5t-26.5 57.5q-131 -100 -328 -100q-139 0 -241.5 46t-160 127t-84 176t-26.5 206zM322 537q0 -387 327.5 -387t327.5 387v421q0 383 -327.5 383t-327.5 -383v-421z" />
<glyph unicode="&#x153;" horiz-adv-x="1654" d="M111 412v211q0 188 102 306t309 118q225 0 324 -154q98 154 313 154q211 0 306.5 -120t95.5 -311v-84q0 -31 -19.5 -50t-48.5 -19h-559v-55q0 -266 231 -267q145 0 256 58q29 14 57.5 1.5t39.5 -42.5q23 -63 -35 -97q-141 -74 -324 -73q-217 0 -315 151 q-98 -152 -322 -151q-207 0 -309 118t-102 306zM291 412q0 -260 231 -260q233 0 234 260v211q0 258 -234 258q-231 0 -231 -258v-211zM934 604h452v35q0 260 -225 260q-227 0 -227 -260v-35z" />
<glyph unicode="&#x178;" horiz-adv-x="1030" d="M-8 1421q0 39 28.5 64.5t67.5 25.5q57 0 80 -55q154 -348 340 -702q197 367 342 702q23 55 80 55q35 0 63.5 -25.5t28.5 -62.5q0 -20 -8 -37q-170 -389 -416 -839v-473q0 -39 -26.5 -65.5t-65.5 -26.5t-65.5 26.5t-26.5 65.5v473q-248 459 -412 835q-10 25 -10 39z M150 1825q0 51 35.5 88t87 37t88 -37t36.5 -88t-36.5 -88t-88 -37t-87 37t-35.5 88zM598 1825q0 51 37 88t88 37t87 -37t36 -88t-36 -88t-87 -37t-88 37t-37 88z" />
<glyph unicode="&#x2c6;" horiz-adv-x="1085" d="M229 1270q-45 53 9 102l249 240q18 23 56 22q33 0 55 -22l250 -242q53 -49 8 -102q-18 -23 -47 -25t-53 19l-213 192l-213 -192q-25 -20 -54 -17.5t-47 25.5z" />
<glyph unicode="&#x2dc;" horiz-adv-x="1085" d="M207 1395q-2 61 57.5 102t136.5 43q63 2 144.5 -40t124.5 -42q45 0 79.5 31t59.5 31q29 0 49.5 -23.5t20.5 -56.5q2 -61 -57.5 -102.5t-137.5 -43.5q-63 -2 -144 40t-124 42q-45 -2 -81 -31.5t-59 -29.5q-29 0 -49 23.5t-20 56.5z" />
<glyph unicode="&#x3bc;" horiz-adv-x="1120" d="M145 -315v1271q0 37 26 64t65 27q37 0 62.5 -27t25.5 -64v-579q0 -109 42 -164t152 -55q178 0 248 137v661q0 37 26.5 64t63.5 27t63.5 -27t26.5 -64v-702q0 -59 14.5 -85t49 -44.5t34.5 -58.5q0 -78 -88 -78q-57 0 -110 43q-29 25 -49 75q-115 -119 -318 -118 q-86 0 -155 26v-329q0 -37 -26 -64t-62 -27q-39 0 -65 27t-26 64z" />
<glyph unicode="&#x2000;" horiz-adv-x="1032" />
<glyph unicode="&#x2001;" horiz-adv-x="2064" />
<glyph unicode="&#x2002;" horiz-adv-x="1032" />
<glyph unicode="&#x2003;" horiz-adv-x="2064" />
<glyph unicode="&#x2004;" horiz-adv-x="688" />
<glyph unicode="&#x2005;" horiz-adv-x="516" />
<glyph unicode="&#x2006;" horiz-adv-x="344" />
<glyph unicode="&#x2007;" horiz-adv-x="344" />
<glyph unicode="&#x2008;" horiz-adv-x="258" />
<glyph unicode="&#x2009;" horiz-adv-x="411" />
<glyph unicode="&#x200a;" horiz-adv-x="114" />
<glyph unicode="&#x2010;" horiz-adv-x="1003" d="M143 600q0 35 25 59.5t59 24.5h551q35 0 58.5 -24.5t23.5 -59.5t-24.5 -59.5t-57.5 -24.5h-551q-35 0 -59.5 24.5t-24.5 59.5z" />
<glyph unicode="&#x2011;" horiz-adv-x="1003" d="M143 600q0 35 25 59.5t59 24.5h551q35 0 58.5 -24.5t23.5 -59.5t-24.5 -59.5t-57.5 -24.5h-551q-35 0 -59.5 24.5t-24.5 59.5z" />
<glyph unicode="&#x2012;" horiz-adv-x="1003" d="M143 600q0 35 25 59.5t59 24.5h551q35 0 58.5 -24.5t23.5 -59.5t-24.5 -59.5t-57.5 -24.5h-551q-35 0 -59.5 24.5t-24.5 59.5z" />
<glyph unicode="&#x2013;" horiz-adv-x="798" d="M-25 567q0 35 25 59.5t59 24.5h680q35 0 59.5 -24.5t24.5 -59.5t-24.5 -59.5t-59.5 -24.5h-680q-35 0 -59.5 24.5t-24.5 59.5z" />
<glyph unicode="&#x2014;" horiz-adv-x="1562" d="M-25 567q0 35 25 59.5t59 24.5h1444q35 0 59.5 -24.5t24.5 -59.5t-24.5 -59.5t-59.5 -24.5h-1444q-35 0 -59.5 24.5t-24.5 59.5z" />
<glyph unicode="&#x2018;" horiz-adv-x="421" d="M90 1239q-2 113 73 195t122 82q16 0 29.5 -12.5t13.5 -31t-39 -54.5t-47 -87q39 -10 64.5 -42t25.5 -72q2 -49 -34 -84t-85 -35q-53 0 -88 39t-35 102z" />
<glyph unicode="&#x2019;" horiz-adv-x="421" d="M90 1397q0 51 35 85t84 34q55 0 89 -39t34 -103q2 -113 -72 -194.5t-121 -81.5q-16 0 -29.5 12t-13.5 31q0 20 39 55t47 86q-41 10 -66.5 42t-25.5 73z" />
<glyph unicode="&#x201a;" horiz-adv-x="421" d="M90 104q0 49 36 83t85 34q53 0 87 -39t34 -102q0 -113 -74 -194t-121 -81q-18 0 -30.5 11.5t-12.5 30t18.5 34t41 42t28.5 67.5q-41 10 -66.5 41.5t-25.5 72.5z" />
<glyph unicode="&#x201c;" horiz-adv-x="776" d="M90 1239q-2 113 73 195t122 82q16 0 29.5 -12.5t13.5 -31t-39 -54.5t-47 -87q39 -10 64.5 -42t25.5 -72q2 -49 -34 -84t-85 -35q-53 0 -88 39t-35 102zM442 1239q-2 113 73 195t122 82q16 0 29.5 -12.5t13.5 -30.5q0 -20 -39 -55.5t-47 -86.5q41 -10 66.5 -42t25.5 -72 q0 -51 -35 -85t-84 -34q-55 0 -90 39t-35 102z" />
<glyph unicode="&#x201d;" horiz-adv-x="776" d="M90 1397q0 51 35 85t84 34q55 0 89 -39t34 -103q2 -113 -72 -194.5t-121 -81.5q-16 0 -29.5 12t-13.5 31q0 20 39 55t47 86q-41 10 -66.5 42t-25.5 73zM442 1397q-2 49 35 84t86 35q53 0 88 -39t35 -103q2 -113 -72.5 -194.5t-121.5 -81.5q-16 0 -29.5 12t-13.5 30.5 t38.5 54.5t47.5 87q-39 10 -66 42t-27 73z" />
<glyph unicode="&#x201e;" horiz-adv-x="774" d="M90 104q0 49 36 83t85 34q53 0 87 -39t34 -102q0 -113 -74 -194t-121 -81q-18 0 -30.5 11.5t-12.5 30t18.5 34t41 42t28.5 67.5q-41 10 -66.5 41.5t-25.5 72.5zM442 104q0 49 35 83t84 34q55 0 89 -39t34 -102q0 -113 -74.5 -194t-122.5 -81q-18 0 -30.5 11.5t-12.5 30 t18.5 34t41 42t28.5 67.5q-39 8 -64.5 40.5t-25.5 73.5z" />
<glyph unicode="&#x2022;" horiz-adv-x="1021" d="M113 686q0 145 103 248.5t248.5 103.5t249 -103.5t103.5 -248.5t-103.5 -248.5t-249 -103.5t-248.5 103.5t-103 248.5z" />
<glyph unicode="&#x2026;" horiz-adv-x="1490" d="M123 102q0 49 35 84t86 35q49 0 83.5 -34.5t34.5 -84.5q0 -51 -34.5 -85.5t-83.5 -34.5q-51 0 -86 34.5t-35 85.5zM618 102q0 49 36 84t85 35t85 -34.5t36 -84.5q0 -51 -36 -85.5t-85 -34.5t-85 34.5t-36 85.5zM1116 102q0 49 35 84t84 35q51 0 86 -34.5t35 -84.5 q0 -51 -35 -85.5t-86 -34.5q-49 0 -84 34.5t-35 85.5z" />
<glyph unicode="&#x202f;" horiz-adv-x="411" />
<glyph unicode="&#x2039;" horiz-adv-x="718" d="M68 557q0 33 24 57l385 398q25 27 58.5 27.5t60.5 -23.5q25 -23 25 -58.5t-23 -60.5l-330 -340l330 -340q23 -25 23 -60.5t-25 -58.5q-27 -25 -60.5 -23.5t-58.5 25.5l-385 400q-24 28 -24 57z" />
<glyph unicode="&#x203a;" horiz-adv-x="718" d="M97 158q-1 35 24 59l330 340l-330 340q-25 25 -24 59.5t26 59.5q25 23 59.5 22.5t59.5 -26.5l385 -398q25 -29 24 -57q0 -33 -24 -57l-385 -400q-25 -25 -60 -24.5t-59 22.5q-25 25 -26 60z" />
<glyph unicode="&#x205f;" horiz-adv-x="516" />
<glyph unicode="&#x2122;" horiz-adv-x="1687" d="M61 1400.5q0 24.5 17.5 43t44.5 18.5h559q25 0 42 -18.5t17 -43t-17 -42t-42 -17.5h-219v-716q0 -27 -17.5 -44.5t-44 -17.5t-44 17.5t-17.5 44.5v716h-217q-27 0 -44.5 17.5t-17.5 42zM809 621v794q0 25 16.5 41.5t42.5 16.5q43 0 62 -37l258 -543l260 545q18 35 57 35 q27 0 43.5 -17.5t16.5 -42.5v-792q0 -23 -16.5 -40.5t-41 -17.5t-42 17.5t-17.5 40.5v565l-205 -436q-18 -37 -57 -37q-41 0 -58 37l-204 436v-565q0 -23 -16.5 -40.5t-41 -17.5t-41 17.5t-16.5 40.5z" />
<glyph unicode="&#xe000;" horiz-adv-x="1045" d="M0 1045h1045v-1045h-1045v1045z" />
<glyph unicode="&#xfb01;" horiz-adv-x="1001" d="M33 958.5q0 32.5 21.5 55t54.5 22.5h57v80q0 176 67.5 276.5t237.5 100.5h55q35 0 58.5 -23.5t23.5 -56.5t-23.5 -57.5t-58.5 -24.5h-26q-92 0 -123 -48t-31 -179v-68h129q31 0 53.5 -22.5t22.5 -55t-22.5 -55t-53.5 -22.5h-129v-803q0 -37 -26.5 -63.5t-63.5 -26.5 t-63.5 26.5t-26.5 63.5v803h-57q-33 0 -54.5 22.5t-21.5 55zM662 1378q0 43 30.5 74t73.5 31q45 0 75.5 -31t30.5 -74q0 -45 -30.5 -75.5t-75.5 -30.5q-43 0 -73.5 30.5t-30.5 75.5zM674 78v880q0 37 25.5 64t62.5 27q39 0 64.5 -27t25.5 -64v-880q0 -37 -25.5 -63.5 t-64.5 -26.5q-37 0 -62.5 26.5t-25.5 63.5z" />
<glyph unicode="&#xfb02;" horiz-adv-x="1015" d="M33 958.5q0 32.5 21.5 55t54.5 22.5h57v80q0 176 67.5 276.5t237.5 100.5h55q35 0 58.5 -23.5t23.5 -56.5t-23.5 -57.5t-58.5 -24.5h-26q-92 0 -123 -48t-31 -179v-68h129q31 0 53.5 -22.5t22.5 -55t-22.5 -55t-53.5 -22.5h-129v-803q0 -37 -26.5 -63.5t-63.5 -26.5 t-63.5 26.5t-26.5 63.5v803h-57q-33 0 -54.5 22.5t-21.5 55zM662 223v1172q0 37 26.5 63.5t63 26.5t63.5 -26.5t27 -63.5v-1141q0 -57 15 -83t48 -44q35 -18 35 -59q0 -80 -88 -80q-59 0 -111 45q-79 67 -79 190z" />
<glyph unicode="&#xfb03;" horiz-adv-x="1759" d="M1419 1372q0 43 30.5 74t73.5 31q45 0 76 -31t31 -74t-30.5 -73.5t-76.5 -30.5q-43 0 -73.5 30.5t-30.5 73.5zM1435 78v878q0 37 26 64t62 27q39 0 65 -27t26 -64v-878q0 -39 -26 -64.5t-65 -25.5q-37 0 -62.5 25.5t-25.5 64.5zM678 956q0 33 21.5 55.5t54.5 22.5h57v49 q0 201 85 305.5t286 104.5h75q33 0 56.5 -23.5t23.5 -56.5q0 -35 -23.5 -58.5t-56.5 -23.5h-57q-123 0 -166 -55t-43 -193v-49h170q33 0 55.5 -22.5t22.5 -55.5q0 -31 -22.5 -53t-55.5 -22h-170v-803q0 -39 -26.5 -64.5t-63.5 -25.5t-63.5 25.5t-26.5 64.5v803h-57 q-33 0 -54.5 22t-21.5 53zM33 956q0 33 21.5 55.5t54.5 22.5h57v49q0 201 85 305.5t286 104.5h75q33 0 56.5 -23.5t23.5 -56.5q0 -35 -23.5 -58.5t-56.5 -23.5h-57q-123 0 -166 -55t-43 -193v-49h170q33 0 55.5 -22.5t22.5 -55.5q0 -31 -22.5 -53t-55.5 -22h-170v-803 q0 -39 -26.5 -64.5t-63.5 -25.5t-63.5 25.5t-26.5 64.5v803h-57q-33 0 -54.5 22t-21.5 53z" />
<glyph unicode="&#xfb04;" horiz-adv-x="1781" d="M1427 221v1174q0 37 26.5 62.5t63.5 25.5t63.5 -25.5t26.5 -62.5v-1141q0 -59 14.5 -85t49.5 -44.5t35 -58.5q0 -78 -88 -78q-57 0 -111 43q-80 67 -80 190zM678 956q0 33 21.5 55.5t54.5 22.5h57v49q0 201 85 305.5t286 104.5h75q33 0 56.5 -23.5t23.5 -56.5 q0 -35 -23.5 -58.5t-56.5 -23.5h-57q-123 0 -166 -55t-43 -193v-49h170q33 0 55.5 -22.5t22.5 -55.5q0 -31 -22.5 -53t-55.5 -22h-170v-803q0 -39 -26.5 -64.5t-63.5 -25.5t-63.5 25.5t-26.5 64.5v803h-57q-33 0 -54.5 22t-21.5 53zM33 956q0 33 21.5 55.5t54.5 22.5h57v49 q0 201 85 305.5t286 104.5h75q33 0 56.5 -23.5t23.5 -56.5q0 -35 -23.5 -58.5t-56.5 -23.5h-57q-123 0 -166 -55t-43 -193v-49h170q33 0 55.5 -22.5t22.5 -55.5q0 -31 -22.5 -53t-55.5 -22h-170v-803q0 -39 -26.5 -64.5t-63.5 -25.5t-63.5 25.5t-26.5 64.5v803h-57 q-33 0 -54.5 22t-21.5 53z" />
<glyph horiz-adv-x="1024" />
</font>
</defs>
</svg>
